<svg width="60" height="61" viewBox="0 0 60 61" fill="none" xmlns="http://www.w3.org/2000/svg">
<rect x="1" y="1.5" width="58" height="58" rx="11" stroke="url(#paint0_linear_32_1466)" stroke-width="2"/>
<path fill-rule="evenodd" clip-rule="evenodd" d="M38.8711 30.8005C38.8711 31.1555 38.5833 31.4433 38.2282 31.4433L22.7991 31.4433C22.444 31.4433 22.1562 31.1555 22.1562 30.8005C22.1562 30.4454 22.444 30.1576 22.7991 30.1576L38.2282 30.1576C38.5833 30.1576 38.8711 30.4454 38.8711 30.8005Z" fill="white"/>
<path fill-rule="evenodd" clip-rule="evenodd" d="M26.6398 36.4372C26.367 36.6645 25.9617 36.6276 25.7344 36.3549L21.6771 31.4864C21.346 31.089 21.346 30.5119 21.6771 30.1145L25.7344 25.246C25.9617 24.9733 26.367 24.9364 26.6398 25.1637C26.9125 25.391 26.9494 25.7964 26.7221 26.0691L22.7792 30.8005L26.7221 35.5318C26.9494 35.8045 26.9125 36.2099 26.6398 36.4372Z" fill="white"/>
<defs>
<linearGradient id="paint0_linear_32_1466" x1="0" y1="30.5" x2="60" y2="30.5" gradientUnits="userSpaceOnUse">
<stop stop-color="#616F93"/>
<stop offset="1" stop-color="#616F93" stop-opacity="0"/>
</linearGradient>
</defs>
</svg>
