<svg xmlns="http://www.w3.org/2000/svg" viewBox="0 0 21 21">
  <g clip-path="url(#a)">
    <path d="m4.37 17.13 1.16 1.16 1.89-1.9-1.16-1.15-1.9 1.89Z" />
    <path
      d="M4.12 16.3a2.24 2.24 0 1 0 .01 4.47 2.24 2.24 0 0 0-.01-4.47Zm0 3.08a.84.84 0 1 1 0-1.68.84.84 0 0 1 0 1.68ZM14.87 15.77c.34-.27.75-.45 1.18-.53a7.28 7.28 0 0 0-2.43-3.4 3.33 3.33 0 1 0-5.39-.01 7.2 7.2 0 0 0-2.59 3.98h.23c.36-.01.71.06 1.03.2a7.16 7.16 0 0 1 2.17-3.34 3.3 3.3 0 0 0 3.71 0 7.2 7.2 0 0 1 2.1 3.1Zm-3.95-3.8a2.09 2.09 0 1 1 0-4.17 2.09 2.09 0 0 1 0 4.18Z" />
    <path
      d="M10.92 3.26a7.56 7.56 0 1 0-.01 15.12 7.56 7.56 0 0 0 .01-15.12Zm0 13.48a5.92 5.92 0 1 1-.01-11.84 5.92 5.92 0 0 1 .01 11.84Z" />
    <path d="m6.26 6.31 1.16-1.16L5.4 3.12 4.23 4.28l2.03 2.03Z" />
    <path
      d="M4.12.77a2.24 2.24 0 1 0 0 4.49 2.24 2.24 0 0 0 0-4.49Zm0 3.08a.84.84 0 1 1 0-1.68.84.84 0 0 1 0 1.68ZM17.44 4.45 16.27 3.3l-1.85 1.86 1.16 1.16 1.86-1.86Z" />
    <path
      d="M17.72.77a2.24 2.24 0 1 0-.02 4.49 2.24 2.24 0 0 0 .02-4.49Zm0 3.08a.84.84 0 1 1 0-1.68.84.84 0 0 1 0 1.68Z" />
  </g>
  <defs>
    <clipPath id="a">
      <path fill="#fff" d="M0 0h20v20H0z" transform="translate(.77 .77)" />
    </clipPath>
  </defs>
</svg>