<svg xmlns="http://www.w3.org/2000/svg" viewBox="0 0 18 19">
  <path d="M14.79 2.63A8.02 8.02 0 0 0 1.12 7.8H.4a.21.21 0 0 0-.16.35l1.97 2.25a.21.21 0 0 0 .24.06.21.21 0 0 0 .08-.06l1.96-2.25a.21.21 0 0 0-.15-.35h-.69a5.48 5.48 0 1 1 4.15 5.82 1.27 1.27 0 1 0-.6 2.46 8.05 8.05 0 0 0 9.32-4.72 8.02 8.02 0 0 0-1.73-8.73Z"/>
  <path fill="#fff" stroke="#000" stroke-width=".75" d="M8.19 12.02a1.76 1.76 0 0 0-1.7-1.83.92.92 0 0 0-1.84.04 2.22 2.22 0 0 0 .43 4.4H6a.39.39 0 0 1 .39.38v.06a.39.39 0 0 1-.39.38H4.71a.92.92 0 0 0-.9-.91H3.8a.92.92 0 0 0-.92.9v.05a1.76 1.76 0 0 0 1.76 1.8h.01a.92.92 0 0 0 1.84-.05 2.22 2.22 0 0 0 1.73-2.17V15A2.22 2.22 0 0 0 6 12.8v.38-.38h-.92a.38.38 0 1 1 0-.77h1.27a.92.92 0 0 0 1.84 0Zm-1.84-.08Z"/>
</svg>