<svg width="300" height="70" viewBox="0 0 300 70" fill="none" xmlns="http://www.w3.org/2000/svg">
<rect width="300" height="70" rx="12" fill="url(#paint0_linear_121_2)"/>
<rect width="300" height="70" rx="12" fill="url(#paint1_linear_121_2)"/>
<path d="M80.1698 32.6027L85.9999 26.7781L91.83 32.6027L95.2273 29.2219L86.0109 20L76.7835 29.2219L80.1698 32.6137V32.6027ZM70.9972 35.0082L74.3889 31.6164L77.7807 35.0082L74.4054 38.3836L70.9972 35.0082ZM80.1698 37.4027L85.9999 43.2274L91.83 37.3863L95.2218 40.7781L86.0054 50L76.7835 40.7836L80.1807 37.3973L80.1698 37.4027ZM94.2246 35.0027L97.6163 31.6109L101.003 35.0027L97.6163 38.3945L94.2246 35.0027Z" fill="url(#paint2_linear_121_2)"/>
<path d="M89.438 34.9972L85.9969 31.5562L83.4544 34.0986L83.1585 34.389L82.5613 34.9918L85.9969 38.4274L89.438 34.9863" fill="url(#paint3_linear_121_2)"/>
<path d="M114.777 34.822L118.568 40.5H120.982L116.953 34.822H114.777ZM112.329 28.6V40.5H114.335V28.6H112.329ZM113.519 30.334H115.916C116.369 30.334 116.766 30.4133 117.106 30.572C117.457 30.7307 117.729 30.9573 117.922 31.252C118.114 31.5467 118.211 31.9093 118.211 32.34C118.211 32.7593 118.114 33.122 117.922 33.428C117.729 33.7227 117.457 33.9493 117.106 34.108C116.766 34.2667 116.369 34.346 115.916 34.346H113.519V35.995H116.001C116.862 35.995 117.61 35.842 118.245 35.536C118.891 35.23 119.389 34.7993 119.741 34.244C120.092 33.6887 120.268 33.037 120.268 32.289C120.268 31.541 120.092 30.895 119.741 30.351C119.389 29.7957 118.891 29.365 118.245 29.059C117.61 28.753 116.862 28.6 116.001 28.6H113.519V30.334ZM125.686 40.67C126.593 40.67 127.369 40.4943 128.015 40.143C128.661 39.7917 129.188 39.2647 129.596 38.562L128.015 37.916C127.766 38.3353 127.454 38.647 127.08 38.851C126.706 39.055 126.27 39.157 125.771 39.157C125.295 39.157 124.887 39.055 124.547 38.851C124.218 38.647 123.969 38.3523 123.799 37.967C123.629 37.5703 123.544 37.0887 123.544 36.522C123.555 35.9553 123.646 35.4793 123.816 35.094C123.986 34.7087 124.235 34.414 124.564 34.21C124.893 34.006 125.289 33.904 125.754 33.904C126.139 33.904 126.474 33.989 126.757 34.159C127.052 34.329 127.278 34.567 127.437 34.873C127.607 35.179 127.692 35.5417 127.692 35.961C127.692 36.0403 127.669 36.1423 127.624 36.267C127.59 36.3803 127.556 36.471 127.522 36.539L128.083 35.757H122.779V37.015H129.647C129.658 36.9697 129.664 36.896 129.664 36.794C129.675 36.692 129.681 36.5957 129.681 36.505C129.681 35.6663 129.522 34.9523 129.205 34.363C128.899 33.7623 128.457 33.3033 127.879 32.986C127.301 32.6687 126.598 32.51 125.771 32.51C124.944 32.51 124.224 32.68 123.612 33.02C123 33.3487 122.524 33.819 122.184 34.431C121.855 35.043 121.691 35.7627 121.691 36.59C121.691 37.406 121.855 38.12 122.184 38.732C122.513 39.344 122.977 39.82 123.578 40.16C124.19 40.5 124.893 40.67 125.686 40.67ZM130.992 41.027C131.014 41.707 131.184 42.3077 131.502 42.829C131.83 43.3503 132.295 43.7527 132.896 44.036C133.496 44.3307 134.222 44.478 135.072 44.478C135.786 44.478 136.449 44.325 137.061 44.019C137.673 43.7243 138.166 43.271 138.54 42.659C138.925 42.047 139.118 41.2707 139.118 40.33V32.68H137.316V40.33C137.316 40.9193 137.202 41.401 136.976 41.775C136.76 42.149 136.477 42.4267 136.126 42.608C135.774 42.7893 135.406 42.88 135.021 42.88C134.59 42.88 134.21 42.8007 133.882 42.642C133.553 42.4833 133.292 42.2623 133.1 41.979C132.918 41.6957 132.822 41.3783 132.811 41.027H130.992ZM130.839 36.556C130.839 37.406 131.014 38.1313 131.366 38.732C131.717 39.3327 132.182 39.7917 132.76 40.109C133.349 40.4263 133.978 40.585 134.647 40.585C135.304 40.585 135.876 40.4263 136.364 40.109C136.862 39.7803 137.253 39.3157 137.537 38.715C137.831 38.1143 137.979 37.3947 137.979 36.556C137.979 35.706 137.831 34.9807 137.537 34.38C137.253 33.7793 136.862 33.3203 136.364 33.003C135.876 32.6743 135.304 32.51 134.647 32.51C133.978 32.51 133.349 32.6687 132.76 32.986C132.182 33.3033 131.717 33.7623 131.366 34.363C131.014 34.9523 130.839 35.6833 130.839 36.556ZM132.743 36.556C132.743 36.0233 132.85 35.5757 133.066 35.213C133.281 34.8503 133.564 34.5783 133.916 34.397C134.278 34.2043 134.669 34.108 135.089 34.108C135.349 34.108 135.61 34.159 135.871 34.261C136.143 34.363 136.386 34.5217 136.602 34.737C136.817 34.941 136.987 35.196 137.112 35.502C137.248 35.7967 137.316 36.148 137.316 36.556C137.316 37.0773 137.202 37.525 136.976 37.899C136.76 38.2617 136.477 38.5337 136.126 38.715C135.786 38.8963 135.44 38.987 135.089 38.987C134.669 38.987 134.278 38.8963 133.916 38.715C133.564 38.5223 133.281 38.2447 133.066 37.882C132.85 37.5193 132.743 37.0773 132.743 36.556ZM141.326 29.569C141.326 29.875 141.44 30.1413 141.666 30.368C141.904 30.5833 142.176 30.691 142.482 30.691C142.811 30.691 143.083 30.5833 143.298 30.368C143.525 30.1413 143.638 29.875 143.638 29.569C143.638 29.2517 143.525 28.9853 143.298 28.77C143.083 28.5547 142.811 28.447 142.482 28.447C142.176 28.447 141.904 28.5547 141.666 28.77C141.44 28.9853 141.326 29.2517 141.326 29.569ZM141.581 32.68V40.5H143.383V32.68H141.581ZM146.267 37.933L145.196 39.004C145.423 39.2987 145.7 39.582 146.029 39.854C146.369 40.1147 146.76 40.33 147.202 40.5C147.655 40.6587 148.148 40.738 148.681 40.738C149.542 40.738 150.222 40.517 150.721 40.075C151.231 39.6217 151.486 39.0267 151.486 38.29C151.486 37.814 151.373 37.4287 151.146 37.134C150.931 36.8393 150.642 36.59 150.279 36.386C149.916 36.182 149.52 35.995 149.089 35.825C148.772 35.7003 148.483 35.5813 148.222 35.468C147.973 35.3547 147.769 35.23 147.61 35.094C147.463 34.9467 147.389 34.7823 147.389 34.601C147.389 34.3857 147.474 34.2213 147.644 34.108C147.814 33.9947 148.029 33.938 148.29 33.938C148.675 33.938 149.049 34.0343 149.412 34.227C149.775 34.4197 150.086 34.669 150.347 34.975L151.367 33.887C151.152 33.6263 150.891 33.394 150.585 33.19C150.279 32.986 149.933 32.8217 149.548 32.697C149.174 32.5723 148.772 32.51 148.341 32.51C147.865 32.51 147.417 32.5893 146.998 32.748C146.59 32.8953 146.261 33.1277 146.012 33.445C145.774 33.7623 145.655 34.159 145.655 34.635C145.655 35.0997 145.763 35.485 145.978 35.791C146.205 36.097 146.488 36.3463 146.828 36.539C147.179 36.7203 147.531 36.879 147.882 37.015C148.233 37.1397 148.539 37.2643 148.8 37.389C149.061 37.5023 149.265 37.644 149.412 37.814C149.559 37.9727 149.633 38.1653 149.633 38.392C149.633 38.6527 149.537 38.8567 149.344 39.004C149.163 39.1513 148.908 39.225 148.579 39.225C148.318 39.225 148.058 39.1797 147.797 39.089C147.536 38.987 147.276 38.8397 147.015 38.647C146.766 38.443 146.516 38.205 146.267 37.933ZM152.027 32.68V34.295H156.464V32.68H152.027ZM153.336 29.96V40.5H155.155V29.96H153.336ZM161.13 40.67C162.037 40.67 162.813 40.4943 163.459 40.143C164.105 39.7917 164.632 39.2647 165.04 38.562L163.459 37.916C163.21 38.3353 162.898 38.647 162.524 38.851C162.15 39.055 161.714 39.157 161.215 39.157C160.739 39.157 160.331 39.055 159.991 38.851C159.663 38.647 159.413 38.3523 159.243 37.967C159.073 37.5703 158.988 37.0887 158.988 36.522C159 35.9553 159.09 35.4793 159.26 35.094C159.43 34.7087 159.68 34.414 160.008 34.21C160.337 34.006 160.734 33.904 161.198 33.904C161.584 33.904 161.918 33.989 162.201 34.159C162.496 34.329 162.723 34.567 162.881 34.873C163.051 35.179 163.136 35.5417 163.136 35.961C163.136 36.0403 163.114 36.1423 163.068 36.267C163.034 36.3803 163 36.471 162.966 36.539L163.527 35.757H158.223V37.015H165.091C165.103 36.9697 165.108 36.896 165.108 36.794C165.12 36.692 165.125 36.5957 165.125 36.505C165.125 35.6663 164.967 34.9523 164.649 34.363C164.343 33.7623 163.901 33.3033 163.323 32.986C162.745 32.6687 162.043 32.51 161.215 32.51C160.388 32.51 159.668 32.68 159.056 33.02C158.444 33.3487 157.968 33.819 157.628 34.431C157.3 35.043 157.135 35.7627 157.135 36.59C157.135 37.406 157.3 38.12 157.628 38.732C157.957 39.344 158.422 39.82 159.022 40.16C159.634 40.5 160.337 40.67 161.13 40.67ZM168.697 32.68H166.878V40.5H168.697V32.68ZM171.026 34.635L171.91 33.088C171.74 32.8727 171.53 32.7253 171.281 32.646C171.032 32.5553 170.765 32.51 170.482 32.51C170.085 32.51 169.7 32.6517 169.326 32.935C168.963 33.2183 168.663 33.6037 168.425 34.091C168.198 34.567 168.085 35.1167 168.085 35.74L168.697 36.097C168.697 35.723 168.737 35.4 168.816 35.128C168.907 34.8447 169.048 34.6237 169.241 34.465C169.434 34.3063 169.683 34.227 169.989 34.227C170.216 34.227 170.403 34.261 170.55 34.329C170.697 34.397 170.856 34.499 171.026 34.635ZM177.179 32.68V34.295H181.616V32.68H177.179ZM178.488 29.96V40.5H180.307V29.96H178.488ZM182.287 36.59C182.287 37.3833 182.468 38.0917 182.831 38.715C183.205 39.327 183.709 39.8087 184.344 40.16C184.978 40.5 185.698 40.67 186.503 40.67C187.307 40.67 188.021 40.5 188.645 40.16C189.279 39.8087 189.784 39.327 190.158 38.715C190.532 38.0917 190.719 37.3833 190.719 36.59C190.719 35.7853 190.532 35.077 190.158 34.465C189.784 33.853 189.279 33.377 188.645 33.037C188.021 32.6857 187.307 32.51 186.503 32.51C185.698 32.51 184.978 32.6857 184.344 33.037C183.709 33.377 183.205 33.853 182.831 34.465C182.468 35.077 182.287 35.7853 182.287 36.59ZM184.174 36.59C184.174 36.1027 184.276 35.672 184.48 35.298C184.684 34.924 184.961 34.635 185.313 34.431C185.664 34.227 186.061 34.125 186.503 34.125C186.933 34.125 187.324 34.227 187.676 34.431C188.038 34.635 188.322 34.924 188.526 35.298C188.73 35.672 188.832 36.1027 188.832 36.59C188.832 37.0773 188.73 37.508 188.526 37.882C188.322 38.2447 188.038 38.5337 187.676 38.749C187.324 38.953 186.933 39.055 186.503 39.055C186.061 39.055 185.664 38.953 185.313 38.749C184.961 38.5337 184.684 38.2447 184.48 37.882C184.276 37.508 184.174 37.0773 184.174 36.59ZM199.241 34.363H201.298C202.046 34.363 202.703 34.2553 203.27 34.04C203.848 33.8247 204.295 33.513 204.613 33.105C204.941 32.6857 205.106 32.1813 205.106 31.592C205.106 30.912 204.941 30.351 204.613 29.909C204.295 29.467 203.848 29.1383 203.27 28.923C202.703 28.7077 202.046 28.6 201.298 28.6H197.711V40.5H201.502C202.34 40.5 203.077 40.381 203.712 40.143C204.358 39.8937 204.862 39.514 205.225 39.004C205.599 38.494 205.786 37.848 205.786 37.066C205.786 36.4993 205.672 36.012 205.446 35.604C205.219 35.196 204.902 34.8617 204.494 34.601C204.097 34.3403 203.644 34.1477 203.134 34.023C202.624 33.8983 202.08 33.836 201.502 33.836H199.241V34.941H201.383C201.723 34.941 202.034 34.9807 202.318 35.06C202.601 35.128 202.845 35.247 203.049 35.417C203.264 35.5757 203.428 35.7797 203.542 36.029C203.666 36.267 203.729 36.5447 203.729 36.862C203.729 37.304 203.627 37.6723 203.423 37.967C203.219 38.2617 202.941 38.4827 202.59 38.63C202.238 38.7773 201.836 38.851 201.383 38.851H199.717V30.249H201.162C201.717 30.249 202.17 30.385 202.522 30.657C202.873 30.929 203.049 31.3143 203.049 31.813C203.049 32.1417 202.969 32.425 202.811 32.663C202.652 32.8897 202.431 33.0653 202.148 33.19C201.864 33.3147 201.536 33.377 201.162 33.377H199.241V34.363ZM208.686 36.675L207.19 37.712C207.451 38.256 207.802 38.7603 208.244 39.225C208.686 39.6897 209.202 40.0637 209.791 40.347C210.392 40.619 211.043 40.755 211.746 40.755C212.256 40.755 212.743 40.67 213.208 40.5C213.684 40.3413 214.109 40.1147 214.483 39.82C214.857 39.514 215.152 39.14 215.367 38.698C215.582 38.256 215.69 37.7573 215.69 37.202C215.69 36.6807 215.599 36.2273 215.418 35.842C215.248 35.4567 215.016 35.1223 214.721 34.839C214.426 34.5443 214.098 34.3007 213.735 34.108C213.384 33.9153 213.032 33.7567 212.681 33.632C212.046 33.4053 211.531 33.1843 211.134 32.969C210.737 32.7537 210.443 32.527 210.25 32.289C210.069 32.0397 209.978 31.762 209.978 31.456C209.978 31.116 210.108 30.8213 210.369 30.572C210.63 30.3113 211.038 30.181 211.593 30.181C211.99 30.181 212.335 30.2603 212.63 30.419C212.936 30.5663 213.202 30.7703 213.429 31.031C213.656 31.2803 213.843 31.5523 213.99 31.847L215.622 30.929C215.418 30.5097 215.135 30.1073 214.772 29.722C214.421 29.3367 213.984 29.0193 213.463 28.77C212.942 28.5207 212.33 28.396 211.627 28.396C210.913 28.396 210.273 28.532 209.706 28.804C209.151 29.0647 208.709 29.4387 208.38 29.926C208.051 30.402 207.887 30.9573 207.887 31.592C207.887 32.1473 207.995 32.6233 208.21 33.02C208.425 33.4053 208.697 33.734 209.026 34.006C209.355 34.2667 209.7 34.4877 210.063 34.669C210.426 34.839 210.754 34.975 211.049 35.077C211.548 35.2583 211.984 35.4453 212.358 35.638C212.743 35.8193 213.044 36.046 213.259 36.318C213.474 36.5787 213.582 36.93 213.582 37.372C213.582 37.8367 213.412 38.2163 213.072 38.511C212.732 38.8057 212.29 38.953 211.746 38.953C211.293 38.953 210.885 38.8623 210.522 38.681C210.159 38.4883 209.825 38.222 209.519 37.882C209.224 37.5307 208.947 37.1283 208.686 36.675ZM219.228 34.55C219.228 33.7 219.415 32.9633 219.789 32.34C220.174 31.7053 220.673 31.218 221.285 30.878C221.908 30.5267 222.582 30.351 223.308 30.351C223.874 30.351 224.384 30.4247 224.838 30.572C225.291 30.7193 225.699 30.9233 226.062 31.184C226.436 31.4333 226.759 31.7167 227.031 32.034V29.654C226.532 29.246 225.994 28.9343 225.416 28.719C224.838 28.5037 224.112 28.396 223.24 28.396C222.367 28.396 221.551 28.5433 220.792 28.838C220.044 29.1327 219.392 29.5577 218.837 30.113C218.281 30.6683 217.845 31.3257 217.528 32.085C217.222 32.833 217.069 33.6547 217.069 34.55C217.069 35.4453 217.222 36.2727 217.528 37.032C217.845 37.78 218.281 38.4317 218.837 38.987C219.392 39.5423 220.044 39.9673 220.792 40.262C221.551 40.5567 222.367 40.704 223.24 40.704C224.112 40.704 224.838 40.5963 225.416 40.381C225.994 40.1657 226.532 39.854 227.031 39.446V37.066C226.759 37.3833 226.436 37.6723 226.062 37.933C225.699 38.1823 225.291 38.3807 224.838 38.528C224.384 38.6753 223.874 38.749 223.308 38.749C222.582 38.749 221.908 38.579 221.285 38.239C220.673 37.8877 220.174 37.3947 219.789 36.76C219.415 36.1253 219.228 35.3887 219.228 34.55Z" fill="white"/>
<defs>
<linearGradient id="paint0_linear_121_2" x1="237.857" y1="70" x2="287.231" y2="-8.07513" gradientUnits="userSpaceOnUse">
<stop stop-color="#2F54DF"/>
<stop offset="1" stop-color="#FFCC00"/>
</linearGradient>
<linearGradient id="paint1_linear_121_2" x1="0" y1="0" x2="297.411" y2="79.6638" gradientUnits="userSpaceOnUse">
<stop stop-color="#3EB7F4"/>
<stop offset="0.497479" stop-color="#2E3ECE"/>
<stop offset="1" stop-color="#FFCC00" stop-opacity="0"/>
</linearGradient>
<linearGradient id="paint2_linear_121_2" x1="70.9972" y1="35" x2="101.003" y2="35" gradientUnits="userSpaceOnUse">
<stop stop-color="white"/>
<stop offset="1" stop-color="white" stop-opacity="0"/>
</linearGradient>
<linearGradient id="paint3_linear_121_2" x1="70.9972" y1="35" x2="101.003" y2="35" gradientUnits="userSpaceOnUse">
<stop stop-color="white"/>
<stop offset="1" stop-color="white" stop-opacity="0"/>
</linearGradient>
</defs>
</svg>
