<svg width="300" height="70" viewBox="0 0 300 70" fill="none" xmlns="http://www.w3.org/2000/svg">
<rect width="300" height="70" rx="12" fill="url(#paint0_linear_122_12)"/>
<rect width="300" height="70" rx="12" fill="url(#paint1_linear_122_12)"/>
<path d="M37.1697 32.6027L42.9998 26.7781L48.8299 32.6027L52.2272 29.2219L43.0107 20L33.7834 29.2219L37.1697 32.6137V32.6027ZM27.9971 35.0082L31.3888 31.6164L34.7806 35.0082L31.4053 38.3836L27.9971 35.0082ZM37.1697 37.4027L42.9998 43.2274L48.8299 37.3863L52.2217 40.7781L43.0053 50L33.7834 40.7836L37.1806 37.3973L37.1697 37.4027ZM51.2244 35.0027L54.6162 31.6109L58.0025 35.0027L54.6162 38.3945L51.2244 35.0027Z" fill="url(#paint2_linear_122_12)"/>
<path d="M46.4378 34.9972L42.9968 31.5562L40.4543 34.0986L40.1584 34.389L39.5611 34.9918L42.9968 38.4274L46.4378 34.9863" fill="url(#paint3_linear_122_12)"/>
<path d="M72.9669 34.669C73.6469 34.669 74.2759 34.601 74.8539 34.465C75.4433 34.3177 75.9476 34.108 76.3669 33.836C76.7976 33.564 77.1319 33.241 77.3699 32.867C77.6079 32.493 77.7269 32.0793 77.7269 31.626C77.7269 31.0367 77.5626 30.504 77.2339 30.028C76.9166 29.5407 76.4519 29.1497 75.8399 28.855C75.2279 28.5603 74.4856 28.413 73.6129 28.413C72.7516 28.413 72.0093 28.5603 71.3859 28.855C70.7626 29.1383 70.2809 29.5293 69.9409 30.028C69.6123 30.5267 69.4479 31.1047 69.4479 31.762H71.3349C71.3349 31.4447 71.4313 31.1613 71.6239 30.912C71.8166 30.6627 72.0829 30.47 72.4229 30.334C72.7743 30.1867 73.1709 30.113 73.6129 30.113C74.0776 30.113 74.4629 30.181 74.7689 30.317C75.0863 30.453 75.3186 30.6513 75.4659 30.912C75.6246 31.1613 75.7039 31.4447 75.7039 31.762C75.7039 32.102 75.5963 32.4137 75.3809 32.697C75.1769 32.969 74.8709 33.19 74.4629 33.36C74.0549 33.5187 73.5563 33.598 72.9669 33.598V34.669ZM73.5959 40.704C74.5593 40.704 75.3696 40.5623 76.0269 40.279C76.6956 39.9957 77.1999 39.599 77.5399 39.089C77.8913 38.579 78.0669 37.9897 78.0669 37.321C78.0669 36.5163 77.8403 35.8703 77.3869 35.383C76.9449 34.8957 76.3386 34.5387 75.5679 34.312C74.7973 34.074 73.9303 33.955 72.9669 33.955V35.094C73.6016 35.094 74.1456 35.1733 74.5989 35.332C75.0636 35.4907 75.4206 35.7173 75.6699 36.012C75.9193 36.3067 76.0439 36.6693 76.0439 37.1C76.0439 37.6893 75.8343 38.1483 75.4149 38.477C74.9956 38.8057 74.3779 38.97 73.5619 38.97C73.0179 38.97 72.5533 38.8963 72.1679 38.749C71.7939 38.5903 71.5049 38.375 71.3009 38.103C71.0969 37.8197 70.9779 37.4853 70.9439 37.1H68.9379C68.9379 37.5873 69.0343 38.052 69.2269 38.494C69.4196 38.9247 69.7086 39.31 70.0939 39.65C70.4906 39.9787 70.9779 40.2393 71.5559 40.432C72.1339 40.6133 72.8139 40.704 73.5959 40.704ZM81.0565 38.188C81.0565 37.916 81.1189 37.6837 81.2435 37.491C81.3795 37.287 81.5779 37.134 81.8385 37.032C82.1105 36.9187 82.4392 36.862 82.8245 36.862C83.3005 36.862 83.7199 36.9243 84.0825 37.049C84.4452 37.1623 84.8022 37.3493 85.1535 37.61V36.641C85.0629 36.5277 84.8985 36.3973 84.6605 36.25C84.4225 36.1027 84.1222 35.9723 83.7595 35.859C83.4082 35.7457 83.0059 35.689 82.5525 35.689C81.8725 35.689 81.2775 35.791 80.7675 35.995C80.2689 36.199 79.8835 36.4937 79.6115 36.879C79.3395 37.2643 79.2035 37.7233 79.2035 38.256C79.2035 38.7887 79.3225 39.2363 79.5605 39.599C79.8099 39.9503 80.1385 40.2167 80.5465 40.398C80.9659 40.5793 81.4305 40.67 81.9405 40.67C82.4845 40.67 82.9775 40.5793 83.4195 40.398C83.8615 40.2053 84.2129 39.9333 84.4735 39.582C84.7342 39.2193 84.8645 38.7887 84.8645 38.29L84.5925 37.406C84.5925 37.8593 84.5019 38.222 84.3205 38.494C84.1392 38.766 83.8899 38.9643 83.5725 39.089C83.2552 39.2137 82.8982 39.276 82.5015 39.276C82.2295 39.276 81.9859 39.2363 81.7705 39.157C81.5552 39.0663 81.3795 38.9417 81.2435 38.783C81.1189 38.6243 81.0565 38.426 81.0565 38.188ZM80.6485 34.737C80.7732 34.6577 80.9489 34.5613 81.1755 34.448C81.4135 34.3233 81.6912 34.2157 82.0085 34.125C82.3259 34.0343 82.6715 33.989 83.0455 33.989C83.4762 33.989 83.8389 34.091 84.1335 34.295C84.4395 34.4877 84.5925 34.7653 84.5925 35.128V40.5H86.3945V34.924C86.3945 34.4027 86.2529 33.9663 85.9695 33.615C85.6975 33.2523 85.3179 32.9747 84.8305 32.782C84.3432 32.5893 83.7765 32.493 83.1305 32.493C82.4279 32.493 81.8045 32.595 81.2605 32.799C80.7165 33.003 80.2689 33.2127 79.9175 33.428L80.6485 34.737ZM90.335 44.24V32.68H88.482V44.24H90.335ZM96.812 36.59C96.812 35.7173 96.6363 34.975 96.285 34.363C95.9336 33.751 95.469 33.2863 94.891 32.969C94.313 32.6403 93.684 32.476 93.004 32.476C92.3353 32.476 91.7516 32.646 91.253 32.986C90.7656 33.3147 90.386 33.785 90.114 34.397C89.8533 35.009 89.723 35.74 89.723 36.59C89.723 37.4287 89.8533 38.1597 90.114 38.783C90.386 39.395 90.7656 39.871 91.253 40.211C91.7516 40.5397 92.3353 40.704 93.004 40.704C93.684 40.704 94.313 40.5453 94.891 40.228C95.469 39.8993 95.9336 39.429 96.285 38.817C96.6363 38.1937 96.812 37.4513 96.812 36.59ZM94.908 36.59C94.908 37.1113 94.8003 37.559 94.585 37.933C94.3696 38.2957 94.0806 38.5733 93.718 38.766C93.3666 38.9473 92.9756 39.038 92.545 39.038C92.1936 39.038 91.848 38.9473 91.508 38.766C91.168 38.5733 90.8846 38.2957 90.658 37.933C90.4426 37.5703 90.335 37.1227 90.335 36.59C90.335 36.0573 90.4426 35.6097 90.658 35.247C90.8846 34.8843 91.168 34.6123 91.508 34.431C91.848 34.2383 92.1936 34.142 92.545 34.142C92.9756 34.142 93.3666 34.2383 93.718 34.431C94.0806 34.6123 94.3696 34.89 94.585 35.264C94.8003 35.6267 94.908 36.0687 94.908 36.59ZM99.0537 37.015H105.922C105.944 36.913 105.956 36.8223 105.956 36.743C105.956 36.6523 105.956 36.573 105.956 36.505C105.956 35.6777 105.797 34.9693 105.48 34.38C105.162 33.7793 104.709 33.3203 104.12 33.003C103.542 32.6743 102.85 32.51 102.046 32.51C101.309 32.51 100.657 32.646 100.091 32.918C99.524 33.19 99.065 33.5697 98.7137 34.057C98.3737 34.5443 98.147 35.111 98.0337 35.757C98.011 35.893 97.994 36.029 97.9827 36.165C97.9714 36.301 97.9657 36.4427 97.9657 36.59C97.9657 37.372 98.13 38.0747 98.4587 38.698C98.7874 39.31 99.252 39.7917 99.8527 40.143C100.453 40.4943 101.156 40.67 101.961 40.67C102.675 40.67 103.27 40.585 103.746 40.415C104.233 40.2337 104.641 39.9843 104.97 39.667C105.31 39.3497 105.61 38.9813 105.871 38.562L104.29 37.916C104.142 38.1653 103.961 38.3863 103.746 38.579C103.53 38.7603 103.281 38.902 102.998 39.004C102.726 39.106 102.408 39.157 102.046 39.157C101.604 39.157 101.213 39.0663 100.873 38.885C100.544 38.6923 100.283 38.409 100.091 38.035C99.9094 37.6497 99.8187 37.168 99.8187 36.59L99.8527 36.114C99.8527 35.6607 99.949 35.2697 100.142 34.941C100.334 34.601 100.595 34.346 100.924 34.176C101.252 33.9947 101.621 33.904 102.029 33.904C102.425 33.904 102.76 33.9833 103.032 34.142C103.304 34.2893 103.513 34.5047 103.661 34.788C103.819 35.06 103.921 35.383 103.967 35.757H99.0537V37.015ZM107.793 32.68V40.5H109.612V34.295H112.281V32.68H107.793ZM113.763 37.015H120.631C120.653 36.913 120.665 36.8223 120.665 36.743C120.665 36.6523 120.665 36.573 120.665 36.505C120.665 35.6777 120.506 34.9693 120.189 34.38C119.871 33.7793 119.418 33.3203 118.829 33.003C118.251 32.6743 117.559 32.51 116.755 32.51C116.018 32.51 115.366 32.646 114.8 32.918C114.233 33.19 113.774 33.5697 113.423 34.057C113.083 34.5443 112.856 35.111 112.743 35.757C112.72 35.893 112.703 36.029 112.692 36.165C112.68 36.301 112.675 36.4427 112.675 36.59C112.675 37.372 112.839 38.0747 113.168 38.698C113.496 39.31 113.961 39.7917 114.562 40.143C115.162 40.4943 115.865 40.67 116.67 40.67C117.384 40.67 117.979 40.585 118.455 40.415C118.942 40.2337 119.35 39.9843 119.679 39.667C120.019 39.3497 120.319 38.9813 120.58 38.562L118.999 37.916C118.851 38.1653 118.67 38.3863 118.455 38.579C118.239 38.7603 117.99 38.902 117.707 39.004C117.435 39.106 117.117 39.157 116.755 39.157C116.313 39.157 115.922 39.0663 115.582 38.885C115.253 38.6923 114.992 38.409 114.8 38.035C114.618 37.6497 114.528 37.168 114.528 36.59L114.562 36.114C114.562 35.6607 114.658 35.2697 114.851 34.941C115.043 34.601 115.304 34.346 115.633 34.176C115.961 33.9947 116.33 33.904 116.738 33.904C117.134 33.904 117.469 33.9833 117.741 34.142C118.013 34.2893 118.222 34.5047 118.37 34.788C118.528 35.06 118.63 35.383 118.676 35.757H113.763V37.015ZM123.658 36.59C123.658 36.1027 123.765 35.672 123.981 35.298C124.196 34.924 124.485 34.6293 124.848 34.414C125.222 34.1987 125.635 34.091 126.089 34.091C126.451 34.091 126.803 34.1477 127.143 34.261C127.483 34.3743 127.783 34.533 128.044 34.737C128.316 34.9297 128.514 35.1563 128.639 35.417V33.394C128.367 33.122 127.998 32.9067 127.534 32.748C127.069 32.5893 126.559 32.51 126.004 32.51C125.199 32.51 124.474 32.6857 123.828 33.037C123.193 33.377 122.689 33.853 122.315 34.465C121.952 35.077 121.771 35.7853 121.771 36.59C121.771 37.3833 121.952 38.0917 122.315 38.715C122.689 39.327 123.193 39.8087 123.828 40.16C124.474 40.5 125.199 40.67 126.004 40.67C126.559 40.67 127.069 40.5907 127.534 40.432C127.998 40.2733 128.367 40.058 128.639 39.786V37.763C128.514 38.0123 128.321 38.239 128.061 38.443C127.8 38.647 127.5 38.8057 127.16 38.919C126.82 39.0323 126.463 39.089 126.089 39.089C125.635 39.089 125.222 38.9813 124.848 38.766C124.485 38.5507 124.196 38.2617 123.981 37.899C123.765 37.525 123.658 37.0887 123.658 36.59ZM129.58 32.68V34.295H134.527V32.68H129.58ZM131.161 33.02V40.5H132.963V33.02H131.161ZM137.566 44.24V32.68H135.713V44.24H137.566ZM144.043 36.59C144.043 35.7173 143.868 34.975 143.516 34.363C143.165 33.751 142.7 33.2863 142.122 32.969C141.544 32.6403 140.915 32.476 140.235 32.476C139.567 32.476 138.983 32.646 138.484 32.986C137.997 33.3147 137.617 33.785 137.345 34.397C137.085 35.009 136.954 35.74 136.954 36.59C136.954 37.4287 137.085 38.1597 137.345 38.783C137.617 39.395 137.997 39.871 138.484 40.211C138.983 40.5397 139.567 40.704 140.235 40.704C140.915 40.704 141.544 40.5453 142.122 40.228C142.7 39.8993 143.165 39.429 143.516 38.817C143.868 38.1937 144.043 37.4513 144.043 36.59ZM142.139 36.59C142.139 37.1113 142.032 37.559 141.816 37.933C141.601 38.2957 141.312 38.5733 140.949 38.766C140.598 38.9473 140.207 39.038 139.776 39.038C139.425 39.038 139.079 38.9473 138.739 38.766C138.399 38.5733 138.116 38.2957 137.889 37.933C137.674 37.5703 137.566 37.1227 137.566 36.59C137.566 36.0573 137.674 35.6097 137.889 35.247C138.116 34.8843 138.399 34.6123 138.739 34.431C139.079 34.2383 139.425 34.142 139.776 34.142C140.207 34.142 140.598 34.2383 140.949 34.431C141.312 34.6123 141.601 34.89 141.816 35.264C142.032 35.6267 142.139 36.0687 142.139 36.59ZM152.881 34.38L152.966 32.085L145.945 38.8L145.86 41.095L152.881 34.38ZM147.662 32.68H145.86V41.095L147.662 39.021V32.68ZM152.966 32.085L151.164 34.159V40.5H152.966V32.085ZM157.173 44.24V32.68H155.32V44.24H157.173ZM163.65 36.59C163.65 35.7173 163.474 34.975 163.123 34.363C162.772 33.751 162.307 33.2863 161.729 32.969C161.151 32.6403 160.522 32.476 159.842 32.476C159.173 32.476 158.59 32.646 158.091 32.986C157.604 33.3147 157.224 33.785 156.952 34.397C156.691 35.009 156.561 35.74 156.561 36.59C156.561 37.4287 156.691 38.1597 156.952 38.783C157.224 39.395 157.604 39.871 158.091 40.211C158.59 40.5397 159.173 40.704 159.842 40.704C160.522 40.704 161.151 40.5453 161.729 40.228C162.307 39.8993 162.772 39.429 163.123 38.817C163.474 38.1937 163.65 37.4513 163.65 36.59ZM161.746 36.59C161.746 37.1113 161.638 37.559 161.423 37.933C161.208 38.2957 160.919 38.5733 160.556 38.766C160.205 38.9473 159.814 39.038 159.383 39.038C159.032 39.038 158.686 38.9473 158.346 38.766C158.006 38.5733 157.723 38.2957 157.496 37.933C157.281 37.5703 157.173 37.1227 157.173 36.59C157.173 36.0573 157.281 35.6097 157.496 35.247C157.723 34.8843 158.006 34.6123 158.346 34.431C158.686 34.2383 159.032 34.142 159.383 34.142C159.814 34.142 160.205 34.2383 160.556 34.431C160.919 34.6123 161.208 34.89 161.423 35.264C161.638 35.6267 161.746 36.0687 161.746 36.59ZM164.804 36.59C164.804 37.3833 164.985 38.0917 165.348 38.715C165.722 39.327 166.226 39.8087 166.861 40.16C167.495 40.5 168.215 40.67 169.02 40.67C169.824 40.67 170.538 40.5 171.162 40.16C171.796 39.8087 172.301 39.327 172.675 38.715C173.049 38.0917 173.236 37.3833 173.236 36.59C173.236 35.7853 173.049 35.077 172.675 34.465C172.301 33.853 171.796 33.377 171.162 33.037C170.538 32.6857 169.824 32.51 169.02 32.51C168.215 32.51 167.495 32.6857 166.861 33.037C166.226 33.377 165.722 33.853 165.348 34.465C164.985 35.077 164.804 35.7853 164.804 36.59ZM166.691 36.59C166.691 36.1027 166.793 35.672 166.997 35.298C167.201 34.924 167.478 34.635 167.83 34.431C168.181 34.227 168.578 34.125 169.02 34.125C169.45 34.125 169.841 34.227 170.193 34.431C170.555 34.635 170.839 34.924 171.043 35.298C171.247 35.672 171.349 36.1027 171.349 36.59C171.349 37.0773 171.247 37.508 171.043 37.882C170.839 38.2447 170.555 38.5337 170.193 38.749C169.841 38.953 169.45 39.055 169.02 39.055C168.578 39.055 168.181 38.953 167.83 38.749C167.478 38.5337 167.201 38.2447 166.997 37.882C166.793 37.508 166.691 37.0773 166.691 36.59ZM176.151 36.42V37.219H178.412C178.638 37.219 178.831 37.2417 178.99 37.287C179.16 37.3323 179.29 37.4003 179.381 37.491C179.483 37.5817 179.562 37.6837 179.619 37.797C179.675 37.9103 179.704 38.035 179.704 38.171C179.704 38.4317 179.602 38.6583 179.398 38.851C179.194 39.0437 178.865 39.14 178.412 39.14H176.151V40.5H178.973C179.868 40.5 180.508 40.296 180.894 39.888C181.29 39.4687 181.489 38.9643 181.489 38.375C181.489 37.865 181.364 37.4683 181.115 37.185C180.865 36.9017 180.525 36.7033 180.095 36.59C179.664 36.4767 179.177 36.42 178.633 36.42H176.151ZM176.151 36.76H178.463C178.95 36.76 179.392 36.692 179.789 36.556C180.197 36.4087 180.525 36.1933 180.775 35.91C181.024 35.6153 181.149 35.247 181.149 34.805C181.149 34.295 181.024 33.887 180.775 33.581C180.525 33.2637 180.197 33.037 179.789 32.901C179.392 32.7537 178.95 32.68 178.463 32.68H176.151V34.04H178.242C178.593 34.04 178.865 34.125 179.058 34.295C179.262 34.465 179.364 34.6803 179.364 34.941C179.364 35.0657 179.335 35.1847 179.279 35.298C179.222 35.4113 179.148 35.5133 179.058 35.604C178.967 35.6947 178.848 35.7627 178.701 35.808C178.565 35.8533 178.412 35.876 178.242 35.876H176.151V36.76ZM175.08 32.68V40.5H176.882V32.68H175.08ZM184.335 38.188C184.335 37.916 184.397 37.6837 184.522 37.491C184.658 37.287 184.856 37.134 185.117 37.032C185.389 36.9187 185.718 36.862 186.103 36.862C186.579 36.862 186.998 36.9243 187.361 37.049C187.724 37.1623 188.081 37.3493 188.432 37.61V36.641C188.341 36.5277 188.177 36.3973 187.939 36.25C187.701 36.1027 187.401 35.9723 187.038 35.859C186.687 35.7457 186.284 35.689 185.831 35.689C185.151 35.689 184.556 35.791 184.046 35.995C183.547 36.199 183.162 36.4937 182.89 36.879C182.618 37.2643 182.482 37.7233 182.482 38.256C182.482 38.7887 182.601 39.2363 182.839 39.599C183.088 39.9503 183.417 40.2167 183.825 40.398C184.244 40.5793 184.709 40.67 185.219 40.67C185.763 40.67 186.256 40.5793 186.698 40.398C187.14 40.2053 187.491 39.9333 187.752 39.582C188.013 39.2193 188.143 38.7887 188.143 38.29L187.871 37.406C187.871 37.8593 187.78 38.222 187.599 38.494C187.418 38.766 187.168 38.9643 186.851 39.089C186.534 39.2137 186.177 39.276 185.78 39.276C185.508 39.276 185.264 39.2363 185.049 39.157C184.834 39.0663 184.658 38.9417 184.522 38.783C184.397 38.6243 184.335 38.426 184.335 38.188ZM183.927 34.737C184.052 34.6577 184.227 34.5613 184.454 34.448C184.692 34.3233 184.97 34.2157 185.287 34.125C185.604 34.0343 185.95 33.989 186.324 33.989C186.755 33.989 187.117 34.091 187.412 34.295C187.718 34.4877 187.871 34.7653 187.871 35.128V40.5H189.673V34.924C189.673 34.4027 189.531 33.9663 189.248 33.615C188.976 33.2523 188.596 32.9747 188.109 32.782C187.622 32.5893 187.055 32.493 186.409 32.493C185.706 32.493 185.083 32.595 184.539 32.799C183.995 33.003 183.547 33.2127 183.196 33.428L183.927 34.737ZM190.74 32.68V34.295H195.687V32.68H190.74ZM192.321 33.02V40.5H194.123V33.02H192.321ZM196.976 32.68V40.5H198.829V32.68H196.976ZM198.268 36.896H200.512C200.931 36.896 201.243 36.9867 201.447 37.168C201.662 37.3493 201.77 37.61 201.77 37.95C201.77 38.1653 201.719 38.3523 201.617 38.511C201.526 38.6697 201.384 38.7887 201.192 38.868C201.01 38.9473 200.784 38.987 200.512 38.987H198.268V40.5H200.699C201.243 40.5 201.73 40.4037 202.161 40.211C202.591 40.0183 202.931 39.735 203.181 39.361C203.43 38.9757 203.555 38.5053 203.555 37.95C203.555 37.1113 203.277 36.4993 202.722 36.114C202.178 35.7173 201.503 35.519 200.699 35.519H198.268V36.896ZM206.798 36.59C206.798 36.1027 206.906 35.672 207.121 35.298C207.337 34.924 207.626 34.6293 207.988 34.414C208.362 34.1987 208.776 34.091 209.229 34.091C209.592 34.091 209.943 34.1477 210.283 34.261C210.623 34.3743 210.924 34.533 211.184 34.737C211.456 34.9297 211.655 35.1563 211.779 35.417V33.394C211.507 33.122 211.139 32.9067 210.674 32.748C210.21 32.5893 209.7 32.51 209.144 32.51C208.34 32.51 207.614 32.6857 206.968 33.037C206.334 33.377 205.829 33.853 205.455 34.465C205.093 35.077 204.911 35.7853 204.911 36.59C204.911 37.3833 205.093 38.0917 205.455 38.715C205.829 39.327 206.334 39.8087 206.968 40.16C207.614 40.5 208.34 40.67 209.144 40.67C209.7 40.67 210.21 40.5907 210.674 40.432C211.139 40.2733 211.507 40.058 211.779 39.786V37.763C211.655 38.0123 211.462 38.239 211.201 38.443C210.941 38.647 210.64 38.8057 210.3 38.919C209.96 39.0323 209.603 39.089 209.229 39.089C208.776 39.089 208.362 38.9813 207.988 38.766C207.626 38.5507 207.337 38.2617 207.121 37.899C206.906 37.525 206.798 37.0887 206.798 36.59ZM215.407 40.5L218.008 36.624H216.138L213.452 40.5H215.407ZM220.49 40.5V32.68H218.637V40.5H220.49ZM219.317 36.097H217.039C216.755 36.097 216.517 36.063 216.325 35.995C216.132 35.927 215.985 35.825 215.883 35.689C215.781 35.553 215.73 35.3717 215.73 35.145C215.73 34.9297 215.781 34.754 215.883 34.618C215.985 34.482 216.132 34.38 216.325 34.312C216.517 34.244 216.755 34.21 217.039 34.21H219.317V32.68H216.886C216.353 32.68 215.86 32.7593 215.407 32.918C214.953 33.0767 214.591 33.3317 214.319 33.683C214.047 34.023 213.911 34.482 213.911 35.06C213.911 35.638 214.047 36.1083 214.319 36.471C214.591 36.8223 214.953 37.083 215.407 37.253C215.86 37.4117 216.353 37.491 216.886 37.491H219.317V36.097ZM228.711 36.42V37.219H230.972C231.199 37.219 231.392 37.2417 231.55 37.287C231.72 37.3323 231.851 37.4003 231.941 37.491C232.043 37.5817 232.123 37.6837 232.179 37.797C232.236 37.9103 232.264 38.035 232.264 38.171C232.264 38.4317 232.162 38.6583 231.958 38.851C231.754 39.0437 231.426 39.14 230.972 39.14H228.711V40.5H231.533C232.429 40.5 233.069 40.296 233.454 39.888C233.851 39.4687 234.049 38.9643 234.049 38.375C234.049 37.865 233.925 37.4683 233.675 37.185C233.426 36.9017 233.086 36.7033 232.655 36.59C232.225 36.4767 231.737 36.42 231.193 36.42H228.711ZM228.711 36.76H231.023C231.511 36.76 231.953 36.692 232.349 36.556C232.757 36.4087 233.086 36.1933 233.335 35.91C233.585 35.6153 233.709 35.247 233.709 34.805C233.709 34.295 233.585 33.887 233.335 33.581C233.086 33.2637 232.757 33.037 232.349 32.901C231.953 32.7537 231.511 32.68 231.023 32.68H228.711V34.04H230.802C231.154 34.04 231.426 34.125 231.618 34.295C231.822 34.465 231.924 34.6803 231.924 34.941C231.924 35.0657 231.896 35.1847 231.839 35.298C231.783 35.4113 231.709 35.5133 231.618 35.604C231.528 35.6947 231.409 35.7627 231.261 35.808C231.125 35.8533 230.972 35.876 230.802 35.876H228.711V36.76ZM227.64 32.68V40.5H229.442V32.68H227.64ZM242.519 34.363H244.576C245.324 34.363 245.981 34.2553 246.548 34.04C247.126 33.8247 247.574 33.513 247.891 33.105C248.22 32.6857 248.384 32.1813 248.384 31.592C248.384 30.912 248.22 30.351 247.891 29.909C247.574 29.467 247.126 29.1383 246.548 28.923C245.981 28.7077 245.324 28.6 244.576 28.6H240.989V40.5H244.78C245.619 40.5 246.355 40.381 246.99 40.143C247.636 39.8937 248.14 39.514 248.503 39.004C248.877 38.494 249.064 37.848 249.064 37.066C249.064 36.4993 248.951 36.012 248.724 35.604C248.497 35.196 248.18 34.8617 247.772 34.601C247.375 34.3403 246.922 34.1477 246.412 34.023C245.902 33.8983 245.358 33.836 244.78 33.836H242.519V34.941H244.661C245.001 34.941 245.313 34.9807 245.596 35.06C245.879 35.128 246.123 35.247 246.327 35.417C246.542 35.5757 246.707 35.7797 246.82 36.029C246.945 36.267 247.007 36.5447 247.007 36.862C247.007 37.304 246.905 37.6723 246.701 37.967C246.497 38.2617 246.219 38.4827 245.868 38.63C245.517 38.7773 245.114 38.851 244.661 38.851H242.995V30.249H244.44C244.995 30.249 245.449 30.385 245.8 30.657C246.151 30.929 246.327 31.3143 246.327 31.813C246.327 32.1417 246.248 32.425 246.089 32.663C245.93 32.8897 245.709 33.0653 245.426 33.19C245.143 33.3147 244.814 33.377 244.44 33.377H242.519V34.363ZM251.964 36.675L250.468 37.712C250.729 38.256 251.08 38.7603 251.522 39.225C251.964 39.6897 252.48 40.0637 253.069 40.347C253.67 40.619 254.322 40.755 255.024 40.755C255.534 40.755 256.022 40.67 256.486 40.5C256.962 40.3413 257.387 40.1147 257.761 39.82C258.135 39.514 258.43 39.14 258.645 38.698C258.861 38.256 258.968 37.7573 258.968 37.202C258.968 36.6807 258.878 36.2273 258.696 35.842C258.526 35.4567 258.294 35.1223 257.999 34.839C257.705 34.5443 257.376 34.3007 257.013 34.108C256.662 33.9153 256.311 33.7567 255.959 33.632C255.325 33.4053 254.809 33.1843 254.412 32.969C254.016 32.7537 253.721 32.527 253.528 32.289C253.347 32.0397 253.256 31.762 253.256 31.456C253.256 31.116 253.387 30.8213 253.647 30.572C253.908 30.3113 254.316 30.181 254.871 30.181C255.268 30.181 255.614 30.2603 255.908 30.419C256.214 30.5663 256.481 30.7703 256.707 31.031C256.934 31.2803 257.121 31.5523 257.268 31.847L258.9 30.929C258.696 30.5097 258.413 30.1073 258.05 29.722C257.699 29.3367 257.263 29.0193 256.741 28.77C256.22 28.5207 255.608 28.396 254.905 28.396C254.191 28.396 253.551 28.532 252.984 28.804C252.429 29.0647 251.987 29.4387 251.658 29.926C251.33 30.402 251.165 30.9573 251.165 31.592C251.165 32.1473 251.273 32.6233 251.488 33.02C251.704 33.4053 251.976 33.734 252.304 34.006C252.633 34.2667 252.979 34.4877 253.341 34.669C253.704 34.839 254.033 34.975 254.327 35.077C254.826 35.2583 255.262 35.4453 255.636 35.638C256.022 35.8193 256.322 36.046 256.537 36.318C256.753 36.5787 256.86 36.93 256.86 37.372C256.86 37.8367 256.69 38.2163 256.35 38.511C256.01 38.8057 255.568 38.953 255.024 38.953C254.571 38.953 254.163 38.8623 253.8 38.681C253.438 38.4883 253.103 38.222 252.797 37.882C252.503 37.5307 252.225 37.1283 251.964 36.675ZM262.506 34.55C262.506 33.7 262.693 32.9633 263.067 32.34C263.453 31.7053 263.951 31.218 264.563 30.878C265.187 30.5267 265.861 30.351 266.586 30.351C267.153 30.351 267.663 30.4247 268.116 30.572C268.57 30.7193 268.978 30.9233 269.34 31.184C269.714 31.4333 270.037 31.7167 270.309 32.034V29.654C269.811 29.246 269.272 28.9343 268.694 28.719C268.116 28.5037 267.391 28.396 266.518 28.396C265.646 28.396 264.83 28.5433 264.07 28.838C263.322 29.1327 262.671 29.5577 262.115 30.113C261.56 30.6683 261.124 31.3257 260.806 32.085C260.5 32.833 260.347 33.6547 260.347 34.55C260.347 35.4453 260.5 36.2727 260.806 37.032C261.124 37.78 261.56 38.4317 262.115 38.987C262.671 39.5423 263.322 39.9673 264.07 40.262C264.83 40.5567 265.646 40.704 266.518 40.704C267.391 40.704 268.116 40.5963 268.694 40.381C269.272 40.1657 269.811 39.854 270.309 39.446V37.066C270.037 37.3833 269.714 37.6723 269.34 37.933C268.978 38.1823 268.57 38.3807 268.116 38.528C267.663 38.6753 267.153 38.749 266.586 38.749C265.861 38.749 265.187 38.579 264.563 38.239C263.951 37.8877 263.453 37.3947 263.067 36.76C262.693 36.1253 262.506 35.3887 262.506 34.55Z" fill="white"/>
<defs>
<linearGradient id="paint0_linear_122_12" x1="237.857" y1="70" x2="287.231" y2="-8.07513" gradientUnits="userSpaceOnUse">
<stop stop-color="#2F54DF"/>
<stop offset="1" stop-color="#FFCC00"/>
</linearGradient>
<linearGradient id="paint1_linear_122_12" x1="0" y1="0" x2="297.411" y2="79.6638" gradientUnits="userSpaceOnUse">
<stop stop-color="#3EB7F4"/>
<stop offset="0.497479" stop-color="#2E3ECE"/>
<stop offset="1" stop-color="#FFCC00" stop-opacity="0"/>
</linearGradient>
<linearGradient id="paint2_linear_122_12" x1="27.9971" y1="35" x2="58.0025" y2="35" gradientUnits="userSpaceOnUse">
<stop stop-color="white"/>
<stop offset="1" stop-color="white" stop-opacity="0"/>
</linearGradient>
<linearGradient id="paint3_linear_122_12" x1="27.9971" y1="35" x2="58.0025" y2="35" gradientUnits="userSpaceOnUse">
<stop stop-color="white"/>
<stop offset="1" stop-color="white" stop-opacity="0"/>
</linearGradient>
</defs>
</svg>
