<svg width="300" height="70" viewBox="0 0 300 70" fill="none" xmlns="http://www.w3.org/2000/svg">
<rect width="300" height="70" rx="12" fill="url(#paint0_linear_37_223)"/>
<rect width="300" height="70" rx="12" fill="url(#paint1_linear_37_223)"/>
<path d="M95.0441 27.8986C93.828 27.048 92.5275 26.1412 91.2551 25.2414C91.227 25.2203 91.1989 25.1992 91.1637 25.1781C91.0231 25.0727 90.8614 24.9602 90.6646 24.8969L90.6506 24.8899C87.2482 24.0674 83.7896 23.2238 80.4434 22.4084C77.4066 21.6703 74.3768 20.9322 71.34 20.194C71.2626 20.1729 71.1853 20.1519 71.101 20.1308C70.8268 20.0534 70.5105 19.9691 70.173 20.0113C70.0746 20.0253 69.9903 20.0605 69.9129 20.1097L69.8286 20.18C69.695 20.3065 69.6247 20.4682 69.5896 20.5596L69.5685 20.6158V20.9392L69.5825 20.9884C71.5016 26.3661 73.47 31.8212 75.368 37.1005C76.8302 41.1637 78.3486 45.3745 79.8318 49.5079C79.9232 49.7891 80.1833 49.9719 80.5067 50H80.577C80.8793 50 81.1464 49.8524 81.28 49.6134L86.8475 41.4941C88.2042 39.5187 89.561 37.5363 90.9177 35.561C91.473 34.7526 92.0284 33.9371 92.5837 33.1287C93.4976 31.7931 94.4396 30.4152 95.3745 29.0726L95.4237 29.0023V28.9179C95.4448 28.6719 95.4518 28.1657 95.0441 27.8986ZM88.5206 30.8581C87.213 31.54 85.8774 32.243 84.5347 32.9389C85.315 32.1024 86.1023 31.2588 86.8826 30.4223C87.8598 29.3678 88.8791 28.2782 89.8773 27.2097L89.8984 27.1886C89.9827 27.0761 90.0882 26.9707 90.2007 26.8582C90.278 26.7809 90.3623 26.7035 90.4397 26.6122C90.9599 26.9707 91.4871 27.3362 91.9932 27.6947C92.3588 27.9548 92.7313 28.2149 93.111 28.475C91.5644 29.2624 90.0179 30.0708 88.5206 30.8581ZM85.1604 30.5207C84.1551 31.6103 83.1147 32.728 82.0813 33.8317C80.0779 31.3994 78.0322 28.932 76.0499 26.5489C75.1501 25.4663 74.2432 24.3767 73.3434 23.2941L73.3364 23.2871C73.1325 23.0551 72.9357 22.8021 72.7389 22.563C72.6123 22.4014 72.4788 22.2467 72.3452 22.085C73.1607 22.2959 73.9831 22.4928 74.7915 22.6826C75.5015 22.8513 76.2397 23.027 76.9637 23.2098C81.041 24.201 85.1252 25.1922 89.2024 26.1833C87.8457 27.6315 86.4819 29.1007 85.1604 30.5207ZM81.6244 44.2216C81.7017 43.4835 81.7861 42.7243 81.8564 41.9791C81.9197 41.3816 81.9829 40.77 82.0462 40.1865C82.1446 39.2516 82.2501 38.2815 82.3344 37.3325L82.3555 37.1638C82.4258 36.5592 82.4961 35.9336 82.5383 35.3079C82.6156 35.2657 82.7 35.2236 82.7913 35.1884C82.8968 35.1392 83.0022 35.097 83.1077 35.0338C84.7315 34.1832 86.3554 33.3326 87.9863 32.489C89.6102 31.6454 91.2762 30.7737 92.9282 29.9091C91.4238 32.0883 89.9124 34.2886 88.4503 36.4327C87.1919 38.2674 85.8985 40.1584 84.612 42.0213C84.1059 42.7664 83.5787 43.5256 83.0796 44.2567C82.5172 45.0722 81.9408 45.9087 81.3784 46.7452C81.4487 45.9017 81.533 45.0511 81.6244 44.2216ZM71.825 23.744C71.7336 23.491 71.6352 23.2309 71.5509 22.9848C73.4489 25.2765 75.361 27.5823 77.2238 29.8177C78.1869 30.9776 79.15 32.1305 80.113 33.2974C80.3028 33.5153 80.4926 33.7473 80.6754 33.9723C80.9144 34.2605 81.1534 34.5628 81.4135 34.851C81.3292 35.575 81.2589 36.3061 81.1815 37.0091C81.1323 37.5012 81.0831 37.9933 81.0269 38.4924V38.4994C81.0058 38.8157 80.9636 39.1321 80.9285 39.4414C80.8793 39.8702 80.7668 40.8403 80.7668 40.8403L80.7598 40.8895C80.6332 42.3095 80.4786 43.7436 80.331 45.1354C80.2677 45.7119 80.2114 46.3024 80.1482 46.8929C80.113 46.7874 80.0709 46.682 80.0357 46.5836C79.9303 46.3024 79.8248 46.0071 79.7264 45.7189L78.9742 43.6311C76.5912 37.0021 74.2081 30.3801 71.825 23.744Z" fill="url(#paint2_linear_37_223)"/>
<path d="M109.428 34.988L113.442 41H115.998L111.732 34.988H109.428ZM106.836 28.4V41H108.96V28.4H106.836ZM108.096 30.236H110.634C111.114 30.236 111.534 30.32 111.894 30.488C112.266 30.656 112.554 30.896 112.758 31.208C112.962 31.52 113.064 31.904 113.064 32.36C113.064 32.804 112.962 33.188 112.758 33.512C112.554 33.824 112.266 34.064 111.894 34.232C111.534 34.4 111.114 34.484 110.634 34.484H108.096V36.23H110.724C111.636 36.23 112.428 36.068 113.1 35.744C113.784 35.42 114.312 34.964 114.684 34.376C115.056 33.788 115.242 33.098 115.242 32.306C115.242 31.514 115.056 30.83 114.684 30.254C114.312 29.666 113.784 29.21 113.1 28.886C112.428 28.562 111.636 28.4 110.724 28.4H108.096V30.236ZM120.979 41.18C121.939 41.18 122.761 40.994 123.445 40.622C124.129 40.25 124.687 39.692 125.119 38.948L123.445 38.264C123.181 38.708 122.851 39.038 122.455 39.254C122.059 39.47 121.597 39.578 121.069 39.578C120.565 39.578 120.133 39.47 119.773 39.254C119.425 39.038 119.161 38.726 118.981 38.318C118.801 37.898 118.711 37.388 118.711 36.788C118.723 36.188 118.819 35.684 118.999 35.276C119.179 34.868 119.443 34.556 119.791 34.34C120.139 34.124 120.559 34.016 121.051 34.016C121.459 34.016 121.813 34.106 122.113 34.286C122.425 34.466 122.665 34.718 122.833 35.042C123.013 35.366 123.103 35.75 123.103 36.194C123.103 36.278 123.079 36.386 123.031 36.518C122.995 36.638 122.959 36.734 122.923 36.806L123.517 35.978H117.901V37.31H125.173C125.185 37.262 125.191 37.184 125.191 37.076C125.203 36.968 125.209 36.866 125.209 36.77C125.209 35.882 125.041 35.126 124.705 34.502C124.381 33.866 123.913 33.38 123.301 33.044C122.689 32.708 121.945 32.54 121.069 32.54C120.193 32.54 119.431 32.72 118.783 33.08C118.135 33.428 117.631 33.926 117.271 34.574C116.923 35.222 116.749 35.984 116.749 36.86C116.749 37.724 116.923 38.48 117.271 39.128C117.619 39.776 118.111 40.28 118.747 40.64C119.395 41 120.139 41.18 120.979 41.18ZM126.596 41.558C126.62 42.278 126.8 42.914 127.136 43.466C127.484 44.018 127.976 44.444 128.612 44.744C129.248 45.056 130.016 45.212 130.916 45.212C131.672 45.212 132.374 45.05 133.022 44.726C133.67 44.414 134.192 43.934 134.588 43.286C134.996 42.638 135.2 41.816 135.2 40.82V32.72H133.292V40.82C133.292 41.444 133.172 41.954 132.932 42.35C132.704 42.746 132.404 43.04 132.032 43.232C131.66 43.424 131.27 43.52 130.862 43.52C130.406 43.52 130.004 43.436 129.656 43.268C129.308 43.1 129.032 42.866 128.828 42.566C128.636 42.266 128.534 41.93 128.522 41.558H126.596ZM126.434 36.824C126.434 37.724 126.62 38.492 126.992 39.128C127.364 39.764 127.856 40.25 128.468 40.586C129.092 40.922 129.758 41.09 130.466 41.09C131.162 41.09 131.768 40.922 132.284 40.586C132.812 40.238 133.226 39.746 133.526 39.11C133.838 38.474 133.994 37.712 133.994 36.824C133.994 35.924 133.838 35.156 133.526 34.52C133.226 33.884 132.812 33.398 132.284 33.062C131.768 32.714 131.162 32.54 130.466 32.54C129.758 32.54 129.092 32.708 128.468 33.044C127.856 33.38 127.364 33.866 126.992 34.502C126.62 35.126 126.434 35.9 126.434 36.824ZM128.45 36.824C128.45 36.26 128.564 35.786 128.792 35.402C129.02 35.018 129.32 34.73 129.692 34.538C130.076 34.334 130.49 34.232 130.934 34.232C131.21 34.232 131.486 34.286 131.762 34.394C132.05 34.502 132.308 34.67 132.536 34.898C132.764 35.114 132.944 35.384 133.076 35.708C133.22 36.02 133.292 36.392 133.292 36.824C133.292 37.376 133.172 37.85 132.932 38.246C132.704 38.63 132.404 38.918 132.032 39.11C131.672 39.302 131.306 39.398 130.934 39.398C130.49 39.398 130.076 39.302 129.692 39.11C129.32 38.906 129.02 38.612 128.792 38.228C128.564 37.844 128.45 37.376 128.45 36.824ZM137.539 29.426C137.539 29.75 137.659 30.032 137.899 30.272C138.151 30.5 138.439 30.614 138.763 30.614C139.111 30.614 139.399 30.5 139.627 30.272C139.867 30.032 139.987 29.75 139.987 29.426C139.987 29.09 139.867 28.808 139.627 28.58C139.399 28.352 139.111 28.238 138.763 28.238C138.439 28.238 138.151 28.352 137.899 28.58C137.659 28.808 137.539 29.09 137.539 29.426ZM137.809 32.72V41H139.717V32.72H137.809ZM142.77 38.282L141.636 39.416C141.876 39.728 142.17 40.028 142.518 40.316C142.878 40.592 143.292 40.82 143.76 41C144.24 41.168 144.762 41.252 145.326 41.252C146.238 41.252 146.958 41.018 147.486 40.55C148.026 40.07 148.296 39.44 148.296 38.66C148.296 38.156 148.176 37.748 147.936 37.436C147.708 37.124 147.402 36.86 147.018 36.644C146.634 36.428 146.214 36.23 145.758 36.05C145.422 35.918 145.116 35.792 144.84 35.672C144.576 35.552 144.36 35.42 144.192 35.276C144.036 35.12 143.958 34.946 143.958 34.754C143.958 34.526 144.048 34.352 144.228 34.232C144.408 34.112 144.636 34.052 144.912 34.052C145.32 34.052 145.716 34.154 146.1 34.358C146.484 34.562 146.814 34.826 147.09 35.15L148.17 33.998C147.942 33.722 147.666 33.476 147.342 33.26C147.018 33.044 146.652 32.87 146.244 32.738C145.848 32.606 145.422 32.54 144.966 32.54C144.462 32.54 143.988 32.624 143.544 32.792C143.112 32.948 142.764 33.194 142.5 33.53C142.248 33.866 142.122 34.286 142.122 34.79C142.122 35.282 142.236 35.69 142.464 36.014C142.704 36.338 143.004 36.602 143.364 36.806C143.736 36.998 144.108 37.166 144.48 37.31C144.852 37.442 145.176 37.574 145.452 37.706C145.728 37.826 145.944 37.976 146.1 38.156C146.256 38.324 146.334 38.528 146.334 38.768C146.334 39.044 146.232 39.26 146.028 39.416C145.836 39.572 145.566 39.65 145.218 39.65C144.942 39.65 144.666 39.602 144.39 39.506C144.114 39.398 143.838 39.242 143.562 39.038C143.298 38.822 143.034 38.57 142.77 38.282ZM148.869 32.72V34.43H153.567V32.72H148.869ZM150.255 29.84V41H152.181V29.84H150.255ZM158.508 41.18C159.468 41.18 160.29 40.994 160.974 40.622C161.658 40.25 162.216 39.692 162.648 38.948L160.974 38.264C160.71 38.708 160.38 39.038 159.984 39.254C159.588 39.47 159.126 39.578 158.598 39.578C158.094 39.578 157.662 39.47 157.302 39.254C156.954 39.038 156.69 38.726 156.51 38.318C156.33 37.898 156.24 37.388 156.24 36.788C156.252 36.188 156.348 35.684 156.528 35.276C156.708 34.868 156.972 34.556 157.32 34.34C157.668 34.124 158.088 34.016 158.58 34.016C158.988 34.016 159.342 34.106 159.642 34.286C159.954 34.466 160.194 34.718 160.362 35.042C160.542 35.366 160.632 35.75 160.632 36.194C160.632 36.278 160.608 36.386 160.56 36.518C160.524 36.638 160.488 36.734 160.452 36.806L161.046 35.978H155.43V37.31H162.702C162.714 37.262 162.72 37.184 162.72 37.076C162.732 36.968 162.738 36.866 162.738 36.77C162.738 35.882 162.57 35.126 162.234 34.502C161.91 33.866 161.442 33.38 160.83 33.044C160.218 32.708 159.474 32.54 158.598 32.54C157.722 32.54 156.96 32.72 156.312 33.08C155.664 33.428 155.16 33.926 154.8 34.574C154.452 35.222 154.278 35.984 154.278 36.86C154.278 37.724 154.452 38.48 154.8 39.128C155.148 39.776 155.64 40.28 156.276 40.64C156.924 41 157.668 41.18 158.508 41.18ZM166.519 32.72H164.593V41H166.519V32.72ZM168.985 34.79L169.921 33.152C169.741 32.924 169.519 32.768 169.255 32.684C168.991 32.588 168.709 32.54 168.409 32.54C167.989 32.54 167.581 32.69 167.185 32.99C166.801 33.29 166.483 33.698 166.231 34.214C165.991 34.718 165.871 35.3 165.871 35.96L166.519 36.338C166.519 35.942 166.561 35.6 166.645 35.312C166.741 35.012 166.891 34.778 167.095 34.61C167.299 34.442 167.563 34.358 167.887 34.358C168.127 34.358 168.325 34.394 168.481 34.466C168.637 34.538 168.805 34.646 168.985 34.79ZM175.5 32.72V34.43H180.198V32.72H175.5ZM176.886 29.84V41H178.812V29.84H176.886ZM180.909 36.86C180.909 37.7 181.101 38.45 181.485 39.11C181.881 39.758 182.415 40.268 183.087 40.64C183.759 41 184.521 41.18 185.373 41.18C186.225 41.18 186.981 41 187.641 40.64C188.313 40.268 188.847 39.758 189.243 39.11C189.639 38.45 189.837 37.7 189.837 36.86C189.837 36.008 189.639 35.258 189.243 34.61C188.847 33.962 188.313 33.458 187.641 33.098C186.981 32.726 186.225 32.54 185.373 32.54C184.521 32.54 183.759 32.726 183.087 33.098C182.415 33.458 181.881 33.962 181.485 34.61C181.101 35.258 180.909 36.008 180.909 36.86ZM182.907 36.86C182.907 36.344 183.015 35.888 183.231 35.492C183.447 35.096 183.741 34.79 184.113 34.574C184.485 34.358 184.905 34.25 185.373 34.25C185.829 34.25 186.243 34.358 186.615 34.574C186.999 34.79 187.299 35.096 187.515 35.492C187.731 35.888 187.839 36.344 187.839 36.86C187.839 37.376 187.731 37.832 187.515 38.228C187.299 38.612 186.999 38.918 186.615 39.146C186.243 39.362 185.829 39.47 185.373 39.47C184.905 39.47 184.485 39.362 184.113 39.146C183.741 38.918 183.447 38.612 183.231 38.228C183.015 37.832 182.907 37.376 182.907 36.86ZM195.98 30.362H199.292V41H201.434V30.362H204.764V28.4H195.98V30.362ZM206.633 32.72H204.707V41H206.633V32.72ZM209.099 34.79L210.035 33.152C209.855 32.924 209.633 32.768 209.369 32.684C209.105 32.588 208.823 32.54 208.523 32.54C208.103 32.54 207.695 32.69 207.299 32.99C206.915 33.29 206.597 33.698 206.345 34.214C206.105 34.718 205.985 35.3 205.985 35.96L206.633 36.338C206.633 35.942 206.675 35.6 206.759 35.312C206.855 35.012 207.005 34.778 207.209 34.61C207.413 34.442 207.677 34.358 208.001 34.358C208.241 34.358 208.439 34.394 208.595 34.466C208.751 34.538 208.919 34.646 209.099 34.79ZM210.475 36.86C210.475 37.7 210.667 38.45 211.051 39.11C211.447 39.758 211.981 40.268 212.653 40.64C213.325 41 214.087 41.18 214.939 41.18C215.791 41.18 216.547 41 217.207 40.64C217.879 40.268 218.413 39.758 218.809 39.11C219.205 38.45 219.403 37.7 219.403 36.86C219.403 36.008 219.205 35.258 218.809 34.61C218.413 33.962 217.879 33.458 217.207 33.098C216.547 32.726 215.791 32.54 214.939 32.54C214.087 32.54 213.325 32.726 212.653 33.098C211.981 33.458 211.447 33.962 211.051 34.61C210.667 35.258 210.475 36.008 210.475 36.86ZM212.473 36.86C212.473 36.344 212.581 35.888 212.797 35.492C213.013 35.096 213.307 34.79 213.679 34.574C214.051 34.358 214.471 34.25 214.939 34.25C215.395 34.25 215.809 34.358 216.181 34.574C216.565 34.79 216.865 35.096 217.081 35.492C217.297 35.888 217.405 36.344 217.405 36.86C217.405 37.376 217.297 37.832 217.081 38.228C216.865 38.612 216.565 38.918 216.181 39.146C215.809 39.362 215.395 39.47 214.939 39.47C214.471 39.47 214.051 39.362 213.679 39.146C213.307 38.918 213.013 38.612 212.797 38.228C212.581 37.832 212.473 37.376 212.473 36.86ZM226.576 35.96V41H228.574V35.744C228.574 34.748 228.328 33.968 227.836 33.404C227.344 32.828 226.63 32.54 225.694 32.54C225.118 32.54 224.62 32.66 224.2 32.9C223.792 33.14 223.456 33.506 223.192 33.998V32.72H221.248V41H223.192V35.96C223.192 35.588 223.27 35.264 223.426 34.988C223.582 34.7 223.798 34.484 224.074 34.34C224.35 34.184 224.668 34.106 225.028 34.106C225.556 34.106 225.946 34.262 226.198 34.574C226.45 34.886 226.576 35.348 226.576 35.96Z" fill="white"/>
<defs>
<linearGradient id="paint0_linear_37_223" x1="237.857" y1="70" x2="287.231" y2="-8.07513" gradientUnits="userSpaceOnUse">
<stop stop-color="#2F54DF"/>
<stop offset="1" stop-color="#B517B5"/>
</linearGradient>
<linearGradient id="paint1_linear_37_223" x1="0" y1="0" x2="297.411" y2="79.6638" gradientUnits="userSpaceOnUse">
<stop stop-color="#3EB7F4"/>
<stop offset="0.497479" stop-color="#2E3ECE"/>
<stop offset="1" stop-color="#FF00FF" stop-opacity="0"/>
</linearGradient>
<linearGradient id="paint2_linear_37_223" x1="69.5685" y1="35" x2="95.4315" y2="35" gradientUnits="userSpaceOnUse">
<stop stop-color="white"/>
<stop offset="1" stop-color="white" stop-opacity="0"/>
</linearGradient>
</defs>
</svg>
