<svg width="300" height="70" viewBox="0 0 300 70" fill="none" xmlns="http://www.w3.org/2000/svg">
<rect width="300" height="70" rx="12" fill="url(#paint0_linear_32_1273)"/>
<rect width="300" height="70" rx="12" fill="url(#paint1_linear_32_1273)"/>
<path d="M35.8958 20C38.8727 20 40.3041 20.2764 41.7914 21.0718C43.1402 21.7932 44.2068 22.8598 44.9282 24.2086C45.6817 25.6176 45.9695 26.9765 45.9977 29.6467L46 39.8958C46 42.8727 45.7236 44.3041 44.9282 45.7914C44.2068 47.1402 43.1402 48.2068 41.7914 48.9282C40.3824 49.6817 39.0235 49.9695 36.3533 49.9977L33.7273 50C32.9742 50 32.3636 49.3895 32.3636 48.6364C32.3636 47.937 32.8901 47.3607 33.5682 47.2819L33.7273 47.2727H35.8958L36.6559 47.2661C38.6731 47.2278 39.5763 47.02 40.5052 46.5232C41.3787 46.0561 42.0561 45.3787 42.5232 44.5052C43.02 43.5763 43.2278 42.6731 43.2661 40.6559L43.2727 39.8958V30.1042L43.2661 29.3441C43.2278 27.3269 43.02 26.4237 42.5232 25.4948C42.0561 24.6213 41.3787 23.9439 40.5052 23.4768C39.5763 22.98 38.6731 22.7722 36.6559 22.7339L35.8958 22.7273H26.1042L25.3441 22.7339C23.3269 22.7722 22.4237 22.98 21.4948 23.4768C20.6213 23.9439 19.9439 24.6213 19.4768 25.4948C18.98 26.4237 18.7722 27.3269 18.7339 29.3441L18.7273 30.1042V32.2773C18.7273 33.0304 18.1168 33.6409 17.3636 33.6409C16.6643 33.6409 16.0879 33.1145 16.0092 32.4363L16 32.2773V30.1042C16 27.1273 16.2764 25.6959 17.0718 24.2086C17.7932 22.8598 18.8598 21.7932 20.2086 21.0718C21.6176 20.3183 22.9765 20.0305 25.6467 20.0023L35.8958 20ZM37.8182 26.8182C38.5713 26.8182 39.1818 27.4287 39.1818 28.1818V36.3636C39.1818 37.1168 38.5713 37.7273 37.8182 37.7273H35.7714L35.7727 39.7727C35.7727 40.4721 35.2463 41.0485 34.5681 41.1272L34.409 41.1364L30.8718 41.135L30.9112 41.3434C30.9504 41.5966 30.9768 41.8527 30.9901 42.111L31 42.5C31 46.6421 27.6421 50 23.5 50C19.3579 50 16 46.6421 16 42.5C16 38.3579 19.3579 35 23.5 35C23.947 35 24.3894 35.0393 24.8231 35.1166L24.8568 35.1227L32.763 27.2176C32.9762 27.0045 33.2525 26.8692 33.548 26.83L33.7273 26.8182H37.8182ZM36.4532 29.5455H34.2918L26.2467 37.5908C25.9305 37.9069 25.4824 38.0456 25.0486 37.97L24.8869 37.9315C24.4418 37.7966 23.9763 37.7273 23.5 37.7273C20.8641 37.7273 18.7273 39.8641 18.7273 42.5C18.7273 45.1359 20.8641 47.2727 23.5 47.2727C26.1359 47.2727 28.2727 45.1359 28.2727 42.5C28.2727 41.7524 28.1017 41.0321 27.7772 40.3794C27.3267 39.4728 27.9861 38.4087 28.9984 38.4088L33.0441 38.4091L33.0455 36.3636C33.0455 35.6643 33.5719 35.0879 34.2501 35.0092L34.4091 35H36.4532V29.5455ZM22.8182 41.8182C23.5713 41.8182 24.1818 42.4287 24.1818 43.1818C24.1818 43.9349 23.5713 44.5455 22.8182 44.5455C22.0651 44.5455 21.4545 43.9349 21.4545 43.1818C21.4545 42.4287 22.0651 41.8182 22.8182 41.8182Z" fill="url(#paint2_linear_32_1273)"/>
<path d="M61.256 34.826C61.976 34.826 62.642 34.754 63.254 34.61C63.878 34.454 64.412 34.232 64.856 33.944C65.312 33.656 65.666 33.314 65.918 32.918C66.17 32.522 66.296 32.084 66.296 31.604C66.296 30.98 66.122 30.416 65.774 29.912C65.438 29.396 64.946 28.982 64.298 28.67C63.65 28.358 62.864 28.202 61.94 28.202C61.028 28.202 60.242 28.358 59.582 28.67C58.922 28.97 58.412 29.384 58.052 29.912C57.704 30.44 57.53 31.052 57.53 31.748H59.528C59.528 31.412 59.63 31.112 59.834 30.848C60.038 30.584 60.32 30.38 60.68 30.236C61.052 30.08 61.472 30.002 61.94 30.002C62.432 30.002 62.84 30.074 63.164 30.218C63.5 30.362 63.746 30.572 63.902 30.848C64.07 31.112 64.154 31.412 64.154 31.748C64.154 32.108 64.04 32.438 63.812 32.738C63.596 33.026 63.272 33.26 62.84 33.44C62.408 33.608 61.88 33.692 61.256 33.692V34.826ZM61.922 41.216C62.942 41.216 63.8 41.066 64.496 40.766C65.204 40.466 65.738 40.046 66.098 39.506C66.47 38.966 66.656 38.342 66.656 37.634C66.656 36.782 66.416 36.098 65.936 35.582C65.468 35.066 64.826 34.688 64.01 34.448C63.194 34.196 62.276 34.07 61.256 34.07V35.276C61.928 35.276 62.504 35.36 62.984 35.528C63.476 35.696 63.854 35.936 64.118 36.248C64.382 36.56 64.514 36.944 64.514 37.4C64.514 38.024 64.292 38.51 63.848 38.858C63.404 39.206 62.75 39.38 61.886 39.38C61.31 39.38 60.818 39.302 60.41 39.146C60.014 38.978 59.708 38.75 59.492 38.462C59.276 38.162 59.15 37.808 59.114 37.4H56.99C56.99 37.916 57.092 38.408 57.296 38.876C57.5 39.332 57.806 39.74 58.214 40.1C58.634 40.448 59.15 40.724 59.762 40.928C60.374 41.12 61.094 41.216 61.922 41.216ZM69.8215 38.552C69.8215 38.264 69.8875 38.018 70.0195 37.814C70.1635 37.598 70.3735 37.436 70.6495 37.328C70.9375 37.208 71.2855 37.148 71.6935 37.148C72.1975 37.148 72.6415 37.214 73.0255 37.346C73.4095 37.466 73.7875 37.664 74.1595 37.94V36.914C74.0635 36.794 73.8895 36.656 73.6375 36.5C73.3855 36.344 73.0675 36.206 72.6835 36.086C72.3115 35.966 71.8855 35.906 71.4055 35.906C70.6855 35.906 70.0555 36.014 69.5155 36.23C68.9875 36.446 68.5795 36.758 68.2915 37.166C68.0035 37.574 67.8595 38.06 67.8595 38.624C67.8595 39.188 67.9855 39.662 68.2375 40.046C68.5015 40.418 68.8495 40.7 69.2815 40.892C69.7255 41.084 70.2175 41.18 70.7575 41.18C71.3335 41.18 71.8555 41.084 72.3235 40.892C72.7915 40.688 73.1635 40.4 73.4395 40.028C73.7155 39.644 73.8535 39.188 73.8535 38.66L73.5655 37.724C73.5655 38.204 73.4695 38.588 73.2775 38.876C73.0855 39.164 72.8215 39.374 72.4855 39.506C72.1495 39.638 71.7715 39.704 71.3515 39.704C71.0635 39.704 70.8055 39.662 70.5775 39.578C70.3495 39.482 70.1635 39.35 70.0195 39.182C69.8875 39.014 69.8215 38.804 69.8215 38.552ZM69.3895 34.898C69.5215 34.814 69.7075 34.712 69.9475 34.592C70.1995 34.46 70.4935 34.346 70.8295 34.25C71.1655 34.154 71.5315 34.106 71.9275 34.106C72.3835 34.106 72.7675 34.214 73.0795 34.43C73.4035 34.634 73.5655 34.928 73.5655 35.312V41H75.4735V35.096C75.4735 34.544 75.3235 34.082 75.0235 33.71C74.7355 33.326 74.3335 33.032 73.8175 32.828C73.3015 32.624 72.7015 32.522 72.0175 32.522C71.2735 32.522 70.6135 32.63 70.0375 32.846C69.4615 33.062 68.9875 33.284 68.6155 33.512L69.3895 34.898ZM79.6457 44.96V32.72H77.6837V44.96H79.6457ZM86.5037 36.86C86.5037 35.936 86.3177 35.15 85.9457 34.502C85.5737 33.854 85.0817 33.362 84.4697 33.026C83.8577 32.678 83.1917 32.504 82.4717 32.504C81.7637 32.504 81.1457 32.684 80.6177 33.044C80.1017 33.392 79.6997 33.89 79.4117 34.538C79.1357 35.186 78.9977 35.96 78.9977 36.86C78.9977 37.748 79.1357 38.522 79.4117 39.182C79.6997 39.83 80.1017 40.334 80.6177 40.694C81.1457 41.042 81.7637 41.216 82.4717 41.216C83.1917 41.216 83.8577 41.048 84.4697 40.712C85.0817 40.364 85.5737 39.866 85.9457 39.218C86.3177 38.558 86.5037 37.772 86.5037 36.86ZM84.4877 36.86C84.4877 37.412 84.3737 37.886 84.1457 38.282C83.9177 38.666 83.6117 38.96 83.2277 39.164C82.8557 39.356 82.4417 39.452 81.9857 39.452C81.6137 39.452 81.2477 39.356 80.8877 39.164C80.5277 38.96 80.2277 38.666 79.9877 38.282C79.7597 37.898 79.6457 37.424 79.6457 36.86C79.6457 36.296 79.7597 35.822 79.9877 35.438C80.2277 35.054 80.5277 34.766 80.8877 34.574C81.2477 34.37 81.6137 34.268 81.9857 34.268C82.4417 34.268 82.8557 34.37 83.2277 34.574C83.6117 34.766 83.9177 35.06 84.1457 35.456C84.3737 35.84 84.4877 36.308 84.4877 36.86ZM88.8773 37.31H96.1493C96.1733 37.202 96.1853 37.106 96.1853 37.022C96.1853 36.926 96.1853 36.842 96.1853 36.77C96.1853 35.894 96.0173 35.144 95.6813 34.52C95.3453 33.884 94.8653 33.398 94.2413 33.062C93.6293 32.714 92.8973 32.54 92.0453 32.54C91.2653 32.54 90.5753 32.684 89.9753 32.972C89.3753 33.26 88.8893 33.662 88.5173 34.178C88.1573 34.694 87.9173 35.294 87.7973 35.978C87.7733 36.122 87.7553 36.266 87.7433 36.41C87.7313 36.554 87.7253 36.704 87.7253 36.86C87.7253 37.688 87.8993 38.432 88.2473 39.092C88.5953 39.74 89.0873 40.25 89.7233 40.622C90.3593 40.994 91.1033 41.18 91.9553 41.18C92.7113 41.18 93.3413 41.09 93.8453 40.91C94.3613 40.718 94.7933 40.454 95.1413 40.118C95.5013 39.782 95.8193 39.392 96.0953 38.948L94.4213 38.264C94.2653 38.528 94.0733 38.762 93.8453 38.966C93.6173 39.158 93.3533 39.308 93.0533 39.416C92.7653 39.524 92.4293 39.578 92.0453 39.578C91.5773 39.578 91.1633 39.482 90.8033 39.29C90.4553 39.086 90.1793 38.786 89.9753 38.39C89.7833 37.982 89.6873 37.472 89.6873 36.86L89.7233 36.356C89.7233 35.876 89.8253 35.462 90.0293 35.114C90.2333 34.754 90.5093 34.484 90.8573 34.304C91.2053 34.112 91.5953 34.016 92.0273 34.016C92.4473 34.016 92.8013 34.1 93.0893 34.268C93.3773 34.424 93.5993 34.652 93.7553 34.952C93.9233 35.24 94.0313 35.582 94.0793 35.978H88.8773V37.31ZM98.1304 32.72V41H100.056V34.43H102.882V32.72H98.1304ZM111.699 34.52L111.789 32.09L104.355 39.2L104.265 41.63L111.699 34.52ZM106.173 32.72H104.265V41.63L106.173 39.434V32.72ZM111.789 32.09L109.881 34.286V41H111.789V32.09ZM115.649 36.86C115.649 36.344 115.763 35.888 115.991 35.492C116.219 35.096 116.525 34.784 116.909 34.556C117.305 34.328 117.743 34.214 118.223 34.214C118.607 34.214 118.979 34.274 119.339 34.394C119.699 34.514 120.017 34.682 120.293 34.898C120.581 35.102 120.791 35.342 120.923 35.618V33.476C120.635 33.188 120.245 32.96 119.753 32.792C119.261 32.624 118.721 32.54 118.133 32.54C117.281 32.54 116.513 32.726 115.829 33.098C115.157 33.458 114.623 33.962 114.227 34.61C113.843 35.258 113.651 36.008 113.651 36.86C113.651 37.7 113.843 38.45 114.227 39.11C114.623 39.758 115.157 40.268 115.829 40.64C116.513 41 117.281 41.18 118.133 41.18C118.721 41.18 119.261 41.096 119.753 40.928C120.245 40.76 120.635 40.532 120.923 40.244V38.102C120.791 38.366 120.587 38.606 120.311 38.822C120.035 39.038 119.717 39.206 119.357 39.326C118.997 39.446 118.619 39.506 118.223 39.506C117.743 39.506 117.305 39.392 116.909 39.164C116.525 38.936 116.219 38.63 115.991 38.246C115.763 37.85 115.649 37.388 115.649 36.86ZM121.92 32.72V34.43H127.158V32.72H121.92ZM123.594 33.08V41H125.502V33.08H123.594ZM130.376 44.96V32.72H128.414V44.96H130.376ZM137.234 36.86C137.234 35.936 137.048 35.15 136.676 34.502C136.304 33.854 135.812 33.362 135.2 33.026C134.588 32.678 133.922 32.504 133.202 32.504C132.494 32.504 131.876 32.684 131.348 33.044C130.832 33.392 130.43 33.89 130.142 34.538C129.866 35.186 129.728 35.96 129.728 36.86C129.728 37.748 129.866 38.522 130.142 39.182C130.43 39.83 130.832 40.334 131.348 40.694C131.876 41.042 132.494 41.216 133.202 41.216C133.922 41.216 134.588 41.048 135.2 40.712C135.812 40.364 136.304 39.866 136.676 39.218C137.048 38.558 137.234 37.772 137.234 36.86ZM135.218 36.86C135.218 37.412 135.104 37.886 134.876 38.282C134.648 38.666 134.342 38.96 133.958 39.164C133.586 39.356 133.172 39.452 132.716 39.452C132.344 39.452 131.978 39.356 131.618 39.164C131.258 38.96 130.958 38.666 130.718 38.282C130.49 37.898 130.376 37.424 130.376 36.86C130.376 36.296 130.49 35.822 130.718 35.438C130.958 35.054 131.258 34.766 131.618 34.574C131.978 34.37 132.344 34.268 132.716 34.268C133.172 34.268 133.586 34.37 133.958 34.574C134.342 34.766 134.648 35.06 134.876 35.456C135.104 35.84 135.218 36.308 135.218 36.86ZM146.592 34.52L146.682 32.09L139.248 39.2L139.158 41.63L146.592 34.52ZM141.066 32.72H139.158V41.63L141.066 39.434V32.72ZM146.682 32.09L144.774 34.286V41H146.682V32.09ZM151.136 44.96V32.72H149.174V44.96H151.136ZM157.994 36.86C157.994 35.936 157.808 35.15 157.436 34.502C157.064 33.854 156.572 33.362 155.96 33.026C155.348 32.678 154.682 32.504 153.962 32.504C153.254 32.504 152.636 32.684 152.108 33.044C151.592 33.392 151.19 33.89 150.902 34.538C150.626 35.186 150.488 35.96 150.488 36.86C150.488 37.748 150.626 38.522 150.902 39.182C151.19 39.83 151.592 40.334 152.108 40.694C152.636 41.042 153.254 41.216 153.962 41.216C154.682 41.216 155.348 41.048 155.96 40.712C156.572 40.364 157.064 39.866 157.436 39.218C157.808 38.558 157.994 37.772 157.994 36.86ZM155.978 36.86C155.978 37.412 155.864 37.886 155.636 38.282C155.408 38.666 155.102 38.96 154.718 39.164C154.346 39.356 153.932 39.452 153.476 39.452C153.104 39.452 152.738 39.356 152.378 39.164C152.018 38.96 151.718 38.666 151.478 38.282C151.25 37.898 151.136 37.424 151.136 36.86C151.136 36.296 151.25 35.822 151.478 35.438C151.718 35.054 152.018 34.766 152.378 34.574C152.738 34.37 153.104 34.268 153.476 34.268C153.932 34.268 154.346 34.37 154.718 34.574C155.102 34.766 155.408 35.06 155.636 35.456C155.864 35.84 155.978 36.308 155.978 36.86ZM159.216 36.86C159.216 37.7 159.408 38.45 159.792 39.11C160.188 39.758 160.722 40.268 161.394 40.64C162.066 41 162.828 41.18 163.68 41.18C164.532 41.18 165.288 41 165.948 40.64C166.62 40.268 167.154 39.758 167.55 39.11C167.946 38.45 168.144 37.7 168.144 36.86C168.144 36.008 167.946 35.258 167.55 34.61C167.154 33.962 166.62 33.458 165.948 33.098C165.288 32.726 164.532 32.54 163.68 32.54C162.828 32.54 162.066 32.726 161.394 33.098C160.722 33.458 160.188 33.962 159.792 34.61C159.408 35.258 159.216 36.008 159.216 36.86ZM161.214 36.86C161.214 36.344 161.322 35.888 161.538 35.492C161.754 35.096 162.048 34.79 162.42 34.574C162.792 34.358 163.212 34.25 163.68 34.25C164.136 34.25 164.55 34.358 164.922 34.574C165.306 34.79 165.606 35.096 165.822 35.492C166.038 35.888 166.146 36.344 166.146 36.86C166.146 37.376 166.038 37.832 165.822 38.228C165.606 38.612 165.306 38.918 164.922 39.146C164.55 39.362 164.136 39.47 163.68 39.47C163.212 39.47 162.792 39.362 162.42 39.146C162.048 38.918 161.754 38.612 161.538 38.228C161.322 37.832 161.214 37.376 161.214 36.86ZM171.23 36.68V37.526H173.624C173.864 37.526 174.068 37.55 174.236 37.598C174.416 37.646 174.554 37.718 174.65 37.814C174.758 37.91 174.842 38.018 174.902 38.138C174.962 38.258 174.992 38.39 174.992 38.534C174.992 38.81 174.884 39.05 174.668 39.254C174.452 39.458 174.104 39.56 173.624 39.56H171.23V41H174.218C175.166 41 175.844 40.784 176.252 40.352C176.672 39.908 176.882 39.374 176.882 38.75C176.882 38.21 176.75 37.79 176.486 37.49C176.222 37.19 175.862 36.98 175.406 36.86C174.95 36.74 174.434 36.68 173.858 36.68H171.23ZM171.23 37.04H173.678C174.194 37.04 174.662 36.968 175.082 36.824C175.514 36.668 175.862 36.44 176.126 36.14C176.39 35.828 176.522 35.438 176.522 34.97C176.522 34.43 176.39 33.998 176.126 33.674C175.862 33.338 175.514 33.098 175.082 32.954C174.662 32.798 174.194 32.72 173.678 32.72H171.23V34.16H173.444C173.816 34.16 174.104 34.25 174.308 34.43C174.524 34.61 174.632 34.838 174.632 35.114C174.632 35.246 174.602 35.372 174.542 35.492C174.482 35.612 174.404 35.72 174.308 35.816C174.212 35.912 174.086 35.984 173.93 36.032C173.786 36.08 173.624 36.104 173.444 36.104H171.23V37.04ZM170.096 32.72V41H172.004V32.72H170.096ZM179.896 38.552C179.896 38.264 179.962 38.018 180.094 37.814C180.238 37.598 180.448 37.436 180.724 37.328C181.012 37.208 181.36 37.148 181.768 37.148C182.272 37.148 182.716 37.214 183.1 37.346C183.484 37.466 183.862 37.664 184.234 37.94V36.914C184.138 36.794 183.964 36.656 183.712 36.5C183.46 36.344 183.142 36.206 182.758 36.086C182.386 35.966 181.96 35.906 181.48 35.906C180.76 35.906 180.13 36.014 179.59 36.23C179.062 36.446 178.654 36.758 178.366 37.166C178.078 37.574 177.934 38.06 177.934 38.624C177.934 39.188 178.06 39.662 178.312 40.046C178.576 40.418 178.924 40.7 179.356 40.892C179.8 41.084 180.292 41.18 180.832 41.18C181.408 41.18 181.93 41.084 182.398 40.892C182.866 40.688 183.238 40.4 183.514 40.028C183.79 39.644 183.928 39.188 183.928 38.66L183.64 37.724C183.64 38.204 183.544 38.588 183.352 38.876C183.16 39.164 182.896 39.374 182.56 39.506C182.224 39.638 181.846 39.704 181.426 39.704C181.138 39.704 180.88 39.662 180.652 39.578C180.424 39.482 180.238 39.35 180.094 39.182C179.962 39.014 179.896 38.804 179.896 38.552ZM179.464 34.898C179.596 34.814 179.782 34.712 180.022 34.592C180.274 34.46 180.568 34.346 180.904 34.25C181.24 34.154 181.606 34.106 182.002 34.106C182.458 34.106 182.842 34.214 183.154 34.43C183.478 34.634 183.64 34.928 183.64 35.312V41H185.548V35.096C185.548 34.544 185.398 34.082 185.098 33.71C184.81 33.326 184.408 33.032 183.892 32.828C183.376 32.624 182.776 32.522 182.092 32.522C181.348 32.522 180.688 32.63 180.112 32.846C179.536 33.062 179.062 33.284 178.69 33.512L179.464 34.898ZM186.678 32.72V34.43H191.916V32.72H186.678ZM188.352 33.08V41H190.26V33.08H188.352ZM193.28 32.72V41H195.242V32.72H193.28ZM194.648 37.184H197.024C197.468 37.184 197.798 37.28 198.014 37.472C198.242 37.664 198.356 37.94 198.356 38.3C198.356 38.528 198.302 38.726 198.194 38.894C198.098 39.062 197.948 39.188 197.744 39.272C197.552 39.356 197.312 39.398 197.024 39.398H194.648V41H197.222C197.798 41 198.314 40.898 198.77 40.694C199.226 40.49 199.586 40.19 199.85 39.794C200.114 39.386 200.246 38.888 200.246 38.3C200.246 37.412 199.952 36.764 199.364 36.356C198.788 35.936 198.074 35.726 197.222 35.726H194.648V37.184ZM203.681 36.86C203.681 36.344 203.795 35.888 204.023 35.492C204.251 35.096 204.557 34.784 204.941 34.556C205.337 34.328 205.775 34.214 206.255 34.214C206.639 34.214 207.011 34.274 207.371 34.394C207.731 34.514 208.049 34.682 208.325 34.898C208.613 35.102 208.823 35.342 208.955 35.618V33.476C208.667 33.188 208.277 32.96 207.785 32.792C207.293 32.624 206.753 32.54 206.165 32.54C205.313 32.54 204.545 32.726 203.861 33.098C203.189 33.458 202.655 33.962 202.259 34.61C201.875 35.258 201.683 36.008 201.683 36.86C201.683 37.7 201.875 38.45 202.259 39.11C202.655 39.758 203.189 40.268 203.861 40.64C204.545 41 205.313 41.18 206.165 41.18C206.753 41.18 207.293 41.096 207.785 40.928C208.277 40.76 208.667 40.532 208.955 40.244V38.102C208.823 38.366 208.619 38.606 208.343 38.822C208.067 39.038 207.749 39.206 207.389 39.326C207.029 39.446 206.651 39.506 206.255 39.506C205.775 39.506 205.337 39.392 204.941 39.164C204.557 38.936 204.251 38.63 204.023 38.246C203.795 37.85 203.681 37.388 203.681 36.86ZM212.795 41L215.549 36.896H213.569L210.725 41H212.795ZM218.177 41V32.72H216.215V41H218.177ZM216.935 36.338H214.523C214.223 36.338 213.971 36.302 213.767 36.23C213.563 36.158 213.407 36.05 213.299 35.906C213.191 35.762 213.137 35.57 213.137 35.33C213.137 35.102 213.191 34.916 213.299 34.772C213.407 34.628 213.563 34.52 213.767 34.448C213.971 34.376 214.223 34.34 214.523 34.34H216.935V32.72H214.361C213.797 32.72 213.275 32.804 212.795 32.972C212.315 33.14 211.931 33.41 211.643 33.782C211.355 34.142 211.211 34.628 211.211 35.24C211.211 35.852 211.355 36.35 211.643 36.734C211.931 37.106 212.315 37.382 212.795 37.562C213.275 37.73 213.797 37.814 214.361 37.814H216.935V36.338ZM226.486 37.436H232.822V35.834H226.486V37.436ZM231.778 32.72V41H233.686V32.72H231.778ZM225.64 32.72V41H227.548V32.72H225.64ZM237.394 38.552C237.394 38.264 237.46 38.018 237.592 37.814C237.736 37.598 237.946 37.436 238.222 37.328C238.51 37.208 238.858 37.148 239.266 37.148C239.77 37.148 240.214 37.214 240.598 37.346C240.982 37.466 241.36 37.664 241.732 37.94V36.914C241.636 36.794 241.462 36.656 241.21 36.5C240.958 36.344 240.64 36.206 240.256 36.086C239.884 35.966 239.458 35.906 238.978 35.906C238.258 35.906 237.628 36.014 237.088 36.23C236.56 36.446 236.152 36.758 235.864 37.166C235.576 37.574 235.432 38.06 235.432 38.624C235.432 39.188 235.558 39.662 235.81 40.046C236.074 40.418 236.422 40.7 236.854 40.892C237.298 41.084 237.79 41.18 238.33 41.18C238.906 41.18 239.428 41.084 239.896 40.892C240.364 40.688 240.736 40.4 241.012 40.028C241.288 39.644 241.426 39.188 241.426 38.66L241.138 37.724C241.138 38.204 241.042 38.588 240.85 38.876C240.658 39.164 240.394 39.374 240.058 39.506C239.722 39.638 239.344 39.704 238.924 39.704C238.636 39.704 238.378 39.662 238.15 39.578C237.922 39.482 237.736 39.35 237.592 39.182C237.46 39.014 237.394 38.804 237.394 38.552ZM236.962 34.898C237.094 34.814 237.28 34.712 237.52 34.592C237.772 34.46 238.066 34.346 238.402 34.25C238.738 34.154 239.104 34.106 239.5 34.106C239.956 34.106 240.34 34.214 240.652 34.43C240.976 34.634 241.138 34.928 241.138 35.312V41H243.046V35.096C243.046 34.544 242.896 34.082 242.596 33.71C242.308 33.326 241.906 33.032 241.39 32.828C240.874 32.624 240.274 32.522 239.59 32.522C238.846 32.522 238.186 32.63 237.61 32.846C237.034 33.062 236.56 33.284 236.188 33.512L236.962 34.898ZM249.626 30.362H252.938V41H255.08V30.362H258.41V28.4H249.626V30.362ZM260.279 32.72H258.353V41H260.279V32.72ZM262.745 34.79L263.681 33.152C263.501 32.924 263.279 32.768 263.015 32.684C262.751 32.588 262.469 32.54 262.169 32.54C261.749 32.54 261.341 32.69 260.945 32.99C260.561 33.29 260.243 33.698 259.991 34.214C259.751 34.718 259.631 35.3 259.631 35.96L260.279 36.338C260.279 35.942 260.321 35.6 260.405 35.312C260.501 35.012 260.651 34.778 260.855 34.61C261.059 34.442 261.323 34.358 261.647 34.358C261.887 34.358 262.085 34.394 262.241 34.466C262.397 34.538 262.565 34.646 262.745 34.79ZM264.122 36.86C264.122 37.7 264.314 38.45 264.698 39.11C265.094 39.758 265.628 40.268 266.3 40.64C266.972 41 267.734 41.18 268.586 41.18C269.438 41.18 270.194 41 270.854 40.64C271.526 40.268 272.06 39.758 272.456 39.11C272.852 38.45 273.05 37.7 273.05 36.86C273.05 36.008 272.852 35.258 272.456 34.61C272.06 33.962 271.526 33.458 270.854 33.098C270.194 32.726 269.438 32.54 268.586 32.54C267.734 32.54 266.972 32.726 266.3 33.098C265.628 33.458 265.094 33.962 264.698 34.61C264.314 35.258 264.122 36.008 264.122 36.86ZM266.12 36.86C266.12 36.344 266.228 35.888 266.444 35.492C266.66 35.096 266.954 34.79 267.326 34.574C267.698 34.358 268.118 34.25 268.586 34.25C269.042 34.25 269.456 34.358 269.828 34.574C270.212 34.79 270.512 35.096 270.728 35.492C270.944 35.888 271.052 36.344 271.052 36.86C271.052 37.376 270.944 37.832 270.728 38.228C270.512 38.612 270.212 38.918 269.828 39.146C269.456 39.362 269.042 39.47 268.586 39.47C268.118 39.47 267.698 39.362 267.326 39.146C266.954 38.918 266.66 38.612 266.444 38.228C266.228 37.832 266.12 37.376 266.12 36.86ZM280.222 35.96V41H282.22V35.744C282.22 34.748 281.974 33.968 281.482 33.404C280.99 32.828 280.276 32.54 279.34 32.54C278.764 32.54 278.266 32.66 277.846 32.9C277.438 33.14 277.102 33.506 276.838 33.998V32.72H274.894V41H276.838V35.96C276.838 35.588 276.916 35.264 277.072 34.988C277.228 34.7 277.444 34.484 277.72 34.34C277.996 34.184 278.314 34.106 278.674 34.106C279.202 34.106 279.592 34.262 279.844 34.574C280.096 34.886 280.222 35.348 280.222 35.96Z" fill="white"/>
<defs>
<linearGradient id="paint0_linear_32_1273" x1="237.857" y1="70" x2="287.231" y2="-8.07513" gradientUnits="userSpaceOnUse">
<stop stop-color="#2F54DF"/>
<stop offset="1" stop-color="#B517B5"/>
</linearGradient>
<linearGradient id="paint1_linear_32_1273" x1="0" y1="0" x2="297.411" y2="79.6638" gradientUnits="userSpaceOnUse">
<stop stop-color="#3EB7F4"/>
<stop offset="0.497479" stop-color="#2E3ECE"/>
<stop offset="1" stop-color="#FF00FF" stop-opacity="0"/>
</linearGradient>
<linearGradient id="paint2_linear_32_1273" x1="16" y1="35" x2="46" y2="35" gradientUnits="userSpaceOnUse">
<stop stop-color="white"/>
<stop offset="1" stop-color="white" stop-opacity="0"/>
</linearGradient>
</defs>
</svg>
