<svg width="300" height="70" viewBox="0 0 300 70" fill="none" xmlns="http://www.w3.org/2000/svg">
<path d="M57 20C65.2843 20 72 26.7157 72 35C72 43.2843 65.2843 50 57 50C48.7157 50 42 43.2843 42 35C42 26.7157 48.7157 20 57 20ZM57 22.5C50.0964 22.5 44.5 28.0964 44.5 35C44.5 41.9036 50.0964 47.5 57 47.5C63.9036 47.5 69.5 41.9036 69.5 35C69.5 28.0964 63.9036 22.5 57 22.5ZM54.4434 28.9015C54.8714 28.9015 55.2918 29.0139 55.6626 29.2274L62.0108 32.8824C63.1803 33.5558 63.5825 35.0497 62.9092 36.2191C62.6942 36.5926 62.3843 36.9025 62.0108 37.1175L55.6626 40.7725C54.4931 41.4459 52.9992 41.0437 52.3259 39.8742C52.1124 39.5033 52 39.0829 52 38.655V31.3449C52 29.9954 53.094 28.9015 54.4434 28.9015ZM54.5 31.4428V38.5571L60.6783 35L54.5 31.4428Z" fill="url(#paint0_linear_37_226)"/>
<path d="M88.21 37.256L84.502 28.4H82.054L88.21 41.702L94.366 28.4H91.918L88.21 37.256ZM95.5977 29.426C95.5977 29.75 95.7177 30.032 95.9577 30.272C96.2097 30.5 96.4977 30.614 96.8217 30.614C97.1697 30.614 97.4577 30.5 97.6857 30.272C97.9257 30.032 98.0457 29.75 98.0457 29.426C98.0457 29.09 97.9257 28.808 97.6857 28.58C97.4577 28.352 97.1697 28.238 96.8217 28.238C96.4977 28.238 96.2097 28.352 95.9577 28.58C95.7177 28.808 95.5977 29.09 95.5977 29.426ZM95.8677 32.72V41H97.7757V32.72H95.8677ZM106.679 26.96V41H108.641V26.96H106.679ZM99.821 36.86C99.821 37.76 100.007 38.534 100.379 39.182C100.751 39.83 101.243 40.328 101.855 40.676C102.479 41.012 103.145 41.18 103.853 41.18C104.549 41.18 105.155 41.006 105.671 40.658C106.199 40.31 106.613 39.812 106.913 39.164C107.225 38.516 107.381 37.748 107.381 36.86C107.381 35.96 107.225 35.192 106.913 34.556C106.613 33.908 106.199 33.41 105.671 33.062C105.155 32.714 104.549 32.54 103.853 32.54C103.145 32.54 102.479 32.714 101.855 33.062C101.243 33.398 100.751 33.89 100.379 34.538C100.007 35.174 99.821 35.948 99.821 36.86ZM101.837 36.86C101.837 36.308 101.951 35.834 102.179 35.438C102.407 35.042 102.707 34.742 103.079 34.538C103.463 34.334 103.877 34.232 104.321 34.232C104.693 34.232 105.059 34.334 105.419 34.538C105.791 34.742 106.091 35.042 106.319 35.438C106.559 35.822 106.679 36.296 106.679 36.86C106.679 37.424 106.559 37.904 106.319 38.3C106.091 38.684 105.791 38.978 105.419 39.182C105.059 39.386 104.693 39.488 104.321 39.488C103.877 39.488 103.463 39.386 103.079 39.182C102.707 38.978 102.407 38.678 102.179 38.282C101.951 37.886 101.837 37.412 101.837 36.86ZM114.651 41.18C115.611 41.18 116.433 40.994 117.117 40.622C117.801 40.25 118.359 39.692 118.791 38.948L117.117 38.264C116.853 38.708 116.523 39.038 116.127 39.254C115.731 39.47 115.269 39.578 114.741 39.578C114.237 39.578 113.805 39.47 113.445 39.254C113.097 39.038 112.833 38.726 112.653 38.318C112.473 37.898 112.383 37.388 112.383 36.788C112.395 36.188 112.491 35.684 112.671 35.276C112.851 34.868 113.115 34.556 113.463 34.34C113.811 34.124 114.231 34.016 114.723 34.016C115.131 34.016 115.485 34.106 115.785 34.286C116.097 34.466 116.337 34.718 116.505 35.042C116.685 35.366 116.775 35.75 116.775 36.194C116.775 36.278 116.751 36.386 116.703 36.518C116.667 36.638 116.631 36.734 116.595 36.806L117.189 35.978H111.573V37.31H118.845C118.857 37.262 118.863 37.184 118.863 37.076C118.875 36.968 118.881 36.866 118.881 36.77C118.881 35.882 118.713 35.126 118.377 34.502C118.053 33.866 117.585 33.38 116.973 33.044C116.361 32.708 115.617 32.54 114.741 32.54C113.865 32.54 113.103 32.72 112.455 33.08C111.807 33.428 111.303 33.926 110.943 34.574C110.595 35.222 110.421 35.984 110.421 36.86C110.421 37.724 110.595 38.48 110.943 39.128C111.291 39.776 111.783 40.28 112.419 40.64C113.067 41 113.811 41.18 114.651 41.18ZM120.106 36.86C120.106 37.7 120.298 38.45 120.682 39.11C121.078 39.758 121.612 40.268 122.284 40.64C122.956 41 123.718 41.18 124.57 41.18C125.422 41.18 126.178 41 126.838 40.64C127.51 40.268 128.044 39.758 128.44 39.11C128.836 38.45 129.034 37.7 129.034 36.86C129.034 36.008 128.836 35.258 128.44 34.61C128.044 33.962 127.51 33.458 126.838 33.098C126.178 32.726 125.422 32.54 124.57 32.54C123.718 32.54 122.956 32.726 122.284 33.098C121.612 33.458 121.078 33.962 120.682 34.61C120.298 35.258 120.106 36.008 120.106 36.86ZM122.104 36.86C122.104 36.344 122.212 35.888 122.428 35.492C122.644 35.096 122.938 34.79 123.31 34.574C123.682 34.358 124.102 34.25 124.57 34.25C125.026 34.25 125.44 34.358 125.812 34.574C126.196 34.79 126.496 35.096 126.712 35.492C126.928 35.888 127.036 36.344 127.036 36.86C127.036 37.376 126.928 37.832 126.712 38.228C126.496 38.612 126.196 38.918 125.812 39.146C125.44 39.362 125.026 39.47 124.57 39.47C124.102 39.47 123.682 39.362 123.31 39.146C122.938 38.918 122.644 38.612 122.428 38.228C122.212 37.832 122.104 37.376 122.104 36.86ZM137.499 38.426C137.499 38.162 137.559 37.94 137.679 37.76C137.811 37.58 138.003 37.442 138.255 37.346C138.507 37.238 138.837 37.184 139.245 37.184C139.713 37.184 140.157 37.244 140.577 37.364C140.997 37.484 141.393 37.676 141.765 37.94V36.95C141.657 36.818 141.471 36.674 141.207 36.518C140.943 36.35 140.607 36.206 140.199 36.086C139.803 35.966 139.329 35.906 138.777 35.906C137.745 35.906 136.947 36.146 136.383 36.626C135.819 37.094 135.537 37.73 135.537 38.534C135.537 39.098 135.669 39.578 135.933 39.974C136.197 40.37 136.551 40.67 136.995 40.874C137.439 41.078 137.919 41.18 138.435 41.18C138.915 41.18 139.383 41.096 139.839 40.928C140.307 40.748 140.691 40.484 140.991 40.136C141.303 39.776 141.459 39.332 141.459 38.804L141.171 37.724C141.171 38.132 141.069 38.492 140.865 38.804C140.673 39.104 140.415 39.332 140.091 39.488C139.779 39.644 139.431 39.722 139.047 39.722C138.747 39.722 138.477 39.674 138.237 39.578C138.009 39.482 137.829 39.338 137.697 39.146C137.565 38.942 137.499 38.702 137.499 38.426ZM136.887 34.88C137.007 34.796 137.187 34.694 137.427 34.574C137.679 34.442 137.973 34.334 138.309 34.25C138.657 34.154 139.023 34.106 139.407 34.106C139.659 34.106 139.893 34.13 140.109 34.178C140.325 34.226 140.511 34.304 140.667 34.412C140.823 34.52 140.943 34.658 141.027 34.826C141.123 34.994 141.171 35.21 141.171 35.474V41H143.079V35.096C143.079 34.544 142.929 34.082 142.629 33.71C142.329 33.326 141.915 33.032 141.387 32.828C140.871 32.624 140.271 32.522 139.587 32.522C138.819 32.522 138.135 32.63 137.535 32.846C136.947 33.062 136.467 33.284 136.095 33.512L136.887 34.88ZM147.236 26.96H145.274V41H147.236V26.96ZM154.094 36.86C154.094 35.948 153.908 35.174 153.536 34.538C153.164 33.89 152.672 33.398 152.06 33.062C151.448 32.714 150.782 32.54 150.062 32.54C149.378 32.54 148.766 32.714 148.226 33.062C147.698 33.41 147.284 33.908 146.984 34.556C146.684 35.192 146.534 35.96 146.534 36.86C146.534 37.748 146.684 38.516 146.984 39.164C147.284 39.812 147.698 40.31 148.226 40.658C148.766 41.006 149.378 41.18 150.062 41.18C150.782 41.18 151.448 41.012 152.06 40.676C152.672 40.328 153.164 39.83 153.536 39.182C153.908 38.534 154.094 37.76 154.094 36.86ZM152.078 36.86C152.078 37.412 151.964 37.886 151.736 38.282C151.508 38.678 151.202 38.978 150.818 39.182C150.446 39.386 150.032 39.488 149.576 39.488C149.204 39.488 148.838 39.386 148.478 39.182C148.118 38.978 147.818 38.684 147.578 38.3C147.35 37.904 147.236 37.424 147.236 36.86C147.236 36.296 147.35 35.822 147.578 35.438C147.818 35.042 148.118 34.742 148.478 34.538C148.838 34.334 149.204 34.232 149.576 34.232C150.032 34.232 150.446 34.334 150.818 34.538C151.202 34.742 151.508 35.042 151.736 35.438C151.964 35.834 152.078 36.308 152.078 36.86ZM155.315 36.86C155.315 37.7 155.507 38.45 155.891 39.11C156.287 39.758 156.821 40.268 157.493 40.64C158.165 41 158.927 41.18 159.779 41.18C160.631 41.18 161.387 41 162.047 40.64C162.719 40.268 163.253 39.758 163.649 39.11C164.045 38.45 164.243 37.7 164.243 36.86C164.243 36.008 164.045 35.258 163.649 34.61C163.253 33.962 162.719 33.458 162.047 33.098C161.387 32.726 160.631 32.54 159.779 32.54C158.927 32.54 158.165 32.726 157.493 33.098C156.821 33.458 156.287 33.962 155.891 34.61C155.507 35.258 155.315 36.008 155.315 36.86ZM157.313 36.86C157.313 36.344 157.421 35.888 157.637 35.492C157.853 35.096 158.147 34.79 158.519 34.574C158.891 34.358 159.311 34.25 159.779 34.25C160.235 34.25 160.649 34.358 161.021 34.574C161.405 34.79 161.705 35.096 161.921 35.492C162.137 35.888 162.245 36.344 162.245 36.86C162.245 37.376 162.137 37.832 161.921 38.228C161.705 38.612 161.405 38.918 161.021 39.146C160.649 39.362 160.235 39.47 159.779 39.47C159.311 39.47 158.891 39.362 158.519 39.146C158.147 38.918 157.853 38.612 157.637 38.228C157.421 37.832 157.313 37.376 157.313 36.86ZM168.086 37.76V32.72H166.088V37.976C166.088 38.96 166.334 39.74 166.826 40.316C167.33 40.892 168.044 41.18 168.968 41.18C169.544 41.18 170.036 41.06 170.444 40.82C170.864 40.568 171.206 40.202 171.47 39.722V41H173.414V32.72H171.47V37.76C171.47 38.132 171.392 38.462 171.236 38.75C171.08 39.026 170.864 39.242 170.588 39.398C170.312 39.542 169.988 39.614 169.616 39.614C169.1 39.614 168.716 39.452 168.464 39.128C168.212 38.804 168.086 38.348 168.086 37.76ZM174.744 32.72V34.43H179.442V32.72H174.744ZM176.13 29.84V41H178.056V29.84H176.13ZM187.656 41H194.01V39.128H187.656V41ZM187.656 30.272H194.01V28.4H187.656V30.272ZM187.656 35.168H193.65V33.332H187.656V35.168ZM186.342 28.4V41H188.43V28.4H186.342ZM195.203 32.72L199.487 41.756L203.789 32.72H201.647L199.487 38.066L197.327 32.72H195.203ZM208.342 41.18C209.302 41.18 210.124 40.994 210.808 40.622C211.492 40.25 212.05 39.692 212.482 38.948L210.808 38.264C210.544 38.708 210.214 39.038 209.818 39.254C209.422 39.47 208.96 39.578 208.432 39.578C207.928 39.578 207.496 39.47 207.136 39.254C206.788 39.038 206.524 38.726 206.344 38.318C206.164 37.898 206.074 37.388 206.074 36.788C206.086 36.188 206.182 35.684 206.362 35.276C206.542 34.868 206.806 34.556 207.154 34.34C207.502 34.124 207.922 34.016 208.414 34.016C208.822 34.016 209.176 34.106 209.476 34.286C209.788 34.466 210.028 34.718 210.196 35.042C210.376 35.366 210.466 35.75 210.466 36.194C210.466 36.278 210.442 36.386 210.394 36.518C210.358 36.638 210.322 36.734 210.286 36.806L210.88 35.978H205.264V37.31H212.536C212.548 37.262 212.554 37.184 212.554 37.076C212.566 36.968 212.572 36.866 212.572 36.77C212.572 35.882 212.404 35.126 212.068 34.502C211.744 33.866 211.276 33.38 210.664 33.044C210.052 32.708 209.308 32.54 208.432 32.54C207.556 32.54 206.794 32.72 206.146 33.08C205.498 33.428 204.994 33.926 204.634 34.574C204.286 35.222 204.112 35.984 204.112 36.86C204.112 37.724 204.286 38.48 204.634 39.128C204.982 39.776 205.474 40.28 206.11 40.64C206.758 41 207.502 41.18 208.342 41.18ZM216.354 32.72H214.428V41H216.354V32.72ZM218.82 34.79L219.756 33.152C219.576 32.924 219.354 32.768 219.09 32.684C218.826 32.588 218.544 32.54 218.244 32.54C217.824 32.54 217.416 32.69 217.02 32.99C216.636 33.29 216.318 33.698 216.066 34.214C215.826 34.718 215.706 35.3 215.706 35.96L216.354 36.338C216.354 35.942 216.396 35.6 216.48 35.312C216.576 35.012 216.726 34.778 216.93 34.61C217.134 34.442 217.398 34.358 217.722 34.358C217.962 34.358 218.16 34.394 218.316 34.466C218.472 34.538 218.64 34.646 218.82 34.79ZM223.081 34.7C223.081 33.8 223.279 33.02 223.675 32.36C224.083 31.688 224.611 31.172 225.259 30.812C225.919 30.44 226.633 30.254 227.401 30.254C228.001 30.254 228.541 30.332 229.021 30.488C229.501 30.644 229.933 30.86 230.317 31.136C230.713 31.4 231.055 31.7 231.343 32.036V29.516C230.815 29.084 230.245 28.754 229.633 28.526C229.021 28.298 228.253 28.184 227.329 28.184C226.405 28.184 225.541 28.34 224.737 28.652C223.945 28.964 223.255 29.414 222.667 30.002C222.079 30.59 221.617 31.286 221.281 32.09C220.957 32.882 220.795 33.752 220.795 34.7C220.795 35.648 220.957 36.524 221.281 37.328C221.617 38.12 222.079 38.81 222.667 39.398C223.255 39.986 223.945 40.436 224.737 40.748C225.541 41.06 226.405 41.216 227.329 41.216C228.253 41.216 229.021 41.102 229.633 40.874C230.245 40.646 230.815 40.316 231.343 39.884V37.364C231.055 37.7 230.713 38.006 230.317 38.282C229.933 38.546 229.501 38.756 229.021 38.912C228.541 39.068 228.001 39.146 227.401 39.146C226.633 39.146 225.919 38.966 225.259 38.606C224.611 38.234 224.083 37.712 223.675 37.04C223.279 36.368 223.081 35.588 223.081 34.7ZM233.799 26.96V41H235.743V26.96H233.799ZM240.226 37.76V32.72H238.228V37.976C238.228 38.96 238.474 39.74 238.966 40.316C239.47 40.892 240.184 41.18 241.108 41.18C241.684 41.18 242.176 41.06 242.584 40.82C243.004 40.568 243.346 40.202 243.61 39.722V41H245.554V32.72H243.61V37.76C243.61 38.132 243.532 38.462 243.376 38.75C243.22 39.026 243.004 39.242 242.728 39.398C242.452 39.542 242.128 39.614 241.756 39.614C241.24 39.614 240.856 39.452 240.604 39.128C240.352 38.804 240.226 38.348 240.226 37.76ZM249.927 26.96H247.965V41H249.927V26.96ZM256.785 36.86C256.785 35.948 256.599 35.174 256.227 34.538C255.855 33.89 255.363 33.398 254.751 33.062C254.139 32.714 253.473 32.54 252.753 32.54C252.069 32.54 251.457 32.714 250.917 33.062C250.389 33.41 249.975 33.908 249.675 34.556C249.375 35.192 249.225 35.96 249.225 36.86C249.225 37.748 249.375 38.516 249.675 39.164C249.975 39.812 250.389 40.31 250.917 40.658C251.457 41.006 252.069 41.18 252.753 41.18C253.473 41.18 254.139 41.012 254.751 40.676C255.363 40.328 255.855 39.83 256.227 39.182C256.599 38.534 256.785 37.76 256.785 36.86ZM254.769 36.86C254.769 37.412 254.655 37.886 254.427 38.282C254.199 38.678 253.893 38.978 253.509 39.182C253.137 39.386 252.723 39.488 252.267 39.488C251.895 39.488 251.529 39.386 251.169 39.182C250.809 38.978 250.509 38.684 250.269 38.3C250.041 37.904 249.927 37.424 249.927 36.86C249.927 36.296 250.041 35.822 250.269 35.438C250.509 35.042 250.809 34.742 251.169 34.538C251.529 34.334 251.895 34.232 252.267 34.232C252.723 34.232 253.137 34.334 253.509 34.538C253.893 34.742 254.199 35.042 254.427 35.438C254.655 35.834 254.769 36.308 254.769 36.86Z" fill="white"/>
<rect x="1" y="1" width="298" height="68" rx="11" stroke="#616F93" stroke-width="2"/>
<defs>
<linearGradient id="paint0_linear_37_226" x1="42" y1="35" x2="72" y2="35" gradientUnits="userSpaceOnUse">
<stop stop-color="#FF00FF"/>
<stop offset="1" stop-color="#FF00FF" stop-opacity="0"/>
</linearGradient>
</defs>
</svg>
