<svg width="300" height="70" viewBox="0 0 300 70" fill="none" xmlns="http://www.w3.org/2000/svg">
<path d="M66.5 20C74.7843 20 81.5 26.7157 81.5 35C81.5 43.2843 74.7843 50 66.5 50C58.2157 50 51.5 43.2843 51.5 35C51.5 26.7157 58.2157 20 66.5 20ZM66.5 22.5C59.5964 22.5 54 28.0964 54 35C54 41.9036 59.5964 47.5 66.5 47.5C73.4036 47.5 79 41.9036 79 35C79 28.0964 73.4036 22.5 66.5 22.5ZM63.9434 28.9015C64.3714 28.9015 64.7918 29.0139 65.1626 29.2274L71.5108 32.8824C72.6803 33.5558 73.0825 35.0497 72.4092 36.2191C72.1942 36.5926 71.8843 36.9025 71.5108 37.1175L65.1626 40.7725C63.9931 41.4459 62.4992 41.0437 61.8259 39.8742C61.6124 39.5033 61.5 39.0829 61.5 38.655V31.3449C61.5 29.9954 62.594 28.9015 63.9434 28.9015ZM64 31.4428V38.5571L70.1783 35L64 31.4428Z" fill="url(#paint0_linear_32_1276)"/>
<path d="M94.524 34.502H96.702C97.494 34.502 98.19 34.388 98.79 34.16C99.402 33.932 99.876 33.602 100.212 33.17C100.56 32.726 100.734 32.192 100.734 31.568C100.734 30.848 100.56 30.254 100.212 29.786C99.876 29.318 99.402 28.97 98.79 28.742C98.19 28.514 97.494 28.4 96.702 28.4H92.904V41H96.918C97.806 41 98.586 40.874 99.258 40.622C99.942 40.358 100.476 39.956 100.86 39.416C101.256 38.876 101.454 38.192 101.454 37.364C101.454 36.764 101.334 36.248 101.094 35.816C100.854 35.384 100.518 35.03 100.086 34.754C99.666 34.478 99.186 34.274 98.646 34.142C98.106 34.01 97.53 33.944 96.918 33.944H94.524V35.114H96.792C97.152 35.114 97.482 35.156 97.782 35.24C98.082 35.312 98.34 35.438 98.556 35.618C98.784 35.786 98.958 36.002 99.078 36.266C99.21 36.518 99.276 36.812 99.276 37.148C99.276 37.616 99.168 38.006 98.952 38.318C98.736 38.63 98.442 38.864 98.07 39.02C97.698 39.176 97.272 39.254 96.792 39.254H95.028V30.146H96.558C97.146 30.146 97.626 30.29 97.998 30.578C98.37 30.866 98.556 31.274 98.556 31.802C98.556 32.15 98.472 32.45 98.304 32.702C98.136 32.942 97.902 33.128 97.602 33.26C97.302 33.392 96.954 33.458 96.558 33.458H94.524V34.502ZM111.041 34.52L111.131 32.09L103.697 39.2L103.607 41.63L111.041 34.52ZM105.515 32.72H103.607V41.63L105.515 39.434V32.72ZM111.131 32.09L109.223 34.286V41H111.131V32.09ZM118.483 35.51L120.733 40.46L122.749 40.244L118.483 32.09L114.217 40.244L116.233 40.46L118.483 35.51ZM121.903 41V42.62H123.793V39.344H113.173V42.62H115.153V41H121.903ZM126.364 37.31H133.636C133.66 37.202 133.672 37.106 133.672 37.022C133.672 36.926 133.672 36.842 133.672 36.77C133.672 35.894 133.504 35.144 133.168 34.52C132.832 33.884 132.352 33.398 131.728 33.062C131.116 32.714 130.384 32.54 129.532 32.54C128.752 32.54 128.062 32.684 127.462 32.972C126.862 33.26 126.376 33.662 126.004 34.178C125.644 34.694 125.404 35.294 125.284 35.978C125.26 36.122 125.242 36.266 125.23 36.41C125.218 36.554 125.212 36.704 125.212 36.86C125.212 37.688 125.386 38.432 125.734 39.092C126.082 39.74 126.574 40.25 127.21 40.622C127.846 40.994 128.59 41.18 129.442 41.18C130.198 41.18 130.828 41.09 131.332 40.91C131.848 40.718 132.28 40.454 132.628 40.118C132.988 39.782 133.306 39.392 133.582 38.948L131.908 38.264C131.752 38.528 131.56 38.762 131.332 38.966C131.104 39.158 130.84 39.308 130.54 39.416C130.252 39.524 129.916 39.578 129.532 39.578C129.064 39.578 128.65 39.482 128.29 39.29C127.942 39.086 127.666 38.786 127.462 38.39C127.27 37.982 127.174 37.472 127.174 36.86L127.21 36.356C127.21 35.876 127.312 35.462 127.516 35.114C127.72 34.754 127.996 34.484 128.344 34.304C128.692 34.112 129.082 34.016 129.514 34.016C129.934 34.016 130.288 34.1 130.576 34.268C130.864 34.424 131.086 34.652 131.242 34.952C131.41 35.24 131.518 35.582 131.566 35.978H126.364V37.31ZM134.915 36.86C134.915 37.7 135.107 38.45 135.491 39.11C135.887 39.758 136.421 40.268 137.093 40.64C137.765 41 138.527 41.18 139.379 41.18C140.231 41.18 140.987 41 141.647 40.64C142.319 40.268 142.853 39.758 143.249 39.11C143.645 38.45 143.843 37.7 143.843 36.86C143.843 36.008 143.645 35.258 143.249 34.61C142.853 33.962 142.319 33.458 141.647 33.098C140.987 32.726 140.231 32.54 139.379 32.54C138.527 32.54 137.765 32.726 137.093 33.098C136.421 33.458 135.887 33.962 135.491 34.61C135.107 35.258 134.915 36.008 134.915 36.86ZM136.913 36.86C136.913 36.344 137.021 35.888 137.237 35.492C137.453 35.096 137.747 34.79 138.119 34.574C138.491 34.358 138.911 34.25 139.379 34.25C139.835 34.25 140.249 34.358 140.621 34.574C141.005 34.79 141.305 35.096 141.521 35.492C141.737 35.888 141.845 36.344 141.845 36.86C141.845 37.376 141.737 37.832 141.521 38.228C141.305 38.612 141.005 38.918 140.621 39.146C140.249 39.362 139.835 39.47 139.379 39.47C138.911 39.47 138.491 39.362 138.119 39.146C137.747 38.918 137.453 38.612 137.237 38.228C137.021 37.832 136.913 37.376 136.913 36.86ZM150.454 36.86C150.454 37.7 150.646 38.45 151.03 39.11C151.426 39.758 151.96 40.268 152.632 40.64C153.304 41 154.066 41.18 154.918 41.18C155.77 41.18 156.526 41 157.186 40.64C157.858 40.268 158.392 39.758 158.788 39.11C159.184 38.45 159.382 37.7 159.382 36.86C159.382 36.008 159.184 35.258 158.788 34.61C158.392 33.962 157.858 33.458 157.186 33.098C156.526 32.726 155.77 32.54 154.918 32.54C154.066 32.54 153.304 32.726 152.632 33.098C151.96 33.458 151.426 33.962 151.03 34.61C150.646 35.258 150.454 36.008 150.454 36.86ZM152.452 36.86C152.452 36.344 152.56 35.888 152.776 35.492C152.992 35.096 153.286 34.79 153.658 34.574C154.03 34.358 154.45 34.25 154.918 34.25C155.374 34.25 155.788 34.358 156.16 34.574C156.544 34.79 156.844 35.096 157.06 35.492C157.276 35.888 157.384 36.344 157.384 36.86C157.384 37.376 157.276 37.832 157.06 38.228C156.844 38.612 156.544 38.918 156.16 39.146C155.788 39.362 155.374 39.47 154.918 39.47C154.45 39.47 154.03 39.362 153.658 39.146C153.286 38.918 152.992 38.612 152.776 38.228C152.56 37.832 152.452 37.376 152.452 36.86ZM165.168 34.25C165.636 34.25 166.056 34.358 166.428 34.574C166.8 34.79 167.094 35.096 167.31 35.492C167.526 35.888 167.634 36.344 167.634 36.86C167.634 37.376 167.526 37.832 167.31 38.228C167.094 38.612 166.8 38.918 166.428 39.146C166.056 39.362 165.636 39.47 165.168 39.47C164.7 39.47 164.28 39.362 163.908 39.146C163.536 38.918 163.236 38.612 163.008 38.228C162.792 37.832 162.684 37.376 162.684 36.86L160.614 35.78C160.614 36.968 160.812 37.964 161.208 38.768C161.604 39.572 162.144 40.178 162.828 40.586C163.524 40.982 164.304 41.18 165.168 41.18C166.044 41.18 166.812 40.994 167.472 40.622C168.144 40.25 168.672 39.74 169.056 39.092C169.44 38.432 169.632 37.688 169.632 36.86C169.632 36.02 169.44 35.276 169.056 34.628C168.684 33.98 168.168 33.47 167.508 33.098C166.848 32.726 166.098 32.54 165.258 32.54L165.168 34.25ZM161.802 36.86H162.684C162.684 36.44 162.756 36.068 162.9 35.744C163.056 35.42 163.254 35.15 163.494 34.934C163.734 34.706 163.998 34.538 164.286 34.43C164.586 34.31 164.88 34.25 165.168 34.25L165.258 32.54C164.742 32.54 164.274 32.642 163.854 32.846C163.434 33.038 163.068 33.32 162.756 33.692C162.456 34.064 162.222 34.52 162.054 35.06C161.886 35.588 161.802 36.188 161.802 36.86ZM160.614 35.78L162.504 36.77L162.324 34.88C162.324 34.28 162.402 33.692 162.558 33.116C162.714 32.54 162.996 32.024 163.404 31.568C163.824 31.112 164.406 30.752 165.15 30.488C165.81 30.26 166.398 29.978 166.914 29.642C167.442 29.294 167.868 28.892 168.192 28.436C168.516 27.98 168.708 27.488 168.768 26.96H166.878C166.794 27.392 166.542 27.794 166.122 28.166C165.702 28.526 165.084 28.856 164.268 29.156C163.32 29.504 162.576 29.984 162.036 30.596C161.508 31.196 161.136 31.928 160.92 32.792C160.716 33.656 160.614 34.652 160.614 35.78ZM178.382 41H184.736V39.128H178.382V41ZM178.382 30.272H184.736V28.4H178.382V30.272ZM178.382 35.168H184.376V33.332H178.382V35.168ZM177.068 28.4V41H179.156V28.4H177.068ZM185.929 32.72L190.213 41.756L194.515 32.72H192.373L190.213 38.066L188.053 32.72H185.929ZM199.069 41.18C200.029 41.18 200.851 40.994 201.535 40.622C202.219 40.25 202.777 39.692 203.209 38.948L201.535 38.264C201.271 38.708 200.941 39.038 200.545 39.254C200.149 39.47 199.687 39.578 199.159 39.578C198.655 39.578 198.223 39.47 197.863 39.254C197.515 39.038 197.251 38.726 197.071 38.318C196.891 37.898 196.801 37.388 196.801 36.788C196.813 36.188 196.909 35.684 197.089 35.276C197.269 34.868 197.533 34.556 197.881 34.34C198.229 34.124 198.649 34.016 199.141 34.016C199.549 34.016 199.903 34.106 200.203 34.286C200.515 34.466 200.755 34.718 200.923 35.042C201.103 35.366 201.193 35.75 201.193 36.194C201.193 36.278 201.169 36.386 201.121 36.518C201.085 36.638 201.049 36.734 201.013 36.806L201.607 35.978H195.991V37.31H203.263C203.275 37.262 203.281 37.184 203.281 37.076C203.293 36.968 203.299 36.866 203.299 36.77C203.299 35.882 203.131 35.126 202.795 34.502C202.471 33.866 202.003 33.38 201.391 33.044C200.779 32.708 200.035 32.54 199.159 32.54C198.283 32.54 197.521 32.72 196.873 33.08C196.225 33.428 195.721 33.926 195.361 34.574C195.013 35.222 194.839 35.984 194.839 36.86C194.839 37.724 195.013 38.48 195.361 39.128C195.709 39.776 196.201 40.28 196.837 40.64C197.485 41 198.229 41.18 199.069 41.18ZM207.08 32.72H205.154V41H207.08V32.72ZM209.546 34.79L210.482 33.152C210.302 32.924 210.08 32.768 209.816 32.684C209.552 32.588 209.27 32.54 208.97 32.54C208.55 32.54 208.142 32.69 207.746 32.99C207.362 33.29 207.044 33.698 206.792 34.214C206.552 34.718 206.432 35.3 206.432 35.96L207.08 36.338C207.08 35.942 207.122 35.6 207.206 35.312C207.302 35.012 207.452 34.778 207.656 34.61C207.86 34.442 208.124 34.358 208.448 34.358C208.688 34.358 208.886 34.394 209.042 34.466C209.198 34.538 209.366 34.646 209.546 34.79ZM213.808 34.7C213.808 33.8 214.006 33.02 214.402 32.36C214.81 31.688 215.338 31.172 215.986 30.812C216.646 30.44 217.36 30.254 218.128 30.254C218.728 30.254 219.268 30.332 219.748 30.488C220.228 30.644 220.66 30.86 221.044 31.136C221.44 31.4 221.782 31.7 222.07 32.036V29.516C221.542 29.084 220.972 28.754 220.36 28.526C219.748 28.298 218.98 28.184 218.056 28.184C217.132 28.184 216.268 28.34 215.464 28.652C214.672 28.964 213.982 29.414 213.394 30.002C212.806 30.59 212.344 31.286 212.008 32.09C211.684 32.882 211.522 33.752 211.522 34.7C211.522 35.648 211.684 36.524 212.008 37.328C212.344 38.12 212.806 38.81 213.394 39.398C213.982 39.986 214.672 40.436 215.464 40.748C216.268 41.06 217.132 41.216 218.056 41.216C218.98 41.216 219.748 41.102 220.36 40.874C220.972 40.646 221.542 40.316 222.07 39.884V37.364C221.782 37.7 221.44 38.006 221.044 38.282C220.66 38.546 220.228 38.756 219.748 38.912C219.268 39.068 218.728 39.146 218.128 39.146C217.36 39.146 216.646 38.966 215.986 38.606C215.338 38.234 214.81 37.712 214.402 37.04C214.006 36.368 213.808 35.588 213.808 34.7ZM224.525 26.96V41H226.469V26.96H224.525ZM230.953 37.76V32.72H228.955V37.976C228.955 38.96 229.201 39.74 229.693 40.316C230.197 40.892 230.911 41.18 231.835 41.18C232.411 41.18 232.903 41.06 233.311 40.82C233.731 40.568 234.073 40.202 234.337 39.722V41H236.281V32.72H234.337V37.76C234.337 38.132 234.259 38.462 234.103 38.75C233.947 39.026 233.731 39.242 233.455 39.398C233.179 39.542 232.855 39.614 232.483 39.614C231.967 39.614 231.583 39.452 231.331 39.128C231.079 38.804 230.953 38.348 230.953 37.76ZM240.653 26.96H238.691V41H240.653V26.96ZM247.511 36.86C247.511 35.948 247.325 35.174 246.953 34.538C246.581 33.89 246.089 33.398 245.477 33.062C244.865 32.714 244.199 32.54 243.479 32.54C242.795 32.54 242.183 32.714 241.643 33.062C241.115 33.41 240.701 33.908 240.401 34.556C240.101 35.192 239.951 35.96 239.951 36.86C239.951 37.748 240.101 38.516 240.401 39.164C240.701 39.812 241.115 40.31 241.643 40.658C242.183 41.006 242.795 41.18 243.479 41.18C244.199 41.18 244.865 41.012 245.477 40.676C246.089 40.328 246.581 39.83 246.953 39.182C247.325 38.534 247.511 37.76 247.511 36.86ZM245.495 36.86C245.495 37.412 245.381 37.886 245.153 38.282C244.925 38.678 244.619 38.978 244.235 39.182C243.863 39.386 243.449 39.488 242.993 39.488C242.621 39.488 242.255 39.386 241.895 39.182C241.535 38.978 241.235 38.684 240.995 38.3C240.767 37.904 240.653 37.424 240.653 36.86C240.653 36.296 240.767 35.822 240.995 35.438C241.235 35.042 241.535 34.742 241.895 34.538C242.255 34.334 242.621 34.232 242.993 34.232C243.449 34.232 243.863 34.334 244.235 34.538C244.619 34.742 244.925 35.042 245.153 35.438C245.381 35.834 245.495 36.308 245.495 36.86Z" fill="white"/>
<rect x="1" y="1" width="298" height="68" rx="11" stroke="#616F93" stroke-width="2"/>
<defs>
<linearGradient id="paint0_linear_32_1276" x1="51.5" y1="35" x2="81.5" y2="35" gradientUnits="userSpaceOnUse">
<stop stop-color="#FF00FF"/>
<stop offset="1" stop-color="#FF00FF" stop-opacity="0"/>
</linearGradient>
</defs>
</svg>
