<svg width="344" height="70" viewBox="0 0 344 70" fill="none" xmlns="http://www.w3.org/2000/svg">
<path fill-rule="evenodd" clip-rule="evenodd" d="M6.60698 49.1246L9.43432 50.7565V26.7287L16.04 30.5433V54.5711L18.8673 56.203V32.1753L25.4743 35.9898V67.5675L0 52.8585V21.2822L6.60698 25.0968V49.1246Z" fill="white"/>
<path fill-rule="evenodd" clip-rule="evenodd" d="M28.2778 47.9037V55.5329L34.4711 59.1083V51.4792L28.2778 47.9037ZM28.2765 58.794L34.4698 62.3709L34.4684 70L28.2751 66.4232L28.2765 58.794ZM28.2778 37.0107L34.4711 40.5862V48.2153L28.2778 44.6399V37.0107Z" fill="white"/>
<path fill-rule="evenodd" clip-rule="evenodd" d="M55.2807 50.359V47.0937L34.4711 59.1083V51.4792L55.2807 39.4659V36.2007L34.4711 48.2153V40.5862L61.8178 24.7973V53.3099L61.8165 54.2138L34.4684 70L34.4698 62.3709L55.2807 50.359Z" fill="white"/>
<path fill-rule="evenodd" clip-rule="evenodd" d="M12.8003 21.5216L6.19329 17.7071L0 21.2822L6.60698 25.0968L12.8003 21.5216ZM31.6689 32.4146L25.062 28.6001L18.8673 32.1753L25.4743 35.9898L31.6689 32.4146ZM22.2346 26.9681L16.04 30.5433L9.43432 26.7287L15.6276 23.1536L22.2346 26.9681Z" fill="white"/>
<path fill-rule="evenodd" clip-rule="evenodd" d="M52.8208 26.7557L59.4278 22.9411V15.7901L52.8208 19.6047V26.7557ZM43.3865 32.2022L49.9935 28.3876V21.2353L43.3865 25.0499V32.2022ZM33.9535 37.6487L40.5605 33.8341V26.6832L33.9535 30.4977V37.6487Z" fill="white"/>
<path fill-rule="evenodd" clip-rule="evenodd" d="M32.0128 7.58883L29.1854 9.22211L49.9935 21.2353L43.3865 25.0499L22.5784 13.0367L19.7511 14.6686L40.5605 26.6832L33.9535 30.4977L6.60693 14.7089L32.0812 0L59.4278 15.7901L52.8208 19.6047L32.0128 7.58883Z" fill="white"/>
<path d="M81.6778 27.1H92.7778L92.0878 24.1H82.3378L81.6778 27.1ZM87.1678 17.44L90.4978 25.24L90.5878 26.11L93.4378 32.5H97.4278L87.1678 10.33L76.9078 32.5H80.8978L83.8078 25.93L83.8678 25.15L87.1678 17.44ZM108.481 24.1V32.5H111.811V23.74C111.811 22.08 111.401 20.78 110.581 19.84C109.761 18.88 108.571 18.4 107.011 18.4C106.051 18.4 105.221 18.6 104.521 19C103.841 19.4 103.281 20.01 102.841 20.83V18.7H99.6007V32.5H102.841V24.1C102.841 23.48 102.971 22.94 103.231 22.48C103.491 22 103.851 21.64 104.311 21.4C104.771 21.14 105.301 21.01 105.901 21.01C106.781 21.01 107.431 21.27 107.851 21.79C108.271 22.31 108.481 23.08 108.481 24.1ZM114.028 18.7V21.55H121.858V18.7H114.028ZM116.338 13.9V32.5H119.548V13.9H116.338ZM123.043 25.6C123.043 27 123.363 28.25 124.003 29.35C124.663 30.43 125.553 31.28 126.673 31.9C127.793 32.5 129.063 32.8 130.483 32.8C131.903 32.8 133.163 32.5 134.263 31.9C135.383 31.28 136.273 30.43 136.933 29.35C137.593 28.25 137.923 27 137.923 25.6C137.923 24.18 137.593 22.93 136.933 21.85C136.273 20.77 135.383 19.93 134.263 19.33C133.163 18.71 131.903 18.4 130.483 18.4C129.063 18.4 127.793 18.71 126.673 19.33C125.553 19.93 124.663 20.77 124.003 21.85C123.363 22.93 123.043 24.18 123.043 25.6ZM126.373 25.6C126.373 24.74 126.553 23.98 126.913 23.32C127.273 22.66 127.763 22.15 128.383 21.79C129.003 21.43 129.703 21.25 130.483 21.25C131.243 21.25 131.933 21.43 132.553 21.79C133.193 22.15 133.693 22.66 134.053 23.32C134.413 23.98 134.593 24.74 134.593 25.6C134.593 26.46 134.413 27.22 134.053 27.88C133.693 28.52 133.193 29.03 132.553 29.41C131.933 29.77 131.243 29.95 130.483 29.95C129.703 29.95 129.003 29.77 128.383 29.41C127.763 29.03 127.273 28.52 126.913 27.88C126.553 27.22 126.373 26.46 126.373 25.6ZM149.877 24.1V32.5H153.207V23.74C153.207 22.08 152.797 20.78 151.977 19.84C151.157 18.88 149.967 18.4 148.407 18.4C147.447 18.4 146.617 18.6 145.917 19C145.237 19.4 144.677 20.01 144.237 20.83V18.7H140.997V32.5H144.237V24.1C144.237 23.48 144.367 22.94 144.627 22.48C144.887 22 145.247 21.64 145.707 21.4C146.167 21.14 146.697 21.01 147.297 21.01C148.177 21.01 148.827 21.27 149.247 21.79C149.667 22.31 149.877 23.08 149.877 24.1ZM169.408 18.7H165.928L161.608 29.53L163.138 29.62L158.728 18.7H155.008L160.558 30.88L156.958 39.1H160.408L169.408 18.7Z" fill="white"/>
<path d="M79.1578 56.2C79.1578 55.216 79.3738 54.358 79.8058 53.626C80.2498 52.882 80.8258 52.3 81.5338 51.88C82.2418 51.46 83.0098 51.25 83.8378 51.25C84.4378 51.25 84.9838 51.328 85.4758 51.484C85.9798 51.64 86.4358 51.862 86.8438 52.15C87.2518 52.426 87.5998 52.75 87.8878 53.122V51.106C87.3598 50.638 86.7838 50.29 86.1598 50.062C85.5358 49.834 84.7618 49.72 83.8378 49.72C82.9618 49.72 82.1398 49.882 81.3718 50.206C80.6158 50.518 79.9498 50.968 79.3738 51.556C78.7978 52.132 78.3478 52.816 78.0238 53.608C77.6998 54.4 77.5378 55.264 77.5378 56.2C77.5378 57.136 77.6998 58 78.0238 58.792C78.3478 59.584 78.7978 60.274 79.3738 60.862C79.9498 61.438 80.6158 61.888 81.3718 62.212C82.1398 62.524 82.9618 62.68 83.8378 62.68C84.7618 62.68 85.5358 62.566 86.1598 62.338C86.7838 62.11 87.3598 61.762 87.8878 61.294V59.278C87.5998 59.65 87.2518 59.98 86.8438 60.268C86.4358 60.544 85.9798 60.76 85.4758 60.916C84.9838 61.072 84.4378 61.15 83.8378 61.15C83.0098 61.15 82.2418 60.94 81.5338 60.52C80.8258 60.1 80.2498 59.518 79.8058 58.774C79.3738 58.03 79.1578 57.172 79.1578 56.2ZM89.7701 58.36C89.7701 59.188 89.9561 59.932 90.3281 60.592C90.7121 61.24 91.2281 61.75 91.8761 62.122C92.5241 62.494 93.2501 62.68 94.0541 62.68C94.8701 62.68 95.5961 62.494 96.2321 62.122C96.8801 61.75 97.3901 61.24 97.7621 60.592C98.1461 59.932 98.3381 59.188 98.3381 58.36C98.3381 57.52 98.1461 56.776 97.7621 56.128C97.3901 55.48 96.8801 54.97 96.2321 54.598C95.5961 54.226 94.8701 54.04 94.0541 54.04C93.2501 54.04 92.5241 54.226 91.8761 54.598C91.2281 54.97 90.7121 55.48 90.3281 56.128C89.9561 56.776 89.7701 57.52 89.7701 58.36ZM91.2281 58.36C91.2281 57.784 91.3481 57.274 91.5881 56.83C91.8401 56.374 92.1761 56.02 92.5961 55.768C93.0281 55.516 93.5141 55.39 94.0541 55.39C94.5941 55.39 95.0741 55.516 95.4941 55.768C95.9261 56.02 96.2621 56.374 96.5021 56.83C96.7541 57.274 96.8801 57.784 96.8801 58.36C96.8801 58.936 96.7541 59.446 96.5021 59.89C96.2621 60.334 95.9261 60.688 95.4941 60.952C95.0741 61.204 94.5941 61.33 94.0541 61.33C93.5141 61.33 93.0281 61.204 92.5961 60.952C92.1761 60.688 91.8401 60.334 91.5881 59.89C91.3481 59.446 91.2281 58.936 91.2281 58.36ZM111.656 57.28C111.656 56.596 111.548 56.014 111.332 55.534C111.128 55.042 110.828 54.67 110.432 54.418C110.036 54.166 109.556 54.04 108.992 54.04C108.44 54.04 107.948 54.172 107.516 54.436C107.084 54.688 106.724 55.072 106.436 55.588C106.244 55.096 105.938 54.718 105.518 54.454C105.11 54.178 104.618 54.04 104.042 54.04C103.526 54.04 103.076 54.154 102.692 54.382C102.32 54.61 102.008 54.958 101.756 55.426V54.22H100.316V62.5H101.756V57.46C101.756 57.028 101.834 56.656 101.99 56.344C102.146 56.032 102.368 55.798 102.656 55.642C102.944 55.474 103.286 55.39 103.682 55.39C104.222 55.39 104.618 55.558 104.87 55.894C105.134 56.23 105.266 56.752 105.266 57.46V62.5H106.706V57.46C106.706 57.028 106.784 56.656 106.94 56.344C107.096 56.032 107.318 55.798 107.606 55.642C107.894 55.474 108.236 55.39 108.632 55.39C109.172 55.39 109.568 55.558 109.82 55.894C110.084 56.23 110.216 56.752 110.216 57.46V62.5H111.656V57.28ZM115.711 66.46V54.22H114.271V66.46H115.711ZM122.641 58.36C122.641 57.46 122.455 56.692 122.083 56.056C121.711 55.408 121.213 54.91 120.589 54.562C119.977 54.214 119.293 54.04 118.537 54.04C117.853 54.04 117.247 54.214 116.719 54.562C116.203 54.91 115.795 55.408 115.495 56.056C115.207 56.692 115.063 57.46 115.063 58.36C115.063 59.248 115.207 60.016 115.495 60.664C115.795 61.312 116.203 61.81 116.719 62.158C117.247 62.506 117.853 62.68 118.537 62.68C119.293 62.68 119.977 62.506 120.589 62.158C121.213 61.81 121.711 61.312 122.083 60.664C122.455 60.016 122.641 59.248 122.641 58.36ZM121.183 58.36C121.183 58.996 121.051 59.536 120.787 59.98C120.535 60.424 120.193 60.76 119.761 60.988C119.341 61.216 118.873 61.33 118.357 61.33C117.937 61.33 117.523 61.216 117.115 60.988C116.707 60.76 116.371 60.424 116.107 59.98C115.843 59.536 115.711 58.996 115.711 58.36C115.711 57.724 115.843 57.184 116.107 56.74C116.371 56.296 116.707 55.96 117.115 55.732C117.523 55.504 117.937 55.39 118.357 55.39C118.873 55.39 119.341 55.504 119.761 55.732C120.193 55.96 120.535 56.296 120.787 56.74C121.051 57.184 121.183 57.724 121.183 58.36ZM125.275 59.944C125.275 59.644 125.347 59.386 125.491 59.17C125.635 58.954 125.851 58.786 126.139 58.666C126.439 58.546 126.823 58.486 127.291 58.486C127.795 58.486 128.269 58.552 128.713 58.684C129.157 58.804 129.589 59.008 130.009 59.296V58.45C129.925 58.342 129.763 58.204 129.523 58.036C129.283 57.856 128.959 57.7 128.551 57.568C128.155 57.424 127.657 57.352 127.057 57.352C126.037 57.352 125.239 57.598 124.663 58.09C124.099 58.57 123.817 59.212 123.817 60.016C123.817 60.58 123.949 61.06 124.213 61.456C124.477 61.852 124.825 62.158 125.257 62.374C125.701 62.578 126.175 62.68 126.679 62.68C127.135 62.68 127.591 62.596 128.047 62.428C128.515 62.26 128.905 62.002 129.217 61.654C129.541 61.306 129.703 60.868 129.703 60.34L129.415 59.26C129.415 59.692 129.307 60.076 129.091 60.412C128.887 60.736 128.605 60.988 128.245 61.168C127.897 61.348 127.501 61.438 127.057 61.438C126.709 61.438 126.397 61.384 126.121 61.276C125.857 61.156 125.647 60.982 125.491 60.754C125.347 60.526 125.275 60.256 125.275 59.944ZM125.059 56.128C125.191 56.032 125.371 55.918 125.599 55.786C125.827 55.654 126.103 55.54 126.427 55.444C126.763 55.348 127.135 55.3 127.543 55.3C127.795 55.3 128.035 55.324 128.263 55.372C128.491 55.42 128.689 55.498 128.857 55.606C129.037 55.714 129.175 55.864 129.271 56.056C129.367 56.236 129.415 56.47 129.415 56.758V62.5H130.855V56.56C130.855 56.02 130.717 55.564 130.441 55.192C130.177 54.82 129.799 54.538 129.307 54.346C128.827 54.142 128.263 54.04 127.615 54.04C126.847 54.04 126.187 54.154 125.635 54.382C125.095 54.61 124.669 54.838 124.357 55.066L125.059 56.128ZM138.603 57.46V62.5H140.043V57.28C140.043 56.284 139.785 55.498 139.269 54.922C138.765 54.334 138.075 54.04 137.199 54.04C136.659 54.04 136.179 54.16 135.759 54.4C135.351 54.64 135.009 55.012 134.733 55.516V54.22H133.293V62.5H134.733V57.46C134.733 57.052 134.817 56.692 134.985 56.38C135.165 56.068 135.411 55.828 135.723 55.66C136.047 55.48 136.419 55.39 136.839 55.39C137.415 55.39 137.853 55.564 138.153 55.912C138.453 56.26 138.603 56.776 138.603 57.46ZM149.232 54.22H147.612L145.056 60.628L145.65 60.7L143.022 54.22H141.312L144.48 61.33L142.212 66.46H143.832L149.232 54.22ZM156.922 51.34H162.556V49.9H156.922V51.34ZM156.922 56.38H162.376V54.94H156.922V56.38ZM156.076 49.9V62.5H157.606V49.9H156.076ZM163.721 58.36C163.721 59.188 163.907 59.932 164.279 60.592C164.663 61.24 165.179 61.75 165.827 62.122C166.475 62.494 167.201 62.68 168.005 62.68C168.821 62.68 169.547 62.494 170.183 62.122C170.831 61.75 171.341 61.24 171.713 60.592C172.097 59.932 172.289 59.188 172.289 58.36C172.289 57.52 172.097 56.776 171.713 56.128C171.341 55.48 170.831 54.97 170.183 54.598C169.547 54.226 168.821 54.04 168.005 54.04C167.201 54.04 166.475 54.226 165.827 54.598C165.179 54.97 164.663 55.48 164.279 56.128C163.907 56.776 163.721 57.52 163.721 58.36ZM165.179 58.36C165.179 57.784 165.299 57.274 165.539 56.83C165.791 56.374 166.127 56.02 166.547 55.768C166.979 55.516 167.465 55.39 168.005 55.39C168.545 55.39 169.025 55.516 169.445 55.768C169.877 56.02 170.213 56.374 170.453 56.83C170.705 57.274 170.831 57.784 170.831 58.36C170.831 58.936 170.705 59.446 170.453 59.89C170.213 60.334 169.877 60.688 169.445 60.952C169.025 61.204 168.545 61.33 168.005 61.33C167.465 61.33 166.979 61.204 166.547 60.952C166.127 60.688 165.791 60.334 165.539 59.89C165.299 59.446 165.179 58.936 165.179 58.36ZM175.707 59.26V54.22H174.267V59.44C174.267 60.424 174.525 61.21 175.041 61.798C175.557 62.386 176.247 62.68 177.111 62.68C177.663 62.68 178.143 62.56 178.551 62.32C178.959 62.068 179.301 61.696 179.577 61.204V62.5H181.017V54.22H179.577V59.26C179.577 59.668 179.487 60.028 179.307 60.34C179.139 60.652 178.893 60.898 178.569 61.078C178.257 61.246 177.891 61.33 177.471 61.33C176.895 61.33 176.457 61.15 176.157 60.79C175.857 60.43 175.707 59.92 175.707 59.26ZM189.034 57.46V62.5H190.474V57.28C190.474 56.284 190.216 55.498 189.7 54.922C189.196 54.334 188.506 54.04 187.63 54.04C187.09 54.04 186.61 54.16 186.19 54.4C185.782 54.64 185.44 55.012 185.164 55.516V54.22H183.724V62.5H185.164V57.46C185.164 57.052 185.248 56.692 185.416 56.38C185.596 56.068 185.842 55.828 186.154 55.66C186.478 55.48 186.85 55.39 187.27 55.39C187.846 55.39 188.284 55.564 188.584 55.912C188.884 56.26 189.034 56.776 189.034 57.46ZM199.392 48.46V62.5H200.832V48.46H199.392ZM192.462 58.36C192.462 59.248 192.648 60.016 193.02 60.664C193.392 61.312 193.89 61.81 194.514 62.158C195.138 62.506 195.822 62.68 196.566 62.68C197.262 62.68 197.868 62.506 198.384 62.158C198.9 61.81 199.302 61.312 199.59 60.664C199.89 60.016 200.04 59.248 200.04 58.36C200.04 57.46 199.89 56.692 199.59 56.056C199.302 55.408 198.9 54.91 198.384 54.562C197.868 54.214 197.262 54.04 196.566 54.04C195.822 54.04 195.138 54.214 194.514 54.562C193.89 54.91 193.392 55.408 193.02 56.056C192.648 56.692 192.462 57.46 192.462 58.36ZM193.92 58.36C193.92 57.724 194.046 57.184 194.298 56.74C194.562 56.296 194.91 55.96 195.342 55.732C195.774 55.504 196.242 55.39 196.746 55.39C197.166 55.39 197.58 55.504 197.988 55.732C198.396 55.96 198.732 56.296 198.996 56.74C199.26 57.184 199.392 57.724 199.392 58.36C199.392 58.996 199.26 59.536 198.996 59.98C198.732 60.424 198.396 60.76 197.988 60.988C197.58 61.216 197.166 61.33 196.746 61.33C196.242 61.33 195.774 61.216 195.342 60.988C194.91 60.76 194.562 60.424 194.298 59.98C194.046 59.536 193.92 58.996 193.92 58.36ZM206.651 62.68C207.539 62.68 208.307 62.506 208.955 62.158C209.615 61.798 210.161 61.27 210.593 60.574L209.423 59.836C209.123 60.34 208.757 60.718 208.325 60.97C207.893 61.21 207.395 61.33 206.831 61.33C206.267 61.33 205.787 61.21 205.391 60.97C204.995 60.73 204.695 60.382 204.491 59.926C204.287 59.47 204.185 58.918 204.185 58.27C204.197 57.634 204.305 57.1 204.509 56.668C204.725 56.224 205.025 55.888 205.409 55.66C205.805 55.42 206.279 55.3 206.831 55.3C207.299 55.3 207.707 55.402 208.055 55.606C208.403 55.81 208.673 56.092 208.865 56.452C209.069 56.812 209.171 57.238 209.171 57.73C209.171 57.814 209.153 57.922 209.117 58.054C209.081 58.174 209.045 58.264 209.009 58.324L209.585 57.496H203.645V58.72H210.719C210.719 58.696 210.719 58.642 210.719 58.558C210.731 58.462 210.737 58.372 210.737 58.288C210.737 57.412 210.581 56.656 210.269 56.02C209.957 55.384 209.507 54.898 208.919 54.562C208.343 54.214 207.647 54.04 206.831 54.04C206.015 54.04 205.295 54.22 204.671 54.58C204.059 54.94 203.579 55.444 203.231 56.092C202.895 56.74 202.727 57.496 202.727 58.36C202.727 59.212 202.889 59.962 203.213 60.61C203.549 61.258 204.011 61.768 204.599 62.14C205.199 62.5 205.883 62.68 206.651 62.68ZM214.151 54.22H212.711V62.5H214.151V54.22ZM216.653 55.804L217.445 54.616C217.229 54.388 216.989 54.238 216.725 54.166C216.473 54.082 216.197 54.04 215.897 54.04C215.513 54.04 215.135 54.19 214.763 54.49C214.391 54.79 214.085 55.198 213.845 55.714C213.617 56.218 213.503 56.8 213.503 57.46H214.151C214.151 57.064 214.187 56.71 214.259 56.398C214.343 56.086 214.487 55.84 214.691 55.66C214.895 55.48 215.177 55.39 215.537 55.39C215.777 55.39 215.975 55.426 216.131 55.498C216.287 55.558 216.461 55.66 216.653 55.804Z" fill="#BEC6D8"/>
</svg>
