<svg width="344" height="70" viewBox="0 0 344 70" fill="none" xmlns="http://www.w3.org/2000/svg">
<path fill-rule="evenodd" clip-rule="evenodd" d="M6.60698 49.1246L9.43432 50.7565V26.7287L16.04 30.5433V54.5711L18.8673 56.203V32.1753L25.4743 35.9898V67.5675L0 52.8585V21.2822L6.60698 25.0968V49.1246Z" fill="white"/>
<path fill-rule="evenodd" clip-rule="evenodd" d="M28.2778 47.9037V55.5329L34.4711 59.1083V51.4792L28.2778 47.9037ZM28.2765 58.794L34.4698 62.3709L34.4684 70L28.2751 66.4232L28.2765 58.794ZM28.2778 37.0107L34.4711 40.5862V48.2153L28.2778 44.6399V37.0107Z" fill="white"/>
<path fill-rule="evenodd" clip-rule="evenodd" d="M55.2807 50.359V47.0937L34.4711 59.1083V51.4792L55.2807 39.4659V36.2007L34.4711 48.2153V40.5862L61.8178 24.7973V53.3099L61.8165 54.2138L34.4684 70L34.4698 62.3709L55.2807 50.359Z" fill="white"/>
<path fill-rule="evenodd" clip-rule="evenodd" d="M12.8003 21.5216L6.19329 17.7071L0 21.2822L6.60698 25.0968L12.8003 21.5216ZM31.6689 32.4146L25.062 28.6001L18.8673 32.1753L25.4743 35.9898L31.6689 32.4146ZM22.2346 26.9681L16.04 30.5433L9.43432 26.7287L15.6276 23.1536L22.2346 26.9681Z" fill="white"/>
<path fill-rule="evenodd" clip-rule="evenodd" d="M52.8208 26.7557L59.4278 22.9411V15.7901L52.8208 19.6047V26.7557ZM43.3865 32.2022L49.9935 28.3876V21.2353L43.3865 25.0499V32.2022ZM33.9535 37.6487L40.5605 33.8341V26.6832L33.9535 30.4977V37.6487Z" fill="white"/>
<path fill-rule="evenodd" clip-rule="evenodd" d="M32.0128 7.58883L29.1854 9.22211L49.9935 21.2353L43.3865 25.0499L22.5784 13.0367L19.7511 14.6686L40.5605 26.6832L33.9535 30.4977L6.60693 14.7089L32.0812 0L59.4278 15.7901L52.8208 19.6047L32.0128 7.58883Z" fill="white"/>
<path d="M81.6779 27.1H92.7779L92.0879 24.1H82.3379L81.6779 27.1ZM87.1679 17.44L90.4979 25.24L90.5879 26.11L93.4379 32.5H97.4279L87.1679 10.33L76.9079 32.5H80.8979L83.8079 25.93L83.8679 25.15L87.1679 17.44ZM108.481 24.1V32.5H111.811V23.74C111.811 22.08 111.401 20.78 110.581 19.84C109.761 18.88 108.571 18.4 107.011 18.4C106.051 18.4 105.221 18.6 104.521 19C103.841 19.4 103.281 20.01 102.841 20.83V18.7H99.6008V32.5H102.841V24.1C102.841 23.48 102.971 22.94 103.231 22.48C103.491 22 103.851 21.64 104.311 21.4C104.771 21.14 105.301 21.01 105.901 21.01C106.781 21.01 107.431 21.27 107.851 21.79C108.271 22.31 108.481 23.08 108.481 24.1ZM114.028 18.7V21.55H121.858V18.7H114.028ZM116.338 13.9V32.5H119.548V13.9H116.338ZM123.043 25.6C123.043 27 123.363 28.25 124.003 29.35C124.663 30.43 125.553 31.28 126.673 31.9C127.793 32.5 129.063 32.8 130.483 32.8C131.903 32.8 133.163 32.5 134.263 31.9C135.383 31.28 136.273 30.43 136.933 29.35C137.593 28.25 137.923 27 137.923 25.6C137.923 24.18 137.593 22.93 136.933 21.85C136.273 20.77 135.383 19.93 134.263 19.33C133.163 18.71 131.903 18.4 130.483 18.4C129.063 18.4 127.793 18.71 126.673 19.33C125.553 19.93 124.663 20.77 124.003 21.85C123.363 22.93 123.043 24.18 123.043 25.6ZM126.373 25.6C126.373 24.74 126.553 23.98 126.913 23.32C127.273 22.66 127.763 22.15 128.383 21.79C129.003 21.43 129.703 21.25 130.483 21.25C131.243 21.25 131.933 21.43 132.553 21.79C133.193 22.15 133.693 22.66 134.053 23.32C134.413 23.98 134.593 24.74 134.593 25.6C134.593 26.46 134.413 27.22 134.053 27.88C133.693 28.52 133.193 29.03 132.553 29.41C131.933 29.77 131.243 29.95 130.483 29.95C129.703 29.95 129.003 29.77 128.383 29.41C127.763 29.03 127.273 28.52 126.913 27.88C126.553 27.22 126.373 26.46 126.373 25.6ZM149.877 24.1V32.5H153.207V23.74C153.207 22.08 152.797 20.78 151.977 19.84C151.157 18.88 149.967 18.4 148.407 18.4C147.447 18.4 146.617 18.6 145.917 19C145.237 19.4 144.677 20.01 144.237 20.83V18.7H140.997V32.5H144.237V24.1C144.237 23.48 144.367 22.94 144.627 22.48C144.887 22 145.247 21.64 145.707 21.4C146.167 21.14 146.697 21.01 147.297 21.01C148.177 21.01 148.827 21.27 149.247 21.79C149.667 22.31 149.877 23.08 149.877 24.1ZM169.408 18.7H165.928L161.608 29.53L163.138 29.62L158.728 18.7H155.008L160.558 30.88L156.958 39.1H160.408L169.408 18.7Z" fill="white"/>
<path d="M79.1579 56.2C79.1579 55.252 79.3619 54.406 79.7699 53.662C80.1899 52.918 80.7599 52.33 81.4799 51.898C82.1999 51.466 83.0159 51.25 83.9279 51.25C84.8519 51.25 85.6679 51.466 86.3759 51.898C87.0959 52.33 87.6599 52.918 88.0679 53.662C88.4879 54.406 88.6979 55.252 88.6979 56.2C88.6979 57.148 88.4879 57.994 88.0679 58.738C87.6599 59.482 87.0959 60.07 86.3759 60.502C85.6679 60.934 84.8519 61.15 83.9279 61.15C83.0159 61.15 82.1999 60.934 81.4799 60.502C80.7599 60.07 80.1899 59.482 79.7699 58.738C79.3619 57.994 79.1579 57.148 79.1579 56.2ZM77.5379 56.2C77.5379 57.112 77.6939 57.964 78.0059 58.756C78.3299 59.548 78.7799 60.238 79.3559 60.826C79.9319 61.402 80.6099 61.858 81.3899 62.194C82.1699 62.518 83.0159 62.68 83.9279 62.68C84.8519 62.68 85.6979 62.518 86.4659 62.194C87.2459 61.858 87.9239 61.402 88.4999 60.826C89.0759 60.238 89.5199 59.548 89.8319 58.756C90.1559 57.964 90.3179 57.112 90.3179 56.2C90.3179 55.276 90.1559 54.424 89.8319 53.644C89.5199 52.852 89.0759 52.168 88.4999 51.592C87.9239 51.004 87.2459 50.548 86.4659 50.224C85.6979 49.888 84.8519 49.72 83.9279 49.72C83.0159 49.72 82.1699 49.888 81.3899 50.224C80.6099 50.548 79.9319 51.004 79.3559 51.592C78.7799 52.168 78.3299 52.852 78.0059 53.644C77.6939 54.424 77.5379 55.276 77.5379 56.2ZM93.0366 58.36C93.0366 57.784 93.1566 57.274 93.3966 56.83C93.6486 56.374 93.9846 56.02 94.4046 55.768C94.8366 55.516 95.3226 55.39 95.8626 55.39C96.3066 55.39 96.7206 55.462 97.1046 55.606C97.5006 55.738 97.8426 55.918 98.1306 56.146C98.4186 56.374 98.6226 56.626 98.7426 56.902V55.102C98.4546 54.766 98.0406 54.508 97.5006 54.328C96.9726 54.136 96.4266 54.04 95.8626 54.04C95.0586 54.04 94.3326 54.226 93.6846 54.598C93.0366 54.97 92.5206 55.48 92.1366 56.128C91.7646 56.776 91.5786 57.52 91.5786 58.36C91.5786 59.188 91.7646 59.932 92.1366 60.592C92.5206 61.24 93.0366 61.75 93.6846 62.122C94.3326 62.494 95.0586 62.68 95.8626 62.68C96.4266 62.68 96.9726 62.59 97.5006 62.41C98.0406 62.218 98.4546 61.954 98.7426 61.618V59.818C98.6226 60.082 98.4186 60.334 98.1306 60.574C97.8426 60.802 97.5006 60.988 97.1046 61.132C96.7206 61.264 96.3066 61.33 95.8626 61.33C95.3226 61.33 94.8366 61.204 94.4046 60.952C93.9846 60.688 93.6486 60.334 93.3966 59.89C93.1566 59.446 93.0366 58.936 93.0366 58.36ZM101.83 58.81H107.95V57.46H101.83V58.81ZM107.014 54.22V62.5H108.454V54.22H107.014ZM100.984 54.22V62.5H102.424V54.22H100.984ZM110.442 58.36C110.442 59.188 110.628 59.932 111 60.592C111.384 61.24 111.9 61.75 112.548 62.122C113.196 62.494 113.922 62.68 114.726 62.68C115.542 62.68 116.268 62.494 116.904 62.122C117.552 61.75 118.062 61.24 118.434 60.592C118.818 59.932 119.01 59.188 119.01 58.36C119.01 57.52 118.818 56.776 118.434 56.128C118.062 55.48 117.552 54.97 116.904 54.598C116.268 54.226 115.542 54.04 114.726 54.04C113.922 54.04 113.196 54.226 112.548 54.598C111.9 54.97 111.384 55.48 111 56.128C110.628 56.776 110.442 57.52 110.442 58.36ZM111.9 58.36C111.9 57.784 112.02 57.274 112.26 56.83C112.512 56.374 112.848 56.02 113.268 55.768C113.7 55.516 114.186 55.39 114.726 55.39C115.266 55.39 115.746 55.516 116.166 55.768C116.598 56.02 116.934 56.374 117.174 56.83C117.426 57.274 117.552 57.784 117.552 58.36C117.552 58.936 117.426 59.446 117.174 59.89C116.934 60.334 116.598 60.688 116.166 60.952C115.746 61.204 115.266 61.33 114.726 61.33C114.186 61.33 113.7 61.204 113.268 60.952C112.848 60.688 112.512 60.334 112.26 59.89C112.02 59.446 111.9 58.936 111.9 58.36ZM121.834 58.18V58.936H124.228C124.504 58.936 124.738 58.966 124.93 59.026C125.134 59.074 125.296 59.152 125.416 59.26C125.548 59.368 125.644 59.488 125.704 59.62C125.776 59.752 125.812 59.902 125.812 60.07C125.812 60.394 125.68 60.67 125.416 60.898C125.164 61.126 124.768 61.24 124.228 61.24H121.834V62.5H124.588C125.536 62.5 126.214 62.284 126.622 61.852C127.042 61.408 127.252 60.874 127.252 60.25C127.252 59.71 127.12 59.29 126.856 58.99C126.592 58.69 126.232 58.48 125.776 58.36C125.32 58.24 124.804 58.18 124.228 58.18H121.834ZM121.834 58.54H124.048C124.564 58.54 125.032 58.468 125.452 58.324C125.884 58.168 126.232 57.94 126.496 57.64C126.76 57.328 126.892 56.938 126.892 56.47C126.892 55.93 126.76 55.498 126.496 55.174C126.232 54.838 125.884 54.598 125.452 54.454C125.032 54.298 124.564 54.22 124.048 54.22H121.834V55.48H124.048C124.48 55.48 124.822 55.582 125.074 55.786C125.326 55.978 125.452 56.236 125.452 56.56C125.452 56.716 125.416 56.866 125.344 57.01C125.284 57.142 125.194 57.262 125.074 57.37C124.954 57.478 124.804 57.562 124.624 57.622C124.456 57.67 124.264 57.694 124.048 57.694H121.834V58.54ZM120.988 54.22V62.5H122.428V54.22H120.988ZM129.792 60.07C129.792 59.734 129.87 59.446 130.026 59.206C130.182 58.966 130.416 58.78 130.728 58.648C131.052 58.516 131.454 58.45 131.934 58.45C132.462 58.45 132.936 58.522 133.356 58.666C133.776 58.798 134.19 59.008 134.598 59.296V58.45C134.514 58.342 134.358 58.204 134.13 58.036C133.902 57.856 133.596 57.7 133.212 57.568C132.84 57.424 132.39 57.352 131.862 57.352C131.142 57.352 130.518 57.466 129.99 57.694C129.462 57.91 129.054 58.222 128.766 58.63C128.478 59.038 128.334 59.536 128.334 60.124C128.334 60.688 128.46 61.162 128.712 61.546C128.976 61.918 129.324 62.2 129.756 62.392C130.188 62.584 130.662 62.68 131.178 62.68C131.754 62.68 132.276 62.584 132.744 62.392C133.212 62.188 133.584 61.9 133.86 61.528C134.148 61.144 134.292 60.688 134.292 60.16L134.004 59.26C134.004 59.776 133.896 60.19 133.68 60.502C133.476 60.814 133.188 61.042 132.816 61.186C132.444 61.33 132.018 61.402 131.538 61.402C131.214 61.402 130.92 61.354 130.656 61.258C130.392 61.15 130.182 61 130.026 60.808C129.87 60.604 129.792 60.358 129.792 60.07ZM129.792 56.164C129.924 56.068 130.104 55.954 130.332 55.822C130.572 55.678 130.854 55.558 131.178 55.462C131.502 55.354 131.862 55.3 132.258 55.3C132.714 55.3 133.116 55.408 133.464 55.624C133.824 55.828 134.004 56.14 134.004 56.56V62.5H135.444V56.56C135.444 56.02 135.306 55.564 135.03 55.192C134.766 54.82 134.394 54.538 133.914 54.346C133.446 54.142 132.894 54.04 132.258 54.04C131.514 54.04 130.878 54.154 130.35 54.382C129.822 54.61 129.402 54.838 129.09 55.066L129.792 56.164ZM136.621 54.22V55.57H141.481V54.22H136.621ZM138.331 54.58V62.5H139.771V54.58H138.331ZM142.86 58.72H149.934C149.946 58.648 149.952 58.576 149.952 58.504C149.952 58.432 149.952 58.36 149.952 58.288C149.952 57.412 149.79 56.662 149.466 56.038C149.142 55.402 148.686 54.91 148.098 54.562C147.51 54.214 146.826 54.04 146.046 54.04C145.338 54.04 144.696 54.184 144.12 54.472C143.556 54.76 143.094 55.162 142.734 55.678C142.374 56.194 142.134 56.794 142.014 57.478C141.99 57.622 141.972 57.766 141.96 57.91C141.948 58.054 141.942 58.204 141.942 58.36C141.942 59.188 142.11 59.932 142.446 60.592C142.794 61.24 143.262 61.75 143.85 62.122C144.45 62.494 145.122 62.68 145.866 62.68C146.586 62.68 147.186 62.596 147.666 62.428C148.146 62.248 148.554 62.002 148.89 61.69C149.226 61.366 149.532 60.994 149.808 60.574L148.638 59.836C148.458 60.136 148.242 60.4 147.99 60.628C147.738 60.844 147.45 61.018 147.126 61.15C146.814 61.27 146.454 61.33 146.046 61.33C145.506 61.33 145.038 61.216 144.642 60.988C144.246 60.76 143.94 60.424 143.724 59.98C143.508 59.536 143.4 58.996 143.4 58.36L143.436 57.82C143.436 57.304 143.55 56.86 143.778 56.488C144.018 56.104 144.336 55.81 144.732 55.606C145.128 55.402 145.566 55.3 146.046 55.3C146.526 55.3 146.928 55.396 147.252 55.588C147.588 55.768 147.846 56.026 148.026 56.362C148.218 56.686 148.338 57.064 148.386 57.496H142.86V58.72ZM159.18 54.22H152.07V59.62C152.07 60.208 151.938 60.616 151.674 60.844C151.422 61.072 151.116 61.186 150.756 61.186V62.5C151.38 62.5 151.896 62.398 152.304 62.194C152.712 61.978 153.012 61.66 153.204 61.24C153.408 60.808 153.51 60.268 153.51 59.62V55.57H157.74V62.5H159.18V54.22ZM161.963 54.22V62.5H163.403V54.22H161.963ZM162.809 58.612H165.383C165.911 58.612 166.307 58.726 166.571 58.954C166.835 59.182 166.967 59.506 166.967 59.926C166.967 60.202 166.907 60.442 166.787 60.646C166.667 60.838 166.487 60.988 166.247 61.096C166.019 61.192 165.731 61.24 165.383 61.24H162.809V62.5H165.383C165.959 62.5 166.475 62.41 166.931 62.23C167.387 62.05 167.747 61.768 168.011 61.384C168.275 61 168.407 60.514 168.407 59.926C168.407 59.038 168.113 58.39 167.525 57.982C166.949 57.562 166.235 57.352 165.383 57.352H162.809V58.612ZM175.97 54.22V62.5H177.41V54.22H175.97ZM180.47 54.22L176.87 57.64L180.83 62.5H182.63L178.67 57.64L182.27 54.22H180.47ZM183.005 58.36C183.005 59.188 183.191 59.932 183.563 60.592C183.947 61.24 184.463 61.75 185.111 62.122C185.759 62.494 186.485 62.68 187.289 62.68C188.105 62.68 188.831 62.494 189.467 62.122C190.115 61.75 190.625 61.24 190.997 60.592C191.381 59.932 191.573 59.188 191.573 58.36C191.573 57.52 191.381 56.776 190.997 56.128C190.625 55.48 190.115 54.97 189.467 54.598C188.831 54.226 188.105 54.04 187.289 54.04C186.485 54.04 185.759 54.226 185.111 54.598C184.463 54.97 183.947 55.48 183.563 56.128C183.191 56.776 183.005 57.52 183.005 58.36ZM184.463 58.36C184.463 57.784 184.583 57.274 184.823 56.83C185.075 56.374 185.411 56.02 185.831 55.768C186.263 55.516 186.749 55.39 187.289 55.39C187.829 55.39 188.309 55.516 188.729 55.768C189.161 56.02 189.497 56.374 189.737 56.83C189.989 57.274 190.115 57.784 190.115 58.36C190.115 58.936 189.989 59.446 189.737 59.89C189.497 60.334 189.161 60.688 188.729 60.952C188.309 61.204 187.829 61.33 187.289 61.33C186.749 61.33 186.263 61.204 185.831 60.952C185.411 60.688 185.075 60.334 184.823 59.89C184.583 59.446 184.463 58.936 184.463 58.36ZM201.417 62.5H203.037L200.877 53.59L200.067 55.93L201.417 62.5ZM197.097 61.258L197.637 63.058L201.057 56.47L200.877 53.59L197.097 61.258ZM197.637 63.058L198.177 61.258L194.451 53.59L194.271 56.47L197.637 63.058ZM192.291 62.5H193.911L195.261 55.93L194.451 53.59L192.291 62.5ZM211.234 54.22H204.484V62.5H205.924V55.57H209.794V62.5H211.234V54.22ZM214.589 60.07C214.589 59.734 214.667 59.446 214.823 59.206C214.979 58.966 215.213 58.78 215.525 58.648C215.849 58.516 216.251 58.45 216.731 58.45C217.259 58.45 217.733 58.522 218.153 58.666C218.573 58.798 218.987 59.008 219.395 59.296V58.45C219.311 58.342 219.155 58.204 218.927 58.036C218.699 57.856 218.393 57.7 218.009 57.568C217.637 57.424 217.187 57.352 216.659 57.352C215.939 57.352 215.315 57.466 214.787 57.694C214.259 57.91 213.851 58.222 213.563 58.63C213.275 59.038 213.131 59.536 213.131 60.124C213.131 60.688 213.257 61.162 213.509 61.546C213.773 61.918 214.121 62.2 214.553 62.392C214.985 62.584 215.459 62.68 215.975 62.68C216.551 62.68 217.073 62.584 217.541 62.392C218.009 62.188 218.381 61.9 218.657 61.528C218.945 61.144 219.089 60.688 219.089 60.16L218.801 59.26C218.801 59.776 218.693 60.19 218.477 60.502C218.273 60.814 217.985 61.042 217.613 61.186C217.241 61.33 216.815 61.402 216.335 61.402C216.011 61.402 215.717 61.354 215.453 61.258C215.189 61.15 214.979 61 214.823 60.808C214.667 60.604 214.589 60.358 214.589 60.07ZM214.589 56.164C214.721 56.068 214.901 55.954 215.129 55.822C215.369 55.678 215.651 55.558 215.975 55.462C216.299 55.354 216.659 55.3 217.055 55.3C217.511 55.3 217.913 55.408 218.261 55.624C218.621 55.828 218.801 56.14 218.801 56.56V62.5H220.241V56.56C220.241 56.02 220.103 55.564 219.827 55.192C219.563 54.82 219.191 54.538 218.711 54.346C218.243 54.142 217.691 54.04 217.055 54.04C216.311 54.04 215.675 54.154 215.147 54.382C214.619 54.61 214.199 54.838 213.887 55.066L214.589 56.164ZM223.524 58.81H229.644V57.46H223.524V58.81ZM228.708 54.22V62.5H230.148V54.22H228.708ZM222.678 54.22V62.5H224.118V54.22H222.678ZM239.785 55.66L239.875 53.59L233.035 61.06L232.945 63.13L239.785 55.66ZM234.385 54.22H232.945V63.13L234.385 61.15V54.22ZM239.875 53.59L238.435 55.57V62.5H239.875V53.59ZM249.594 55.66L249.684 53.59L242.844 61.06L242.754 63.13L249.594 55.66ZM244.194 54.22H242.754V63.13L244.194 61.15V54.22ZM249.684 53.59L248.244 55.57V62.5H249.684V53.59Z" fill="#BEC6D8"/>
</svg>
