<svg width="60" height="60" viewBox="0 0 60 60" fill="none" xmlns="http://www.w3.org/2000/svg">
<rect x="1" y="1" width="58" height="58" rx="11" stroke="url(#paint0_linear_32_1724)" stroke-width="2"/>
<path fill-rule="evenodd" clip-rule="evenodd" d="M38.2804 27.828C38.0001 29.5096 37.0893 30.3503 35.8282 30.6306C37.5798 31.5414 38.4205 32.8726 37.5798 35.2548C36.5288 38.1975 34.1466 38.4777 30.8536 37.8471L30.0829 41L28.1912 40.5096L28.9619 37.4268C28.4715 37.2866 27.911 37.1465 27.4205 37.0064L26.6498 40.1592L24.7581 39.6688L25.5288 36.5159C25.1084 36.3758 24.618 36.2357 24.1976 36.1656L21.6753 35.535L22.6562 33.3631C22.6562 33.3631 24.0575 33.7134 23.9874 33.7134C24.5479 33.8535 24.8282 33.5032 24.8982 33.2229L26.1594 28.2484L27.0001 24.6752C27.0702 24.2548 26.9301 23.7643 26.1594 23.5541L24.7581 23.2038L25.2485 21.172L27.911 21.8025V21.8726C28.2613 21.9427 28.6817 22.0127 29.102 22.1529L29.8727 19L31.8345 19.4904L31.0638 22.5732C31.5543 22.6433 32.0447 22.7834 32.5352 22.9236L33.3059 19.8408L35.1976 20.3312L34.4269 23.4841C36.8791 24.2548 38.6307 25.5159 38.2804 27.828ZM29.102 30.4904C29.2549 30.5329 29.4498 30.5795 29.6735 30.6329C31.296 31.0203 34.429 31.7685 33.9364 33.9236C33.3365 36.1901 29.6921 35.1585 28.2534 34.7512C28.18 34.7304 28.1123 34.7113 28.0511 34.6943L29.102 30.4904ZM30.5033 24.8153C30.5384 24.8219 30.5757 24.8288 30.6151 24.8361C31.8351 25.0622 35.0399 25.6561 34.4969 27.828C33.9701 29.8038 31.0288 28.9937 29.8048 28.6566C29.7267 28.6351 29.6555 28.6155 29.5925 28.5987L30.5033 24.8153Z" fill="url(#paint1_linear_32_1724)"/>
<defs>
<linearGradient id="paint0_linear_32_1724" x1="0" y1="30" x2="60" y2="30" gradientUnits="userSpaceOnUse">
<stop stop-color="#616F93"/>
<stop offset="1" stop-color="#616F93" stop-opacity="0"/>
</linearGradient>
<linearGradient id="paint1_linear_32_1724" x1="21.6753" y1="30" x2="38.325" y2="30" gradientUnits="userSpaceOnUse">
<stop stop-color="white"/>
<stop offset="1" stop-color="white" stop-opacity="0"/>
</linearGradient>
</defs>
</svg>
