<svg width="60" height="60" viewBox="0 0 60 60" fill="none" xmlns="http://www.w3.org/2000/svg">
<rect x="1" y="1" width="58" height="58" rx="11" stroke="url(#paint0_linear_32_1730)" stroke-width="2"/>
<path d="M38.3125 23.385C36.3225 21.783 33.174 21.5115 33.039 21.502C32.9364 21.4936 32.8338 21.5172 32.7453 21.5697C32.6567 21.6222 32.5867 21.701 32.545 21.795C32.4849 21.9301 32.434 22.0691 32.3925 22.211C33.709 22.4335 35.326 22.881 36.789 23.789C36.8448 23.8237 36.8932 23.8689 36.9315 23.9223C36.9698 23.9757 36.9973 24.036 37.0122 24.1C37.0272 24.164 37.0294 24.2302 37.0188 24.2951C37.0082 24.3599 36.9849 24.422 36.9502 24.4778C36.9156 24.5336 36.8703 24.582 36.8169 24.6203C36.7636 24.6586 36.7032 24.6861 36.6392 24.701C36.5753 24.716 36.509 24.7182 36.4442 24.7076C36.3794 24.697 36.3173 24.6737 36.2615 24.639C33.7465 23.0775 30.6055 23 30 23C29.395 23 26.252 23.078 23.7385 24.6385C23.6827 24.6732 23.6206 24.6965 23.5558 24.7071C23.491 24.7177 23.4247 24.7155 23.3607 24.7005C23.2316 24.6703 23.1197 24.59 23.0497 24.4773C22.9798 24.3646 22.9575 24.2287 22.9877 24.0995C23.018 23.9703 23.0983 23.8585 23.211 23.7885C24.674 22.883 26.291 22.4335 27.6075 22.213C27.5315 21.965 27.4625 21.8085 27.4575 21.795C27.4159 21.7003 27.3456 21.6211 27.2565 21.5685C27.1674 21.5159 27.064 21.4927 26.961 21.502C26.826 21.512 23.6775 21.783 21.66 23.4065C20.6075 24.3805 18.5 30.076 18.5 35C18.5 35.088 18.5235 35.172 18.5665 35.248C20.0195 37.803 23.9865 38.4705 24.8905 38.5H24.906C24.9849 38.5002 25.0627 38.4817 25.1331 38.4461C25.2035 38.4105 25.2644 38.3587 25.311 38.295L26.2245 37.037C23.758 36.4005 22.498 35.3185 22.426 35.254C22.3265 35.1662 22.266 35.0425 22.2578 34.9101C22.2495 34.7777 22.2942 34.6475 22.382 34.548C22.4698 34.4485 22.5935 34.388 22.7259 34.3798C22.8583 34.3715 22.9885 34.4162 23.088 34.504C23.117 34.5315 25.4375 36.5 30 36.5C34.57 36.5 36.8905 34.5235 36.914 34.504C37.0137 34.4168 37.144 34.3728 37.2762 34.3817C37.4084 34.3905 37.5317 34.4514 37.619 34.551C37.6622 34.6001 37.6953 34.6573 37.7164 34.7192C37.7376 34.7811 37.7463 34.8465 37.7421 34.9118C37.7379 34.9771 37.7209 35.0409 37.6921 35.0996C37.6632 35.1584 37.6231 35.2108 37.574 35.254C37.502 35.3185 36.242 36.4005 33.7755 37.037L34.6895 38.295C34.736 38.3586 34.7968 38.4104 34.8671 38.446C34.9374 38.4816 35.0152 38.5001 35.094 38.5H35.109C36.014 38.4705 39.9805 37.8025 41.434 35.248C41.4765 35.172 41.5 35.088 41.5 35C41.5 30.076 39.3925 24.381 38.3125 23.385ZM26.75 33C25.783 33 25 32.105 25 31C25 29.895 25.783 29 26.75 29C27.717 29 28.5 29.895 28.5 31C28.5 32.105 27.717 33 26.75 33ZM33.25 33C32.283 33 31.5 32.105 31.5 31C31.5 29.895 32.283 29 33.25 29C34.217 29 35 29.895 35 31C35 32.105 34.217 33 33.25 33Z" fill="url(#paint1_linear_32_1730)"/>
<defs>
<linearGradient id="paint0_linear_32_1730" x1="0" y1="30" x2="60" y2="30" gradientUnits="userSpaceOnUse">
<stop stop-color="#616F93"/>
<stop offset="1" stop-color="#616F93" stop-opacity="0"/>
</linearGradient>
<linearGradient id="paint1_linear_32_1730" x1="18.5" y1="30" x2="41.5" y2="30" gradientUnits="userSpaceOnUse">
<stop stop-color="white"/>
<stop offset="1" stop-color="white" stop-opacity="0"/>
</linearGradient>
</defs>
</svg>
