<svg width="60" height="60" viewBox="0 0 60 60" fill="none" xmlns="http://www.w3.org/2000/svg">
<rect x="1" y="1" width="58" height="58" rx="11" stroke="url(#paint0_linear_32_1733)" stroke-width="2"/>
<path d="M32.514 34.0945C31.9764 34.6321 30.8244 34.824 30.0036 34.824C29.1803 34.824 28.0308 34.6321 27.4932 34.0945C27.366 33.9672 27.162 33.9672 27.0349 34.0945C26.9076 34.2217 26.9076 34.4257 27.0349 34.5528C27.8869 35.4048 29.5237 35.472 30.0036 35.472C30.4835 35.472 32.1179 35.4048 32.9725 34.5528C33.0972 34.4255 33.0972 34.2215 32.9725 34.0945C32.8452 33.9672 32.6412 33.9672 32.514 34.0945Z" fill="url(#paint1_linear_32_1733)"/>
<path d="M28.4999 31.2504C28.4999 30.5616 27.9383 30 27.2495 30C26.5608 30 25.999 30.5616 25.999 31.2504C25.999 31.9391 26.5608 32.5009 27.2495 32.5009C27.9383 32.5009 28.4999 31.9393 28.4999 31.2504Z" fill="url(#paint2_linear_32_1733)"/>
<path d="M30 18C23.3736 18 18 23.3736 18 30C18 36.6264 23.3736 42 30 42C36.6264 42 42 36.6264 42 30C42 23.3736 36.6264 18 30 18ZM36.9624 31.6007C36.9888 31.7736 37.0032 31.9488 37.0032 32.1264C37.0032 34.8192 33.8688 37.0009 30.0024 37.0009C26.1359 37.0009 23.0015 34.8192 23.0015 32.1264C23.0015 31.9464 23.016 31.7688 23.0424 31.5959C22.4328 31.3224 22.008 30.7104 22.008 30C22.008 29.0352 22.7904 28.2504 23.7576 28.2504C24.228 28.2504 24.6528 28.4352 24.9672 28.7377C26.1815 27.8617 27.8617 27.3023 29.7312 27.2543C29.7312 27.2303 30.6048 23.0687 30.6048 23.0687C30.6216 22.9872 30.6696 22.9175 30.7392 22.8721C30.8088 22.8265 30.8928 22.812 30.9745 22.8289L33.8833 23.4479C34.0873 23.0352 34.5071 22.7496 34.9991 22.7496C35.6904 22.7496 36.2496 23.3088 36.2496 24C36.2496 24.6912 35.6904 25.2504 34.9991 25.2504C34.3295 25.2504 33.7872 24.7224 33.756 24.0601L31.1519 23.5056L30.3552 27.2569C32.1912 27.3215 33.8401 27.8784 35.0352 28.7424C35.3496 28.4377 35.7768 28.2504 36.2496 28.2504C37.2169 28.2504 37.9991 29.0328 37.9991 30C37.9991 30.7152 37.5696 31.3271 36.9624 31.6007Z" fill="url(#paint3_linear_32_1733)"/>
<path d="M32.7504 30C32.0616 30 31.5 30.5616 31.5 31.2504C31.5 31.9391 32.0616 32.5009 32.7504 32.5009C33.4391 32.5009 34.0009 31.9391 34.0009 31.2504C34.0009 30.5616 33.4393 30 32.7504 30Z" fill="url(#paint4_linear_32_1733)"/>
<defs>
<linearGradient id="paint0_linear_32_1733" x1="0" y1="30" x2="60" y2="30" gradientUnits="userSpaceOnUse">
<stop stop-color="#616F93"/>
<stop offset="1" stop-color="#616F93" stop-opacity="0"/>
</linearGradient>
<linearGradient id="paint1_linear_32_1733" x1="26.9395" y1="34.7355" x2="33.066" y2="34.7355" gradientUnits="userSpaceOnUse">
<stop stop-color="white"/>
<stop offset="1" stop-color="white" stop-opacity="0"/>
</linearGradient>
<linearGradient id="paint2_linear_32_1733" x1="25.999" y1="31.2504" x2="28.4999" y2="31.2504" gradientUnits="userSpaceOnUse">
<stop stop-color="white"/>
<stop offset="1" stop-color="white" stop-opacity="0"/>
</linearGradient>
<linearGradient id="paint3_linear_32_1733" x1="18" y1="30" x2="42" y2="30" gradientUnits="userSpaceOnUse">
<stop stop-color="white"/>
<stop offset="1" stop-color="white" stop-opacity="0"/>
</linearGradient>
<linearGradient id="paint4_linear_32_1733" x1="31.5" y1="31.2504" x2="34.0009" y2="31.2504" gradientUnits="userSpaceOnUse">
<stop stop-color="white"/>
<stop offset="1" stop-color="white" stop-opacity="0"/>
</linearGradient>
</defs>
</svg>
