<svg width="60" height="60" viewBox="0 0 60 60" fill="none" xmlns="http://www.w3.org/2000/svg">
<rect x="1" y="1" width="58" height="58" rx="11" stroke="url(#paint0_linear_32_1718)" stroke-width="2"/>
<path d="M30.0001 20.0096C25.9074 20.0096 22.0209 19.6456 20.5365 23.4554C19.9233 25.0289 20.0123 27.0725 20.0123 29.9986C20.0123 32.5663 19.93 34.9795 20.5365 36.5407C22.0176 40.3527 25.9356 39.9875 29.9979 39.9875C33.9171 39.9875 37.9579 40.3956 39.4605 36.5407C40.0748 34.9514 39.9846 32.9382 39.9846 29.9986C39.9846 26.0963 40.1999 23.5771 38.3074 21.6857C36.3912 19.7696 33.7998 20.0096 29.9956 20.0096H30.0001ZM29.1052 21.8097C37.6423 21.7962 38.7289 20.8471 38.1293 34.0316C37.9162 38.6947 34.3657 38.1829 30.0013 38.1829C22.0435 38.1829 21.8147 37.9553 21.8147 29.9941C21.8147 21.9405 22.4459 21.8142 29.1052 21.8075V21.8097ZM35.3316 23.4678C34.67 23.4678 34.1335 24.0043 34.1335 24.666C34.1335 25.3276 34.67 25.8641 35.3316 25.8641C35.9933 25.8641 36.5298 25.3276 36.5298 24.666C36.5298 24.0043 35.9933 23.4678 35.3316 23.4678ZM30.0001 24.8689C27.1676 24.8689 24.8715 27.166 24.8715 29.9986C24.8715 32.8312 27.1676 35.1272 30.0001 35.1272C32.8327 35.1272 35.1276 32.8312 35.1276 29.9986C35.1276 27.166 32.8327 24.8689 30.0001 24.8689ZM30.0001 26.6689C34.4017 26.6689 34.4074 33.3282 30.0001 33.3282C25.5997 33.3282 25.5929 26.6689 30.0001 26.6689Z" fill="url(#paint1_linear_32_1718)"/>
<defs>
<linearGradient id="paint0_linear_32_1718" x1="0" y1="30" x2="60" y2="30" gradientUnits="userSpaceOnUse">
<stop stop-color="#616F93"/>
<stop offset="1" stop-color="#616F93" stop-opacity="0"/>
</linearGradient>
<linearGradient id="paint1_linear_32_1718" x1="20.0078" y1="30" x2="39.992" y2="30" gradientUnits="userSpaceOnUse">
<stop stop-color="white"/>
<stop offset="1" stop-color="white" stop-opacity="0"/>
</linearGradient>
</defs>
</svg>
