<svg width="197" height="45" viewBox="0 0 197 45" fill="none" xmlns="http://www.w3.org/2000/svg">
<path fill-rule="evenodd" clip-rule="evenodd" d="M4.24735 31.5803L6.06492 32.6294V17.183L10.3114 19.6352V35.0816L12.129 36.1307V20.6843L16.3764 23.1365V38.5829V43.4364L12.129 40.9833L6.06492 37.482V37.4829L0 33.9807V29.1289V13.6816L4.24735 16.1339V31.5803Z" fill="#BEC6D8"/>
<path fill-rule="evenodd" clip-rule="evenodd" d="M18.1785 30.7951V35.6996L22.1599 37.9981V33.0936L18.1785 30.7951ZM18.1776 37.796L22.159 40.0954L22.1582 44.9999L18.1768 42.7005L18.1776 37.796ZM18.1785 23.7925L22.1599 26.091V30.9955L18.1785 28.6969V23.7925Z" fill="#BEC6D8"/>
<path fill-rule="evenodd" clip-rule="evenodd" d="M35.5375 32.3734V30.2743L22.1599 37.998V33.0935L35.5375 25.3707V23.2717L22.1599 30.9953V26.0909L39.74 15.9409V20.8454V27.8489H39.7408L39.74 32.5176V34.2704H39.7391V34.8515L35.5366 37.2779L22.1582 44.9989L22.1591 40.0953L35.5375 32.3734Z" fill="#BEC6D8"/>
<path fill-rule="evenodd" clip-rule="evenodd" d="M8.22876 13.8355L3.9814 11.3833L0 13.6818L4.24735 16.1341L8.22876 13.8355ZM20.3586 20.8382L16.1113 18.386L12.1299 20.6845L16.3772 23.1367L20.3586 20.8382ZM14.2937 17.3369L10.3123 19.6354L6.06492 17.1832L10.0463 14.8846L14.2937 17.3369Z" fill="#BEC6D8"/>
<path fill-rule="evenodd" clip-rule="evenodd" d="M33.9562 17.2002L38.2035 14.7479V10.1509L33.9562 12.6031V17.2002ZM27.8912 20.7015L32.1386 18.2493V13.6513L27.8912 16.1036V20.7015ZM21.8271 24.2028L26.0745 21.7506V17.1535L21.8271 19.6058V24.2028Z" fill="#BEC6D8"/>
<path fill-rule="evenodd" clip-rule="evenodd" d="M20.5796 4.87854L18.7621 5.92851L32.1388 13.6513L27.8914 16.1035L14.5147 8.38073L12.6971 9.42984L26.0738 17.1526L21.8265 19.6048L8.44977 11.8821L4.24731 9.45574L8.49467 7.00352L14.3878 3.60149L14.5596 3.50219V3.50133L20.6237 0L24.8261 2.42632L38.2037 10.15L33.9563 12.6022L20.5796 4.87854Z" fill="#BEC6D8"/>
<path d="M48.3706 31.517V13.4832H63.2544V17.1582H53.0694V20.5445H61.9681V24.1407H53.0694V27.842H63.4381V31.517H48.3706Z" fill="#BEC6D8"/>
<path d="M71.5551 31.517L65.0713 13.4832H70.1113L73.4188 23.6682C73.4888 23.8782 73.5763 24.1582 73.6813 24.5082C73.7863 24.8407 73.8913 25.1907 73.9963 25.5582C74.1188 25.9082 74.2151 26.2232 74.2851 26.5032H74.4688C74.5563 26.2407 74.6439 25.9432 74.7313 25.6107C74.8363 25.2607 74.9413 24.9195 75.0463 24.587C75.1513 24.237 75.2388 23.9395 75.3088 23.6945L78.6163 13.4832H83.4726L77.0151 31.517H71.5551Z" fill="#BEC6D8"/>
<path d="M85.8486 31.517V13.4832H100.732V17.1582H90.5474V20.5445H99.4461V24.1407H90.5474V27.842H100.916V31.517H85.8486Z" fill="#BEC6D8"/>
<path d="M104.151 31.517V13.4832H114.624C115.954 13.4832 117.066 13.737 117.958 14.2445C118.851 14.7345 119.516 15.417 119.953 16.292C120.408 17.1495 120.636 18.112 120.636 19.1795C120.636 20.3345 120.364 21.367 119.822 22.277C119.297 23.1695 118.553 23.8695 117.591 24.377L121.213 31.517H115.963L112.971 25.1645H108.849V31.517H104.151ZM108.849 21.6732H113.706C114.353 21.6732 114.869 21.4632 115.254 21.0432C115.657 20.6057 115.858 20.0282 115.858 19.3107C115.858 18.8382 115.771 18.4357 115.596 18.1032C115.421 17.7707 115.176 17.517 114.861 17.342C114.546 17.1495 114.161 17.0532 113.706 17.0532H108.849V21.6732Z" fill="#BEC6D8"/>
<path d="M132.082 31.832C130.139 31.832 128.486 31.4995 127.121 30.8345C125.773 30.152 124.749 29.1195 124.049 27.737C123.349 26.3545 122.999 24.6045 122.999 22.487C122.999 19.372 123.778 17.0445 125.336 15.5045C126.911 13.947 129.159 13.1682 132.082 13.1682C133.709 13.1682 135.153 13.4482 136.413 14.0082C137.673 14.5507 138.653 15.3732 139.353 16.4757C140.071 17.5607 140.429 18.917 140.429 20.5445H135.836C135.836 19.7745 135.678 19.1182 135.363 18.5757C135.066 18.0157 134.637 17.587 134.077 17.2895C133.534 16.992 132.869 16.8432 132.082 16.8432C131.102 16.8432 130.297 17.0445 129.667 17.447C129.037 17.8495 128.573 18.427 128.276 19.1795C127.978 19.932 127.829 20.842 127.829 21.9095V23.0907C127.829 24.1582 127.978 25.077 128.276 25.847C128.573 26.5995 129.028 27.177 129.641 27.5795C130.271 27.9645 131.076 28.157 132.056 28.157C132.896 28.157 133.604 28.017 134.182 27.737C134.777 27.457 135.223 27.0457 135.521 26.5032C135.836 25.9432 135.993 25.2782 135.993 24.5082H140.429C140.429 26.1357 140.079 27.492 139.379 28.577C138.697 29.662 137.726 30.4757 136.466 31.0182C135.223 31.5607 133.762 31.832 132.082 31.832Z" fill="#BEC6D8"/>
<path d="M143.526 31.517V13.4832H148.224V27.6582H157.386V31.517H143.526Z" fill="#BEC6D8"/>
<path d="M167.253 31.832C165.52 31.832 164.024 31.5607 162.764 31.0182C161.521 30.4757 160.568 29.662 159.903 28.577C159.238 27.492 158.905 26.1445 158.905 24.5345V13.4832H163.63V24.4295C163.63 25.5845 163.937 26.4945 164.549 27.1595C165.161 27.8245 166.063 28.157 167.253 28.157C168.443 28.157 169.353 27.8245 169.983 27.1595C170.613 26.4945 170.928 25.5845 170.928 24.4295V13.4832H175.627V24.5345C175.627 26.1445 175.294 27.492 174.629 28.577C173.964 29.662 173.01 30.4757 171.768 31.0182C170.525 31.5607 169.02 31.832 167.253 31.832Z" fill="#BEC6D8"/>
<path d="M179.517 31.517V13.4832H190.542C191.469 13.4832 192.309 13.667 193.062 14.0345C193.814 14.402 194.409 14.9182 194.847 15.5832C195.302 16.2482 195.529 17.027 195.529 17.9195C195.529 18.707 195.389 19.3807 195.109 19.9407C194.847 20.5007 194.488 20.9557 194.033 21.3057C193.596 21.6557 193.097 21.9182 192.537 22.0932V22.1982C193.184 22.3382 193.771 22.592 194.296 22.9595C194.821 23.3095 195.232 23.7907 195.529 24.4032C195.844 25.0157 196.002 25.7595 196.002 26.6345C196.002 27.667 195.757 28.5507 195.267 29.2857C194.777 30.0032 194.129 30.5545 193.324 30.9395C192.519 31.3245 191.618 31.517 190.621 31.517H179.517ZM184.216 27.8945H189.334C189.894 27.8945 190.341 27.7282 190.673 27.3957C191.023 27.0632 191.198 26.5557 191.198 25.8732C191.198 25.5057 191.119 25.182 190.962 24.902C190.822 24.6045 190.603 24.377 190.306 24.2195C190.026 24.062 189.676 23.9832 189.256 23.9832H184.216V27.8945ZM184.216 20.6495H188.914C189.299 20.6495 189.623 20.5707 189.886 20.4132C190.166 20.2557 190.376 20.037 190.516 19.757C190.673 19.477 190.752 19.1445 190.752 18.7595C190.752 18.1995 190.586 17.762 190.253 17.447C189.921 17.132 189.501 16.9745 188.993 16.9745H184.216V20.6495Z" fill="#BEC6D8"/>
</svg>
