<svg width="60" height="60" viewBox="0 0 60 60" fill="none" xmlns="http://www.w3.org/2000/svg">
<rect x="1" y="1" width="58" height="58" rx="11" stroke="url(#paint0_linear_32_1715)" stroke-width="2"/>
<path d="M20.0244 28.3922L39.5348 20.8697C40.4403 20.5425 41.2312 21.0906 40.9378 22.4598L40.9395 22.4581L37.6175 38.1086C37.3713 39.2182 36.7119 39.488 35.7895 38.9653L30.7307 35.2369L28.2906 37.5876C28.0208 37.8574 27.7931 38.085 27.2704 38.085L27.6296 32.9368L37.0054 24.4665C37.4134 24.1073 36.9143 23.905 36.3764 24.2625L24.7898 31.5574L19.795 29.9993C18.7108 29.6552 18.6871 28.915 20.0244 28.3922Z" fill="url(#paint1_linear_32_1715)"/>
<defs>
<linearGradient id="paint0_linear_32_1715" x1="0" y1="30" x2="60" y2="30" gradientUnits="userSpaceOnUse">
<stop stop-color="#616F93"/>
<stop offset="1" stop-color="#616F93" stop-opacity="0"/>
</linearGradient>
<linearGradient id="paint1_linear_32_1715" x1="19" y1="29.9999" x2="41" y2="29.9999" gradientUnits="userSpaceOnUse">
<stop stop-color="white"/>
<stop offset="1" stop-color="white" stop-opacity="0"/>
</linearGradient>
</defs>
</svg>
