<svg width="60" height="60" viewBox="0 0 60 60" fill="none" xmlns="http://www.w3.org/2000/svg">
<rect x="1" y="1" width="58" height="58" rx="11" stroke="url(#paint0_linear_32_1740)" stroke-width="2"/>
<path d="M42.1388 35.6435C42.1091 35.5795 42.0814 35.5264 42.0557 35.4838C41.6299 34.7171 40.8164 33.7759 39.6155 32.6601L39.5901 32.6346L39.5774 32.6221L39.5645 32.6092H39.5517C39.0066 32.0896 38.6615 31.7403 38.5169 31.5614C38.2525 31.2207 38.1932 30.8759 38.3378 30.5264C38.4399 30.2624 38.8235 29.7048 39.4876 28.853C39.837 28.4015 40.1136 28.0397 40.318 27.7671C41.7916 25.808 42.4304 24.5561 42.2344 24.011L42.1583 23.8836C42.1072 23.8069 41.9752 23.7367 41.7625 23.6727C41.5493 23.6089 41.2768 23.5983 40.9446 23.6409L37.2652 23.6663C37.2056 23.6452 37.1205 23.6471 37.0096 23.6727C36.8989 23.6983 36.8435 23.7112 36.8435 23.7112L36.7794 23.7432L36.7286 23.7816C36.686 23.807 36.6391 23.8517 36.588 23.9156C36.5371 23.9793 36.4946 24.054 36.4606 24.1392C36.06 25.1698 35.6045 26.128 35.0934 27.0137C34.7782 27.5419 34.4888 27.9996 34.2245 28.3872C33.9605 28.7746 33.739 29.06 33.5603 29.243C33.3813 29.4262 33.2198 29.5729 33.0747 29.6837C32.9298 29.7946 32.8193 29.8415 32.7427 29.8243C32.666 29.8072 32.5937 29.7902 32.5253 29.7732C32.4061 29.6965 32.3103 29.5922 32.238 29.4602C32.1654 29.3282 32.1166 29.162 32.091 28.9619C32.0656 28.7616 32.0505 28.5893 32.0463 28.4444C32.0423 28.2998 32.0441 28.0951 32.0527 27.8311C32.0616 27.567 32.0656 27.3882 32.0656 27.2945C32.0656 26.9708 32.0719 26.6195 32.0846 26.2405C32.0974 25.8615 32.1079 25.5612 32.1166 25.3399C32.1253 25.1185 32.1293 24.8842 32.1293 24.6372C32.1293 24.3902 32.1143 24.1965 32.0846 24.0559C32.0552 23.9154 32.0101 23.7791 31.9508 23.647C31.891 23.515 31.8036 23.4129 31.6888 23.3404C31.5739 23.268 31.431 23.2105 31.2609 23.1678C30.8094 23.0657 30.2345 23.0104 29.536 23.0018C27.9519 22.9848 26.934 23.0871 26.4826 23.3086C26.3037 23.4021 26.1418 23.53 25.9971 23.6917C25.8438 23.8791 25.8224 23.9814 25.9331 23.9983C26.4442 24.0748 26.806 24.258 27.019 24.5475L27.0957 24.701C27.1554 24.8117 27.215 25.0077 27.2747 25.2887C27.3342 25.5697 27.3727 25.8806 27.3896 26.2211C27.4321 26.843 27.4321 27.3753 27.3896 27.8181C27.3469 28.2611 27.3067 28.606 27.2682 28.853C27.2298 29.1 27.1723 29.3002 27.0957 29.4535C27.019 29.6068 26.9679 29.7005 26.9423 29.7345C26.9168 29.7685 26.8955 29.7899 26.8786 29.7983C26.7679 29.8407 26.6527 29.8624 26.5336 29.8624C26.4142 29.8624 26.2695 29.8027 26.0992 29.6834C25.9289 29.5641 25.7522 29.4002 25.5691 29.1915C25.3859 28.9827 25.1794 28.691 24.9493 28.3163C24.7194 27.9416 24.4809 27.4987 24.2339 26.9877L24.0296 26.6171C23.9018 26.3787 23.7273 26.0315 23.5058 25.5759C23.2842 25.1202 23.0884 24.6793 22.9181 24.2535C22.85 24.0746 22.7478 23.9384 22.6115 23.8447L22.5476 23.8063C22.5051 23.7723 22.4368 23.7362 22.3432 23.6977C22.2495 23.6593 22.1517 23.6317 22.0494 23.6147L18.5488 23.6401C18.1911 23.6401 17.9483 23.7212 17.8205 23.883L17.7694 23.9596C17.7438 24.0022 17.731 24.0704 17.731 24.1641C17.731 24.2578 17.7565 24.3728 17.8077 24.509C18.3187 25.71 18.8744 26.8683 19.4748 27.9841C20.0753 29.0998 20.597 29.9986 21.0398 30.6795C21.4827 31.361 21.9341 32.0042 22.3941 32.6087C22.854 33.2135 23.1585 33.6011 23.3075 33.7713C23.4566 33.9419 23.5738 34.0694 23.6589 34.1546L23.9784 34.4612C24.1828 34.6656 24.4829 34.9105 24.879 35.1957C25.2752 35.4812 25.7137 35.7622 26.195 36.0392C26.6763 36.3158 27.2362 36.5415 27.8751 36.7161C28.5138 36.8908 29.1356 36.961 29.7403 36.9271H31.2096C31.5076 36.9014 31.7333 36.8077 31.8868 36.646L31.9376 36.5819C31.9718 36.5311 32.0038 36.4521 32.0333 36.3459C32.0632 36.2394 32.0781 36.1221 32.0781 35.9945C32.0693 35.6284 32.0972 35.2984 32.1609 35.0045C32.2246 34.7108 32.2972 34.4894 32.3784 34.3402C32.4595 34.1912 32.5511 34.0655 32.6529 33.9635C32.7551 33.8614 32.8278 33.7995 32.8705 33.7782C32.9129 33.7567 32.9468 33.7422 32.9724 33.7335C33.1768 33.6654 33.4173 33.7313 33.6944 33.9317C33.9713 34.1318 34.2309 34.379 34.4738 34.6727C34.7166 34.9667 35.0083 35.2965 35.3489 35.6627C35.6897 36.029 35.9877 36.3013 36.2432 36.4804L36.4986 36.6337C36.6692 36.736 36.8906 36.8297 37.1632 36.9149C37.4353 37 37.6738 37.0213 37.8785 36.9787L41.149 36.9277C41.4725 36.9277 41.7242 36.8742 41.9027 36.7679C42.0816 36.6614 42.1879 36.5441 42.2222 36.4166C42.2564 36.2888 42.2582 36.144 42.2287 35.982C42.1984 35.8204 42.1685 35.7074 42.1388 35.6435Z" fill="url(#paint1_linear_32_1740)"/>
<defs>
<linearGradient id="paint0_linear_32_1740" x1="0" y1="30" x2="60" y2="30" gradientUnits="userSpaceOnUse">
<stop stop-color="#616F93"/>
<stop offset="1" stop-color="#616F93" stop-opacity="0"/>
</linearGradient>
<linearGradient id="paint1_linear_32_1740" x1="17.731" y1="30" x2="42.2689" y2="30" gradientUnits="userSpaceOnUse">
<stop stop-color="white"/>
<stop offset="1" stop-color="white" stop-opacity="0"/>
</linearGradient>
</defs>
</svg>
