<svg width="60" height="60" viewBox="0 0 60 60" fill="none" xmlns="http://www.w3.org/2000/svg">
<rect x="1" y="1" width="58" height="58" rx="11" stroke="url(#paint0_linear_32_1727)" stroke-width="2"/>
<path d="M18.0595 36.1151C18.5695 37.9243 20.1299 38.2553 20.234 38.3188C22.802 39.0183 37.1962 39.0204 39.8028 38.3188C41.588 37.8025 41.9159 36.2192 41.9773 36.1151C42.657 32.4989 42.7018 27.7844 41.9461 23.681L41.9773 23.8851C41.4672 22.0759 39.9069 21.7449 39.8028 21.6814C37.2691 20.9933 22.8374 20.9673 20.234 21.6814C18.4488 22.1987 18.1209 23.781 18.0595 23.8851C17.3318 27.6856 17.2954 32.0461 18.0595 36.1151ZM27.5175 33.8011V26.2095L34.0401 30.011L27.5175 33.8011Z" fill="url(#paint1_linear_32_1727)"/>
<defs>
<linearGradient id="paint0_linear_32_1727" x1="0" y1="30" x2="60" y2="30" gradientUnits="userSpaceOnUse">
<stop stop-color="#616F93"/>
<stop offset="1" stop-color="#616F93" stop-opacity="0"/>
</linearGradient>
<linearGradient id="paint1_linear_32_1727" x1="17.5" y1="29.9999" x2="42.5" y2="29.9999" gradientUnits="userSpaceOnUse">
<stop stop-color="white"/>
<stop offset="1" stop-color="white" stop-opacity="0"/>
</linearGradient>
</defs>
</svg>
