<svg width="71" height="71" viewBox="0 0 71 71" fill="none" xmlns="http://www.w3.org/2000/svg">
<path d="M21.4027 29.8703L35.0063 16.2794L48.61 29.8703L56.5369 21.9817L35.0319 0.463867L13.5014 21.9817L21.4027 29.8958V29.8703ZM0 35.483L7.91408 27.5689L15.8282 35.483L7.95247 43.3588L0 35.483ZM21.4027 41.0702L35.0063 54.6611L48.61 41.0319L56.5242 48.946L35.0191 70.4639L13.5014 48.9588L21.4282 41.0575L21.4027 41.0702ZM54.1972 35.4702L62.1114 27.5561L70.0127 35.4702L62.1114 43.3844L54.1972 35.4702Z" fill="#FFCC00"/>
<path d="M43.0286 35.4574L34.9994 27.4282L29.0669 33.3606L28.3765 34.0382L26.9829 35.4446L34.9994 43.4611L43.0286 35.4318" fill="#FFCC00"/>
</svg>
