<svg width="24" height="18" viewBox="0 0 24 18" fill="none" xmlns="http://www.w3.org/2000/svg">
<path d="M16.4706 15.8168L22.0311 15.8171L22.0381 15.8172L22.5048 15.8668L22.581 15.4003L22.5833 15.3864L22.5846 15.3782L22.5857 15.37C22.598 15.2749 22.612 15.1252 22.6163 14.9135L22.6163 14.9135L22.6164 14.9082L22.6176 14.784H22.6176V14.779C22.6176 13.65 21.8433 12.824 20.8176 12.3073C19.7878 11.7885 18.4104 11.5227 16.9412 11.5227C16.5163 11.5227 16.052 11.5524 15.588 11.6123C15.3464 11.6435 15.1252 11.4729 15.094 11.2312C15.0628 10.9896 15.2335 10.7684 15.4751 10.7372C15.9786 10.6723 16.4806 10.6403 16.9412 10.6403C18.7688 10.6403 20.4362 10.9946 21.6279 11.6955C22.7987 12.3841 23.5 13.394 23.5 14.779C23.5 15.5652 23.3446 16.0288 23.1217 16.2935C22.9147 16.5393 22.5753 16.6992 21.9792 16.6992H16.4706C16.2269 16.6992 16.0294 16.5016 16.0294 16.258C16.0294 16.0143 16.2269 15.8168 16.4706 15.8168ZM1.46161 15.8663L1.95754 15.8175L12.157 15.8173L12.6224 15.8668L12.6986 15.4003L12.7009 15.3864L12.7022 15.3782L12.7033 15.37C12.7181 15.2558 12.7353 15.0632 12.7353 14.779C12.7353 13.65 11.961 12.824 10.9353 12.3073C9.90542 11.7885 8.52809 11.5227 7.05882 11.5227C5.58956 11.5227 4.21223 11.7885 3.18239 12.3073C2.15668 12.824 1.38235 13.65 1.38235 14.779C1.38235 15.0561 1.3987 15.2461 1.41323 15.3613L1.41381 15.3673L1.46161 15.8663ZM7.05882 10.6403C8.88649 10.6403 10.5538 10.9946 11.7456 11.6955C12.9163 12.3841 13.6176 13.394 13.6176 14.779C13.6176 15.5652 13.4623 16.0288 13.2394 16.2935C13.0324 16.5393 12.6929 16.6992 12.0969 16.6992H2.02076C1.42474 16.6992 1.08529 16.5393 0.878254 16.2935C0.655393 16.0288 0.5 15.5652 0.5 14.779C0.5 13.394 1.20134 12.3841 2.37208 11.6955C3.56384 10.9946 5.23116 10.6403 7.05882 10.6403ZM16.9412 1.22858C18.8748 1.22858 20.4412 2.79492 20.4412 4.72858C20.4412 6.66223 18.8748 8.22858 16.9412 8.22858C15.0075 8.22858 13.4412 6.66223 13.4412 4.72858C13.4412 2.79492 15.0075 1.22858 16.9412 1.22858ZM7.05882 1.22858C8.99248 1.22858 10.5588 2.79492 10.5588 4.72858C10.5588 6.66223 8.99248 8.22858 7.05882 8.22858C5.12517 8.22858 3.55882 6.66223 3.55882 4.72858C3.55882 2.79492 5.12517 1.22858 7.05882 1.22858ZM16.9412 2.11093C15.4948 2.11093 14.3235 3.28223 14.3235 4.72858C14.3235 6.17492 15.4948 7.34622 16.9412 7.34622C18.3875 7.34622 19.5588 6.17492 19.5588 4.72858C19.5588 3.28223 18.3875 2.11093 16.9412 2.11093ZM7.05882 2.11093C5.61248 2.11093 4.44118 3.28223 4.44118 4.72858C4.44118 6.17492 5.61248 7.34622 7.05882 7.34622C8.50517 7.34622 9.67647 6.17492 9.67647 4.72858C9.67647 3.28223 8.50517 2.11093 7.05882 2.11093Z" fill="url(#paint0_linear_32_1594)" stroke="url(#paint1_linear_32_1594)"/>
<defs>
<linearGradient id="paint0_linear_32_1594" x1="0" y1="8.96387" x2="24" y2="8.96387" gradientUnits="userSpaceOnUse">
<stop stop-color="white"/>
<stop offset="1" stop-color="white" stop-opacity="0"/>
</linearGradient>
<linearGradient id="paint1_linear_32_1594" x1="0" y1="8.96387" x2="24" y2="8.96387" gradientUnits="userSpaceOnUse">
<stop stop-color="white"/>
<stop offset="1" stop-color="white" stop-opacity="0"/>
</linearGradient>
</defs>
</svg>
