<svg width="61" height="71" viewBox="0 0 61 71" fill="none" xmlns="http://www.w3.org/2000/svg">
<path d="M59.4431 18.8939C56.6055 16.9092 53.571 14.7933 50.6021 12.6937C50.5365 12.6445 50.4709 12.5953 50.3889 12.5461C50.0608 12.3001 49.6836 12.0376 49.2243 11.89L49.1915 11.8736C41.2526 9.95448 33.1825 7.98616 25.3749 6.08345C18.2889 4.36117 11.2194 2.63889 4.13346 0.916616C3.95303 0.867408 3.77261 0.818199 3.57578 0.768991C2.93607 0.588562 2.19795 0.391731 1.41063 0.490147C1.18099 0.522952 0.984157 0.604966 0.803728 0.719784L0.606897 0.883811C0.295247 1.17906 0.131222 1.55632 0.0492084 1.76955L0 1.90077V2.6553L0.0328048 2.77012C4.51072 15.3181 9.10346 28.0466 13.5322 40.365C16.9439 49.8457 20.4869 59.6709 23.9478 69.3157C24.1611 69.9718 24.768 70.3983 25.5225 70.4639H25.6865C26.3918 70.4639 27.0151 70.1194 27.3268 69.5617L40.3177 50.6167C43.4834 46.0075 46.6491 41.382 49.8148 36.7728C51.1106 34.8865 52.4064 32.9838 53.7022 31.0975C55.8346 27.981 58.0325 24.7661 60.2141 21.6332L60.3289 21.4691V21.2723C60.3781 20.6982 60.3945 19.5172 59.4431 18.8939ZM44.2215 25.7994C41.1706 27.3905 38.0541 29.0308 34.9212 30.6546C36.7419 28.7027 38.579 26.7344 40.3997 24.7825C42.6797 22.3221 45.058 19.7797 47.3872 17.2865L47.4364 17.2373C47.6333 16.9748 47.8793 16.7288 48.1417 16.4663C48.3222 16.2859 48.519 16.1055 48.6994 15.8922C49.9132 16.7288 51.1434 17.5817 52.3244 18.4182C53.1773 19.0251 54.0467 19.632 54.9324 20.2389C51.3238 22.076 47.7153 23.9623 44.2215 25.7994ZM36.381 25.0121C34.0355 27.5545 31.6079 30.1625 29.1967 32.7378C24.5219 27.0624 19.7488 21.3051 15.1232 15.7446C13.0237 13.2186 10.9078 10.6762 8.80822 8.15019L8.79181 8.13378C8.31614 7.5925 7.85686 7.002 7.39759 6.44431C7.10234 6.06705 6.79069 5.70619 6.47904 5.32893C8.38175 5.82101 10.3009 6.28028 12.1872 6.72316C13.8438 7.11682 15.5661 7.52689 17.2556 7.95335C26.7691 10.2661 36.299 12.5789 45.8126 14.8917C42.6469 18.2706 39.4647 21.6988 36.381 25.0121ZM28.1305 56.9809C28.3109 55.2586 28.5078 53.4871 28.6718 51.7484C28.8194 50.3542 28.9671 48.9272 29.1147 47.5658C29.3443 45.3842 29.5904 43.1206 29.7872 40.9063L29.8364 40.5126C30.0004 39.102 30.1644 37.6422 30.2629 36.1823C30.4433 36.0839 30.6401 35.9855 30.8534 35.9035C31.0994 35.7887 31.3454 35.6902 31.5915 35.5426C35.3805 33.5579 39.1695 31.5732 42.9749 29.6049C46.7639 27.6365 50.6513 25.6026 54.506 23.5851C50.9958 28.6699 47.4692 33.8039 44.0575 38.8067C41.1214 43.0878 38.1033 47.5002 35.1016 51.8469C33.9207 53.5855 32.6905 55.357 31.5259 57.0629C30.2137 58.9656 28.8686 60.9175 27.5564 62.8694C27.7205 60.9011 27.9173 58.9164 28.1305 56.9809ZM5.26525 9.19996C5.05201 8.60946 4.82237 8.00256 4.62554 7.42847C9.05425 12.7757 13.5158 18.1558 17.8625 23.3718C20.1096 26.0783 22.3568 28.7683 24.604 31.4912C25.0468 31.9996 25.4897 32.5409 25.9162 33.0658C26.4739 33.7383 27.0315 34.4436 27.6384 35.1162C27.4416 36.8056 27.2776 38.5115 27.0972 40.1518C26.9823 41.2999 26.8675 42.4481 26.7363 43.6127V43.6291C26.6871 44.3672 26.5887 45.1054 26.5067 45.8271C26.3918 46.8276 26.1294 49.0912 26.1294 49.0912L26.113 49.206C25.8178 52.5194 25.4569 55.8655 25.1124 59.1132C24.9648 60.4583 24.8336 61.8361 24.686 63.2139C24.604 62.9679 24.5055 62.7218 24.4235 62.4922C24.1775 61.8361 23.9314 61.1472 23.7018 60.4747L21.9467 55.6031C16.3862 40.1354 10.8257 24.6841 5.26525 9.19996Z" fill="#FF3838"/>
</svg>
