<svg width="200" height="200" viewBox="0 0 200 200" fill="none" xmlns="http://www.w3.org/2000/svg">
<circle cx="100" cy="100" r="55.8333" fill="url(#paint0_linear_32_2142)"/>
<circle cx="100" cy="100" r="70.3333" stroke="white" stroke-opacity="0.75"/>
<circle cx="100" cy="100" r="99.5" stroke="white" stroke-opacity="0.25"/>
<path d="M92.5902 80C93.9935 80 95.3722 80.3685 96.5884 81.0688L117.407 93.0551C121.242 95.2632 122.561 100.162 120.353 103.998C119.648 105.222 118.631 106.239 117.407 106.944L96.5884 118.93C92.7532 121.138 87.8541 119.819 85.6459 115.984C84.9457 114.768 84.5771 113.389 84.5771 111.986V88.013C84.5771 83.5875 88.1647 80 92.5902 80ZM92.7756 88.3338V111.665L113.037 99.9993L92.7756 88.3338Z" fill="url(#paint1_linear_32_2142)"/>
<defs>
<linearGradient id="paint0_linear_32_2142" x1="44.1666" y1="100" x2="155.833" y2="100" gradientUnits="userSpaceOnUse">
<stop stop-color="#FF00FF"/>
<stop offset="1" stop-color="#FF00FF" stop-opacity="0"/>
</linearGradient>
<linearGradient id="paint1_linear_32_2142" x1="84.5771" y1="100" x2="121.423" y2="100" gradientUnits="userSpaceOnUse">
<stop stop-color="white"/>
<stop offset="1" stop-color="white" stop-opacity="0"/>
</linearGradient>
</defs>
</svg>
