<svg width="201" height="201" viewBox="0 0 201 201" fill="none" xmlns="http://www.w3.org/2000/svg">
<circle cx="100.5" cy="100.625" r="55.8333" fill="url(#paint0_linear_32_2154)"/>
<circle cx="100.5" cy="100.625" r="70.3333" stroke="white" stroke-opacity="0.75"/>
<circle cx="100.5" cy="100.625" r="99.5" stroke="white" stroke-opacity="0.25"/>
<path d="M93.0902 80.6252C94.4935 80.6252 95.8722 80.9938 97.0884 81.694L117.907 93.6803C121.742 95.8885 123.061 100.788 120.853 104.623C120.148 105.847 119.131 106.864 117.907 107.569L97.0884 119.555C93.2532 121.763 88.3541 120.444 86.1459 116.609C85.4457 115.393 85.0771 114.014 85.0771 112.611V88.6383C85.0771 84.2128 88.6647 80.6252 93.0902 80.6252ZM93.2756 88.9591V112.29L113.537 100.625L93.2756 88.9591Z" fill="url(#paint1_linear_32_2154)"/>
<defs>
<linearGradient id="paint0_linear_32_2154" x1="44.6667" y1="100.625" x2="156.333" y2="100.625" gradientUnits="userSpaceOnUse">
<stop stop-color="white"/>
<stop offset="1" stop-color="white" stop-opacity="0"/>
</linearGradient>
<linearGradient id="paint1_linear_32_2154" x1="85.0771" y1="100.625" x2="121.923" y2="100.625" gradientUnits="userSpaceOnUse">
<stop stop-color="#111A2F"/>
<stop offset="1" stop-color="#111A2F" stop-opacity="0"/>
</linearGradient>
</defs>
</svg>
