<svg width="150" height="151" viewBox="0 0 150 151" fill="none" xmlns="http://www.w3.org/2000/svg">
<circle cx="75" cy="75.0483" r="41.875" fill="url(#paint0_linear_37_1893)"/>
<circle cx="75" cy="75.0483" r="52.625" stroke="white" stroke-opacity="0.75"/>
<circle cx="75" cy="75.0483" r="74.5" stroke="white" stroke-opacity="0.25"/>
<path d="M69.4424 60.0483C70.4949 60.0483 71.5289 60.3247 72.441 60.8499L88.0548 69.8396C90.9312 71.4958 91.9204 75.1701 90.2643 78.0465C89.7355 78.9649 88.9732 79.7272 88.0548 80.256L72.441 89.2458C69.5646 90.9019 65.8903 89.9126 64.2342 87.0362C63.709 86.1241 63.4326 85.0901 63.4326 84.0376V66.0581C63.4326 62.739 66.1233 60.0483 69.4424 60.0483ZM69.5815 66.2987V83.7969L84.7773 75.0478L69.5815 66.2987Z" fill="url(#paint1_linear_37_1893)"/>
<defs>
<linearGradient id="paint0_linear_37_1893" x1="33.125" y1="75.0483" x2="116.875" y2="75.0483" gradientUnits="userSpaceOnUse">
<stop stop-color="white"/>
<stop offset="1" stop-color="white" stop-opacity="0"/>
</linearGradient>
<linearGradient id="paint1_linear_37_1893" x1="63.4326" y1="75.0479" x2="91.0669" y2="75.0479" gradientUnits="userSpaceOnUse">
<stop stop-color="#111A2F"/>
<stop offset="1" stop-color="#111A2F" stop-opacity="0"/>
</linearGradient>
</defs>
</svg>
