<svg width="262" height="60" viewBox="0 0 262 60" fill="none" xmlns="http://www.w3.org/2000/svg">
<g opacity="0.25">
<path fill-rule="evenodd" clip-rule="evenodd" d="M5.66313 42.1068L8.08657 43.5056V22.9104L13.7486 26.18V46.7752L16.172 48.174V27.5788L21.8351 30.8484V51.4437V57.915L16.172 54.6442L8.08657 49.9758V49.9769L0 45.3074V38.8383V18.2419L5.66313 21.5116V42.1068Z" fill="white"/>
<path fill-rule="evenodd" clip-rule="evenodd" d="M24.2381 41.0604V47.5996L29.5467 50.6643V44.1251L24.2381 41.0604ZM24.237 50.3949L29.5455 53.4608L29.5444 60.0001L24.2358 56.9342L24.237 50.3949ZM24.2381 31.7235L29.5467 34.7882V41.3275L24.2381 38.2628V31.7235Z" fill="white"/>
<path fill-rule="evenodd" clip-rule="evenodd" d="M47.3835 43.1649V40.3661L29.5467 50.6643V44.125L47.3835 33.828V31.0292L29.5467 41.3274V34.7881L52.9868 21.2549V27.7941V37.1322H52.9879L52.9868 43.3571V45.6942H52.9856V46.469L47.3823 49.7041L29.5444 59.9989L29.5456 53.4607L47.3835 43.1649Z" fill="white"/>
<path fill-rule="evenodd" clip-rule="evenodd" d="M10.9717 18.4471L5.30854 15.1775L0 18.2422L5.66313 21.5118L10.9717 18.4471ZM27.1448 27.784L21.4817 24.5144L16.1731 27.5791L21.8363 30.8487L27.1448 27.784ZM19.0583 23.1156L13.7497 26.1803L8.08657 22.9106L13.3951 19.8459L19.0583 23.1156Z" fill="white"/>
<path fill-rule="evenodd" clip-rule="evenodd" d="M45.275 22.9335L50.9382 19.6638V13.5344L45.275 16.8041V22.9335ZM37.1885 27.6019L42.8516 24.3323V18.2017L37.1885 21.4713V27.6019ZM29.103 32.2703L34.7662 29.0007V22.8713L29.103 26.1409V32.2703Z" fill="white"/>
<path fill-rule="evenodd" clip-rule="evenodd" d="M27.4395 6.50472L25.0161 7.90468L42.8517 18.2017L37.1885 21.4713L19.3529 11.1743L16.9295 12.5731L34.7651 22.8702L29.102 26.1398L11.2664 15.8427L5.66309 12.6077L11.3262 9.33803L19.1837 4.80199L19.4128 4.66959V4.66844L27.4982 0L33.1015 3.23509L50.9383 13.5333L45.2751 16.8029L27.4395 6.50472Z" fill="white"/>
<path d="M64.4941 42.0225V17.9775H84.3391V22.8775H70.7591V27.3925H82.6241V32.1875H70.7591V37.1225H84.5841V42.0225H64.4941Z" fill="white"/>
<path d="M95.4068 42.0225L86.7618 17.9775H93.4818L97.8918 31.5575C97.9851 31.8375 98.1018 32.2108 98.2418 32.6775C98.3818 33.1208 98.5218 33.5875 98.6618 34.0775C98.8251 34.5442 98.9535 34.9642 99.0468 35.3375H99.2918C99.4085 34.9875 99.5251 34.5908 99.6418 34.1475C99.7818 33.6808 99.9218 33.2258 100.062 32.7825C100.202 32.3158 100.318 31.9192 100.412 31.5925L104.822 17.9775H111.297L102.687 42.0225H95.4068Z" fill="white"/>
<path d="M114.465 42.0225V17.9775H134.31V22.8775H120.73V27.3925H132.595V32.1875H120.73V37.1225H134.555V42.0225H114.465Z" fill="white"/>
<path d="M138.868 42.0225V17.9775H152.833C154.606 17.9775 156.088 18.3158 157.278 18.9925C158.468 19.6458 159.354 20.5558 159.938 21.7225C160.544 22.8658 160.848 24.1492 160.848 25.5725C160.848 27.1125 160.486 28.4892 159.763 29.7025C159.063 30.8925 158.071 31.8258 156.787 32.5025L161.618 42.0225H154.618L150.628 33.5525H145.132V42.0225H138.868ZM145.132 28.8975H151.607C152.471 28.8975 153.159 28.6175 153.673 28.0575C154.209 27.4742 154.478 26.7042 154.478 25.7475C154.478 25.1175 154.361 24.5808 154.128 24.1375C153.894 23.6942 153.567 23.3558 153.147 23.1225C152.728 22.8658 152.214 22.7375 151.607 22.7375H145.132V28.8975Z" fill="white"/>
<path d="M176.109 42.4425C173.519 42.4425 171.314 41.9992 169.494 41.1125C167.697 40.2025 166.332 38.8258 165.399 36.9825C164.466 35.1392 163.999 32.8058 163.999 29.9825C163.999 25.8292 165.037 22.7258 167.114 20.6725C169.214 18.5958 172.212 17.5575 176.109 17.5575C178.279 17.5575 180.204 17.9308 181.884 18.6775C183.564 19.4008 184.871 20.4975 185.804 21.9675C186.761 23.4142 187.239 25.2225 187.239 27.3925H181.114C181.114 26.3658 180.904 25.4908 180.484 24.7675C180.087 24.0208 179.516 23.4492 178.769 23.0525C178.046 22.6558 177.159 22.4575 176.109 22.4575C174.802 22.4575 173.729 22.7258 172.889 23.2625C172.049 23.7992 171.431 24.5692 171.034 25.5725C170.637 26.5758 170.439 27.7892 170.439 29.2125V30.7875C170.439 32.2108 170.637 33.4358 171.034 34.4625C171.431 35.4658 172.037 36.2358 172.854 36.7725C173.694 37.2858 174.767 37.5425 176.074 37.5425C177.194 37.5425 178.139 37.3558 178.909 36.9825C179.702 36.6092 180.297 36.0608 180.694 35.3375C181.114 34.5908 181.324 33.7042 181.324 32.6775H187.239C187.239 34.8475 186.772 36.6558 185.839 38.1025C184.929 39.5492 183.634 40.6342 181.954 41.3575C180.297 42.0808 178.349 42.4425 176.109 42.4425Z" fill="white"/>
<path d="M191.368 42.0225V17.9775H197.632V36.8775H209.847V42.0225H191.368Z" fill="white"/>
<path d="M223.004 42.4425C220.694 42.4425 218.699 42.0808 217.019 41.3575C215.362 40.6342 214.09 39.5492 213.204 38.1025C212.317 36.6558 211.874 34.8592 211.874 32.7125V17.9775H218.174V32.5725C218.174 34.1125 218.582 35.3258 219.399 36.2125C220.215 37.0992 221.417 37.5425 223.004 37.5425C224.59 37.5425 225.804 37.0992 226.644 36.2125C227.484 35.3258 227.904 34.1125 227.904 32.5725V17.9775H234.169V32.7125C234.169 34.8592 233.725 36.6558 232.839 38.1025C231.952 39.5492 230.68 40.6342 229.024 41.3575C227.367 42.0808 225.36 42.4425 223.004 42.4425Z" fill="white"/>
<path d="M239.356 42.0225V17.9775H254.056C255.292 17.9775 256.412 18.2225 257.416 18.7125C258.419 19.2025 259.212 19.8908 259.796 20.7775C260.402 21.6642 260.706 22.7025 260.706 23.8925C260.706 24.9425 260.519 25.8408 260.146 26.5875C259.796 27.3342 259.317 27.9408 258.711 28.4075C258.127 28.8742 257.462 29.2242 256.716 29.4575V29.5975C257.579 29.7842 258.361 30.1225 259.061 30.6125C259.761 31.0792 260.309 31.7208 260.706 32.5375C261.126 33.3542 261.336 34.3458 261.336 35.5125C261.336 36.8892 261.009 38.0675 260.356 39.0475C259.702 40.0042 258.839 40.7392 257.766 41.2525C256.692 41.7658 255.491 42.0225 254.161 42.0225H239.356ZM245.621 37.1925H252.446C253.192 37.1925 253.787 36.9708 254.231 36.5275C254.697 36.0842 254.931 35.4075 254.931 34.4975C254.931 34.0075 254.826 33.5758 254.616 33.2025C254.429 32.8058 254.137 32.5025 253.741 32.2925C253.367 32.0825 252.901 31.9775 252.341 31.9775H245.621V37.1925ZM245.621 27.5325H251.886C252.399 27.5325 252.831 27.4275 253.181 27.2175C253.554 27.0075 253.834 26.7158 254.021 26.3425C254.231 25.9692 254.336 25.5258 254.336 25.0125C254.336 24.2658 254.114 23.6825 253.671 23.2625C253.227 22.8425 252.667 22.6325 251.991 22.6325H245.621V27.5325Z" fill="white"/>
</g>
</svg>
