<svg xmlns="http://www.w3.org/2000/svg" fill="none" viewBox="0 0 1920 980">
  <g clip-path="url(#a)">
    <path fill="#111A2F" d="M0 0h1920v980H0z" />
    <path fill="url(#b)" d="M1920 0H0v980h1920V0Z" opacity=".1" />
    <g opacity=".5">
      <path fill="url(#c)" d="M1013.5 2348.03-637.44 697.09l1025.8-1025.8 1650.68 1650.95L1013.5 2348.03Z"
        opacity=".5" />
      <path fill="url(#d)" d="M3068.42 1175.81 1417.47 2826.75 391.94 1800.96 2042.62 150.02l1025.8 1025.79Z"
        opacity=".5" />
      <path fill="url(#e)" d="M-1522.18 51.71 128.77-1599.23 1154.3-573.44-496.38 1077.5-1522.18 51.71Z"
        opacity=".25" />
      <path fill="url(#f)"
        d="M349.7 1607.94a5.68 5.68 0 0 1 5.63 5.63 5.68 5.68 0 0 1-5.63 5.63 5.68 5.68 0 0 1-5.64-5.63 5.68 5.68 0 0 1 5.64-5.63Zm-62.21 5.63a5.68 5.68 0 0 0 5.63 5.63 5.68 5.68 0 0 0 5.63-5.63 5.68 5.68 0 0 0-5.63-5.63 5.68 5.68 0 0 0-5.63 5.63Zm-56.32 0a5.68 5.68 0 0 0 5.63 5.63 5.68 5.68 0 0 0 5.63-5.63 5.68 5.68 0 0 0-5.63-5.63 5.52 5.52 0 0 0-5.63 5.63Zm-56.58 0a5.68 5.68 0 0 0 5.63 5.63 5.68 5.68 0 0 0 5.64-5.63 5.68 5.68 0 0 0-5.64-5.63 5.68 5.68 0 0 0-5.63 5.63Zm254.21-35.84a5.68 5.68 0 0 0 5.63 5.63 5.68 5.68 0 0 0 5.63-5.63 5.68 5.68 0 0 0-5.63-5.63 5.52 5.52 0 0 0-5.63 5.63Zm-56.58 0a5.68 5.68 0 0 0 5.64 5.63 5.68 5.68 0 0 0 5.63-5.63 5.68 5.68 0 0 0-5.63-5.63 5.68 5.68 0 0 0-5.64 5.63Zm-56.57 0a5.68 5.68 0 0 0 5.63 5.63 5.68 5.68 0 0 0 5.63-5.63 5.68 5.68 0 0 0-5.63-5.63 5.68 5.68 0 0 0-5.63 5.63Zm-56.32 0a5.68 5.68 0 0 0 5.63 5.63 5.68 5.68 0 0 0 5.63-5.63 5.68 5.68 0 0 0-5.63-5.63 5.68 5.68 0 0 0-5.63 5.63Zm-56.58 0a5.68 5.68 0 0 0 5.63 5.63 5.68 5.68 0 0 0 5.64-5.63 5.68 5.68 0 0 0-5.64-5.63 5.68 5.68 0 0 0-5.63 5.63Zm-56.32 0a5.68 5.68 0 0 0 5.63 5.63 5.68 5.68 0 0 0 5.64-5.63 5.68 5.68 0 0 0-5.64-5.63 5.68 5.68 0 0 0-5.63 5.63Zm-56.57 0a5.68 5.68 0 0 0 5.63 5.63 5.68 5.68 0 0 0 5.63-5.63 5.68 5.68 0 0 0-5.63-5.63 5.68 5.68 0 0 0-5.63 5.63Zm423.42-35.84a5.68 5.68 0 0 0 5.63 5.63 5.68 5.68 0 0 0 5.63-5.63 5.68 5.68 0 0 0-5.63-5.63 5.68 5.68 0 0 0-5.63 5.63Zm-56.32 0a5.68 5.68 0 0 0 5.63 5.63 5.68 5.68 0 0 0 5.63-5.63 5.68 5.68 0 0 0-5.63-5.63 5.68 5.68 0 0 0-5.63 5.63Zm-56.58 0a5.68 5.68 0 0 0 5.64 5.63 5.68 5.68 0 0 0 5.63-5.63 5.68 5.68 0 0 0-5.63-5.63 5.68 5.68 0 0 0-5.64 5.63Zm-56.32 0a5.68 5.68 0 0 0 5.64 5.63 5.68 5.68 0 0 0 5.63-5.63 5.68 5.68 0 0 0-5.63-5.63 5.68 5.68 0 0 0-5.64 5.63Zm-56.57 0a5.68 5.68 0 0 0 5.63 5.63 5.68 5.68 0 0 0 5.63-5.63 5.68 5.68 0 0 0-5.63-5.63 5.68 5.68 0 0 0-5.63 5.63Zm-56.32 0a5.68 5.68 0 0 0 5.63 5.63 5.68 5.68 0 0 0 5.63-5.63 5.68 5.68 0 0 0-5.63-5.63 5.52 5.52 0 0 0-5.63 5.63Zm-56.58 0a5.68 5.68 0 0 0 5.63 5.63 5.68 5.68 0 0 0 5.64-5.63 5.68 5.68 0 0 0-5.64-5.63 5.68 5.68 0 0 0-5.63 5.63Zm-56.32 0a5.68 5.68 0 0 0 5.63 5.63 5.68 5.68 0 0 0 5.64-5.63 5.68 5.68 0 0 0-5.64-5.63 5.52 5.52 0 0 0-5.63 5.63Zm-56.57 0a5.68 5.68 0 0 0 5.63 5.63 5.68 5.68 0 0 0 5.63-5.63 5.68 5.68 0 0 0-5.63-5.63 5.68 5.68 0 0 0-5.63 5.63Zm-56.58 0a5.68 5.68 0 0 0 5.63 5.63 5.68 5.68 0 0 0 5.63-5.63 5.68 5.68 0 0 0-5.63-5.63 5.68 5.68 0 0 0-5.63 5.63Zm536.58-35.84a5.68 5.68 0 0 0 5.63 5.63 5.68 5.68 0 0 0 5.63-5.63 5.68 5.68 0 0 0-5.63-5.63 5.52 5.52 0 0 0-5.63 5.63Zm-56.58 0a5.68 5.68 0 0 0 5.63 5.63 5.68 5.68 0 0 0 5.63-5.63 5.68 5.68 0 0 0-5.63-5.63 5.68 5.68 0 0 0-5.63 5.63Zm-56.32 0a5.68 5.68 0 0 0 5.63 5.63 5.68 5.68 0 0 0 5.63-5.63 5.68 5.68 0 0 0-5.63-5.63 5.52 5.52 0 0 0-5.63 5.63Zm-56.58 0a5.68 5.68 0 0 0 5.64 5.63 5.68 5.68 0 0 0 5.63-5.63 5.68 5.68 0 0 0-5.63-5.63 5.68 5.68 0 0 0-5.64 5.63Zm-56.57 0a5.68 5.68 0 0 0 5.63 5.63 5.68 5.68 0 0 0 5.63-5.63 5.68 5.68 0 0 0-5.63-5.63 5.68 5.68 0 0 0-5.63 5.63Zm-56.32 0a5.68 5.68 0 0 0 5.63 5.63 5.68 5.68 0 0 0 5.63-5.63 5.68 5.68 0 0 0-5.63-5.63 5.68 5.68 0 0 0-5.63 5.63Zm-56.58 0a5.68 5.68 0 0 0 5.63 5.63 5.68 5.68 0 0 0 5.64-5.63 5.68 5.68 0 0 0-5.64-5.63 5.68 5.68 0 0 0-5.63 5.63Zm-56.32 0a5.68 5.68 0 0 0 5.63 5.63 5.68 5.68 0 0 0 5.64-5.63 5.68 5.68 0 0 0-5.64-5.63 5.68 5.68 0 0 0-5.63 5.63Zm-56.57 0a5.68 5.68 0 0 0 5.63 5.63 5.68 5.68 0 0 0 5.63-5.63 5.68 5.68 0 0 0-5.63-5.63 5.68 5.68 0 0 0-5.63 5.63Zm-56.32 0a5.68 5.68 0 0 0 5.63 5.63 5.68 5.68 0 0 0 5.63-5.63 5.68 5.68 0 0 0-5.63-5.63 5.68 5.68 0 0 0-5.63 5.63Zm-56.58 0a5.68 5.68 0 0 0 5.63 5.63 5.68 5.68 0 0 0 5.63-5.63 5.68 5.68 0 0 0-5.63-5.63 5.68 5.68 0 0 0-5.63 5.63Zm592.9-35.84a5.68 5.68 0 0 0 5.63 5.63 5.68 5.68 0 0 0 5.63-5.63 5.68 5.68 0 0 0-5.63-5.63 5.68 5.68 0 0 0-5.63 5.63Zm-56.58 0a5.68 5.68 0 0 0 5.63 5.63 5.68 5.68 0 0 0 5.63-5.63 5.68 5.68 0 0 0-5.63-5.63 5.68 5.68 0 0 0-5.63 5.63Zm-56.32 0a5.68 5.68 0 0 0 5.63 5.63 5.68 5.68 0 0 0 5.63-5.63 5.68 5.68 0 0 0-5.63-5.63 5.68 5.68 0 0 0-5.63 5.63Zm-56.58 0a5.68 5.68 0 0 0 5.64 5.63 5.68 5.68 0 0 0 5.63-5.63 5.68 5.68 0 0 0-5.63-5.63 5.68 5.68 0 0 0-5.64 5.63Zm-56.32 0a5.68 5.68 0 0 0 5.64 5.63 5.68 5.68 0 0 0 5.63-5.63 5.68 5.68 0 0 0-5.63-5.63 5.68 5.68 0 0 0-5.64 5.63Zm-56.57 0a5.68 5.68 0 0 0 5.63 5.63 5.68 5.68 0 0 0 5.63-5.63 5.68 5.68 0 0 0-5.63-5.63 5.68 5.68 0 0 0-5.63 5.63Zm-56.32 0a5.68 5.68 0 0 0 5.63 5.63 5.68 5.68 0 0 0 5.63-5.63 5.68 5.68 0 0 0-5.63-5.63 5.52 5.52 0 0 0-5.63 5.63Zm-56.58 0a5.68 5.68 0 0 0 5.63 5.63 5.68 5.68 0 0 0 5.64-5.63 5.68 5.68 0 0 0-5.64-5.63 5.68 5.68 0 0 0-5.63 5.63Zm-56.32 0a5.68 5.68 0 0 0 5.63 5.63 5.68 5.68 0 0 0 5.64-5.63 5.68 5.68 0 0 0-5.64-5.63 5.52 5.52 0 0 0-5.63 5.63Zm-56.57 0a5.68 5.68 0 0 0 5.63 5.63 5.68 5.68 0 0 0 5.63-5.63 5.68 5.68 0 0 0-5.63-5.63 5.68 5.68 0 0 0-5.63 5.63Zm-56.58 0a5.68 5.68 0 0 0 5.63 5.63 5.68 5.68 0 0 0 5.63-5.63 5.68 5.68 0 0 0-5.63-5.63 5.68 5.68 0 0 0-5.63 5.63Zm-56.32 0a5.68 5.68 0 0 0 5.63 5.63 5.68 5.68 0 0 0 5.63-5.63 5.68 5.68 0 0 0-5.63-5.63 5.68 5.68 0 0 0-5.63 5.63Zm649.22-35.84a5.68 5.68 0 0 0 5.63 5.63 5.68 5.68 0 0 0 5.63-5.63 5.68 5.68 0 0 0-5.63-5.63c-3.07.25-5.63 2.56-5.63 5.63Zm-56.32 0a5.68 5.68 0 0 0 5.63 5.63 5.68 5.68 0 0 0 5.63-5.63 5.68 5.68 0 0 0-5.63-5.63c-3.33.25-5.63 2.56-5.63 5.63Zm-56.58 0a5.68 5.68 0 0 0 5.63 5.63 5.68 5.68 0 0 0 5.63-5.63 5.68 5.68 0 0 0-5.63-5.63c-3.07.25-5.63 2.56-5.63 5.63Zm-56.32 0a5.68 5.68 0 0 0 5.63 5.63 5.68 5.68 0 0 0 5.63-5.63 5.68 5.68 0 0 0-5.63-5.63c-3.33.25-5.63 2.56-5.63 5.63Zm-56.58 0a5.68 5.68 0 0 0 5.64 5.63 5.68 5.68 0 0 0 5.63-5.63 5.68 5.68 0 0 0-5.63-5.63c-3.08.25-5.64 2.56-5.64 5.63Zm-56.57 0a5.68 5.68 0 0 0 5.63 5.63 5.68 5.68 0 0 0 5.63-5.63 5.68 5.68 0 0 0-5.63-5.63c-3.07.25-5.63 2.56-5.63 5.63Zm-56.32 0a5.68 5.68 0 0 0 5.63 5.63 5.68 5.68 0 0 0 5.63-5.63 5.68 5.68 0 0 0-5.63-5.63c-3.07.25-5.63 2.56-5.63 5.63Zm-56.58 0a5.68 5.68 0 0 0 5.63 5.63 5.68 5.68 0 0 0 5.64-5.63 5.68 5.68 0 0 0-5.64-5.63c-3.07.25-5.63 2.56-5.63 5.63Zm-56.32 0a5.68 5.68 0 0 0 5.63 5.63 5.68 5.68 0 0 0 5.64-5.63 5.68 5.68 0 0 0-5.64-5.63c-3.07.25-5.63 2.56-5.63 5.63Zm-56.57 0a5.68 5.68 0 0 0 5.63 5.63 5.68 5.68 0 0 0 5.63-5.63 5.68 5.68 0 0 0-5.63-5.63c-3.07.25-5.63 2.56-5.63 5.63Zm-56.32 0a5.68 5.68 0 0 0 5.63 5.63 5.68 5.68 0 0 0 5.63-5.63 5.68 5.68 0 0 0-5.63-5.63c-3.07.25-5.63 2.56-5.63 5.63Zm-56.58 0a5.68 5.68 0 0 0 5.63 5.63 5.68 5.68 0 0 0 5.63-5.63 5.68 5.68 0 0 0-5.63-5.63c-3.07.25-5.63 2.56-5.63 5.63Zm-56.32 0a5.68 5.68 0 0 0 5.63 5.63 5.68 5.68 0 0 0 5.63-5.63 5.68 5.68 0 0 0-5.63-5.63c-3.33.25-5.63 2.56-5.63 5.63Zm705.54-35.59a5.68 5.68 0 0 0 5.63 5.64 5.68 5.68 0 0 0 5.63-5.64 5.68 5.68 0 0 0-5.63-5.63 5.52 5.52 0 0 0-5.63 5.63Zm-56.32 0a5.68 5.68 0 0 0 5.63 5.64 5.68 5.68 0 0 0 5.63-5.64 5.68 5.68 0 0 0-5.63-5.63 5.52 5.52 0 0 0-5.63 5.63Zm-56.58 0a5.68 5.68 0 0 0 5.63 5.64 5.68 5.68 0 0 0 5.63-5.64 5.68 5.68 0 0 0-5.63-5.63 5.52 5.52 0 0 0-5.63 5.63Zm-56.32 0a5.68 5.68 0 0 0 5.63 5.64 5.68 5.68 0 0 0 5.63-5.64 5.68 5.68 0 0 0-5.63-5.63 5.52 5.52 0 0 0-5.63 5.63Zm-56.58 0a5.68 5.68 0 0 0 5.64 5.64 5.68 5.68 0 0 0 5.63-5.64 5.68 5.68 0 0 0-5.63-5.63 5.52 5.52 0 0 0-5.64 5.63Zm-56.32 0a5.68 5.68 0 0 0 5.64 5.64 5.68 5.68 0 0 0 5.63-5.64 5.68 5.68 0 0 0-5.63-5.63 5.52 5.52 0 0 0-5.64 5.63Zm-56.57 0a5.68 5.68 0 0 0 5.63 5.64 5.68 5.68 0 0 0 5.63-5.64 5.68 5.68 0 0 0-5.63-5.63 5.52 5.52 0 0 0-5.63 5.63Zm-56.32 0a5.68 5.68 0 0 0 5.63 5.64 5.68 5.68 0 0 0 5.63-5.64 5.68 5.68 0 0 0-5.63-5.63 5.38 5.38 0 0 0-5.63 5.63Zm-56.58 0a5.68 5.68 0 0 0 5.63 5.64 5.68 5.68 0 0 0 5.64-5.64 5.68 5.68 0 0 0-5.64-5.63 5.52 5.52 0 0 0-5.63 5.63Zm-56.32 0a5.68 5.68 0 0 0 5.63 5.64 5.68 5.68 0 0 0 5.64-5.64 5.68 5.68 0 0 0-5.64-5.63 5.38 5.38 0 0 0-5.63 5.63Zm-56.57 0a5.68 5.68 0 0 0 5.63 5.64 5.68 5.68 0 0 0 5.63-5.64 5.68 5.68 0 0 0-5.63-5.63 5.52 5.52 0 0 0-5.63 5.63Zm-56.58 0a5.68 5.68 0 0 0 5.63 5.64 5.68 5.68 0 0 0 5.63-5.64 5.68 5.68 0 0 0-5.63-5.63 5.52 5.52 0 0 0-5.63 5.63Zm-56.32 0a5.68 5.68 0 0 0 5.63 5.64 5.68 5.68 0 0 0 5.63-5.64 5.68 5.68 0 0 0-5.63-5.63 5.52 5.52 0 0 0-5.63 5.63Zm-56.58 0a5.68 5.68 0 0 0 5.64 5.64 5.68 5.68 0 0 0 5.63-5.64 5.68 5.68 0 0 0-5.63-5.63 5.52 5.52 0 0 0-5.64 5.63Zm762.37-35.84a5.68 5.68 0 0 0 5.63 5.64 5.68 5.68 0 0 0 5.64-5.64 5.68 5.68 0 0 0-5.64-5.63 5.68 5.68 0 0 0-5.63 5.63Zm-56.57 0a5.68 5.68 0 0 0 5.63 5.64 5.68 5.68 0 0 0 5.63-5.64 5.68 5.68 0 0 0-5.63-5.63 5.68 5.68 0 0 0-5.63 5.63Zm-56.32 0a5.68 5.68 0 0 0 5.63 5.64 5.68 5.68 0 0 0 5.63-5.64 5.68 5.68 0 0 0-5.63-5.63 5.52 5.52 0 0 0-5.63 5.63Zm-56.58 0a5.68 5.68 0 0 0 5.63 5.64 5.68 5.68 0 0 0 5.63-5.64 5.68 5.68 0 0 0-5.63-5.63 5.68 5.68 0 0 0-5.63 5.63Zm-56.32 0a5.68 5.68 0 0 0 5.63 5.64 5.68 5.68 0 0 0 5.63-5.64 5.68 5.68 0 0 0-5.63-5.63 5.52 5.52 0 0 0-5.63 5.63Zm-56.58 0a5.68 5.68 0 0 0 5.64 5.64 5.68 5.68 0 0 0 5.63-5.64 5.68 5.68 0 0 0-5.63-5.63 5.68 5.68 0 0 0-5.64 5.63Zm-56.57 0a5.68 5.68 0 0 0 5.63 5.64 5.68 5.68 0 0 0 5.63-5.64 5.68 5.68 0 0 0-5.63-5.63 5.68 5.68 0 0 0-5.63 5.63Zm-56.32 0a5.68 5.68 0 0 0 5.63 5.64 5.68 5.68 0 0 0 5.63-5.64 5.68 5.68 0 0 0-5.63-5.63 5.68 5.68 0 0 0-5.63 5.63Zm-56.58 0a5.68 5.68 0 0 0 5.63 5.64 5.68 5.68 0 0 0 5.64-5.64 5.68 5.68 0 0 0-5.64-5.63 5.68 5.68 0 0 0-5.63 5.63Zm-56.32 0a5.68 5.68 0 0 0 5.63 5.64 5.68 5.68 0 0 0 5.64-5.64 5.68 5.68 0 0 0-5.64-5.63 5.68 5.68 0 0 0-5.63 5.63Zm-56.57 0a5.68 5.68 0 0 0 5.63 5.64 5.68 5.68 0 0 0 5.63-5.64 5.68 5.68 0 0 0-5.63-5.63 5.68 5.68 0 0 0-5.63 5.63Zm-56.32 0a5.68 5.68 0 0 0 5.63 5.64 5.68 5.68 0 0 0 5.63-5.64 5.68 5.68 0 0 0-5.63-5.63 5.68 5.68 0 0 0-5.63 5.63Zm-56.58 0a5.68 5.68 0 0 0 5.63 5.64 5.68 5.68 0 0 0 5.63-5.64 5.68 5.68 0 0 0-5.63-5.63 5.68 5.68 0 0 0-5.63 5.63Zm-56.32 0a5.68 5.68 0 0 0 5.63 5.64 5.68 5.68 0 0 0 5.63-5.64 5.68 5.68 0 0 0-5.63-5.63 5.52 5.52 0 0 0-5.63 5.63Zm-56.58 0a5.68 5.68 0 0 0 5.64 5.64 5.68 5.68 0 0 0 5.63-5.64 5.68 5.68 0 0 0-5.63-5.63 5.68 5.68 0 0 0-5.64 5.63Zm762.12-35.84a5.68 5.68 0 0 0 5.63 5.64 5.68 5.68 0 0 0 5.63-5.64 5.68 5.68 0 0 0-5.63-5.63 5.68 5.68 0 0 0-5.63 5.63Zm-56.32 0a5.68 5.68 0 0 0 5.63 5.64 5.68 5.68 0 0 0 5.63-5.64 5.68 5.68 0 0 0-5.63-5.63 5.68 5.68 0 0 0-5.63 5.63Zm-56.58 0a5.68 5.68 0 0 0 5.63 5.64 5.68 5.68 0 0 0 5.63-5.64 5.68 5.68 0 0 0-5.63-5.63 5.68 5.68 0 0 0-5.63 5.63Zm-56.32 0a5.68 5.68 0 0 0 5.63 5.64 5.68 5.68 0 0 0 5.63-5.64 5.68 5.68 0 0 0-5.63-5.63 5.68 5.68 0 0 0-5.63 5.63Zm-56.58 0a5.68 5.68 0 0 0 5.64 5.64 5.68 5.68 0 0 0 5.63-5.64 5.68 5.68 0 0 0-5.63-5.63 5.68 5.68 0 0 0-5.64 5.63Zm-56.32 0a5.68 5.68 0 0 0 5.64 5.64 5.68 5.68 0 0 0 5.63-5.64 5.68 5.68 0 0 0-5.63-5.63 5.68 5.68 0 0 0-5.64 5.63Zm-56.57 0a5.68 5.68 0 0 0 5.63 5.64 5.68 5.68 0 0 0 5.63-5.64 5.68 5.68 0 0 0-5.63-5.63 5.68 5.68 0 0 0-5.63 5.63Zm-56.32 0a5.68 5.68 0 0 0 5.63 5.64 5.68 5.68 0 0 0 5.63-5.64 5.68 5.68 0 0 0-5.63-5.63 5.52 5.52 0 0 0-5.63 5.63Zm-56.58 0a5.68 5.68 0 0 0 5.63 5.64 5.68 5.68 0 0 0 5.64-5.64 5.68 5.68 0 0 0-5.64-5.63 5.68 5.68 0 0 0-5.63 5.63Zm-56.32 0a5.68 5.68 0 0 0 5.63 5.64 5.68 5.68 0 0 0 5.64-5.64 5.68 5.68 0 0 0-5.64-5.63 5.52 5.52 0 0 0-5.63 5.63Zm-56.57 0a5.68 5.68 0 0 0 5.63 5.64 5.68 5.68 0 0 0 5.63-5.64 5.68 5.68 0 0 0-5.63-5.63 5.68 5.68 0 0 0-5.63 5.63Zm-56.58 0a5.68 5.68 0 0 0 5.63 5.64 5.68 5.68 0 0 0 5.63-5.64 5.68 5.68 0 0 0-5.63-5.63 5.68 5.68 0 0 0-5.63 5.63Zm-56.32 0a5.68 5.68 0 0 0 5.63 5.64 5.68 5.68 0 0 0 5.63-5.64 5.68 5.68 0 0 0-5.63-5.63 5.68 5.68 0 0 0-5.63 5.63Zm-56.58 0a5.68 5.68 0 0 0 5.64 5.64 5.68 5.68 0 0 0 5.63-5.64 5.68 5.68 0 0 0-5.63-5.63 5.68 5.68 0 0 0-5.64 5.63Zm762.37-35.84a5.68 5.68 0 0 0 5.63 5.64 5.68 5.68 0 0 0 5.64-5.64 5.68 5.68 0 0 0-5.64-5.63 5.68 5.68 0 0 0-5.63 5.63Zm-56.57 0a5.68 5.68 0 0 0 5.63 5.64 5.68 5.68 0 0 0 5.63-5.64 5.68 5.68 0 0 0-5.63-5.63 5.68 5.68 0 0 0-5.63 5.63Zm-56.32 0a5.68 5.68 0 0 0 5.63 5.64 5.68 5.68 0 0 0 5.63-5.64 5.68 5.68 0 0 0-5.63-5.63 5.52 5.52 0 0 0-5.63 5.63Zm-56.58 0a5.68 5.68 0 0 0 5.63 5.64 5.68 5.68 0 0 0 5.63-5.64 5.68 5.68 0 0 0-5.63-5.63 5.68 5.68 0 0 0-5.63 5.63Zm-56.32 0a5.68 5.68 0 0 0 5.63 5.64 5.68 5.68 0 0 0 5.63-5.64 5.68 5.68 0 0 0-5.63-5.63 5.52 5.52 0 0 0-5.63 5.63Zm-56.58 0a5.68 5.68 0 0 0 5.64 5.64 5.68 5.68 0 0 0 5.63-5.64 5.68 5.68 0 0 0-5.63-5.63 5.68 5.68 0 0 0-5.64 5.63Zm-56.57 0a5.68 5.68 0 0 0 5.63 5.64 5.68 5.68 0 0 0 5.63-5.64 5.68 5.68 0 0 0-5.63-5.63 5.68 5.68 0 0 0-5.63 5.63Zm-56.32 0a5.68 5.68 0 0 0 5.63 5.64 5.68 5.68 0 0 0 5.63-5.64 5.68 5.68 0 0 0-5.63-5.63 5.68 5.68 0 0 0-5.63 5.63Zm-56.58 0a5.68 5.68 0 0 0 5.63 5.64 5.68 5.68 0 0 0 5.64-5.64 5.68 5.68 0 0 0-5.64-5.63 5.68 5.68 0 0 0-5.63 5.63Zm-56.32 0a5.68 5.68 0 0 0 5.63 5.64 5.68 5.68 0 0 0 5.64-5.64 5.68 5.68 0 0 0-5.64-5.63 5.68 5.68 0 0 0-5.63 5.63Zm-56.57 0a5.68 5.68 0 0 0 5.63 5.64 5.68 5.68 0 0 0 5.63-5.64 5.68 5.68 0 0 0-5.63-5.63 5.68 5.68 0 0 0-5.63 5.63Zm-56.32 0a5.68 5.68 0 0 0 5.63 5.64 5.68 5.68 0 0 0 5.63-5.64 5.68 5.68 0 0 0-5.63-5.63 5.68 5.68 0 0 0-5.63 5.63Zm-56.58 0a5.68 5.68 0 0 0 5.63 5.64 5.68 5.68 0 0 0 5.63-5.64 5.68 5.68 0 0 0-5.63-5.63 5.68 5.68 0 0 0-5.63 5.63Zm-56.32 0a5.68 5.68 0 0 0 5.63 5.64 5.68 5.68 0 0 0 5.63-5.64 5.68 5.68 0 0 0-5.63-5.63 5.52 5.52 0 0 0-5.63 5.63Zm-56.58 0a5.68 5.68 0 0 0 5.64 5.64 5.68 5.68 0 0 0 5.63-5.64 5.68 5.68 0 0 0-5.63-5.63 5.68 5.68 0 0 0-5.64 5.63Zm818.7-35.84a5.68 5.68 0 0 0 5.62 5.64 5.68 5.68 0 0 0 5.64-5.64 5.68 5.68 0 0 0-5.64-5.63 5.68 5.68 0 0 0-5.63 5.63Zm-56.58 0a5.68 5.68 0 0 0 5.63 5.64 5.68 5.68 0 0 0 5.63-5.64 5.68 5.68 0 0 0-5.63-5.63 5.68 5.68 0 0 0-5.63 5.63Zm-56.32 0a5.68 5.68 0 0 0 5.63 5.64 5.68 5.68 0 0 0 5.63-5.64 5.68 5.68 0 0 0-5.63-5.63 5.68 5.68 0 0 0-5.63 5.63Zm-56.58 0a5.68 5.68 0 0 0 5.63 5.64 5.68 5.68 0 0 0 5.63-5.64 5.68 5.68 0 0 0-5.63-5.63 5.68 5.68 0 0 0-5.63 5.63Zm-56.32 0a5.68 5.68 0 0 0 5.63 5.64 5.68 5.68 0 0 0 5.63-5.64 5.68 5.68 0 0 0-5.63-5.63 5.68 5.68 0 0 0-5.63 5.63Zm-56.58 0a5.68 5.68 0 0 0 5.64 5.64 5.68 5.68 0 0 0 5.63-5.64 5.68 5.68 0 0 0-5.63-5.63 5.68 5.68 0 0 0-5.64 5.63Zm-56.32 0a5.68 5.68 0 0 0 5.64 5.64 5.68 5.68 0 0 0 5.63-5.64 5.68 5.68 0 0 0-5.63-5.63 5.68 5.68 0 0 0-5.64 5.63Zm-56.57 0a5.68 5.68 0 0 0 5.63 5.64 5.68 5.68 0 0 0 5.63-5.64 5.68 5.68 0 0 0-5.63-5.63 5.68 5.68 0 0 0-5.63 5.63Zm-56.32 0a5.68 5.68 0 0 0 5.63 5.64 5.68 5.68 0 0 0 5.63-5.64 5.68 5.68 0 0 0-5.63-5.63 5.52 5.52 0 0 0-5.63 5.63Zm-56.58 0a5.68 5.68 0 0 0 5.63 5.64 5.68 5.68 0 0 0 5.64-5.64 5.68 5.68 0 0 0-5.64-5.63 5.68 5.68 0 0 0-5.63 5.63Zm-56.32 0a5.68 5.68 0 0 0 5.63 5.64 5.68 5.68 0 0 0 5.64-5.64 5.68 5.68 0 0 0-5.64-5.63 5.52 5.52 0 0 0-5.63 5.63Zm-56.57 0a5.68 5.68 0 0 0 5.63 5.64 5.68 5.68 0 0 0 5.63-5.64 5.68 5.68 0 0 0-5.63-5.63 5.68 5.68 0 0 0-5.63 5.63Zm-56.58 0a5.68 5.68 0 0 0 5.63 5.64 5.68 5.68 0 0 0 5.63-5.64 5.68 5.68 0 0 0-5.63-5.63 5.68 5.68 0 0 0-5.63 5.63Zm-56.32 0a5.68 5.68 0 0 0 5.63 5.64 5.68 5.68 0 0 0 5.63-5.64 5.68 5.68 0 0 0-5.63-5.63 5.68 5.68 0 0 0-5.63 5.63Zm-56.58 0a5.68 5.68 0 0 0 5.64 5.64 5.68 5.68 0 0 0 5.63-5.64 5.68 5.68 0 0 0-5.63-5.63 5.68 5.68 0 0 0-5.64 5.63Zm-56.32 0a5.68 5.68 0 0 0 5.64 5.64 5.68 5.68 0 0 0 5.63-5.64 5.68 5.68 0 0 0-5.63-5.63 5.68 5.68 0 0 0-5.64 5.63Zm818.7-35.84a5.68 5.68 0 0 0 5.62 5.64 5.68 5.68 0 0 0 5.64-5.64 5.68 5.68 0 0 0-5.64-5.63 5.68 5.68 0 0 0-5.63 5.63Zm-56.58 0a5.68 5.68 0 0 0 5.63 5.64 5.68 5.68 0 0 0 5.63-5.64 5.68 5.68 0 0 0-5.63-5.63 5.68 5.68 0 0 0-5.63 5.63Zm-56.32 0a5.68 5.68 0 0 0 5.63 5.64 5.68 5.68 0 0 0 5.63-5.64 5.68 5.68 0 0 0-5.63-5.63 5.52 5.52 0 0 0-5.63 5.63Zm-56.58 0a5.68 5.68 0 0 0 5.63 5.64 5.68 5.68 0 0 0 5.63-5.64 5.68 5.68 0 0 0-5.63-5.63 5.68 5.68 0 0 0-5.63 5.63Zm-56.32 0a5.68 5.68 0 0 0 5.63 5.64 5.68 5.68 0 0 0 5.63-5.64 5.68 5.68 0 0 0-5.63-5.63 5.52 5.52 0 0 0-5.63 5.63Zm-56.58 0a5.68 5.68 0 0 0 5.64 5.64 5.68 5.68 0 0 0 5.63-5.64 5.68 5.68 0 0 0-5.63-5.63 5.68 5.68 0 0 0-5.64 5.63Zm-56.57 0a5.68 5.68 0 0 0 5.63 5.64 5.68 5.68 0 0 0 5.63-5.64 5.68 5.68 0 0 0-5.63-5.63 5.68 5.68 0 0 0-5.63 5.63Zm-56.32 0a5.68 5.68 0 0 0 5.63 5.64 5.68 5.68 0 0 0 5.63-5.64 5.68 5.68 0 0 0-5.63-5.63 5.68 5.68 0 0 0-5.63 5.63Zm-56.58 0a5.68 5.68 0 0 0 5.63 5.64 5.68 5.68 0 0 0 5.64-5.64 5.68 5.68 0 0 0-5.64-5.63 5.68 5.68 0 0 0-5.63 5.63Zm-56.32 0a5.68 5.68 0 0 0 5.63 5.64 5.68 5.68 0 0 0 5.64-5.64 5.68 5.68 0 0 0-5.64-5.63 5.68 5.68 0 0 0-5.63 5.63Zm-56.57 0a5.68 5.68 0 0 0 5.63 5.64 5.68 5.68 0 0 0 5.63-5.64 5.68 5.68 0 0 0-5.63-5.63 5.68 5.68 0 0 0-5.63 5.63Zm-56.32 0a5.68 5.68 0 0 0 5.63 5.64 5.68 5.68 0 0 0 5.63-5.64 5.68 5.68 0 0 0-5.63-5.63 5.68 5.68 0 0 0-5.63 5.63Zm-56.58 0a5.68 5.68 0 0 0 5.63 5.64 5.68 5.68 0 0 0 5.63-5.64 5.68 5.68 0 0 0-5.63-5.63 5.68 5.68 0 0 0-5.63 5.63Zm-56.32 0a5.68 5.68 0 0 0 5.63 5.64 5.68 5.68 0 0 0 5.63-5.64 5.68 5.68 0 0 0-5.63-5.63 5.52 5.52 0 0 0-5.63 5.63Zm-56.58 0a5.68 5.68 0 0 0 5.64 5.64 5.68 5.68 0 0 0 5.63-5.64 5.68 5.68 0 0 0-5.63-5.63 5.68 5.68 0 0 0-5.64 5.63Zm818.7-35.84a5.68 5.68 0 0 0 5.62 5.64 5.68 5.68 0 0 0 5.64-5.64 5.68 5.68 0 0 0-5.64-5.63 5.68 5.68 0 0 0-5.63 5.63Zm-56.58 0a5.68 5.68 0 0 0 5.63 5.64 5.68 5.68 0 0 0 5.63-5.64 5.68 5.68 0 0 0-5.63-5.63 5.68 5.68 0 0 0-5.63 5.63Zm-56.32 0a5.68 5.68 0 0 0 5.63 5.64 5.68 5.68 0 0 0 5.63-5.64 5.68 5.68 0 0 0-5.63-5.63 5.68 5.68 0 0 0-5.63 5.63Zm-56.58 0a5.68 5.68 0 0 0 5.63 5.64 5.68 5.68 0 0 0 5.63-5.64 5.68 5.68 0 0 0-5.63-5.63 5.68 5.68 0 0 0-5.63 5.63Zm-56.32 0a5.68 5.68 0 0 0 5.63 5.64 5.68 5.68 0 0 0 5.63-5.64 5.68 5.68 0 0 0-5.63-5.63 5.68 5.68 0 0 0-5.63 5.63Zm-56.58 0a5.68 5.68 0 0 0 5.64 5.64 5.68 5.68 0 0 0 5.63-5.64 5.68 5.68 0 0 0-5.63-5.63 5.68 5.68 0 0 0-5.64 5.63Zm-56.32 0a5.68 5.68 0 0 0 5.64 5.64 5.68 5.68 0 0 0 5.63-5.64 5.68 5.68 0 0 0-5.63-5.63 5.68 5.68 0 0 0-5.64 5.63Zm-56.57 0a5.68 5.68 0 0 0 5.63 5.64 5.68 5.68 0 0 0 5.63-5.64 5.68 5.68 0 0 0-5.63-5.63 5.68 5.68 0 0 0-5.63 5.63Zm-56.32 0a5.68 5.68 0 0 0 5.63 5.64 5.68 5.68 0 0 0 5.63-5.64 5.68 5.68 0 0 0-5.63-5.63 5.52 5.52 0 0 0-5.63 5.63Zm-56.58 0a5.68 5.68 0 0 0 5.63 5.64 5.68 5.68 0 0 0 5.64-5.64 5.68 5.68 0 0 0-5.64-5.63 5.68 5.68 0 0 0-5.63 5.63Zm-56.32 0a5.68 5.68 0 0 0 5.63 5.64 5.68 5.68 0 0 0 5.64-5.64 5.68 5.68 0 0 0-5.64-5.63 5.52 5.52 0 0 0-5.63 5.63Zm-56.57 0a5.68 5.68 0 0 0 5.63 5.64 5.68 5.68 0 0 0 5.63-5.64 5.68 5.68 0 0 0-5.63-5.63 5.68 5.68 0 0 0-5.63 5.63Zm-56.58 0a5.68 5.68 0 0 0 5.63 5.64 5.68 5.68 0 0 0 5.63-5.64 5.68 5.68 0 0 0-5.63-5.63 5.68 5.68 0 0 0-5.63 5.63Zm-56.32 0a5.68 5.68 0 0 0 5.63 5.64 5.68 5.68 0 0 0 5.63-5.64 5.68 5.68 0 0 0-5.63-5.63 5.68 5.68 0 0 0-5.63 5.63Zm-56.58 0a5.68 5.68 0 0 0 5.64 5.64 5.68 5.68 0 0 0 5.63-5.64 5.68 5.68 0 0 0-5.63-5.63 5.68 5.68 0 0 0-5.64 5.63Zm-56.32 0a5.68 5.68 0 0 0 5.64 5.64 5.68 5.68 0 0 0 5.63-5.64 5.68 5.68 0 0 0-5.63-5.63 5.68 5.68 0 0 0-5.64 5.63Zm818.7-35.84a5.68 5.68 0 0 0 5.62 5.64 5.68 5.68 0 0 0 5.64-5.64 5.68 5.68 0 0 0-5.64-5.63 5.68 5.68 0 0 0-5.63 5.63Zm-56.58 0a5.68 5.68 0 0 0 5.63 5.64 5.68 5.68 0 0 0 5.63-5.64 5.68 5.68 0 0 0-5.63-5.63 5.68 5.68 0 0 0-5.63 5.63Zm-56.32 0a5.68 5.68 0 0 0 5.63 5.64 5.68 5.68 0 0 0 5.63-5.64 5.68 5.68 0 0 0-5.63-5.63 5.52 5.52 0 0 0-5.63 5.63Zm-56.58 0a5.68 5.68 0 0 0 5.63 5.64 5.68 5.68 0 0 0 5.63-5.64 5.68 5.68 0 0 0-5.63-5.63 5.68 5.68 0 0 0-5.63 5.63Zm-56.32 0a5.68 5.68 0 0 0 5.63 5.64 5.68 5.68 0 0 0 5.63-5.64 5.68 5.68 0 0 0-5.63-5.63 5.52 5.52 0 0 0-5.63 5.63Zm-56.58 0a5.68 5.68 0 0 0 5.64 5.64 5.68 5.68 0 0 0 5.63-5.64 5.68 5.68 0 0 0-5.63-5.63 5.68 5.68 0 0 0-5.64 5.63Zm-56.57 0a5.68 5.68 0 0 0 5.63 5.64 5.68 5.68 0 0 0 5.63-5.64 5.68 5.68 0 0 0-5.63-5.63 5.68 5.68 0 0 0-5.63 5.63Zm-56.32 0a5.68 5.68 0 0 0 5.63 5.64 5.68 5.68 0 0 0 5.63-5.64 5.68 5.68 0 0 0-5.63-5.63 5.68 5.68 0 0 0-5.63 5.63Zm-56.58 0a5.68 5.68 0 0 0 5.63 5.64 5.68 5.68 0 0 0 5.64-5.64 5.68 5.68 0 0 0-5.64-5.63 5.68 5.68 0 0 0-5.63 5.63Zm-56.32 0a5.68 5.68 0 0 0 5.63 5.64 5.68 5.68 0 0 0 5.64-5.64 5.68 5.68 0 0 0-5.64-5.63 5.68 5.68 0 0 0-5.63 5.63Zm-56.57 0a5.68 5.68 0 0 0 5.63 5.64 5.68 5.68 0 0 0 5.63-5.64 5.68 5.68 0 0 0-5.63-5.63 5.68 5.68 0 0 0-5.63 5.63Zm-56.32 0a5.68 5.68 0 0 0 5.63 5.64 5.68 5.68 0 0 0 5.63-5.64 5.68 5.68 0 0 0-5.63-5.63 5.68 5.68 0 0 0-5.63 5.63Zm-56.58 0a5.68 5.68 0 0 0 5.63 5.64 5.68 5.68 0 0 0 5.63-5.64 5.68 5.68 0 0 0-5.63-5.63 5.68 5.68 0 0 0-5.63 5.63Zm-56.32 0a5.68 5.68 0 0 0 5.63 5.64 5.68 5.68 0 0 0 5.63-5.64 5.68 5.68 0 0 0-5.63-5.63 5.52 5.52 0 0 0-5.63 5.63Zm-56.58 0a5.68 5.68 0 0 0 5.64 5.64 5.68 5.68 0 0 0 5.63-5.64 5.68 5.68 0 0 0-5.63-5.63 5.68 5.68 0 0 0-5.64 5.63Zm762.12-35.84a5.68 5.68 0 0 0 5.63 5.64 5.68 5.68 0 0 0 5.63-5.64 5.68 5.68 0 0 0-5.63-5.63 5.68 5.68 0 0 0-5.63 5.63Zm-56.32 0a5.68 5.68 0 0 0 5.63 5.64 5.68 5.68 0 0 0 5.63-5.64 5.68 5.68 0 0 0-5.63-5.63 5.68 5.68 0 0 0-5.63 5.63Zm-56.58 0a5.68 5.68 0 0 0 5.63 5.64 5.68 5.68 0 0 0 5.63-5.64 5.68 5.68 0 0 0-5.63-5.63 5.68 5.68 0 0 0-5.63 5.63Zm-56.32 0a5.68 5.68 0 0 0 5.63 5.64 5.68 5.68 0 0 0 5.63-5.64 5.68 5.68 0 0 0-5.63-5.63 5.68 5.68 0 0 0-5.63 5.63Zm-56.58 0a5.68 5.68 0 0 0 5.64 5.64 5.68 5.68 0 0 0 5.63-5.64 5.68 5.68 0 0 0-5.63-5.63 5.68 5.68 0 0 0-5.64 5.63Zm-56.32 0a5.68 5.68 0 0 0 5.64 5.64 5.68 5.68 0 0 0 5.63-5.64 5.68 5.68 0 0 0-5.63-5.63 5.68 5.68 0 0 0-5.64 5.63Zm-56.57 0a5.68 5.68 0 0 0 5.63 5.64 5.68 5.68 0 0 0 5.63-5.64 5.68 5.68 0 0 0-5.63-5.63 5.68 5.68 0 0 0-5.63 5.63Zm-56.32 0a5.68 5.68 0 0 0 5.63 5.64 5.68 5.68 0 0 0 5.63-5.64 5.68 5.68 0 0 0-5.63-5.63 5.52 5.52 0 0 0-5.63 5.63Zm-56.58 0a5.68 5.68 0 0 0 5.63 5.64 5.68 5.68 0 0 0 5.64-5.64 5.68 5.68 0 0 0-5.64-5.63 5.68 5.68 0 0 0-5.63 5.63Zm-56.32 0a5.68 5.68 0 0 0 5.63 5.64 5.68 5.68 0 0 0 5.64-5.64 5.68 5.68 0 0 0-5.64-5.63 5.52 5.52 0 0 0-5.63 5.63Zm-56.57 0a5.68 5.68 0 0 0 5.63 5.64 5.68 5.68 0 0 0 5.63-5.64 5.68 5.68 0 0 0-5.63-5.63 5.68 5.68 0 0 0-5.63 5.63Zm-56.58 0a5.68 5.68 0 0 0 5.63 5.64 5.68 5.68 0 0 0 5.63-5.64 5.68 5.68 0 0 0-5.63-5.63 5.68 5.68 0 0 0-5.63 5.63Zm-56.32 0a5.68 5.68 0 0 0 5.63 5.64 5.68 5.68 0 0 0 5.63-5.64 5.68 5.68 0 0 0-5.63-5.63 5.68 5.68 0 0 0-5.63 5.63Zm-56.58 0a5.68 5.68 0 0 0 5.64 5.64 5.68 5.68 0 0 0 5.63-5.64 5.68 5.68 0 0 0-5.63-5.63 5.68 5.68 0 0 0-5.64 5.63Zm762.37-35.58a5.68 5.68 0 0 0 5.63 5.63 5.68 5.68 0 0 0 5.64-5.63 5.68 5.68 0 0 0-5.64-5.63 5.52 5.52 0 0 0-5.63 5.63Zm-56.57 0a5.68 5.68 0 0 0 5.63 5.63 5.68 5.68 0 0 0 5.63-5.63 5.68 5.68 0 0 0-5.63-5.63 5.52 5.52 0 0 0-5.63 5.63Zm-56.32 0a5.68 5.68 0 0 0 5.63 5.63 5.68 5.68 0 0 0 5.63-5.63 5.68 5.68 0 0 0-5.63-5.63 5.37 5.37 0 0 0-5.63 5.63Zm-56.58 0a5.68 5.68 0 0 0 5.63 5.63 5.68 5.68 0 0 0 5.63-5.63 5.68 5.68 0 0 0-5.63-5.63 5.52 5.52 0 0 0-5.63 5.63Zm-56.32 0a5.68 5.68 0 0 0 5.63 5.63 5.68 5.68 0 0 0 5.63-5.63 5.68 5.68 0 0 0-5.63-5.63 5.37 5.37 0 0 0-5.63 5.63Zm-56.58 0a5.68 5.68 0 0 0 5.64 5.63 5.68 5.68 0 0 0 5.63-5.63 5.68 5.68 0 0 0-5.63-5.63 5.52 5.52 0 0 0-5.64 5.63Zm-56.57 0a5.68 5.68 0 0 0 5.63 5.63 5.68 5.68 0 0 0 5.63-5.63 5.68 5.68 0 0 0-5.63-5.63 5.52 5.52 0 0 0-5.63 5.63Zm-56.32 0a5.68 5.68 0 0 0 5.63 5.63 5.68 5.68 0 0 0 5.63-5.63 5.68 5.68 0 0 0-5.63-5.63 5.52 5.52 0 0 0-5.63 5.63Zm-56.58 0a5.68 5.68 0 0 0 5.63 5.63 5.68 5.68 0 0 0 5.64-5.63 5.68 5.68 0 0 0-5.64-5.63 5.52 5.52 0 0 0-5.63 5.63Zm-56.32 0a5.68 5.68 0 0 0 5.63 5.63 5.68 5.68 0 0 0 5.64-5.63 5.68 5.68 0 0 0-5.64-5.63 5.52 5.52 0 0 0-5.63 5.63Zm-56.57 0a5.68 5.68 0 0 0 5.63 5.63 5.68 5.68 0 0 0 5.63-5.63 5.68 5.68 0 0 0-5.63-5.63 5.52 5.52 0 0 0-5.63 5.63Zm-56.32 0a5.68 5.68 0 0 0 5.63 5.63 5.68 5.68 0 0 0 5.63-5.63 5.68 5.68 0 0 0-5.63-5.63 5.52 5.52 0 0 0-5.63 5.63Zm-56.58 0a5.68 5.68 0 0 0 5.63 5.63 5.68 5.68 0 0 0 5.63-5.63 5.68 5.68 0 0 0-5.63-5.63 5.52 5.52 0 0 0-5.63 5.63Zm-56.32 0a5.68 5.68 0 0 0 5.63 5.63 5.68 5.68 0 0 0 5.63-5.63 5.68 5.68 0 0 0-5.63-5.63 5.37 5.37 0 0 0-5.63 5.63Zm-56.58 0a5.68 5.68 0 0 0 5.64 5.63 5.68 5.68 0 0 0 5.63-5.63 5.68 5.68 0 0 0-5.63-5.63 5.52 5.52 0 0 0-5.64 5.63Zm762.12-35.84a5.68 5.68 0 0 0 5.63 5.63 5.68 5.68 0 0 0 5.63-5.63 5.68 5.68 0 0 0-5.63-5.63 5.52 5.52 0 0 0-5.63 5.63Zm-56.32 0a5.68 5.68 0 0 0 5.63 5.63 5.68 5.68 0 0 0 5.63-5.63 5.68 5.68 0 0 0-5.63-5.63 5.52 5.52 0 0 0-5.63 5.63Zm-56.58 0a5.68 5.68 0 0 0 5.63 5.63 5.68 5.68 0 0 0 5.63-5.63 5.68 5.68 0 0 0-5.63-5.63 5.52 5.52 0 0 0-5.63 5.63Zm-56.32 0a5.68 5.68 0 0 0 5.63 5.63 5.68 5.68 0 0 0 5.63-5.63 5.68 5.68 0 0 0-5.63-5.63 5.52 5.52 0 0 0-5.63 5.63Zm-56.58 0a5.68 5.68 0 0 0 5.64 5.63 5.68 5.68 0 0 0 5.63-5.63 5.68 5.68 0 0 0-5.63-5.63 5.52 5.52 0 0 0-5.64 5.63Zm-56.32 0a5.68 5.68 0 0 0 5.64 5.63 5.68 5.68 0 0 0 5.63-5.63 5.68 5.68 0 0 0-5.63-5.63 5.52 5.52 0 0 0-5.64 5.63Zm-56.57 0a5.68 5.68 0 0 0 5.63 5.63 5.68 5.68 0 0 0 5.63-5.63 5.68 5.68 0 0 0-5.63-5.63 5.52 5.52 0 0 0-5.63 5.63Zm-56.32 0a5.68 5.68 0 0 0 5.63 5.63 5.68 5.68 0 0 0 5.63-5.63 5.68 5.68 0 0 0-5.63-5.63 5.37 5.37 0 0 0-5.63 5.63Zm-56.58 0a5.68 5.68 0 0 0 5.63 5.63 5.68 5.68 0 0 0 5.64-5.63 5.68 5.68 0 0 0-5.64-5.63 5.52 5.52 0 0 0-5.63 5.63Zm-56.32 0a5.68 5.68 0 0 0 5.63 5.63 5.68 5.68 0 0 0 5.64-5.63 5.68 5.68 0 0 0-5.64-5.63 5.37 5.37 0 0 0-5.63 5.63Zm-56.57 0a5.68 5.68 0 0 0 5.63 5.63 5.68 5.68 0 0 0 5.63-5.63 5.68 5.68 0 0 0-5.63-5.63 5.52 5.52 0 0 0-5.63 5.63Zm-56.58 0a5.68 5.68 0 0 0 5.63 5.63 5.68 5.68 0 0 0 5.63-5.63 5.68 5.68 0 0 0-5.63-5.63 5.52 5.52 0 0 0-5.63 5.63Zm-56.32 0a5.68 5.68 0 0 0 5.63 5.63 5.68 5.68 0 0 0 5.63-5.63 5.68 5.68 0 0 0-5.63-5.63 5.52 5.52 0 0 0-5.63 5.63Zm-56.58 0a5.68 5.68 0 0 0 5.64 5.63 5.68 5.68 0 0 0 5.63-5.63 5.68 5.68 0 0 0-5.63-5.63 5.52 5.52 0 0 0-5.64 5.63Zm705.8-35.84a5.68 5.68 0 0 0 5.63 5.63 5.68 5.68 0 0 0 5.63-5.63 5.68 5.68 0 0 0-5.63-5.63 5.68 5.68 0 0 0-5.63 5.63Zm-56.32 0a5.68 5.68 0 0 0 5.63 5.63 5.68 5.68 0 0 0 5.63-5.63 5.68 5.68 0 0 0-5.63-5.63 5.52 5.52 0 0 0-5.63 5.63Zm-56.58 0a5.68 5.68 0 0 0 5.63 5.63 5.68 5.68 0 0 0 5.63-5.63 5.68 5.68 0 0 0-5.63-5.63 5.68 5.68 0 0 0-5.63 5.63Zm-56.32 0a5.68 5.68 0 0 0 5.63 5.63 5.68 5.68 0 0 0 5.63-5.63 5.68 5.68 0 0 0-5.63-5.63 5.52 5.52 0 0 0-5.63 5.63Zm-56.58 0a5.68 5.68 0 0 0 5.64 5.63 5.68 5.68 0 0 0 5.63-5.63 5.68 5.68 0 0 0-5.63-5.63 5.68 5.68 0 0 0-5.64 5.63Zm-56.57 0a5.68 5.68 0 0 0 5.63 5.63 5.68 5.68 0 0 0 5.63-5.63 5.68 5.68 0 0 0-5.63-5.63 5.68 5.68 0 0 0-5.63 5.63Zm-56.32 0a5.68 5.68 0 0 0 5.63 5.63 5.68 5.68 0 0 0 5.63-5.63 5.68 5.68 0 0 0-5.63-5.63 5.68 5.68 0 0 0-5.63 5.63Zm-56.58 0a5.68 5.68 0 0 0 5.63 5.63 5.68 5.68 0 0 0 5.64-5.63 5.68 5.68 0 0 0-5.64-5.63 5.68 5.68 0 0 0-5.63 5.63Zm-56.32 0a5.68 5.68 0 0 0 5.63 5.63 5.68 5.68 0 0 0 5.64-5.63 5.68 5.68 0 0 0-5.64-5.63 5.68 5.68 0 0 0-5.63 5.63Zm-56.57 0a5.68 5.68 0 0 0 5.63 5.63 5.68 5.68 0 0 0 5.63-5.63 5.68 5.68 0 0 0-5.63-5.63 5.68 5.68 0 0 0-5.63 5.63Zm-56.32 0a5.68 5.68 0 0 0 5.63 5.63 5.68 5.68 0 0 0 5.63-5.63 5.68 5.68 0 0 0-5.63-5.63 5.68 5.68 0 0 0-5.63 5.63Zm-56.58 0a5.68 5.68 0 0 0 5.63 5.63 5.68 5.68 0 0 0 5.63-5.63 5.68 5.68 0 0 0-5.63-5.63 5.68 5.68 0 0 0-5.63 5.63Zm-56.32 0a5.68 5.68 0 0 0 5.63 5.63 5.68 5.68 0 0 0 5.63-5.63 5.68 5.68 0 0 0-5.63-5.63 5.52 5.52 0 0 0-5.63 5.63Zm649.22-35.84a5.68 5.68 0 0 0 5.63 5.63 5.68 5.68 0 0 0 5.63-5.63 5.68 5.68 0 0 0-5.63-5.63 5.68 5.68 0 0 0-5.63 5.63Zm-56.58 0a5.68 5.68 0 0 0 5.63 5.63 5.68 5.68 0 0 0 5.63-5.63 5.68 5.68 0 0 0-5.63-5.63 5.68 5.68 0 0 0-5.63 5.63Zm-56.32 0a5.68 5.68 0 0 0 5.63 5.63 5.68 5.68 0 0 0 5.63-5.63 5.68 5.68 0 0 0-5.63-5.63 5.68 5.68 0 0 0-5.63 5.63Zm-56.58 0a5.68 5.68 0 0 0 5.64 5.63 5.68 5.68 0 0 0 5.63-5.63 5.68 5.68 0 0 0-5.63-5.63 5.68 5.68 0 0 0-5.64 5.63Zm-56.32 0a5.68 5.68 0 0 0 5.64 5.63 5.68 5.68 0 0 0 5.63-5.63 5.68 5.68 0 0 0-5.63-5.63 5.68 5.68 0 0 0-5.64 5.63Zm-56.57 0a5.68 5.68 0 0 0 5.63 5.63 5.68 5.68 0 0 0 5.63-5.63 5.68 5.68 0 0 0-5.63-5.63 5.68 5.68 0 0 0-5.63 5.63Zm-56.32 0a5.68 5.68 0 0 0 5.63 5.63 5.68 5.68 0 0 0 5.63-5.63 5.68 5.68 0 0 0-5.63-5.63 5.52 5.52 0 0 0-5.63 5.63Zm-56.58 0a5.68 5.68 0 0 0 5.63 5.63 5.68 5.68 0 0 0 5.64-5.63 5.68 5.68 0 0 0-5.64-5.63 5.68 5.68 0 0 0-5.63 5.63Zm-56.32 0a5.68 5.68 0 0 0 5.63 5.63 5.68 5.68 0 0 0 5.64-5.63 5.68 5.68 0 0 0-5.64-5.63 5.52 5.52 0 0 0-5.63 5.63Zm-56.57 0a5.68 5.68 0 0 0 5.63 5.63 5.68 5.68 0 0 0 5.63-5.63 5.68 5.68 0 0 0-5.63-5.63 5.68 5.68 0 0 0-5.63 5.63Zm-56.58 0a5.68 5.68 0 0 0 5.63 5.63 5.68 5.68 0 0 0 5.63-5.63 5.68 5.68 0 0 0-5.63-5.63 5.68 5.68 0 0 0-5.63 5.63Zm-56.32 0a5.68 5.68 0 0 0 5.63 5.63 5.68 5.68 0 0 0 5.63-5.63 5.68 5.68 0 0 0-5.63-5.63 5.68 5.68 0 0 0-5.63 5.63Zm592.9-35.84a5.68 5.68 0 0 0 5.63 5.63 5.68 5.68 0 0 0 5.63-5.63 5.68 5.68 0 0 0-5.63-5.63 5.52 5.52 0 0 0-5.63 5.63Zm-56.58 0a5.68 5.68 0 0 0 5.63 5.63 5.68 5.68 0 0 0 5.63-5.63 5.68 5.68 0 0 0-5.63-5.63 5.68 5.68 0 0 0-5.63 5.63Zm-56.32 0a5.68 5.68 0 0 0 5.63 5.63 5.68 5.68 0 0 0 5.63-5.63 5.68 5.68 0 0 0-5.63-5.63 5.52 5.52 0 0 0-5.63 5.63Zm-56.58 0a5.68 5.68 0 0 0 5.64 5.63 5.68 5.68 0 0 0 5.63-5.63 5.68 5.68 0 0 0-5.63-5.63 5.68 5.68 0 0 0-5.64 5.63Zm-56.57 0a5.68 5.68 0 0 0 5.63 5.63 5.68 5.68 0 0 0 5.63-5.63 5.68 5.68 0 0 0-5.63-5.63 5.68 5.68 0 0 0-5.63 5.63Zm-56.32 0a5.68 5.68 0 0 0 5.63 5.63 5.68 5.68 0 0 0 5.63-5.63 5.68 5.68 0 0 0-5.63-5.63 5.68 5.68 0 0 0-5.63 5.63Zm-56.58 0a5.68 5.68 0 0 0 5.63 5.63 5.68 5.68 0 0 0 5.64-5.63 5.68 5.68 0 0 0-5.64-5.63 5.68 5.68 0 0 0-5.63 5.63Zm-56.32 0a5.68 5.68 0 0 0 5.63 5.63 5.68 5.68 0 0 0 5.64-5.63 5.68 5.68 0 0 0-5.64-5.63 5.68 5.68 0 0 0-5.63 5.63Zm-56.57 0a5.68 5.68 0 0 0 5.63 5.63 5.68 5.68 0 0 0 5.63-5.63 5.68 5.68 0 0 0-5.63-5.63 5.68 5.68 0 0 0-5.63 5.63Zm-56.32 0a5.68 5.68 0 0 0 5.63 5.63 5.68 5.68 0 0 0 5.63-5.63 5.68 5.68 0 0 0-5.63-5.63 5.68 5.68 0 0 0-5.63 5.63Zm-56.58 0a5.68 5.68 0 0 0 5.63 5.63 5.68 5.68 0 0 0 5.63-5.63 5.68 5.68 0 0 0-5.63-5.63 5.68 5.68 0 0 0-5.63 5.63Zm536.32-35.84a5.68 5.68 0 0 0 5.63 5.63 5.68 5.68 0 0 0 5.63-5.63 5.68 5.68 0 0 0-5.63-5.63 5.68 5.68 0 0 0-5.63 5.63Zm-56.32 0a5.68 5.68 0 0 0 5.63 5.63 5.68 5.68 0 0 0 5.63-5.63 5.68 5.68 0 0 0-5.63-5.63 5.68 5.68 0 0 0-5.63 5.63Zm-56.58 0a5.68 5.68 0 0 0 5.64 5.63 5.68 5.68 0 0 0 5.63-5.63 5.68 5.68 0 0 0-5.63-5.63 5.68 5.68 0 0 0-5.64 5.63Zm-56.32 0a5.68 5.68 0 0 0 5.64 5.63 5.68 5.68 0 0 0 5.63-5.63 5.68 5.68 0 0 0-5.63-5.63 5.68 5.68 0 0 0-5.64 5.63Zm-56.57 0a5.68 5.68 0 0 0 5.63 5.63 5.68 5.68 0 0 0 5.63-5.63 5.68 5.68 0 0 0-5.63-5.63 5.68 5.68 0 0 0-5.63 5.63Zm-56.32 0a5.68 5.68 0 0 0 5.63 5.63 5.68 5.68 0 0 0 5.63-5.63 5.68 5.68 0 0 0-5.63-5.63 5.52 5.52 0 0 0-5.63 5.63Zm-56.58 0a5.68 5.68 0 0 0 5.63 5.63 5.68 5.68 0 0 0 5.64-5.63 5.68 5.68 0 0 0-5.64-5.63 5.68 5.68 0 0 0-5.63 5.63Zm-56.32 0a5.68 5.68 0 0 0 5.63 5.63 5.68 5.68 0 0 0 5.64-5.63 5.68 5.68 0 0 0-5.64-5.63 5.52 5.52 0 0 0-5.63 5.63Zm-56.57 0a5.68 5.68 0 0 0 5.63 5.63 5.68 5.68 0 0 0 5.63-5.63 5.68 5.68 0 0 0-5.63-5.63 5.68 5.68 0 0 0-5.63 5.63Zm-56.58 0a5.68 5.68 0 0 0 5.63 5.63 5.68 5.68 0 0 0 5.63-5.63 5.68 5.68 0 0 0-5.63-5.63 5.68 5.68 0 0 0-5.63 5.63Zm480-35.84a5.68 5.68 0 0 0 5.63 5.63 5.68 5.68 0 0 0 5.63-5.63 5.68 5.68 0 0 0-5.63-5.63 5.68 5.68 0 0 0-5.63 5.63Zm-56.32 0a5.68 5.68 0 0 0 5.63 5.63 5.68 5.68 0 0 0 5.63-5.63 5.68 5.68 0 0 0-5.63-5.63 5.52 5.52 0 0 0-5.63 5.63Zm-56.58 0a5.68 5.68 0 0 0 5.64 5.63 5.68 5.68 0 0 0 5.63-5.63 5.68 5.68 0 0 0-5.63-5.63 5.68 5.68 0 0 0-5.64 5.63Zm-56.57 0a5.68 5.68 0 0 0 5.63 5.63 5.68 5.68 0 0 0 5.63-5.63 5.68 5.68 0 0 0-5.63-5.63 5.68 5.68 0 0 0-5.63 5.63Zm-56.32 0a5.68 5.68 0 0 0 5.63 5.63 5.68 5.68 0 0 0 5.63-5.63 5.68 5.68 0 0 0-5.63-5.63 5.68 5.68 0 0 0-5.63 5.63Zm-56.58 0a5.68 5.68 0 0 0 5.63 5.63 5.68 5.68 0 0 0 5.64-5.63 5.68 5.68 0 0 0-5.64-5.63 5.68 5.68 0 0 0-5.63 5.63Zm-56.32 0a5.68 5.68 0 0 0 5.63 5.63 5.68 5.68 0 0 0 5.64-5.63 5.68 5.68 0 0 0-5.64-5.63 5.68 5.68 0 0 0-5.63 5.63Zm-56.57 0a5.68 5.68 0 0 0 5.63 5.63 5.68 5.68 0 0 0 5.63-5.63 5.68 5.68 0 0 0-5.63-5.63 5.68 5.68 0 0 0-5.63 5.63Zm-56.32 0a5.68 5.68 0 0 0 5.63 5.63 5.68 5.68 0 0 0 5.63-5.63 5.68 5.68 0 0 0-5.63-5.63 5.68 5.68 0 0 0-5.63 5.63Zm423.42-35.84a5.68 5.68 0 0 0 5.63 5.63 5.68 5.68 0 0 0 5.63-5.63 5.68 5.68 0 0 0-5.63-5.63 5.68 5.68 0 0 0-5.63 5.63Zm-56.58 0a5.68 5.68 0 0 0 5.64 5.63 5.68 5.68 0 0 0 5.63-5.63 5.68 5.68 0 0 0-5.63-5.63 5.68 5.68 0 0 0-5.64 5.63Zm-56.32 0a5.68 5.68 0 0 0 5.64 5.63 5.68 5.68 0 0 0 5.63-5.63 5.68 5.68 0 0 0-5.63-5.63 5.68 5.68 0 0 0-5.64 5.63Zm-56.57 0a5.68 5.68 0 0 0 5.63 5.63 5.68 5.68 0 0 0 5.63-5.63 5.68 5.68 0 0 0-5.63-5.63 5.68 5.68 0 0 0-5.63 5.63Zm-56.32 0a5.68 5.68 0 0 0 5.63 5.63 5.68 5.68 0 0 0 5.63-5.63 5.68 5.68 0 0 0-5.63-5.63 5.52 5.52 0 0 0-5.63 5.63Zm-56.58 0a5.68 5.68 0 0 0 5.63 5.63 5.68 5.68 0 0 0 5.64-5.63 5.68 5.68 0 0 0-5.64-5.63 5.68 5.68 0 0 0-5.63 5.63Zm-56.32 0a5.68 5.68 0 0 0 5.63 5.63 5.68 5.68 0 0 0 5.64-5.63 5.68 5.68 0 0 0-5.64-5.63 5.52 5.52 0 0 0-5.63 5.63Zm-56.57 0a5.68 5.68 0 0 0 5.63 5.63 5.68 5.68 0 0 0 5.63-5.63 5.68 5.68 0 0 0-5.63-5.63 5.68 5.68 0 0 0-5.63 5.63Zm310.52-35.84a5.68 5.68 0 0 0 5.64 5.63 5.68 5.68 0 0 0 5.63-5.63 5.68 5.68 0 0 0-5.63-5.63 5.68 5.68 0 0 0-5.64 5.63Zm-56.57 0a5.68 5.68 0 0 0 5.63 5.63 5.68 5.68 0 0 0 5.63-5.63 5.68 5.68 0 0 0-5.63-5.63 5.68 5.68 0 0 0-5.63 5.63Zm-56.32 0a5.68 5.68 0 0 0 5.63 5.63 5.68 5.68 0 0 0 5.63-5.63 5.68 5.68 0 0 0-5.63-5.63 5.68 5.68 0 0 0-5.63 5.63Zm-56.58 0a5.68 5.68 0 0 0 5.63 5.63 5.68 5.68 0 0 0 5.64-5.63 5.68 5.68 0 0 0-5.64-5.63 5.68 5.68 0 0 0-5.63 5.63Zm-56.32 0a5.68 5.68 0 0 0 5.63 5.63 5.68 5.68 0 0 0 5.64-5.63 5.68 5.68 0 0 0-5.64-5.63 5.68 5.68 0 0 0-5.63 5.63Z" />
      <g stroke="#638DFF" stroke-miterlimit="10" opacity=".5">
        <path stroke-width="2.1"
          d="M653.06 1276.93c0 174.33-141.32 315.39-315.4 315.39-174.33 0-315.39-141.06-315.39-315.39 0-174.34 141.31-315.4 315.4-315.4 174.33 0 315.39 141.32 315.39 315.4Z" />
        <path stroke-width="1.83"
          d="M703.39 1313.18c20-202.04-127.56-382.04-329.6-402.04-202.03-20-382.03 127.55-402.03 329.59-20 202.03 127.56 382.03 329.59 402.04 202.03 20 382.03-127.56 402.04-329.59Z" />
        <path stroke-width="1.56"
          d="M337.66 1696.51c231.73 0 419.59-187.85 419.59-419.58S569.39 857.34 337.66 857.34c-231.73 0-419.58 187.86-419.58 419.59 0 231.73 187.85 419.58 419.58 419.58Z" />
        <path stroke-width="1.29"
          d="M671.06 1610.35c184.15-184.15 184.15-482.72 0-666.87-184.15-184.15-482.72-184.15-666.87 0-184.15 184.15-184.15 482.72 0 666.87 184.15 184.15 482.72 184.15 666.87 0Z" />
        <path stroke-width="1.02"
          d="M707.8 1647.1c204.45-204.45 204.45-535.92 0-740.36-204.44-204.45-535.91-204.45-740.36 0-204.44 204.44-204.44 535.91 0 740.36 204.45 204.44 535.92 204.44 740.37 0Z" />
        <path stroke-width=".75"
          d="M337.66 1852.42c317.84 0 575.5-257.66 575.5-575.49 0-317.84-257.66-575.49-575.5-575.49-317.83 0-575.48 257.65-575.48 575.49 0 317.83 257.65 575.49 575.48 575.49Z" />
        <path stroke-width=".48"
          d="M781.48 1720.77c245.13-245.13 245.13-642.57 0-887.7-245.13-245.14-642.58-245.14-887.71 0-245.13 245.13-245.13 642.57 0 887.7 245.13 245.14 642.58 245.14 887.71 0Z" />
      </g>
      <g stroke="#638DFF" stroke-miterlimit="10" opacity=".5">
        <path stroke-width="1.5"
          d="M1615.62 764.93c0-63.23 51.2-114.69 114.68-114.69 63.24 0 114.69 51.2 114.69 114.69 0 63.23-51.2 114.69-114.69 114.69-63.48 0-114.68-51.46-114.68-114.7Z" />
        <path stroke-width="1.35"
          d="M1872.9 764.93c0 78.85-64 142.85-142.85 142.85s-142.85-64-142.85-142.85 64-142.85 142.85-142.85 142.85 64 142.85 142.85Z" />
        <path stroke-width="1.19"
          d="M1901.06 764.93c0 94.46-76.55 171-171.01 171-94.47 0-171.01-76.54-171.01-171 0-94.47 76.54-171.01 171.01-171.01 94.46 0 171.01 76.54 171.01 171Z" />
        <path stroke-width="1.04"
          d="M1929.22 764.93c0 110.08-89.09 199.17-199.17 199.17-110.08 0-199.17-89.1-199.17-199.17 0-110.08 89.09-199.17 199.17-199.17 110.08 0 199.17 89.09 199.17 199.17Z" />
        <path stroke-width=".88"
          d="M1957.38 764.93c0 125.44-101.89 227.33-227.33 227.33-125.44 0-227.33-101.9-227.33-227.33 0-125.44 101.89-227.33 227.33-227.33 125.69 0 227.33 101.89 227.33 227.33Z" />
        <path stroke-width=".73"
          d="M1985.79 764.93c0 141.05-114.43 255.49-255.49 255.49-141.05 0-255.48-114.44-255.48-255.5 0-141.05 114.43-255.48 255.48-255.48 141.06 0 255.49 114.43 255.49 255.49Z" />
        <path stroke-width=".57"
          d="M2013.95 764.93c0 156.67-126.97 283.65-283.65 283.65-156.67 0-283.9-126.98-283.9-283.65 0-156.67 126.98-283.65 283.65-283.65 156.67 0 283.9 126.98 283.9 283.65Z" />
        <path stroke-width=".42"
          d="M2042.11 764.93c0 172.29-139.77 312.06-312.06 312.06s-311.81-139.77-311.81-312.06 139.78-312.07 312.06-312.07c172.29 0 311.81 139.78 311.81 312.07Z" />
        <path stroke-width=".26"
          d="M1390.08 764.93c0-187.9 152.32-340.23 340.22-340.23 187.91 0 340.23 152.32 340.23 340.23 0 187.9-152.32 340.22-340.23 340.22-187.9 0-340.22-152.32-340.22-340.22Z" />
      </g>
      <g stroke="#638DFF" stroke-miterlimit="10" opacity=".5">
        <path stroke-width=".15" d="M813.06 902.91h160.5" />
        <path stroke-width=".2" d="M835.84 880.13h160.51" />
        <path stroke-width=".25" d="M858.63 857.34h160.51" />
        <path stroke-width=".3" d="M881.4 834.56h160.52" />
        <path stroke-width=".36" d="M904.2 811.78h160.5" />
        <path stroke-width=".41" d="M926.98 789h160.51" />
        <path stroke-width=".46" d="M949.76 766.2h160.51" />
        <path stroke-width=".51" d="M972.54 743.42h160.52" />
        <path stroke-width=".56" d="M995.33 720.64h160.51" />
        <path stroke-width=".62" d="M1018.11 697.86h160.51" />
        <path stroke-width=".67" d="M1040.9 675.07h160.51" />
        <path stroke-width=".72" d="M1063.68 652.29h160.51" />
        <path stroke-width=".77" d="M1086.46 629.5h160.52" />
        <path stroke-width=".82" d="M1109.25 606.72h160.51" />
        <path stroke-width=".88" d="M1132.03 583.94h160.51" />
        <path stroke-width=".93" d="M1154.82 561.15h160.51" />
        <path stroke-width=".98" d="M1177.6 538.37h160.77" />
        <path stroke-width="1.03" d="M1200.38 515.58h160.77" />
        <path stroke-width="1.08" d="M1223.17 492.8h160.51" />
        <path stroke-width="1.14" d="M1245.95 470.02h160.77" />
        <path stroke-width="1.19" d="M1268.74 447.23h160.76" />
        <path stroke-width="1.24" d="M1291.52 424.45h160.77" />
        <path stroke-width="1.29" d="M1314.3 401.66h160.77" />
        <path stroke-width="1.34" d="M1337.09 378.88h160.77" />
        <path stroke-width="1.4" d="M1359.87 356.1h160.77" />
        <path stroke-width="1.45" d="M1382.66 333.31h160.76" />
        <path stroke-width="1.5" d="M1405.44 310.53h160.77" />
        <path stroke-width="1.55" d="M1428.22 287.74h160.77" />
        <path stroke-width="1.6" d="M1451.01 264.96h160.77" />
        <path stroke-width="1.66" d="M1473.79 242.18h160.77" />
        <path stroke-width="1.71" d="M1496.58 219.4h160.76" />
        <path stroke-width="1.76" d="M1519.36 196.6h160.77" />
        <path stroke-width="1.81" d="M1542.14 173.82h160.77" />
        <path stroke-width="1.86" d="M1564.93 151.04h160.77" />
        <path stroke-width="1.92" d="M1587.71 128.26h160.77" />
        <path stroke-width="1.97" d="M1610.5 105.47h160.76" />
        <path stroke-width="2.02" d="M1633.28 82.69h160.77" />
        <path stroke-width="2.07" d="M1656.06 59.9h160.77" />
        <path stroke-width="2.12" d="M1678.85 37.12h160.77" />
        <path stroke-width="2.18" d="M1701.63 14.34h160.77" />
      </g>
      <g stroke="#638DFF" stroke-miterlimit="10" opacity=".5">
        <path stroke-width=".15" d="M620.29 41.47H459.52" />
        <path stroke-width=".2" d="M597.5 64.26H436.74" />
        <path stroke-width=".25" d="M574.72 87.04H413.95" />
        <path stroke-width=".3" d="M551.94 109.82H391.17" />
        <path stroke-width=".36" d="M529.15 132.6H368.38" />
        <path stroke-width=".41" d="M506.37 155.4H345.6" />
        <path stroke-width=".46" d="M483.58 178.18H322.82" />
        <path stroke-width=".51" d="M460.8 200.96H300.03" />
        <path stroke-width=".56" d="M438.02 223.74H277.25" />
        <path stroke-width=".62" d="M415.23 246.53H254.46" />
        <path stroke-width=".67" d="M392.45 269.31H231.68" />
        <path stroke-width=".72" d="M369.66 292.1H208.9" />
        <path stroke-width=".77" d="M346.88 314.88H186.11" />
        <path stroke-width=".82" d="M324.1 337.66H163.33" />
        <path stroke-width=".88" d="M301.31 360.45H140.54" />
        <path stroke-width=".93" d="M278.53 383.23H117.76" />
        <path stroke-width=".98" d="M255.74 406.02H94.98" />
        <path stroke-width="1.03" d="M232.96 428.8H72.19" />
        <path stroke-width="1.08" d="M210.18 451.58H49.4" />
        <path stroke-width="1.14" d="M187.4 474.37H26.61" />
        <path stroke-width="1.19" d="M164.6 497.15H3.85" />
        <path stroke-width="1.24" d="M141.82 519.94H-18.94" />
        <path stroke-width="1.29" d="M119.04 542.72H-41.73" />
        <path stroke-width="1.34" d="M96.26 565.5H-64.51" />
        <path stroke-width="1.4" d="M73.47 588.29H-87.3" />
        <path stroke-width="1.45" d="M50.69 611.07h-160.77" />
        <path stroke-width="1.5" d="M27.9 633.86h-160.76" />
        <path stroke-width="1.55" d="M5.12 656.64h-160.77" />
      </g>
      <path fill="url(#g)" d="m175.36 1220.61-3.33-3.33 632.32-632.32 3.33 3.33-632.32 632.32Z" opacity=".75" />
      <path fill="url(#h)" d="m180.48 542.46-1.8-1.79 316.17-316.16 1.79 1.8-316.16 316.15Z" opacity=".65" />
      <path fill="url(#i)" d="m1415.68 1082.88-1.79-1.79 316.16-316.16 1.79 1.79-316.16 316.16Z" />
      <path fill="url(#j)" d="m700.67 1299.71-3.33-3.58 632.32-632.32 3.33 3.58-632.32 632.32Z" opacity=".75" />
      <path fill="url(#k)" d="m880.9 711.17-1.8-1.54 302.08-302.08 1.54 1.8L880.9 711.16Z" opacity=".75" />
      <path fill="url(#l)" d="m965.38 309.76-.52-.51 131.59-131.84.77.77-131.84 131.58Z" opacity=".75" />
      <path fill="url(#m)" d="m60.67 309.76-.77-.51L191.74 177.4l.77.77L60.67 309.76Z" opacity=".75" />
      <path fill="url(#n)" d="m656.38 1052.67-1.02-1.02 198.4-198.4 1.02 1.02-198.4 198.4Z" />
      <path fill="url(#o)"
        d="M1325.06 1043.2a85.24 85.24 0 0 0 85.24-85.25 85.24 85.24 0 1 0-170.49 0 85.25 85.25 0 0 0 85.25 85.25Z" />
      <path stroke="#638DFF" stroke-miterlimit="10" stroke-width="2.96"
        d="M22.27 693.5A30.81 30.81 0 0 1 53 662.76a30.81 30.81 0 0 1 30.72 30.72A30.81 30.81 0 0 1 53 724.21c-16.9-.25-30.72-13.82-30.72-30.72Z" />
      <path fill="url(#p)"
        d="M1536 287.74a59.49 59.49 0 0 1 59.52-59.52 59.48 59.48 0 0 1 59.52 59.52 59.56 59.56 0 0 1-59.52 59.52 59.56 59.56 0 0 1-59.52-59.52Z" />
      <path fill="url(#q)"
        d="M247.3 837.89c102.5 0 185.6-83.1 185.6-185.6s-83.1-185.6-185.6-185.6-185.6 83.1-185.6 185.6 83.1 185.6 185.6 185.6Z" />
      <g stroke="#638DFF" stroke-miterlimit="10" opacity=".5">
        <path stroke-width=".41" d="M2063.36 927.23h-160.77" />
        <path stroke-width=".46" d="M2040.58 950.02h-160.77" />
        <path stroke-width=".51" d="M2017.79 972.8h-160.77" />
      </g>
    </g>
    <g clip-path="url(#r)">
      <circle cx="960" r="700" fill="url(#s)" />
    </g>
    <path fill="url(#t)" d="M1920 0H0v980h1920V0Z" />
  </g>
  <defs>
    <linearGradient id="b" x1="160" x2="1356.55" y1="1102.5" y2="-460.33" gradientUnits="userSpaceOnUse">
      <stop stop-color="#638DFF" />
      <stop offset="1" stop-color="#00103F" />
    </linearGradient>
    <linearGradient id="c" x1="1202.13" x2="178.94" y1="508.39" y2="1531.58" gradientUnits="userSpaceOnUse">
      <stop offset=".5" stop-color="#1D3780" stop-opacity="0" />
      <stop offset=".98" stop-color="#1D3780" stop-opacity=".96" />
      <stop offset="1" stop-color="#1D3780" />
    </linearGradient>
    <linearGradient id="d" x1="1228.81" x2="2252" y1="987.06" y2="2010.25" gradientUnits="userSpaceOnUse">
      <stop stop-color="#1D3780" />
      <stop offset=".02" stop-color="#1D3780" stop-opacity=".96" />
      <stop offset=".5" stop-color="#1D3780" stop-opacity="0" />
    </linearGradient>
    <linearGradient id="e" x1="317.42" x2="-705.77" y1="240.49" y2="-782.7" gradientUnits="userSpaceOnUse">
      <stop stop-color="#1D3780" />
      <stop offset=".02" stop-color="#1D3780" stop-opacity=".96" />
      <stop offset=".5" stop-color="#1D3780" stop-opacity="0" />
    </linearGradient>
    <linearGradient id="f" x1="569.3" x2="-25.44" y1="907.66" y2="1502.4" gradientUnits="userSpaceOnUse">
      <stop stop-color="#638DFF" stop-opacity="0" />
      <stop offset="1" stop-color="#638DFF" />
    </linearGradient>
    <linearGradient id="g" x1="798.92" x2="168.12" y1="593.75" y2="1224.55" gradientUnits="userSpaceOnUse">
      <stop stop-color="#638DFF" />
      <stop offset="1" stop-color="#638DFF" stop-opacity="0" />
    </linearGradient>
    <linearGradient id="h" x1="492.18" x2="176.78" y1="228.91" y2="544.31" gradientUnits="userSpaceOnUse">
      <stop stop-color="#638DFF" />
      <stop offset="1" stop-color="#638DFF" stop-opacity="0" />
    </linearGradient>
    <linearGradient id="i" x1="1727.44" x2="1412.04" y1="769.36" y2="1084.76" gradientUnits="userSpaceOnUse">
      <stop stop-color="#638DFF" />
      <stop offset="1" stop-color="#638DFF" stop-opacity="0" />
    </linearGradient>
    <linearGradient id="j" x1="1324.21" x2="693.42" y1="672.75" y2="1303.55" gradientUnits="userSpaceOnUse">
      <stop stop-color="#638DFF" />
      <stop offset="1" stop-color="#638DFF" stop-opacity="0" />
    </linearGradient>
    <linearGradient id="k" x1="1178.54" x2="877.36" y1="411.89" y2="713.07" gradientUnits="userSpaceOnUse">
      <stop stop-color="#638DFF" />
      <stop offset="1" stop-color="#638DFF" stop-opacity="0" />
    </linearGradient>
    <linearGradient id="l" x1="1095.33" x2="963.97" y1="179.32" y2="310.68" gradientUnits="userSpaceOnUse">
      <stop stop-color="#638DFF" />
      <stop offset="1" stop-color="#638DFF" stop-opacity="0" />
    </linearGradient>
    <linearGradient id="m" x1="190.59" x2="59.23" y1="179.32" y2="310.68" gradientUnits="userSpaceOnUse">
      <stop stop-color="#638DFF" />
      <stop offset="1" stop-color="#638DFF" stop-opacity="0" />
    </linearGradient>
    <linearGradient id="n" x1="852.12" x2="654.18" y1="855.9" y2="1053.84" gradientUnits="userSpaceOnUse">
      <stop stop-color="#638DFF" />
      <stop offset="1" stop-color="#638DFF" stop-opacity="0" />
    </linearGradient>
    <linearGradient id="o" x1="1387.02" x2="1265.96" y1="895.96" y2="1017.03" gradientUnits="userSpaceOnUse">
      <stop stop-color="#1D3780" stop-opacity="0" />
      <stop offset="1" stop-color="#638DFF" />
    </linearGradient>
    <linearGradient id="p" x1="1638.88" x2="1554.24" y1="244.42" y2="329.06" gradientUnits="userSpaceOnUse">
      <stop stop-color="#111A2F" stop-opacity="0" />
      <stop offset="1" stop-color="#638DFF" />
    </linearGradient>
    <linearGradient id="q" x1="382.08" x2="118.49" y1="517.49" y2="781.08" gradientUnits="userSpaceOnUse">
      <stop stop-color="#111A2F" stop-opacity="0" />
      <stop offset="1" stop-color="#A1B9FF" />
    </linearGradient>
    <linearGradient id="t" x1="960" x2="960" y1="0" y2="980" gradientUnits="userSpaceOnUse">
      <stop stop-color="#111A2F" stop-opacity="0" />
      <stop offset="1" stop-color="#111A2F" />
    </linearGradient>
    <clipPath id="a">
      <path fill="#fff" d="M0 0h1920v980H0z" />
    </clipPath>
    <clipPath id="r">
      <path fill="#fff" d="M0 0h1400v700H0z" transform="translate(260)" />
    </clipPath>
    <radialGradient id="s" cx="0" cy="0" r="1" gradientTransform="matrix(0 700 -700 0 960 0)"
      gradientUnits="userSpaceOnUse">
      <stop stop-color="#7328D3" stop-opacity=".5" />
      <stop offset="1" stop-color="#111A2F" stop-opacity="0" />
    </radialGradient>
  </defs>
</svg>