<svg xmlns="http://www.w3.org/2000/svg" preserveAspectRatio="xMinYMin meet" viewBox="0 0 177 177" fill="none">
  <!-- Dark round strokes -->
  <g>
    <path stroke="#001C2F" stroke-width="1.5"
      d="M55.97 152.46a71.64 71.64 0 0 1-33.17-35.77 71.8 71.8 0 0 1-2.62-48.75l1.32.4a70.42 70.42 0 0 0 2.56 47.8 70.26 70.26 0 0 0 32.54 35.09l-.63 1.23Z" />
    <path stroke="#001C2F" stroke-width="1.5"
      d="M121.4 152.46a71.64 71.64 0 0 0 33.17-35.77 71.8 71.8 0 0 0 2.61-48.75l-1.32.4a70.42 70.42 0 0 1-2.56 47.8 70.26 70.26 0 0 1-32.53 35.09l.63 1.23Z" />
    <path stroke="#001C2F" stroke-width="1.5"
      d="M123.14 26.04a71.57 71.57 0 0 0-68.97-.23l.66 1.2a70.1 70.1 0 0 1 67.65.24l.66-1.2Z" />
  </g>

  <!-- Blue stroke -->
  <path fill="#B9B9BB"
    d="M147.71 82.97v11.6h-3.16v-11.6zM146.62 101.49l-3.57 11.02-3-.97 3.57-11.03zM139.87 118.77l-6.81 9.38-2.56-1.86 6.82-9.38zM128.12 133.07l-9.34 6.86-1.86-2.55 9.33-6.86zM112.5 143.11l-11 3.62-.98-3 11-3.62zM94.33 147.82l-11.58-.04v-3.16l11.59.04zM75.83 146.66l-11-3.62.99-3 11 3.62zM58.6 139.82l-9.33-6.85 1.87-2.55 9.33 6.85zM44.34 127.98l-6.78-9.4 2.56-1.85 6.78 9.4zM34.4 112.31l-3.54-11.04 3.01-.96 3.53 11.04zM29.79 94.1l.09-11.6 3.16.02-.1 11.6zM31 75.61l3.66-11 3 1-3.66 11zM37.88 58.4l6.88-9.32 2.54 1.88-6.88 9.33zM49.76 44.12l9.41-6.75 1.84 2.57-9.4 6.75zM65.45 34.22l11.03-3.5.96 3.01-11.04 3.5zM83.67 29.66l11.58.14-.04 3.16-11.58-.14zM102.09 30.94l10.97 3.7-1.01 3-10.97-3.7zM119.25 37.88l9.28 6.93-1.88 2.53-9.29-6.92zM133.48 49.85l6.7 9.46-2.57 1.83-6.7-9.45zM143.32 65.61l3.44 11.07-3.01.94-3.45-11.06z" />

  <!-- Blured dots -->
  <g style="filter: blur(1px)" fill="#fff">
    <rect width="5.44" height="5.49" x="15.29" y="85.69" rx="2.72" />
    <rect width="5.44" height="5.49" x="85.96" y="153.45" rx="2.72" />
    <rect width="5.44" height="5.49" x="85.96" y="15.18" rx="2.72" />
    <rect width="5.44" height="5.49" x="156.63" y="85.69" rx="2.72" />
  </g>

  <!-- Blue dots -->
  <rect width="4.08" height="4.08" x="87" y="119.34" fill="#B9B9BB" rx="2.04" />
  <rect width="4.08" height="4.08" x="87" y="54.05" fill="#B9B9BB" rx="2.04" />


  <!-- Shadowed elements -->
  <g class="shadowed"
    style="filter: drop-shadow(0px 0px 7px var(--shadow-color)) drop-shadow(0px 10px 20px rgba(255, 0, 255, 0.33));">
    <g>
      <path stroke="#fff" stroke-width="1.16"
        d="M129.57 88.87a41.03 41.03 0 0 1-41 41.07c-22.63 0-40.99-18.39-40.99-41.07a41.03 41.03 0 0 1 41-41.06c22.64 0 41 18.38 41 41.06Z" />
    </g>
    <g>
      <mask id="g" fill="#fff">
        <path d="M48.5 107.64a41.7 41.7 0 0 1-3.21-29.41l7.18 1.87a34.26 34.26 0 0 0 2.64 24.16l-6.6 3.38Z" />
      </mask>
      <path stroke="var(--shadow-color)" stroke-width="13.87"
        d="M48.5 107.64a41.7 41.7 0 0 1-3.21-29.41l7.18 1.87a34.26 34.26 0 0 0 2.64 24.16l-6.6 3.38Z" mask="url(#g)" />
    </g>
    <g>
      <mask id="i" fill="#fff">
        <path d="M128.34 107.64a41.7 41.7 0 0 0 3.21-29.41l-7.18 1.87c2.1 8.1 1.16 16.7-2.64 24.16l6.6 3.38Z" />
      </mask>
      <path stroke="var(--shadow-color)" stroke-width="13.87"
        d="M128.34 107.64a41.7 41.7 0 0 0 3.21-29.41l-7.18 1.87c2.1 8.1 1.16 16.7-2.64 24.16l6.6 3.38Z"
        mask="url(#i)" />
    </g>
    <!-- Locked -->
    <g class="locked">
      <path fill="#fff" fill-rule="evenodd"
        d="M98.42 84.49v-2.74a9.92 9.92 0 1 0-19.84-.1v2.84a2.83 2.83 0 0 0-2.83 2.83v15.58a2.84 2.84 0 0 0 2.83 2.83h19.84a2.8 2.8 0 0 0 2.62-1.75c.14-.34.21-.71.21-1.08V87.32a2.82 2.82 0 0 0-2.83-2.83Zm-7.8 14.79a.71.71 0 0 1-.72.78h-2.8a.7.7 0 0 1-.72-.79l.45-4a2.8 2.8 0 0 1-.26-4.35 2.83 2.83 0 1 1 3.6 4.34l.45 4.02Zm3.55-14.8H82.83v-2.75a5.67 5.67 0 1 1 11.34-.07v2.83Z"
        clip-rule="evenodd" />
    </g>
    <!-- Unlocked -->
    <path class="unlocked" transform="translate(0.75, 0.6)" fill="#fff" fill-rule="evenodd"
      d="M96.9 77.32a9.92 9.92 0 0 0-19.12 3.72v2.83a2.83 2.83 0 0 0-2.83 2.84v15.57a2.83 2.83 0 0 0 2.83 2.83h19.84a2.84 2.84 0 0 0 2.83-2.83V86.71a2.84 2.84 0 0 0-2.83-2.84H82.03v-2.76a5.67 5.67 0 0 1 10.9-2.25l3.97-1.54Zm-7.14 21.71a.71.71 0 0 0 .06-.37l-.45-4.01a2.8 2.8 0 0 0 .35-4.26 2.83 2.83 0 1 0-3.7 4.26l-.44 4.01a.71.71 0 0 0 .72.79h2.8a.7.7 0 0 0 .67-.42Z"
      clip-rule="evenodd" />
  </g>
</svg>