<svg xmlns="http://www.w3.org/2000/svg" fill="#BEC6D8" viewBox="0 0 198 26" height="26">
  <path
    d="M.5 25.02V.98h19.84v4.9H6.76v4.51h11.86v4.8H6.76v4.93h13.82v4.9H.5ZM31.4 25.02 22.77.98h6.72l4.41 13.58c.1.28.21.65.35 1.12l.42 1.4c.17.46.3.88.39 1.26h.24a99.64 99.64 0 0 1 .77-2.55l.35-1.2L40.82.98h6.48l-8.61 24.04H31.4ZM50.46 25.02V.98h19.85v4.9H56.73v4.51h11.86v4.8H56.73v4.93h13.82v4.9H50.46ZM74.87 25.02V.98h13.96c1.78 0 3.26.34 4.45 1.01a6.26 6.26 0 0 1 2.66 2.73c.6 1.15.9 2.43.9 3.85a7.9 7.9 0 0 1-1.08 4.13 7.34 7.34 0 0 1-2.97 2.8l4.83 9.52h-7l-4-8.47h-5.49v8.47h-6.26Zm6.26-13.12h6.48c.86 0 1.55-.28 2.06-.84.54-.59.8-1.36.8-2.31 0-.63-.1-1.17-.34-1.61a2.42 2.42 0 0 0-.98-1.02 2.9 2.9 0 0 0-1.54-.38h-6.48v6.16ZM112.1 25.44a15 15 0 0 1-6.6-1.33 9.11 9.11 0 0 1-4.1-4.13c-.93-1.84-1.4-4.17-1.4-7 0-4.15 1.04-7.25 3.11-9.3 2.1-2.08 5.1-3.12 9-3.12 2.17 0 4.1.37 5.77 1.12a8.5 8.5 0 0 1 3.92 3.29 9.63 9.63 0 0 1 1.44 5.42h-6.13c0-1.02-.2-1.9-.63-2.62a4.05 4.05 0 0 0-1.71-1.72c-.72-.4-1.61-.6-2.66-.6-1.3 0-2.38.28-3.22.81a4.7 4.7 0 0 0-1.86 2.31c-.4 1-.6 2.22-.6 3.64v1.58c0 1.42.2 2.65.6 3.67.4 1 1 1.78 1.82 2.31a6.1 6.1 0 0 0 3.22.77c1.12 0 2.07-.18 2.84-.56.8-.37 1.39-.92 1.78-1.64.42-.75.63-1.64.63-2.66h5.92c0 2.17-.47 3.98-1.4 5.42a8.36 8.36 0 0 1-3.89 3.26c-1.65.72-3.6 1.08-5.84 1.08ZM127.37 25.02V.98h6.26v18.9h12.22v5.14h-18.48ZM159 25.44c-2.3 0-4.3-.36-5.98-1.08a8.17 8.17 0 0 1-3.82-3.26 10.14 10.14 0 0 1-1.33-5.39V.98h6.3v14.6c0 1.53.41 2.75 1.23 3.63.81.89 2.02 1.33 3.6 1.33 1.59 0 2.8-.44 3.64-1.33a5.08 5.08 0 0 0 1.26-3.64V.97h6.27v14.74c0 2.15-.44 3.95-1.33 5.4a8.18 8.18 0 0 1-3.82 3.25 15 15 0 0 1-6.02 1.08ZM175.36 25.02V.98h14.7c1.23 0 2.35.24 3.36.73 1 .5 1.8 1.18 2.38 2.07.6.88.9 1.92.9 3.11 0 1.05-.18 1.95-.55 2.7a4.85 4.85 0 0 1-1.44 1.82c-.58.46-1.25.81-2 1.05v.14a6.4 6.4 0 0 1 2.35 1.01c.7.47 1.25 1.11 1.65 1.93.42.81.63 1.8.63 2.97 0 1.38-.33 2.56-.98 3.54a6.44 6.44 0 0 1-2.6 2.2 8.25 8.25 0 0 1-3.6.77h-14.8Zm6.26-4.83h6.83c.74 0 1.34-.22 1.78-.66.47-.45.7-1.12.7-2.03 0-.5-.1-.92-.31-1.3-.2-.4-.48-.7-.88-.9a2.83 2.83 0 0 0-1.4-.32h-6.72v5.21Zm0-9.66h6.27c.5 0 .94-.1 1.3-.31.36-.21.64-.5.83-.88.21-.37.32-.81.32-1.33a2.3 2.3 0 0 0-.67-1.75c-.44-.42-1-.63-1.68-.63h-6.37v4.9Z" />
</svg>