<svg xmlns="http://www.w3.org/2000/svg" fill="#3865FF" viewBox="0 0 53 60" height="60">
  <path fill-rule="evenodd"
    d="m5.66 42.1 2.43 1.4V22.92l5.66 3.27v20.6l2.42 1.4v-20.6l5.67 3.27V57.9l-5.67-3.27-8.08-4.66L0 45.3V18.24l5.66 3.27v20.6ZM24.24 41.06v6.54l5.3 3.06v-6.54l-5.3-3.06Zm0 9.33 5.3 3.07V60l-5.3-3.07V50.4Zm0-18.67 5.3 3.07v6.54l-5.3-3.07v-6.54Z"
    clip-rule="evenodd" />
  <path fill-rule="evenodd"
    d="M47.38 43.16v-2.8l-17.83 10.3v-6.53l17.83-10.3v-2.8l-17.83 10.3v-6.54l23.44-13.54v25.22l-5.6 3.23L29.53 60v-6.54l17.84-10.3ZM10.97 18.45l-5.66-3.27L0 18.24l5.66 3.27 5.31-3.06Zm16.17 9.33-5.66-3.27-5.3 3.07 5.66 3.27 5.3-3.07Zm-8.08-4.66-5.31 3.06-5.66-3.27 5.3-3.06 5.67 3.27ZM45.27 22.93l5.67-3.27v-6.13l-5.67 3.27v6.13ZM37.2 27.6l5.66-3.27V18.2l-5.66 3.27v6.13Zm-8.09 4.67L34.77 29v-6.13l-5.67 3.27v6.13Z"
    clip-rule="evenodd" />
  <path fill-rule="evenodd"
    d="m27.44 6.5-2.42 1.4 17.83 10.3-5.66 3.27-17.84-10.3-2.42 1.4 17.84 10.3-5.67 3.27-17.83-10.3-5.6-3.23 5.66-3.27 7.85-4.54.23-.13L27.5 0l5.6 3.24 17.84 10.3-5.66 3.26L27.44 6.5Z"
    clip-rule="evenodd" />
</svg>