<svg width="185" height="60" viewBox="0 0 185 60" fill="none" xmlns="http://www.w3.org/2000/svg">
<rect x="0.994629" width="184.005" height="60" rx="12" fill="url(#paint0_linear_120_2)"/>
<rect x="0.994629" width="184.005" height="60" rx="12" fill="url(#paint1_linear_120_2)"/>
<path d="M40.1672 27.6027L45.9973 21.7781L51.8275 27.6027L55.2247 24.2219L46.0083 15L36.7809 24.2219L40.1672 27.6137V27.6027ZM30.9946 30.0082L34.3864 26.6164L37.7782 30.0082L34.4028 33.3836L30.9946 30.0082ZM40.1672 32.4027L45.9973 38.2274L51.8275 32.3863L55.2193 35.7781L46.0028 45L36.7809 35.7836L40.1782 32.3973L40.1672 32.4027ZM54.222 30.0027L57.6138 26.6109L61.0001 30.0027L57.6138 33.3945L54.222 30.0027Z" fill="url(#paint2_linear_120_2)"/>
<path d="M49.4354 29.9972L45.9943 26.5562L43.4518 29.0986L43.1559 29.389L42.5587 29.9918L45.9943 33.4274L49.4354 29.9863" fill="url(#paint3_linear_120_2)"/>
<path d="M73.8051 20.05C73.8051 19.2 73.9921 18.4633 74.3661 17.84C74.7515 17.2053 75.2501 16.718 75.8621 16.378C76.4855 16.0267 77.1598 15.851 77.8851 15.851C78.4518 15.851 78.9618 15.9247 79.4151 16.072C79.8685 16.2193 80.2765 16.4233 80.6391 16.684C81.0131 16.9333 81.3361 17.2167 81.6081 17.534V15.154C81.1095 14.746 80.5711 14.4343 79.9931 14.219C79.4151 14.0037 78.6898 13.896 77.8171 13.896C76.9445 13.896 76.1285 14.0433 75.3691 14.338C74.6211 14.6327 73.9695 15.0577 73.4141 15.613C72.8588 16.1683 72.4225 16.8257 72.1051 17.585C71.7991 18.333 71.6461 19.1547 71.6461 20.05C71.6461 20.9453 71.7991 21.7727 72.1051 22.532C72.4225 23.28 72.8588 23.9317 73.4141 24.487C73.9695 25.0423 74.6211 25.4673 75.3691 25.762C76.1285 26.0567 76.9445 26.204 77.8171 26.204C78.6898 26.204 79.4151 26.0963 79.9931 25.881C80.5711 25.6657 81.1095 25.354 81.6081 24.946V22.566C81.3361 22.8833 81.0131 23.1723 80.6391 23.433C80.2765 23.6823 79.8685 23.8807 79.4151 24.028C78.9618 24.1753 78.4518 24.249 77.8851 24.249C77.1598 24.249 76.4855 24.079 75.8621 23.739C75.2501 23.3877 74.7515 22.8947 74.3661 22.26C73.9921 21.6253 73.8051 20.8887 73.8051 20.05ZM83.332 22.09C83.332 22.8833 83.5134 23.5917 83.876 24.215C84.25 24.827 84.7544 25.3087 85.389 25.66C86.0237 26 86.7434 26.17 87.548 26.17C88.3527 26.17 89.0667 26 89.69 25.66C90.3247 25.3087 90.829 24.827 91.203 24.215C91.577 23.5917 91.764 22.8833 91.764 22.09C91.764 21.2853 91.577 20.577 91.203 19.965C90.829 19.353 90.3247 18.877 89.69 18.537C89.0667 18.1857 88.3527 18.01 87.548 18.01C86.7434 18.01 86.0237 18.1857 85.389 18.537C84.7544 18.877 84.25 19.353 83.876 19.965C83.5134 20.577 83.332 21.2853 83.332 22.09ZM85.219 22.09C85.219 21.6027 85.321 21.172 85.525 20.798C85.729 20.424 86.0067 20.135 86.358 19.931C86.7094 19.727 87.106 19.625 87.548 19.625C87.9787 19.625 88.3697 19.727 88.721 19.931C89.0837 20.135 89.367 20.424 89.571 20.798C89.775 21.172 89.877 21.6027 89.877 22.09C89.877 22.5773 89.775 23.008 89.571 23.382C89.367 23.7447 89.0837 24.0337 88.721 24.249C88.3697 24.453 87.9787 24.555 87.548 24.555C87.106 24.555 86.7094 24.453 86.358 24.249C86.0067 24.0337 85.729 23.7447 85.525 23.382C85.321 23.008 85.219 22.5773 85.219 22.09ZM98.5381 21.24V26H100.425V21.036C100.425 20.0953 100.193 19.3587 99.7281 18.826C99.2635 18.282 98.5891 18.01 97.7051 18.01C97.1611 18.01 96.6908 18.1233 96.2941 18.35C95.9088 18.5767 95.5915 18.9223 95.3421 19.387V18.18H93.5061V26H95.3421V21.24C95.3421 20.8887 95.4158 20.5827 95.5631 20.322C95.7105 20.05 95.9145 19.846 96.1751 19.71C96.4358 19.5627 96.7361 19.489 97.0761 19.489C97.5748 19.489 97.9431 19.6363 98.1811 19.931C98.4191 20.2257 98.5381 20.662 98.5381 21.24ZM107.802 21.24V26H109.689V21.036C109.689 20.0953 109.456 19.3587 108.992 18.826C108.527 18.282 107.853 18.01 106.969 18.01C106.425 18.01 105.954 18.1233 105.558 18.35C105.172 18.5767 104.855 18.9223 104.606 19.387V18.18H102.77V26H104.606V21.24C104.606 20.8887 104.679 20.5827 104.827 20.322C104.974 20.05 105.178 19.846 105.439 19.71C105.699 19.5627 106 19.489 106.34 19.489C106.838 19.489 107.207 19.6363 107.445 19.931C107.683 20.2257 107.802 20.662 107.802 21.24ZM115.433 26.17C116.34 26.17 117.116 25.9943 117.762 25.643C118.408 25.2917 118.935 24.7647 119.343 24.062L117.762 23.416C117.513 23.8353 117.201 24.147 116.827 24.351C116.453 24.555 116.017 24.657 115.518 24.657C115.042 24.657 114.634 24.555 114.294 24.351C113.966 24.147 113.716 23.8523 113.546 23.467C113.376 23.0703 113.291 22.5887 113.291 22.022C113.303 21.4553 113.393 20.9793 113.563 20.594C113.733 20.2087 113.983 19.914 114.311 19.71C114.64 19.506 115.037 19.404 115.501 19.404C115.887 19.404 116.221 19.489 116.504 19.659C116.799 19.829 117.026 20.067 117.184 20.373C117.354 20.679 117.439 21.0417 117.439 21.461C117.439 21.5403 117.417 21.6423 117.371 21.767C117.337 21.8803 117.303 21.971 117.269 22.039L117.83 21.257H112.526V22.515H119.394C119.406 22.4697 119.411 22.396 119.411 22.294C119.423 22.192 119.428 22.0957 119.428 22.005C119.428 21.1663 119.27 20.4523 118.952 19.863C118.646 19.2623 118.204 18.8033 117.626 18.486C117.048 18.1687 116.346 18.01 115.518 18.01C114.691 18.01 113.971 18.18 113.359 18.52C112.747 18.8487 112.271 19.319 111.931 19.931C111.603 20.543 111.438 21.2627 111.438 22.09C111.438 22.906 111.603 23.62 111.931 24.232C112.26 24.844 112.725 25.32 113.325 25.66C113.937 26 114.64 26.17 115.433 26.17ZM122.405 22.09C122.405 21.6027 122.513 21.172 122.728 20.798C122.943 20.424 123.232 20.1293 123.595 19.914C123.969 19.6987 124.383 19.591 124.836 19.591C125.199 19.591 125.55 19.6477 125.89 19.761C126.23 19.8743 126.53 20.033 126.791 20.237C127.063 20.4297 127.261 20.6563 127.386 20.917V18.894C127.114 18.622 126.746 18.4067 126.281 18.248C125.816 18.0893 125.306 18.01 124.751 18.01C123.946 18.01 123.221 18.1857 122.575 18.537C121.94 18.877 121.436 19.353 121.062 19.965C120.699 20.577 120.518 21.2853 120.518 22.09C120.518 22.8833 120.699 23.5917 121.062 24.215C121.436 24.827 121.94 25.3087 122.575 25.66C123.221 26 123.946 26.17 124.751 26.17C125.306 26.17 125.816 26.0907 126.281 25.932C126.746 25.7733 127.114 25.558 127.386 25.286V23.263C127.261 23.5123 127.069 23.739 126.808 23.943C126.547 24.147 126.247 24.3057 125.907 24.419C125.567 24.5323 125.21 24.589 124.836 24.589C124.383 24.589 123.969 24.4813 123.595 24.266C123.232 24.0507 122.943 23.7617 122.728 23.399C122.513 23.025 122.405 22.5887 122.405 22.09ZM128.327 18.18V19.795H132.764V18.18H128.327ZM129.636 15.46V26H131.455V15.46H129.636ZM73.8561 38.863H75.9131C76.6611 38.863 77.3185 38.7553 77.8851 38.54C78.4631 38.3247 78.9108 38.013 79.2281 37.605C79.5568 37.1857 79.7211 36.6813 79.7211 36.092C79.7211 35.412 79.5568 34.851 79.2281 34.409C78.9108 33.967 78.4631 33.6383 77.8851 33.423C77.3185 33.2077 76.6611 33.1 75.9131 33.1H72.3261V45H76.1171C76.9558 45 77.6925 44.881 78.3271 44.643C78.9731 44.3937 79.4775 44.014 79.8401 43.504C80.2141 42.994 80.4011 42.348 80.4011 41.566C80.4011 40.9993 80.2878 40.512 80.0611 40.104C79.8345 39.696 79.5171 39.3617 79.1091 39.101C78.7125 38.8403 78.2591 38.6477 77.7491 38.523C77.2391 38.3983 76.6951 38.336 76.1171 38.336H73.8561V39.441H75.9981C76.3381 39.441 76.6498 39.4807 76.9331 39.56C77.2165 39.628 77.4601 39.747 77.6641 39.917C77.8795 40.0757 78.0438 40.2797 78.1571 40.529C78.2818 40.767 78.3441 41.0447 78.3441 41.362C78.3441 41.804 78.2421 42.1723 78.0381 42.467C77.8341 42.7617 77.5565 42.9827 77.2051 43.13C76.8538 43.2773 76.4515 43.351 75.9981 43.351H74.3321V34.749H75.7771C76.3325 34.749 76.7858 34.885 77.1371 35.157C77.4885 35.429 77.6641 35.8143 77.6641 36.313C77.6641 36.6417 77.5848 36.925 77.4261 37.163C77.2675 37.3897 77.0465 37.5653 76.7631 37.69C76.4798 37.8147 76.1511 37.877 75.7771 37.877H73.8561V38.863ZM83.3015 41.175L81.8055 42.212C82.0661 42.756 82.4175 43.2603 82.8595 43.725C83.3015 44.1897 83.8171 44.5637 84.4065 44.847C85.0071 45.119 85.6588 45.255 86.3615 45.255C86.8715 45.255 87.3588 45.17 87.8235 45C88.2995 44.8413 88.7245 44.6147 89.0985 44.32C89.4725 44.014 89.7671 43.64 89.9825 43.198C90.1978 42.756 90.3055 42.2573 90.3055 41.702C90.3055 41.1807 90.2148 40.7273 90.0335 40.342C89.8635 39.9567 89.6311 39.6223 89.3365 39.339C89.0418 39.0443 88.7131 38.8007 88.3505 38.608C87.9991 38.4153 87.6478 38.2567 87.2965 38.132C86.6618 37.9053 86.1461 37.6843 85.7495 37.469C85.3528 37.2537 85.0581 37.027 84.8655 36.789C84.6841 36.5397 84.5935 36.262 84.5935 35.956C84.5935 35.616 84.7238 35.3213 84.9845 35.072C85.2451 34.8113 85.6531 34.681 86.2085 34.681C86.6051 34.681 86.9508 34.7603 87.2455 34.919C87.5515 35.0663 87.8178 35.2703 88.0445 35.531C88.2711 35.7803 88.4581 36.0523 88.6055 36.347L90.2375 35.429C90.0335 35.0097 89.7501 34.6073 89.3875 34.222C89.0361 33.8367 88.5998 33.5193 88.0785 33.27C87.5571 33.0207 86.9451 32.896 86.2425 32.896C85.5285 32.896 84.8881 33.032 84.3215 33.304C83.7661 33.5647 83.3241 33.9387 82.9955 34.426C82.6668 34.902 82.5025 35.4573 82.5025 36.092C82.5025 36.6473 82.6101 37.1233 82.8255 37.52C83.0408 37.9053 83.3128 38.234 83.6415 38.506C83.9701 38.7667 84.3158 38.9877 84.6785 39.169C85.0411 39.339 85.3698 39.475 85.6645 39.577C86.1631 39.7583 86.5995 39.9453 86.9735 40.138C87.3588 40.3193 87.6591 40.546 87.8745 40.818C88.0898 41.0787 88.1975 41.43 88.1975 41.872C88.1975 42.3367 88.0275 42.7163 87.6875 43.011C87.3475 43.3057 86.9055 43.453 86.3615 43.453C85.9081 43.453 85.5001 43.3623 85.1375 43.181C84.7748 42.9883 84.4405 42.722 84.1345 42.382C83.8398 42.0307 83.5621 41.6283 83.3015 41.175ZM93.8432 39.05C93.8432 38.2 94.0302 37.4633 94.4042 36.84C94.7895 36.2053 95.2882 35.718 95.9002 35.378C96.5235 35.0267 97.1979 34.851 97.9232 34.851C98.4899 34.851 98.9999 34.9247 99.4532 35.072C99.9065 35.2193 100.315 35.4233 100.677 35.684C101.051 35.9333 101.374 36.2167 101.646 36.534V34.154C101.148 33.746 100.609 33.4343 100.031 33.219C99.4532 33.0037 98.7279 32.896 97.8552 32.896C96.9825 32.896 96.1665 33.0433 95.4072 33.338C94.6592 33.6327 94.0075 34.0577 93.4522 34.613C92.8969 35.1683 92.4605 35.8257 92.1432 36.585C91.8372 37.333 91.6842 38.1547 91.6842 39.05C91.6842 39.9453 91.8372 40.7727 92.1432 41.532C92.4605 42.28 92.8969 42.9317 93.4522 43.487C94.0075 44.0423 94.6592 44.4673 95.4072 44.762C96.1665 45.0567 96.9825 45.204 97.8552 45.204C98.7279 45.204 99.4532 45.0963 100.031 44.881C100.609 44.6657 101.148 44.354 101.646 43.946V41.566C101.374 41.8833 101.051 42.1723 100.677 42.433C100.315 42.6823 99.9065 42.8807 99.4532 43.028C98.9999 43.1753 98.4899 43.249 97.9232 43.249C97.1979 43.249 96.5235 43.079 95.9002 42.739C95.2882 42.3877 94.7895 41.8947 94.4042 41.26C94.0302 40.6253 93.8432 39.8887 93.8432 39.05ZM119.976 41.073L116.559 32.505L113.176 41.073L110.354 33.1H108.025L112.887 45.629L116.559 37.214L120.231 45.629L125.093 33.1H122.764L119.976 41.073ZM125.856 42.569C125.856 42.3197 125.913 42.11 126.026 41.94C126.151 41.77 126.332 41.6397 126.57 41.549C126.808 41.447 127.12 41.396 127.505 41.396C127.947 41.396 128.367 41.4527 128.763 41.566C129.16 41.6793 129.534 41.8607 129.885 42.11V41.175C129.783 41.0503 129.608 40.9143 129.358 40.767C129.109 40.6083 128.792 40.4723 128.406 40.359C128.032 40.2457 127.585 40.189 127.063 40.189C126.089 40.189 125.335 40.4157 124.802 40.869C124.27 41.311 124.003 41.9117 124.003 42.671C124.003 43.2037 124.128 43.657 124.377 44.031C124.627 44.405 124.961 44.6883 125.38 44.881C125.8 45.0737 126.253 45.17 126.74 45.17C127.194 45.17 127.636 45.0907 128.066 44.932C128.508 44.762 128.871 44.5127 129.154 44.184C129.449 43.844 129.596 43.4247 129.596 42.926L129.324 41.906C129.324 42.2913 129.228 42.6313 129.035 42.926C128.854 43.2093 128.61 43.4247 128.304 43.572C128.01 43.7193 127.681 43.793 127.318 43.793C127.035 43.793 126.78 43.7477 126.553 43.657C126.338 43.5663 126.168 43.4303 126.043 43.249C125.919 43.0563 125.856 42.8297 125.856 42.569ZM125.278 39.22C125.392 39.1407 125.562 39.0443 125.788 38.931C126.026 38.8063 126.304 38.7043 126.621 38.625C126.95 38.5343 127.296 38.489 127.658 38.489C127.896 38.489 128.117 38.5117 128.321 38.557C128.525 38.6023 128.701 38.676 128.848 38.778C128.996 38.88 129.109 39.0103 129.188 39.169C129.279 39.3277 129.324 39.5317 129.324 39.781V45H131.126V39.424C131.126 38.9027 130.985 38.4663 130.701 38.115C130.418 37.7523 130.027 37.4747 129.528 37.282C129.041 37.0893 128.474 36.993 127.828 36.993C127.103 36.993 126.457 37.095 125.89 37.299C125.335 37.503 124.882 37.7127 124.53 37.928L125.278 39.22ZM133.267 31.74V45H135.103V31.74H133.267ZM137.45 31.74V45H139.286V31.74H137.45ZM145.034 45.17C145.941 45.17 146.717 44.9943 147.363 44.643C148.009 44.2917 148.536 43.7647 148.944 43.062L147.363 42.416C147.114 42.8353 146.802 43.147 146.428 43.351C146.054 43.555 145.618 43.657 145.119 43.657C144.643 43.657 144.235 43.555 143.895 43.351C143.566 43.147 143.317 42.8523 143.147 42.467C142.977 42.0703 142.892 41.5887 142.892 41.022C142.903 40.4553 142.994 39.9793 143.164 39.594C143.334 39.2087 143.583 38.914 143.912 38.71C144.241 38.506 144.637 38.404 145.102 38.404C145.487 38.404 145.822 38.489 146.105 38.659C146.4 38.829 146.626 39.067 146.785 39.373C146.955 39.679 147.04 40.0417 147.04 40.461C147.04 40.5403 147.017 40.6423 146.972 40.767C146.938 40.8803 146.904 40.971 146.87 41.039L147.431 40.257H142.127V41.515H148.995C149.006 41.4697 149.012 41.396 149.012 41.294C149.023 41.192 149.029 41.0957 149.029 41.005C149.029 40.1663 148.87 39.4523 148.553 38.863C148.247 38.2623 147.805 37.8033 147.227 37.486C146.649 37.1687 145.946 37.01 145.119 37.01C144.292 37.01 143.572 37.18 142.96 37.52C142.348 37.8487 141.872 38.319 141.532 38.931C141.203 39.543 141.039 40.2627 141.039 41.09C141.039 41.906 141.203 42.62 141.532 43.232C141.861 43.844 142.325 44.32 142.926 44.66C143.538 45 144.241 45.17 145.034 45.17ZM149.694 37.18V38.795H154.131V37.18H149.694ZM151.003 34.46V45H152.822V34.46H151.003Z" fill="white"/>
<defs>
<linearGradient id="paint0_linear_120_2" x1="146.885" y1="60" x2="193.371" y2="7.39796" gradientUnits="userSpaceOnUse">
<stop stop-color="#2F54DF"/>
<stop offset="1" stop-color="#FFCC00"/>
</linearGradient>
<linearGradient id="paint1_linear_120_2" x1="0.994629" y1="0" x2="189.572" y2="36.1451" gradientUnits="userSpaceOnUse">
<stop stop-color="#3EB7F4"/>
<stop offset="0.497479" stop-color="#2E3ECE"/>
<stop offset="1" stop-color="#FFCC00" stop-opacity="0"/>
</linearGradient>
<linearGradient id="paint2_linear_120_2" x1="30.9946" y1="30" x2="61.0001" y2="30" gradientUnits="userSpaceOnUse">
<stop stop-color="white"/>
<stop offset="1" stop-color="white" stop-opacity="0"/>
</linearGradient>
<linearGradient id="paint3_linear_120_2" x1="30.9946" y1="30" x2="61.0001" y2="30" gradientUnits="userSpaceOnUse">
<stop stop-color="white"/>
<stop offset="1" stop-color="white" stop-opacity="0"/>
</linearGradient>
</defs>
</svg>
