<svg width="60" height="60" viewBox="0 0 60 60" fill="none" xmlns="http://www.w3.org/2000/svg">
<rect width="60" height="60" rx="12" fill="url(#paint0_linear_120_62)"/>
<rect width="60" height="60" rx="12" fill="url(#paint1_linear_120_62)"/>
<path d="M24.1697 27.6027L29.9998 21.7781L35.8299 27.6027L39.2272 24.2219L30.0107 15L20.7834 24.2219L24.1697 27.6137V27.6027ZM14.9971 30.0082L18.3888 26.6164L21.7806 30.0082L18.4053 33.3836L14.9971 30.0082ZM24.1697 32.4027L29.9998 38.2274L35.8299 32.3863L39.2217 35.7781L30.0053 45L20.7834 35.7836L24.1806 32.3973L24.1697 32.4027ZM38.2244 30.0027L41.6162 26.6109L45.0025 30.0027L41.6162 33.3945L38.2244 30.0027Z" fill="url(#paint2_linear_120_62)"/>
<path d="M33.4378 29.9972L29.9968 26.5562L27.4543 29.0986L27.1584 29.389L26.5611 29.9918L29.9968 33.4274L33.4378 29.9863" fill="url(#paint3_linear_120_62)"/>
<defs>
<linearGradient id="paint0_linear_120_62" x1="47.5714" y1="60" x2="77.9963" y2="48.774" gradientUnits="userSpaceOnUse">
<stop stop-color="#2F54DF"/>
<stop offset="1" stop-color="#FFCC00"/>
</linearGradient>
<linearGradient id="paint1_linear_120_62" x1="0" y1="0" x2="63.5019" y2="3.96887" gradientUnits="userSpaceOnUse">
<stop stop-color="#3EB7F4"/>
<stop offset="0.497479" stop-color="#2E3ECE"/>
<stop offset="1" stop-color="#FFCC00" stop-opacity="0"/>
</linearGradient>
<linearGradient id="paint2_linear_120_62" x1="14.9971" y1="30" x2="45.0025" y2="30" gradientUnits="userSpaceOnUse">
<stop stop-color="white"/>
<stop offset="1" stop-color="white" stop-opacity="0"/>
</linearGradient>
<linearGradient id="paint3_linear_120_62" x1="14.9971" y1="30" x2="45.0025" y2="30" gradientUnits="userSpaceOnUse">
<stop stop-color="white"/>
<stop offset="1" stop-color="white" stop-opacity="0"/>
</linearGradient>
</defs>
</svg>
