<svg width="267" height="60" viewBox="0 0 267 60" fill="none" xmlns="http://www.w3.org/2000/svg">
<rect x="0.568359" width="266" height="60" rx="12" fill="url(#paint0_linear_120_66)"/>
<rect x="0.568359" width="266" height="60" rx="12" fill="url(#paint1_linear_120_66)"/>
<path d="M65.6124 22.8986C64.3962 22.048 63.0957 21.1412 61.8233 20.2414C61.7952 20.2203 61.7671 20.1992 61.732 20.1781C61.5914 20.0727 61.4297 19.9602 61.2329 19.8969L61.2188 19.8899C57.8164 19.0674 54.3578 18.2238 51.0117 17.4084C47.9748 16.6703 44.945 15.9322 41.9082 15.194C41.8309 15.1729 41.7536 15.1519 41.6692 15.1308C41.395 15.0534 41.0787 14.9691 40.7413 15.0113C40.6429 15.0253 40.5585 15.0605 40.4812 15.1097L40.3968 15.18C40.2633 15.3065 40.193 15.4682 40.1578 15.5596L40.1367 15.6158V15.9392L40.1508 15.9884C42.0699 21.3661 44.0382 26.8212 45.9362 32.1005C47.3984 36.1637 48.9168 40.3745 50.4001 44.5079C50.4915 44.7891 50.7516 44.9719 51.0749 45H51.1452C51.4475 45 51.7146 44.8524 51.8482 44.6134L57.4157 36.4941C58.7725 34.5187 60.1292 32.5363 61.4859 30.561C62.0413 29.7526 62.5966 28.9371 63.152 28.1287C64.0658 26.7931 65.0078 25.4152 65.9428 24.0726L65.992 24.0023V23.9179C66.013 23.6719 66.0201 23.1657 65.6124 22.8986ZM59.0888 25.8581C57.7813 26.54 56.4456 27.243 55.103 27.9389C55.8832 27.1024 56.6706 26.2588 57.4509 25.4223C58.428 24.3678 59.4473 23.2782 60.4455 22.2097L60.4666 22.1886C60.551 22.0761 60.6564 21.9707 60.7689 21.8582C60.8462 21.7809 60.9306 21.7035 61.0079 21.6122C61.5281 21.9707 62.0553 22.3362 62.5615 22.6947C62.927 22.9548 63.2996 23.2149 63.6792 23.475C62.1327 24.2624 60.5861 25.0708 59.0888 25.8581ZM55.7286 25.5207C54.7233 26.6103 53.683 27.728 52.6496 28.8317C50.6461 26.3994 48.6005 23.932 46.6181 21.5489C45.7183 20.4663 44.8115 19.3767 43.9117 18.2941L43.9046 18.2871C43.7008 18.0551 43.5039 17.8021 43.3071 17.563C43.1806 17.4014 43.047 17.2467 42.9135 17.085C43.7289 17.2959 44.5514 17.4928 45.3598 17.6826C46.0698 17.8513 46.8079 18.027 47.532 18.2098C51.6092 19.201 55.6934 20.1922 59.7707 21.1833C58.4139 22.6315 57.0502 24.1007 55.7286 25.5207ZM52.1927 39.2216C52.27 38.4835 52.3543 37.7243 52.4246 36.9791C52.4879 36.3816 52.5512 35.77 52.6144 35.1865C52.7129 34.2516 52.8183 33.2815 52.9027 32.3325L52.9237 32.1638C52.994 31.5592 53.0643 30.9336 53.1065 30.3079C53.1838 30.2657 53.2682 30.2236 53.3596 30.1884C53.465 30.1392 53.5705 30.097 53.6759 30.0338C55.2998 29.1832 56.9236 28.3326 58.5545 27.489C60.1784 26.6454 61.8444 25.7737 63.4964 24.9091C61.9921 27.0883 60.4807 29.2886 59.0185 31.4327C57.7602 33.2674 56.4667 35.1584 55.1803 37.0213C54.6741 37.7664 54.1469 38.5256 53.6478 39.2567C53.0854 40.0722 52.509 40.9087 51.9466 41.7452C52.0169 40.9017 52.1013 40.0511 52.1927 39.2216ZM42.3933 18.744C42.3019 18.491 42.2035 18.2309 42.1191 17.9848C44.0171 20.2765 45.9292 22.5823 47.7921 24.8177C48.7551 25.9776 49.7182 27.1305 50.6813 28.2974C50.8711 28.5153 51.0609 28.7473 51.2436 28.9723C51.4827 29.2605 51.7217 29.5628 51.9818 29.851C51.8974 30.575 51.8271 31.3061 51.7498 32.0091C51.7006 32.5012 51.6514 32.9933 51.5951 33.4924V33.4994C51.574 33.8157 51.5319 34.1321 51.4967 34.4414C51.4475 34.8702 51.335 35.8403 51.335 35.8403L51.328 35.8895C51.2015 37.3095 51.0468 38.7436 50.8992 40.1354C50.8359 40.7119 50.7797 41.3024 50.7164 41.8929C50.6813 41.7874 50.6391 41.682 50.6039 41.5836C50.4985 41.3024 50.3931 41.0071 50.2946 40.7189L49.5425 38.6311C47.1594 32.0021 44.7763 25.3801 42.3933 18.744Z" fill="url(#paint2_linear_120_66)"/>
<path d="M78.805 29.55C78.805 28.7 78.992 27.9633 79.366 27.34C79.7513 26.7053 80.25 26.218 80.862 25.878C81.4853 25.5267 82.1597 25.351 82.885 25.351C83.4517 25.351 83.9617 25.4247 84.415 25.572C84.8683 25.7193 85.2763 25.9233 85.639 26.184C86.013 26.4333 86.336 26.7167 86.608 27.034V24.654C86.1093 24.246 85.571 23.9343 84.993 23.719C84.415 23.5037 83.6897 23.396 82.817 23.396C81.9443 23.396 81.1283 23.5433 80.369 23.838C79.621 24.1327 78.9693 24.5577 78.414 25.113C77.8587 25.6683 77.4223 26.3257 77.105 27.085C76.799 27.833 76.646 28.6547 76.646 29.55C76.646 30.4453 76.799 31.2727 77.105 32.032C77.4223 32.78 77.8587 33.4317 78.414 33.987C78.9693 34.5423 79.621 34.9673 80.369 35.262C81.1283 35.5567 81.9443 35.704 82.817 35.704C83.6897 35.704 84.415 35.5963 84.993 35.381C85.571 35.1657 86.1093 34.854 86.608 34.446V32.066C86.336 32.3833 86.013 32.6723 85.639 32.933C85.2763 33.1823 84.8683 33.3807 84.415 33.528C83.9617 33.6753 83.4517 33.749 82.885 33.749C82.1597 33.749 81.4853 33.579 80.862 33.239C80.25 32.8877 79.7513 32.3947 79.366 31.76C78.992 31.1253 78.805 30.3887 78.805 29.55ZM88.3319 31.59C88.3319 32.3833 88.5132 33.0917 88.8759 33.715C89.2499 34.327 89.7542 34.8087 90.3889 35.16C91.0236 35.5 91.7432 35.67 92.5479 35.67C93.3526 35.67 94.0666 35.5 94.6899 35.16C95.3246 34.8087 95.8289 34.327 96.2029 33.715C96.5769 33.0917 96.7639 32.3833 96.7639 31.59C96.7639 30.7853 96.5769 30.077 96.2029 29.465C95.8289 28.853 95.3246 28.377 94.6899 28.037C94.0666 27.6857 93.3526 27.51 92.5479 27.51C91.7432 27.51 91.0236 27.6857 90.3889 28.037C89.7542 28.377 89.2499 28.853 88.8759 29.465C88.5132 30.077 88.3319 30.7853 88.3319 31.59ZM90.2189 31.59C90.2189 31.1027 90.3209 30.672 90.5249 30.298C90.7289 29.924 91.0066 29.635 91.3579 29.431C91.7092 29.227 92.1059 29.125 92.5479 29.125C92.9786 29.125 93.3696 29.227 93.7209 29.431C94.0836 29.635 94.3669 29.924 94.5709 30.298C94.7749 30.672 94.8769 31.1027 94.8769 31.59C94.8769 32.0773 94.7749 32.508 94.5709 32.882C94.3669 33.2447 94.0836 33.5337 93.7209 33.749C93.3696 33.953 92.9786 34.055 92.5479 34.055C92.1059 34.055 91.7092 33.953 91.3579 33.749C91.0066 33.5337 90.7289 33.2447 90.5249 32.882C90.3209 32.508 90.2189 32.0773 90.2189 31.59ZM103.538 30.74V35.5H105.425V30.536C105.425 29.5953 105.193 28.8587 104.728 28.326C104.263 27.782 103.589 27.51 102.705 27.51C102.161 27.51 101.691 27.6233 101.294 27.85C100.909 28.0767 100.591 28.4223 100.342 28.887V27.68H98.506V35.5H100.342V30.74C100.342 30.3887 100.416 30.0827 100.563 29.822C100.71 29.55 100.914 29.346 101.175 29.21C101.436 29.0627 101.736 28.989 102.076 28.989C102.575 28.989 102.943 29.1363 103.181 29.431C103.419 29.7257 103.538 30.162 103.538 30.74ZM112.802 30.74V35.5H114.689V30.536C114.689 29.5953 114.456 28.8587 113.992 28.326C113.527 27.782 112.853 27.51 111.969 27.51C111.425 27.51 110.954 27.6233 110.558 27.85C110.172 28.0767 109.855 28.4223 109.606 28.887V27.68H107.77V35.5H109.606V30.74C109.606 30.3887 109.679 30.0827 109.827 29.822C109.974 29.55 110.178 29.346 110.439 29.21C110.699 29.0627 111 28.989 111.34 28.989C111.838 28.989 112.207 29.1363 112.445 29.431C112.683 29.7257 112.802 30.162 112.802 30.74ZM120.433 35.67C121.34 35.67 122.116 35.4943 122.762 35.143C123.408 34.7917 123.935 34.2647 124.343 33.562L122.762 32.916C122.513 33.3353 122.201 33.647 121.827 33.851C121.453 34.055 121.017 34.157 120.518 34.157C120.042 34.157 119.634 34.055 119.294 33.851C118.966 33.647 118.716 33.3523 118.546 32.967C118.376 32.5703 118.291 32.0887 118.291 31.522C118.303 30.9553 118.393 30.4793 118.563 30.094C118.733 29.7087 118.983 29.414 119.311 29.21C119.64 29.006 120.037 28.904 120.501 28.904C120.887 28.904 121.221 28.989 121.504 29.159C121.799 29.329 122.026 29.567 122.184 29.873C122.354 30.179 122.439 30.5417 122.439 30.961C122.439 31.0403 122.417 31.1423 122.371 31.267C122.337 31.3803 122.303 31.471 122.269 31.539L122.83 30.757H117.526V32.015H124.394C124.406 31.9697 124.411 31.896 124.411 31.794C124.423 31.692 124.428 31.5957 124.428 31.505C124.428 30.6663 124.27 29.9523 123.952 29.363C123.646 28.7623 123.204 28.3033 122.626 27.986C122.048 27.6687 121.346 27.51 120.518 27.51C119.691 27.51 118.971 27.68 118.359 28.02C117.747 28.3487 117.271 28.819 116.931 29.431C116.603 30.043 116.438 30.7627 116.438 31.59C116.438 32.406 116.603 33.12 116.931 33.732C117.26 34.344 117.725 34.82 118.325 35.16C118.937 35.5 119.64 35.67 120.433 35.67ZM127.405 31.59C127.405 31.1027 127.512 30.672 127.728 30.298C127.943 29.924 128.232 29.6293 128.595 29.414C128.969 29.1987 129.382 29.091 129.836 29.091C130.198 29.091 130.55 29.1477 130.89 29.261C131.23 29.3743 131.53 29.533 131.791 29.737C132.063 29.9297 132.261 30.1563 132.386 30.417V28.394C132.114 28.122 131.745 27.9067 131.281 27.748C130.816 27.5893 130.306 27.51 129.751 27.51C128.946 27.51 128.221 27.6857 127.575 28.037C126.94 28.377 126.436 28.853 126.062 29.465C125.699 30.077 125.518 30.7853 125.518 31.59C125.518 32.3833 125.699 33.0917 126.062 33.715C126.436 34.327 126.94 34.8087 127.575 35.16C128.221 35.5 128.946 35.67 129.751 35.67C130.306 35.67 130.816 35.5907 131.281 35.432C131.745 35.2733 132.114 35.058 132.386 34.786V32.763C132.261 33.0123 132.068 33.239 131.808 33.443C131.547 33.647 131.247 33.8057 130.907 33.919C130.567 34.0323 130.21 34.089 129.836 34.089C129.382 34.089 128.969 33.9813 128.595 33.766C128.232 33.5507 127.943 33.2617 127.728 32.899C127.512 32.525 127.405 32.0887 127.405 31.59ZM133.327 27.68V29.295H137.764V27.68H133.327ZM134.636 24.96V35.5H136.455V24.96H134.636ZM143.09 25.453H146.218V35.5H148.241V25.453H151.386V23.6H143.09V25.453ZM153.151 27.68H151.332V35.5H153.151V27.68ZM155.48 29.635L156.364 28.088C156.194 27.8727 155.985 27.7253 155.735 27.646C155.486 27.5553 155.22 27.51 154.936 27.51C154.54 27.51 154.154 27.6517 153.78 27.935C153.418 28.2183 153.117 28.6037 152.879 29.091C152.653 29.567 152.539 30.1167 152.539 30.74L153.151 31.097C153.151 30.723 153.191 30.4 153.27 30.128C153.361 29.8447 153.503 29.6237 153.695 29.465C153.888 29.3063 154.137 29.227 154.443 29.227C154.67 29.227 154.857 29.261 155.004 29.329C155.152 29.397 155.31 29.499 155.48 29.635ZM156.78 31.59C156.78 32.3833 156.961 33.0917 157.324 33.715C157.698 34.327 158.202 34.8087 158.837 35.16C159.472 35.5 160.191 35.67 160.996 35.67C161.801 35.67 162.515 35.5 163.138 35.16C163.773 34.8087 164.277 34.327 164.651 33.715C165.025 33.0917 165.212 32.3833 165.212 31.59C165.212 30.7853 165.025 30.077 164.651 29.465C164.277 28.853 163.773 28.377 163.138 28.037C162.515 27.6857 161.801 27.51 160.996 27.51C160.191 27.51 159.472 27.6857 158.837 28.037C158.202 28.377 157.698 28.853 157.324 29.465C156.961 30.077 156.78 30.7853 156.78 31.59ZM158.667 31.59C158.667 31.1027 158.769 30.672 158.973 30.298C159.177 29.924 159.455 29.635 159.806 29.431C160.157 29.227 160.554 29.125 160.996 29.125C161.427 29.125 161.818 29.227 162.169 29.431C162.532 29.635 162.815 29.924 163.019 30.298C163.223 30.672 163.325 31.1027 163.325 31.59C163.325 32.0773 163.223 32.508 163.019 32.882C162.815 33.2447 162.532 33.5337 162.169 33.749C161.818 33.953 161.427 34.055 160.996 34.055C160.554 34.055 160.157 33.953 159.806 33.749C159.455 33.5337 159.177 33.2447 158.973 32.882C158.769 32.508 158.667 32.0773 158.667 31.59ZM171.986 30.74V35.5H173.873V30.536C173.873 29.5953 173.641 28.8587 173.176 28.326C172.712 27.782 172.037 27.51 171.153 27.51C170.609 27.51 170.139 27.6233 169.742 27.85C169.357 28.0767 169.04 28.4223 168.79 28.887V27.68H166.954V35.5H168.79V30.74C168.79 30.3887 168.864 30.0827 169.011 29.822C169.159 29.55 169.363 29.346 169.623 29.21C169.884 29.0627 170.184 28.989 170.524 28.989C171.023 28.989 171.391 29.1363 171.629 29.431C171.867 29.7257 171.986 30.162 171.986 30.74ZM192.229 31.573L188.812 23.005L185.429 31.573L182.607 23.6H180.278L185.14 36.129L188.812 27.714L192.484 36.129L197.346 23.6H195.017L192.229 31.573ZM198.109 33.069C198.109 32.8197 198.166 32.61 198.279 32.44C198.404 32.27 198.585 32.1397 198.823 32.049C199.061 31.947 199.373 31.896 199.758 31.896C200.2 31.896 200.62 31.9527 201.016 32.066C201.413 32.1793 201.787 32.3607 202.138 32.61V31.675C202.036 31.5503 201.861 31.4143 201.611 31.267C201.362 31.1083 201.045 30.9723 200.659 30.859C200.285 30.7457 199.838 30.689 199.316 30.689C198.342 30.689 197.588 30.9157 197.055 31.369C196.523 31.811 196.256 32.4117 196.256 33.171C196.256 33.7037 196.381 34.157 196.63 34.531C196.88 34.905 197.214 35.1883 197.633 35.381C198.053 35.5737 198.506 35.67 198.993 35.67C199.447 35.67 199.889 35.5907 200.319 35.432C200.761 35.262 201.124 35.0127 201.407 34.684C201.702 34.344 201.849 33.9247 201.849 33.426L201.577 32.406C201.577 32.7913 201.481 33.1313 201.288 33.426C201.107 33.7093 200.863 33.9247 200.557 34.072C200.263 34.2193 199.934 34.293 199.571 34.293C199.288 34.293 199.033 34.2477 198.806 34.157C198.591 34.0663 198.421 33.9303 198.296 33.749C198.172 33.5563 198.109 33.3297 198.109 33.069ZM197.531 29.72C197.645 29.6407 197.815 29.5443 198.041 29.431C198.279 29.3063 198.557 29.2043 198.874 29.125C199.203 29.0343 199.549 28.989 199.911 28.989C200.149 28.989 200.37 29.0117 200.574 29.057C200.778 29.1023 200.954 29.176 201.101 29.278C201.249 29.38 201.362 29.5103 201.441 29.669C201.532 29.8277 201.577 30.0317 201.577 30.281V35.5H203.379V29.924C203.379 29.4027 203.238 28.9663 202.954 28.615C202.671 28.2523 202.28 27.9747 201.781 27.782C201.294 27.5893 200.727 27.493 200.081 27.493C199.356 27.493 198.71 27.595 198.143 27.799C197.588 28.003 197.135 28.2127 196.783 28.428L197.531 29.72ZM205.52 22.24V35.5H207.356V22.24H205.52ZM209.703 22.24V35.5H211.539V22.24H209.703ZM217.287 35.67C218.194 35.67 218.97 35.4943 219.616 35.143C220.262 34.7917 220.789 34.2647 221.197 33.562L219.616 32.916C219.367 33.3353 219.055 33.647 218.681 33.851C218.307 34.055 217.871 34.157 217.372 34.157C216.896 34.157 216.488 34.055 216.148 33.851C215.819 33.647 215.57 33.3523 215.4 32.967C215.23 32.5703 215.145 32.0887 215.145 31.522C215.156 30.9553 215.247 30.4793 215.417 30.094C215.587 29.7087 215.836 29.414 216.165 29.21C216.494 29.006 216.89 28.904 217.355 28.904C217.74 28.904 218.075 28.989 218.358 29.159C218.653 29.329 218.879 29.567 219.038 29.873C219.208 30.179 219.293 30.5417 219.293 30.961C219.293 31.0403 219.27 31.1423 219.225 31.267C219.191 31.3803 219.157 31.471 219.123 31.539L219.684 30.757H214.38V32.015H221.248C221.259 31.9697 221.265 31.896 221.265 31.794C221.276 31.692 221.282 31.5957 221.282 31.505C221.282 30.6663 221.123 29.9523 220.806 29.363C220.5 28.7623 220.058 28.3033 219.48 27.986C218.902 27.6687 218.199 27.51 217.372 27.51C216.545 27.51 215.825 27.68 215.213 28.02C214.601 28.3487 214.125 28.819 213.785 29.431C213.456 30.043 213.292 30.7627 213.292 31.59C213.292 32.406 213.456 33.12 213.785 33.732C214.114 34.344 214.578 34.82 215.179 35.16C215.791 35.5 216.494 35.67 217.287 35.67ZM221.946 27.68V29.295H226.383V27.68H221.946ZM223.255 24.96V35.5H225.074V24.96H223.255Z" fill="white"/>
<defs>
<linearGradient id="paint0_linear_120_66" x1="211.468" y1="60" x2="253.159" y2="-8.19733" gradientUnits="userSpaceOnUse">
<stop stop-color="#2F54DF"/>
<stop offset="1" stop-color="#B517B5"/>
</linearGradient>
<linearGradient id="paint1_linear_120_66" x1="0.568359" y1="0" x2="263.042" y2="72.727" gradientUnits="userSpaceOnUse">
<stop stop-color="#3EB7F4"/>
<stop offset="0.497479" stop-color="#2E3ECE"/>
<stop offset="1" stop-color="#FF00FF" stop-opacity="0"/>
</linearGradient>
<linearGradient id="paint2_linear_120_66" x1="40.1367" y1="30" x2="65.9997" y2="30" gradientUnits="userSpaceOnUse">
<stop stop-color="white"/>
<stop offset="1" stop-color="white" stop-opacity="0"/>
</linearGradient>
</defs>
</svg>
