<svg width="267" height="60" viewBox="0 0 267 60" fill="none" xmlns="http://www.w3.org/2000/svg">
<rect x="0.568359" width="266" height="60" rx="12" fill="url(#paint0_linear_120_69)"/>
<rect x="0.568359" width="266" height="60" rx="12" fill="url(#paint1_linear_120_69)"/>
<path d="M47.238 27.6027L53.0681 21.7781L58.8983 27.6027L62.2955 24.2219L53.0791 15L43.8517 24.2219L47.238 27.6137V27.6027ZM38.0654 30.0082L41.4572 26.6164L44.849 30.0082L41.4736 33.3836L38.0654 30.0082ZM47.238 32.4027L53.0681 38.2274L58.8983 32.3863L62.2901 35.7781L53.0736 45L43.8517 35.7836L47.249 32.3973L47.238 32.4027ZM61.2928 30.0027L64.6846 26.6109L68.0709 30.0027L64.6846 33.3945L61.2928 30.0027Z" fill="url(#paint2_linear_120_69)"/>
<path d="M56.5062 29.9972L53.0651 26.5562L50.5226 29.0986L50.2267 29.389L49.6295 29.9918L53.0651 33.4274L56.5062 29.9863" fill="url(#paint3_linear_120_69)"/>
<path d="M80.8763 29.55C80.8763 28.7 81.0633 27.9633 81.4373 27.34C81.8226 26.7053 82.3213 26.218 82.9333 25.878C83.5566 25.5267 84.231 25.351 84.9563 25.351C85.523 25.351 86.033 25.4247 86.4863 25.572C86.9396 25.7193 87.3476 25.9233 87.7103 26.184C88.0843 26.4333 88.4073 26.7167 88.6793 27.034V24.654C88.1806 24.246 87.6423 23.9343 87.0643 23.719C86.4863 23.5037 85.761 23.396 84.8883 23.396C84.0156 23.396 83.1996 23.5433 82.4403 23.838C81.6923 24.1327 81.0406 24.5577 80.4853 25.113C79.93 25.6683 79.4936 26.3257 79.1763 27.085C78.8703 27.833 78.7173 28.6547 78.7173 29.55C78.7173 30.4453 78.8703 31.2727 79.1763 32.032C79.4936 32.78 79.93 33.4317 80.4853 33.987C81.0406 34.5423 81.6923 34.9673 82.4403 35.262C83.1996 35.5567 84.0156 35.704 84.8883 35.704C85.761 35.704 86.4863 35.5963 87.0643 35.381C87.6423 35.1657 88.1806 34.854 88.6793 34.446V32.066C88.4073 32.3833 88.0843 32.6723 87.7103 32.933C87.3476 33.1823 86.9396 33.3807 86.4863 33.528C86.033 33.6753 85.523 33.749 84.9563 33.749C84.231 33.749 83.5566 33.579 82.9333 33.239C82.3213 32.8877 81.8226 32.3947 81.4373 31.76C81.0633 31.1253 80.8763 30.3887 80.8763 29.55ZM90.4032 31.59C90.4032 32.3833 90.5845 33.0917 90.9472 33.715C91.3212 34.327 91.8255 34.8087 92.4602 35.16C93.0949 35.5 93.8145 35.67 94.6192 35.67C95.4239 35.67 96.1379 35.5 96.7612 35.16C97.3959 34.8087 97.9002 34.327 98.2742 33.715C98.6482 33.0917 98.8352 32.3833 98.8352 31.59C98.8352 30.7853 98.6482 30.077 98.2742 29.465C97.9002 28.853 97.3959 28.377 96.7612 28.037C96.1379 27.6857 95.4239 27.51 94.6192 27.51C93.8145 27.51 93.0949 27.6857 92.4602 28.037C91.8255 28.377 91.3212 28.853 90.9472 29.465C90.5845 30.077 90.4032 30.7853 90.4032 31.59ZM92.2902 31.59C92.2902 31.1027 92.3922 30.672 92.5962 30.298C92.8002 29.924 93.0779 29.635 93.4292 29.431C93.7805 29.227 94.1772 29.125 94.6192 29.125C95.0499 29.125 95.4409 29.227 95.7922 29.431C96.1549 29.635 96.4382 29.924 96.6422 30.298C96.8462 30.672 96.9482 31.1027 96.9482 31.59C96.9482 32.0773 96.8462 32.508 96.6422 32.882C96.4382 33.2447 96.1549 33.5337 95.7922 33.749C95.4409 33.953 95.0499 34.055 94.6192 34.055C94.1772 34.055 93.7805 33.953 93.4292 33.749C93.0779 33.5337 92.8002 33.2447 92.5962 32.882C92.3922 32.508 92.2902 32.0773 92.2902 31.59ZM105.609 30.74V35.5H107.496V30.536C107.496 29.5953 107.264 28.8587 106.799 28.326C106.335 27.782 105.66 27.51 104.776 27.51C104.232 27.51 103.762 27.6233 103.365 27.85C102.98 28.0767 102.663 28.4223 102.413 28.887V27.68H100.577V35.5H102.413V30.74C102.413 30.3887 102.487 30.0827 102.634 29.822C102.782 29.55 102.986 29.346 103.246 29.21C103.507 29.0627 103.807 28.989 104.147 28.989C104.646 28.989 105.014 29.1363 105.252 29.431C105.49 29.7257 105.609 30.162 105.609 30.74ZM114.873 30.74V35.5H116.76V30.536C116.76 29.5953 116.528 28.8587 116.063 28.326C115.598 27.782 114.924 27.51 114.04 27.51C113.496 27.51 113.026 27.6233 112.629 27.85C112.244 28.0767 111.926 28.4223 111.677 28.887V27.68H109.841V35.5H111.677V30.74C111.677 30.3887 111.751 30.0827 111.898 29.822C112.045 29.55 112.249 29.346 112.51 29.21C112.771 29.0627 113.071 28.989 113.411 28.989C113.91 28.989 114.278 29.1363 114.516 29.431C114.754 29.7257 114.873 30.162 114.873 30.74ZM122.505 35.67C123.411 35.67 124.188 35.4943 124.834 35.143C125.48 34.7917 126.007 34.2647 126.415 33.562L124.834 32.916C124.584 33.3353 124.273 33.647 123.899 33.851C123.525 34.055 123.088 34.157 122.59 34.157C122.114 34.157 121.706 34.055 121.366 33.851C121.037 33.647 120.788 33.3523 120.618 32.967C120.448 32.5703 120.363 32.0887 120.363 31.522C120.374 30.9553 120.465 30.4793 120.635 30.094C120.805 29.7087 121.054 29.414 121.383 29.21C121.711 29.006 122.108 28.904 122.573 28.904C122.958 28.904 123.292 28.989 123.576 29.159C123.87 29.329 124.097 29.567 124.256 29.873C124.426 30.179 124.511 30.5417 124.511 30.961C124.511 31.0403 124.488 31.1423 124.443 31.267C124.409 31.3803 124.375 31.471 124.341 31.539L124.902 30.757H119.598V32.015H126.466C126.477 31.9697 126.483 31.896 126.483 31.794C126.494 31.692 126.5 31.5957 126.5 31.505C126.5 30.6663 126.341 29.9523 126.024 29.363C125.718 28.7623 125.276 28.3033 124.698 27.986C124.12 27.6687 123.417 27.51 122.59 27.51C121.762 27.51 121.043 27.68 120.431 28.02C119.819 28.3487 119.343 28.819 119.003 29.431C118.674 30.043 118.51 30.7627 118.51 31.59C118.51 32.406 118.674 33.12 119.003 33.732C119.331 34.344 119.796 34.82 120.397 35.16C121.009 35.5 121.711 35.67 122.505 35.67ZM129.476 31.59C129.476 31.1027 129.584 30.672 129.799 30.298C130.014 29.924 130.303 29.6293 130.666 29.414C131.04 29.1987 131.454 29.091 131.907 29.091C132.27 29.091 132.621 29.1477 132.961 29.261C133.301 29.3743 133.601 29.533 133.862 29.737C134.134 29.9297 134.332 30.1563 134.457 30.417V28.394C134.185 28.122 133.817 27.9067 133.352 27.748C132.887 27.5893 132.377 27.51 131.822 27.51C131.017 27.51 130.292 27.6857 129.646 28.037C129.011 28.377 128.507 28.853 128.133 29.465C127.77 30.077 127.589 30.7853 127.589 31.59C127.589 32.3833 127.77 33.0917 128.133 33.715C128.507 34.327 129.011 34.8087 129.646 35.16C130.292 35.5 131.017 35.67 131.822 35.67C132.377 35.67 132.887 35.5907 133.352 35.432C133.817 35.2733 134.185 35.058 134.457 34.786V32.763C134.332 33.0123 134.14 33.239 133.879 33.443C133.618 33.647 133.318 33.8057 132.978 33.919C132.638 34.0323 132.281 34.089 131.907 34.089C131.454 34.089 131.04 33.9813 130.666 33.766C130.303 33.5507 130.014 33.2617 129.799 32.899C129.584 32.525 129.476 32.0887 129.476 31.59ZM135.398 27.68V29.295H139.835V27.68H135.398ZM136.707 24.96V35.5H138.526V24.96H136.707ZM147.881 29.363H149.938C150.686 29.363 151.344 29.2553 151.91 29.04C152.488 28.8247 152.936 28.513 153.253 28.105C153.582 27.6857 153.746 27.1813 153.746 26.592C153.746 25.912 153.582 25.351 153.253 24.909C152.936 24.467 152.488 24.1383 151.91 23.923C151.344 23.7077 150.686 23.6 149.938 23.6H146.351V35.5H150.142C150.981 35.5 151.718 35.381 152.352 35.143C152.998 34.8937 153.503 34.514 153.865 34.004C154.239 33.494 154.426 32.848 154.426 32.066C154.426 31.4993 154.313 31.012 154.086 30.604C153.86 30.196 153.542 29.8617 153.134 29.601C152.738 29.3403 152.284 29.1477 151.774 29.023C151.264 28.8983 150.72 28.836 150.142 28.836H147.881V29.941H150.023C150.363 29.941 150.675 29.9807 150.958 30.06C151.242 30.128 151.485 30.247 151.689 30.417C151.905 30.5757 152.069 30.7797 152.182 31.029C152.307 31.267 152.369 31.5447 152.369 31.862C152.369 32.304 152.267 32.6723 152.063 32.967C151.859 33.2617 151.582 33.4827 151.23 33.63C150.879 33.7773 150.477 33.851 150.023 33.851H148.357V25.249H149.802C150.358 25.249 150.811 25.385 151.162 25.657C151.514 25.929 151.689 26.3143 151.689 26.813C151.689 27.1417 151.61 27.425 151.451 27.663C151.293 27.8897 151.072 28.0653 150.788 28.19C150.505 28.3147 150.176 28.377 149.802 28.377H147.881V29.363ZM157.327 31.675L155.831 32.712C156.091 33.256 156.443 33.7603 156.885 34.225C157.327 34.6897 157.842 35.0637 158.432 35.347C159.032 35.619 159.684 35.755 160.387 35.755C160.897 35.755 161.384 35.67 161.849 35.5C162.325 35.3413 162.75 35.1147 163.124 34.82C163.498 34.514 163.792 34.14 164.008 33.698C164.223 33.256 164.331 32.7573 164.331 32.202C164.331 31.6807 164.24 31.2273 164.059 30.842C163.889 30.4567 163.656 30.1223 163.362 29.839C163.067 29.5443 162.738 29.3007 162.376 29.108C162.024 28.9153 161.673 28.7567 161.322 28.632C160.687 28.4053 160.171 28.1843 159.775 27.969C159.378 27.7537 159.083 27.527 158.891 27.289C158.709 27.0397 158.619 26.762 158.619 26.456C158.619 26.116 158.749 25.8213 159.01 25.572C159.27 25.3113 159.678 25.181 160.234 25.181C160.63 25.181 160.976 25.2603 161.271 25.419C161.577 25.5663 161.843 25.7703 162.07 26.031C162.296 26.2803 162.483 26.5523 162.631 26.847L164.263 25.929C164.059 25.5097 163.775 25.1073 163.413 24.722C163.061 24.3367 162.625 24.0193 162.104 23.77C161.582 23.5207 160.97 23.396 160.268 23.396C159.554 23.396 158.913 23.532 158.347 23.804C157.791 24.0647 157.349 24.4387 157.021 24.926C156.692 25.402 156.528 25.9573 156.528 26.592C156.528 27.1473 156.635 27.6233 156.851 28.02C157.066 28.4053 157.338 28.734 157.667 29.006C157.995 29.2667 158.341 29.4877 158.704 29.669C159.066 29.839 159.395 29.975 159.69 30.077C160.188 30.2583 160.625 30.4453 160.999 30.638C161.384 30.8193 161.684 31.046 161.9 31.318C162.115 31.5787 162.223 31.93 162.223 32.372C162.223 32.8367 162.053 33.2163 161.713 33.511C161.373 33.8057 160.931 33.953 160.387 33.953C159.933 33.953 159.525 33.8623 159.163 33.681C158.8 33.4883 158.466 33.222 158.16 32.882C157.865 32.5307 157.587 32.1283 157.327 31.675ZM167.868 29.55C167.868 28.7 168.055 27.9633 168.429 27.34C168.815 26.7053 169.313 26.218 169.925 25.878C170.549 25.5267 171.223 25.351 171.948 25.351C172.515 25.351 173.025 25.4247 173.478 25.572C173.932 25.7193 174.34 25.9233 174.702 26.184C175.076 26.4333 175.399 26.7167 175.671 27.034V24.654C175.173 24.246 174.634 23.9343 174.056 23.719C173.478 23.5037 172.753 23.396 171.88 23.396C171.008 23.396 170.192 23.5433 169.432 23.838C168.684 24.1327 168.033 24.5577 167.477 25.113C166.922 25.6683 166.486 26.3257 166.168 27.085C165.862 27.833 165.709 28.6547 165.709 29.55C165.709 30.4453 165.862 31.2727 166.168 32.032C166.486 32.78 166.922 33.4317 167.477 33.987C168.033 34.5423 168.684 34.9673 169.432 35.262C170.192 35.5567 171.008 35.704 171.88 35.704C172.753 35.704 173.478 35.5963 174.056 35.381C174.634 35.1657 175.173 34.854 175.671 34.446V32.066C175.399 32.3833 175.076 32.6723 174.702 32.933C174.34 33.1823 173.932 33.3807 173.478 33.528C173.025 33.6753 172.515 33.749 171.948 33.749C171.223 33.749 170.549 33.579 169.925 33.239C169.313 32.8877 168.815 32.3947 168.429 31.76C168.055 31.1253 167.868 30.3887 167.868 29.55ZM194.001 31.573L190.584 23.005L187.201 31.573L184.379 23.6H182.05L186.912 36.129L190.584 27.714L194.256 36.129L199.118 23.6H196.789L194.001 31.573ZM199.882 33.069C199.882 32.8197 199.938 32.61 200.052 32.44C200.176 32.27 200.358 32.1397 200.596 32.049C200.834 31.947 201.145 31.896 201.531 31.896C201.973 31.896 202.392 31.9527 202.789 32.066C203.185 32.1793 203.559 32.3607 203.911 32.61V31.675C203.809 31.5503 203.633 31.4143 203.384 31.267C203.134 31.1083 202.817 30.9723 202.432 30.859C202.058 30.7457 201.61 30.689 201.089 30.689C200.114 30.689 199.36 30.9157 198.828 31.369C198.295 31.811 198.029 32.4117 198.029 33.171C198.029 33.7037 198.153 34.157 198.403 34.531C198.652 34.905 198.986 35.1883 199.406 35.381C199.825 35.5737 200.278 35.67 200.766 35.67C201.219 35.67 201.661 35.5907 202.092 35.432C202.534 35.262 202.896 35.0127 203.18 34.684C203.474 34.344 203.622 33.9247 203.622 33.426L203.35 32.406C203.35 32.7913 203.253 33.1313 203.061 33.426C202.879 33.7093 202.636 33.9247 202.33 34.072C202.035 34.2193 201.706 34.293 201.344 34.293C201.06 34.293 200.805 34.2477 200.579 34.157C200.363 34.0663 200.193 33.9303 200.069 33.749C199.944 33.5563 199.882 33.3297 199.882 33.069ZM199.304 29.72C199.417 29.6407 199.587 29.5443 199.814 29.431C200.052 29.3063 200.329 29.2043 200.647 29.125C200.975 29.0343 201.321 28.989 201.684 28.989C201.922 28.989 202.143 29.0117 202.347 29.057C202.551 29.1023 202.726 29.176 202.874 29.278C203.021 29.38 203.134 29.5103 203.214 29.669C203.304 29.8277 203.35 30.0317 203.35 30.281V35.5H205.152V29.924C205.152 29.4027 205.01 28.9663 204.727 28.615C204.443 28.2523 204.052 27.9747 203.554 27.782C203.066 27.5893 202.5 27.493 201.854 27.493C201.128 27.493 200.482 27.595 199.916 27.799C199.36 28.003 198.907 28.2127 198.556 28.428L199.304 29.72ZM207.292 22.24V35.5H209.128V22.24H207.292ZM211.476 22.24V35.5H213.312V22.24H211.476ZM219.059 35.67C219.966 35.67 220.742 35.4943 221.388 35.143C222.034 34.7917 222.561 34.2647 222.969 33.562L221.388 32.916C221.139 33.3353 220.827 33.647 220.453 33.851C220.079 34.055 219.643 34.157 219.144 34.157C218.668 34.157 218.26 34.055 217.92 33.851C217.592 33.647 217.342 33.3523 217.172 32.967C217.002 32.5703 216.917 32.0887 216.917 31.522C216.929 30.9553 217.019 30.4793 217.189 30.094C217.359 29.7087 217.609 29.414 217.937 29.21C218.266 29.006 218.663 28.904 219.127 28.904C219.513 28.904 219.847 28.989 220.13 29.159C220.425 29.329 220.652 29.567 220.81 29.873C220.98 30.179 221.065 30.5417 221.065 30.961C221.065 31.0403 221.043 31.1423 220.997 31.267C220.963 31.3803 220.929 31.471 220.895 31.539L221.456 30.757H216.152V32.015H223.02C223.032 31.9697 223.037 31.896 223.037 31.794C223.049 31.692 223.054 31.5957 223.054 31.505C223.054 30.6663 222.896 29.9523 222.578 29.363C222.272 28.7623 221.83 28.3033 221.252 27.986C220.674 27.6687 219.972 27.51 219.144 27.51C218.317 27.51 217.597 27.68 216.985 28.02C216.373 28.3487 215.897 28.819 215.557 29.431C215.229 30.043 215.064 30.7627 215.064 31.59C215.064 32.406 215.229 33.12 215.557 33.732C215.886 34.344 216.351 34.82 216.951 35.16C217.563 35.5 218.266 35.67 219.059 35.67ZM223.719 27.68V29.295H228.156V27.68H223.719ZM225.028 24.96V35.5H226.847V24.96H225.028Z" fill="white"/>
<defs>
<linearGradient id="paint0_linear_120_69" x1="211.468" y1="60" x2="253.159" y2="-8.19733" gradientUnits="userSpaceOnUse">
<stop stop-color="#2F54DF"/>
<stop offset="1" stop-color="#FFCC00"/>
</linearGradient>
<linearGradient id="paint1_linear_120_69" x1="0.568359" y1="0" x2="263.042" y2="72.727" gradientUnits="userSpaceOnUse">
<stop stop-color="#3EB7F4"/>
<stop offset="0.497479" stop-color="#2E3ECE"/>
<stop offset="1" stop-color="#FFCC00" stop-opacity="0"/>
</linearGradient>
<linearGradient id="paint2_linear_120_69" x1="38.0654" y1="30" x2="68.0709" y2="30" gradientUnits="userSpaceOnUse">
<stop stop-color="white"/>
<stop offset="1" stop-color="white" stop-opacity="0"/>
</linearGradient>
<linearGradient id="paint3_linear_120_69" x1="38.0654" y1="30" x2="68.0709" y2="30" gradientUnits="userSpaceOnUse">
<stop stop-color="white"/>
<stop offset="1" stop-color="white" stop-opacity="0"/>
</linearGradient>
</defs>
</svg>
