<svg width="20" height="21" viewBox="0 0 20 21" fill="none" xmlns="http://www.w3.org/2000/svg">
<path d="M3.25 4.33325C3.25 3.09061 4.25736 2.08325 5.5 2.08325H7.18421C8.97913 2.08325 10.4342 3.53833 10.4342 5.33325V6.49992C10.4342 7.74256 11.4416 8.74992 12.6842 8.74992H13.5C15.2949 8.74992 16.75 10.205 16.75 11.9999V16.6666C16.75 17.9092 15.7426 18.9166 14.5 18.9166H5.5C4.25736 18.9166 3.25 17.9092 3.25 16.6666V4.33325Z" stroke="url(#paint0_linear_37_3344)" stroke-width="1.5"/>
<path d="M3.25 4.33325C3.25 3.09061 4.25736 2.08325 5.5 2.08325H6.99708C9.43064 2.08325 11.7401 3.15767 13.3076 5.01913L14.8105 6.80384C16.0631 8.29128 16.75 10.1734 16.75 12.118V16.6666C16.75 17.9092 15.7426 18.9166 14.5 18.9166H5.5C4.25736 18.9166 3.25 17.9092 3.25 16.6666V4.33325Z" stroke="url(#paint1_linear_37_3344)" stroke-width="1.5"/>
<defs>
<linearGradient id="paint0_linear_37_3344" x1="2.5" y1="10.4999" x2="17.5" y2="10.4999" gradientUnits="userSpaceOnUse">
<stop stop-color="#FF00FF"/>
<stop offset="1" stop-color="#FF00FF" stop-opacity="0"/>
</linearGradient>
<linearGradient id="paint1_linear_37_3344" x1="2.5" y1="10.4999" x2="17.5" y2="10.4999" gradientUnits="userSpaceOnUse">
<stop stop-color="#FF00FF"/>
<stop offset="1" stop-color="#FF00FF" stop-opacity="0"/>
</linearGradient>
</defs>
</svg>
