<svg width="262" height="60" viewBox="0 0 262 60" fill="none" xmlns="http://www.w3.org/2000/svg">
<path fill-rule="evenodd" clip-rule="evenodd" d="M5.66313 42.1068L8.08657 43.5056V22.9104L13.7486 26.18V46.7752L16.172 48.174V27.5788L21.8351 30.8484V51.4437V57.915L16.172 54.6442L8.08657 49.9758V49.9769L0 45.3074V38.8383V18.2419L5.66313 21.5116V42.1068Z" fill="#3865FF"/>
<path fill-rule="evenodd" clip-rule="evenodd" d="M24.2381 41.0602V47.5995L29.5467 50.6642V44.1249L24.2381 41.0602ZM24.237 50.3948L29.5455 53.4607L29.5444 59.9999L24.2358 56.9341L24.237 50.3948ZM24.2381 31.7234L29.5467 34.7881V41.3273L24.2381 38.2626V31.7234Z" fill="#3865FF"/>
<path fill-rule="evenodd" clip-rule="evenodd" d="M47.3835 43.1649V40.3661L29.5467 50.6643V44.125L47.3835 33.828V31.0292L29.5467 41.3274V34.7881L52.9868 21.2549V27.7941V37.1322H52.9879L52.9868 43.3571V45.6942H52.9856V46.469L47.3823 49.7041L29.5444 59.9989L29.5456 53.4607L47.3835 43.1649Z" fill="#3865FF"/>
<path fill-rule="evenodd" clip-rule="evenodd" d="M10.9717 18.4471L5.30854 15.1775L0 18.2422L5.66313 21.5118L10.9717 18.4471ZM27.1448 27.784L21.4817 24.5144L16.1731 27.5791L21.8363 30.8487L27.1448 27.784ZM19.0583 23.1156L13.7497 26.1803L8.08657 22.9106L13.3951 19.8459L19.0583 23.1156Z" fill="#3865FF"/>
<path fill-rule="evenodd" clip-rule="evenodd" d="M45.275 22.9335L50.9382 19.6638V13.5344L45.275 16.8041V22.9335ZM37.1885 27.6019L42.8516 24.3323V18.2017L37.1885 21.4713V27.6019ZM29.103 32.2703L34.7662 29.0007V22.8713L29.103 26.1409V32.2703Z" fill="#3865FF"/>
<path fill-rule="evenodd" clip-rule="evenodd" d="M27.4395 6.50472L25.0161 7.90468L42.8517 18.2017L37.1885 21.4713L19.3529 11.1743L16.9295 12.5731L34.7651 22.8702L29.102 26.1398L11.2664 15.8427L5.66309 12.6077L11.3262 9.33803L19.1837 4.80199L19.4128 4.66959V4.66844L27.4982 0L33.1015 3.23509L50.9383 13.5333L45.2751 16.8029L27.4395 6.50472Z" fill="#3865FF"/>
<path d="M64.4941 42.0226V17.9776H84.3391V22.8776H70.7591V27.3926H82.6241V32.1876H70.7591V37.1226H84.5841V42.0226H64.4941Z" fill="#BEC6D8"/>
<path d="M95.4068 42.0226L86.7618 17.9776H93.4818L97.8918 31.5576C97.9851 31.8376 98.1018 32.211 98.2418 32.6776C98.3818 33.121 98.5218 33.5876 98.6618 34.0776C98.8251 34.5443 98.9535 34.9643 99.0468 35.3376H99.2918C99.4085 34.9876 99.5251 34.591 99.6418 34.1476C99.7818 33.681 99.9218 33.226 100.062 32.7826C100.202 32.316 100.318 31.9193 100.412 31.5926L104.822 17.9776H111.297L102.687 42.0226H95.4068Z" fill="#BEC6D8"/>
<path d="M114.465 42.0226V17.9776H134.31V22.8776H120.73V27.3926H132.595V32.1876H120.73V37.1226H134.555V42.0226H114.465Z" fill="#BEC6D8"/>
<path d="M138.868 42.0226V17.9776H152.833C154.606 17.9776 156.088 18.316 157.278 18.9926C158.468 19.646 159.354 20.556 159.938 21.7226C160.544 22.866 160.848 24.1493 160.848 25.5726C160.848 27.1126 160.486 28.4893 159.763 29.7026C159.063 30.8926 158.071 31.826 156.787 32.5026L161.618 42.0226H154.618L150.628 33.5526H145.132V42.0226H138.868ZM145.132 28.8976H151.607C152.471 28.8976 153.159 28.6176 153.673 28.0576C154.209 27.4743 154.478 26.7043 154.478 25.7476C154.478 25.1176 154.361 24.581 154.128 24.1376C153.894 23.6943 153.567 23.356 153.147 23.1226C152.728 22.866 152.214 22.7376 151.607 22.7376H145.132V28.8976Z" fill="#BEC6D8"/>
<path d="M176.109 42.4426C173.519 42.4426 171.314 41.9993 169.494 41.1126C167.697 40.2026 166.332 38.826 165.399 36.9826C164.466 35.1393 163.999 32.806 163.999 29.9826C163.999 25.8293 165.037 22.726 167.114 20.6726C169.214 18.596 172.212 17.5576 176.109 17.5576C178.279 17.5576 180.204 17.931 181.884 18.6776C183.564 19.401 184.871 20.4976 185.804 21.9676C186.761 23.4143 187.239 25.2226 187.239 27.3926H181.114C181.114 26.366 180.904 25.491 180.484 24.7676C180.087 24.021 179.516 23.4493 178.769 23.0526C178.046 22.656 177.159 22.4576 176.109 22.4576C174.802 22.4576 173.729 22.726 172.889 23.2626C172.049 23.7993 171.431 24.5693 171.034 25.5726C170.637 26.576 170.439 27.7893 170.439 29.2126V30.7876C170.439 32.211 170.637 33.436 171.034 34.4626C171.431 35.466 172.037 36.236 172.854 36.7726C173.694 37.286 174.767 37.5426 176.074 37.5426C177.194 37.5426 178.139 37.356 178.909 36.9826C179.702 36.6093 180.297 36.061 180.694 35.3376C181.114 34.591 181.324 33.7043 181.324 32.6776H187.239C187.239 34.8476 186.772 36.656 185.839 38.1026C184.929 39.5493 183.634 40.6343 181.954 41.3576C180.297 42.081 178.349 42.4426 176.109 42.4426Z" fill="#BEC6D8"/>
<path d="M191.368 42.0226V17.9776H197.632V36.8776H209.847V42.0226H191.368Z" fill="#BEC6D8"/>
<path d="M223.004 42.4426C220.694 42.4426 218.699 42.081 217.019 41.3576C215.362 40.6343 214.09 39.5493 213.204 38.1026C212.317 36.656 211.874 34.8593 211.874 32.7126V17.9776H218.174V32.5726C218.174 34.1126 218.582 35.326 219.399 36.2126C220.215 37.0993 221.417 37.5426 223.004 37.5426C224.59 37.5426 225.804 37.0993 226.644 36.2126C227.484 35.326 227.904 34.1126 227.904 32.5726V17.9776H234.169V32.7126C234.169 34.8593 233.725 36.656 232.839 38.1026C231.952 39.5493 230.68 40.6343 229.024 41.3576C227.367 42.081 225.36 42.4426 223.004 42.4426Z" fill="#BEC6D8"/>
<path d="M239.356 42.0226V17.9776H254.056C255.292 17.9776 256.412 18.2226 257.416 18.7126C258.419 19.2026 259.212 19.891 259.796 20.7776C260.402 21.6643 260.706 22.7026 260.706 23.8926C260.706 24.9426 260.519 25.841 260.146 26.5876C259.796 27.3343 259.317 27.941 258.711 28.4076C258.127 28.8743 257.462 29.2243 256.716 29.4576V29.5976C257.579 29.7843 258.361 30.1226 259.061 30.6126C259.761 31.0793 260.309 31.721 260.706 32.5376C261.126 33.3543 261.336 34.346 261.336 35.5126C261.336 36.8893 261.009 38.0676 260.356 39.0476C259.702 40.0043 258.839 40.7393 257.766 41.2526C256.692 41.766 255.491 42.0226 254.161 42.0226H239.356ZM245.621 37.1926H252.446C253.192 37.1926 253.787 36.971 254.231 36.5276C254.697 36.0843 254.931 35.4076 254.931 34.4976C254.931 34.0076 254.826 33.576 254.616 33.2026C254.429 32.806 254.137 32.5026 253.741 32.2926C253.367 32.0826 252.901 31.9776 252.341 31.9776H245.621V37.1926ZM245.621 27.5326H251.886C252.399 27.5326 252.831 27.4276 253.181 27.2176C253.554 27.0076 253.834 26.716 254.021 26.3426C254.231 25.9693 254.336 25.526 254.336 25.0126C254.336 24.266 254.114 23.6826 253.671 23.2626C253.227 22.8426 252.667 22.6326 251.991 22.6326H245.621V27.5326Z" fill="#BEC6D8"/>
</svg>
