<svg width="77" height="20" viewBox="0 0 77 20" fill="none" xmlns="http://www.w3.org/2000/svg">
<path d="M34.5169 0H33.5285C33.1309 0.00162342 32.7403 0.106049 32.3944 0.303248C32.0485 0.500447 31.7588 0.783797 31.5531 1.12609L25.314 11.5921H27.9809L30.0714 8.11472H37.9736L40.0641 11.5921H42.7314L36.4919 1.12645C36.2863 0.784164 35.9966 0.50081 35.6508 0.303607C35.3049 0.106404 34.9144 0.00197878 34.5169 0.000363054V0ZM31.4542 5.79716L33.5285 2.31974H34.5165L36.5904 5.79716H31.4542ZM55.4646 4.63838H46.2458C45.9437 4.633 45.6557 4.50849 45.444 4.29166C45.2322 4.07483 45.1135 3.78302 45.1135 3.47906C45.1135 3.17509 45.2322 2.88328 45.444 2.66645C45.6557 2.44962 45.9437 2.32512 46.2458 2.31974H57.9279L56.5401 0.00109055H46.2444C45.3275 0.00109055 44.4481 0.36748 43.7998 1.01966C43.1514 1.67183 42.7872 2.55638 42.7872 3.4787C42.7872 4.40101 43.1514 5.28556 43.7998 5.93773C44.4481 6.58991 45.3275 6.9563 46.2444 6.9563H55.465C55.617 6.95359 55.768 6.98135 55.9091 7.03797C56.0503 7.09459 56.1789 7.17894 56.2873 7.28609C56.3957 7.39323 56.4819 7.52103 56.5407 7.66202C56.5994 7.80302 56.6297 7.95438 56.6297 8.10727C56.6297 8.26016 56.5994 8.41152 56.5407 8.55251C56.4819 8.69351 56.3957 8.82131 56.2873 8.92845C56.1789 9.0356 56.0503 9.11995 55.9091 9.17657C55.768 9.23319 55.617 9.26095 55.465 9.25824H43.7646L45.1621 11.594H55.465C56.3819 11.594 57.2612 11.2276 57.9095 10.5754C58.5578 9.9233 58.922 9.0388 58.922 8.11653C58.922 7.19426 58.5578 6.30977 57.9095 5.65762C57.2612 5.00548 56.3819 4.63911 55.465 4.63911L55.4646 4.63838ZM76.685 6.36238L75.6457 4.63911H67.4677V6.95703H74.3984V8.11653C74.3877 8.42184 74.2602 8.71118 74.0424 8.92413C73.8246 9.13708 73.5335 9.25718 73.2298 9.25933H64.0103C63.7093 9.25866 63.4207 9.13802 63.2079 8.92382C62.9951 8.70963 62.8754 8.41935 62.8749 8.11653V3.47815C62.8747 3.17357 62.9937 2.88115 63.2062 2.66416C63.4187 2.44716 63.7075 2.32304 64.0103 2.31865H74.2937L72.9145 0H64.0103C63.0942 0.00268471 62.2163 0.370028 61.5686 1.02176C60.9209 1.67349 60.556 2.55661 60.5536 3.47815V8.11435C60.559 9.03488 60.9249 9.91617 61.572 10.5671C62.2191 11.2181 63.0952 11.5862 64.0103 11.5918H73.2294C74.1455 11.5892 75.0233 11.222 75.6711 10.5704C76.3189 9.91882 76.6839 9.03583 76.6865 8.11435L76.685 6.36238Z" fill="#AE0018"/>
<path d="M26.7082 13.4469H25.415V19.9524H26.7082V13.4469Z" fill="#AE0018"/>
<path d="M35.6116 13.4469H36.9146V18.8184C36.9097 19.1192 36.788 19.4062 36.5756 19.618C36.3632 19.8299 36.0769 19.9497 35.7778 19.9521C35.5296 19.9501 35.2892 19.8653 35.0942 19.7109L29.1443 14.9337V19.9524H27.8511V14.5806C27.8511 14.431 27.8806 14.2829 27.9378 14.1447C27.995 14.0066 28.0789 13.8813 28.1845 13.7759C28.2901 13.6705 28.4154 13.5872 28.5531 13.5307C28.6909 13.4743 28.8384 13.4458 28.9872 13.4469C29.2359 13.446 29.4774 13.5311 29.6711 13.6881L35.6116 18.4653V13.4469Z" fill="#AE0018"/>
<path d="M41.1056 19.3218L37.5947 13.4465H39.1114L42.2171 18.6411H42.7715L45.8771 13.4465H47.3827L43.8797 19.32C43.7644 19.5121 43.6018 19.6712 43.4076 19.7818C43.2135 19.8924 42.9942 19.9509 42.7711 19.9517H42.2146C41.9914 19.951 41.7721 19.8925 41.5779 19.7819C41.3836 19.6713 41.221 19.5122 41.1056 19.32" fill="#AE0018"/>
<path d="M49.329 13.4469H56.4431V14.7477H49.329C49.1577 14.7486 48.9937 14.8174 48.8726 14.9392C48.7515 15.061 48.6831 15.226 48.6822 15.3983V16.0489H56.4431V17.3501H48.6822V18.0003C48.6827 18.0852 48.6998 18.1691 48.7326 18.2473C48.7654 18.3255 48.8132 18.3965 48.8732 18.456C48.9333 18.5156 49.0045 18.5627 49.0827 18.5946C49.1609 18.6265 49.2446 18.6425 49.329 18.6418H56.4431V19.952H49.329C48.8138 19.9511 48.3199 19.7455 47.9547 19.3801C47.5895 19.0146 47.3825 18.5188 47.3789 18.0006V15.3987C47.381 14.88 47.5875 14.3833 47.953 14.0176C48.3185 13.6518 48.8134 13.4467 49.329 13.4473" fill="#AE0018"/>
<path d="M58.8794 15.3987C58.8802 15.5709 58.9486 15.7359 59.0697 15.8577C59.1908 15.9796 59.3549 16.0484 59.5261 16.0492H64.6996C65.2142 16.0492 65.7077 16.2549 66.0715 16.6209C66.4353 16.9868 66.6398 17.4832 66.6398 18.0008C66.6398 18.5184 66.4353 19.0148 66.0715 19.3808C65.7077 19.7468 65.2142 19.9524 64.6996 19.9524H57.5854V18.6418H64.6996C64.8699 18.6418 65.0331 18.5738 65.1535 18.4527C65.2739 18.3316 65.3415 18.1673 65.3415 17.9961C65.3415 17.8249 65.2739 17.6606 65.1535 17.5395C65.0331 17.4184 64.8699 17.3504 64.6996 17.3504H59.5269C59.0122 17.3504 58.5187 17.1448 58.1548 16.7788C57.791 16.4127 57.5865 15.9163 57.5865 15.3987C57.5865 14.881 57.791 14.3846 58.1548 14.0186C58.5187 13.6525 59.0122 13.4469 59.5269 13.4469H66.641V14.7477H59.5269C59.356 14.7498 59.1926 14.819 59.0718 14.9406C58.9509 15.0621 58.8821 15.2264 58.8801 15.3983" fill="#AE0018"/>
<path d="M71.4436 19.952V14.7477H67.563V13.4469H76.6178V14.7477H72.7372V19.952H71.4436Z" fill="#AE0018"/>
<path d="M23.234 4.91949L22.1716 3.06689L13.2612 18.71C13.2606 18.7111 13.2598 18.712 13.2587 18.7126C13.2577 18.7132 13.2565 18.7135 13.2553 18.7135C13.2541 18.7135 13.2529 18.7132 13.2518 18.7126C13.2508 18.712 13.2499 18.7111 13.2493 18.71L5.5411 5.34231C5.50082 5.27229 5.44288 5.21422 5.37312 5.17397C5.30337 5.13372 5.22428 5.11272 5.14386 5.1131L3.2819 5.11855C3.2807 5.11838 3.27948 5.11857 3.27838 5.1191C3.27729 5.11963 3.27638 5.12047 3.27576 5.12152C3.27514 5.12256 3.27485 5.12377 3.27491 5.12499C3.27498 5.12621 3.2754 5.12738 3.27612 5.12836L11.838 19.952H14.6711L23.234 4.91949Z" fill="#AE0018"/>
<path d="M20.0148 1.8802L12.29 15.2479C12.2502 15.3171 12.2292 15.3956 12.2292 15.4755C12.2292 15.5554 12.2502 15.6339 12.29 15.7031L13.2217 17.3345C13.2217 17.3366 13.2257 17.3366 13.2264 17.3345L21.815 2.44687L20.4269 0.0286965L2.68734 0L1.62744 1.84642L20.0116 1.8762C20.0137 1.8762 20.0156 1.87838 20.0145 1.8802" fill="#AE0018"/>
<path d="M2.00171 4.43534L17.3567 4.44188C17.4364 4.44186 17.5146 4.42077 17.5836 4.38073C17.6525 4.34069 17.7098 4.2831 17.7496 4.21376L18.6763 2.59909C18.6774 2.5972 18.6779 2.59505 18.6779 2.59287C18.6779 2.59068 18.6773 2.58854 18.6762 2.58666C18.6751 2.58477 18.6736 2.58322 18.6717 2.58215C18.6698 2.58108 18.6676 2.58053 18.6655 2.58057L1.20255 2.58456L0 4.68344L8.78147 19.9521H10.9038L1.99124 4.45387C1.99005 4.45202 1.98938 4.44988 1.98931 4.44768C1.98925 4.44548 1.98978 4.44331 1.99086 4.44139C1.99195 4.43948 1.99353 4.4379 1.99544 4.43683C1.99736 4.43577 1.99953 4.43525 2.00171 4.43534" fill="#AE0018"/>
</svg>
