<svg width="60" height="60" viewBox="0 0 60 60" fill="none" xmlns="http://www.w3.org/2000/svg">
<rect width="60" height="60" rx="12" fill="url(#paint0_linear_120_59)"/>
<rect width="60" height="60" rx="12" fill="url(#paint1_linear_120_59)"/>
<path d="M42.544 22.8986C41.3279 22.048 40.0274 21.1412 38.755 20.2414C38.7269 20.2203 38.6987 20.1992 38.6636 20.1781C38.523 20.0727 38.3613 19.9602 38.1645 19.8969L38.1504 19.8899C34.7481 19.0674 31.2894 18.2238 27.9433 17.4084C24.9065 16.6703 21.8767 15.9322 18.8398 15.194C18.7625 15.1729 18.6852 15.1519 18.6008 15.1308C18.3267 15.0534 18.0103 14.9691 17.6729 15.0113C17.5745 15.0253 17.4901 15.0605 17.4128 15.1097L17.3285 15.18C17.1949 15.3065 17.1246 15.4682 17.0894 15.5596L17.0684 15.6158V15.9392L17.0824 15.9884C19.0015 21.3661 20.9698 26.8212 22.8679 32.1005C24.33 36.1637 25.8485 40.3745 27.3317 44.5079C27.4231 44.7891 27.6832 44.9719 28.0066 45H28.0769C28.3791 45 28.6463 44.8524 28.7798 44.6134L34.3474 36.4941C35.7041 34.5187 37.0608 32.5363 38.4176 30.561C38.9729 29.7526 39.5283 28.9371 40.0836 28.1287C40.9975 26.7931 41.9394 25.4152 42.8744 24.0726L42.9236 24.0023V23.9179C42.9447 23.6719 42.9517 23.1657 42.544 22.8986ZM36.0204 25.8581C34.7129 26.54 33.3773 27.243 32.0346 27.9389C32.8149 27.1024 33.6022 26.2588 34.3825 25.4223C35.3596 24.3678 36.3789 23.2782 37.3772 22.2097L37.3983 22.1886C37.4826 22.0761 37.5881 21.9707 37.7005 21.8582C37.7779 21.7809 37.8622 21.7035 37.9395 21.6122C38.4597 21.9707 38.987 22.3362 39.4931 22.6947C39.8587 22.9548 40.2312 23.2149 40.6108 23.475C39.0643 24.2624 37.5178 25.0708 36.0204 25.8581ZM32.6602 25.5207C31.655 26.6103 30.6146 27.728 29.5812 28.8317C27.5778 26.3994 25.5321 23.932 23.5497 21.5489C22.6499 20.4663 21.7431 19.3767 20.8433 18.2941L20.8363 18.2871C20.6324 18.0551 20.4356 17.8021 20.2388 17.563C20.1122 17.4014 19.9787 17.2467 19.8451 17.085C20.6605 17.2959 21.483 17.4928 22.2914 17.6826C23.0014 17.8513 23.7395 18.027 24.4636 18.2098C28.5408 19.201 32.6251 20.1922 36.7023 21.1833C35.3456 22.6315 33.9818 24.1007 32.6602 25.5207ZM29.1243 39.2216C29.2016 38.4835 29.286 37.7243 29.3563 36.9791C29.4195 36.3816 29.4828 35.77 29.5461 35.1865C29.6445 34.2516 29.7499 33.2815 29.8343 32.3325L29.8554 32.1638C29.9257 31.5592 29.996 30.9336 30.0382 30.3079C30.1155 30.2657 30.1998 30.2236 30.2912 30.1884C30.3967 30.1392 30.5021 30.097 30.6076 30.0338C32.2314 29.1832 33.8553 28.3326 35.4862 27.489C37.11 26.6454 38.7761 25.7737 40.4281 24.9091C38.9237 27.0883 37.4123 29.2886 35.9501 31.4327C34.6918 33.2674 33.3984 35.1584 32.1119 37.0213C31.6058 37.7664 31.0786 38.5256 30.5794 39.2567C30.0171 40.0722 29.4406 40.9087 28.8783 41.7452C28.9486 40.9017 29.0329 40.0511 29.1243 39.2216ZM19.3249 18.744C19.2335 18.491 19.1351 18.2309 19.0507 17.9848C20.9488 20.2765 22.8608 22.5823 24.7237 24.8177C25.6868 25.9776 26.6498 27.1305 27.6129 28.2974C27.8027 28.5153 27.9925 28.7473 28.1753 28.9723C28.4143 29.2605 28.6533 29.5628 28.9134 29.851C28.829 30.575 28.7588 31.3061 28.6814 32.0091C28.6322 32.5012 28.583 32.9933 28.5268 33.4924V33.4994C28.5057 33.8157 28.4635 34.1321 28.4284 34.4414C28.3791 34.8702 28.2667 35.8403 28.2667 35.8403L28.2596 35.8895C28.1331 37.3095 27.9785 38.7436 27.8308 40.1354C27.7676 40.7119 27.7113 41.3024 27.6481 41.8929C27.6129 41.7874 27.5707 41.682 27.5356 41.5836C27.4301 41.3024 27.3247 41.0071 27.2263 40.7189L26.4741 38.6311C24.091 32.0021 21.708 25.3801 19.3249 18.744Z" fill="url(#paint2_linear_120_59)"/>
<defs>
<linearGradient id="paint0_linear_120_59" x1="47.5714" y1="60" x2="77.9963" y2="48.774" gradientUnits="userSpaceOnUse">
<stop stop-color="#2F54DF"/>
<stop offset="1" stop-color="#B517B5"/>
</linearGradient>
<linearGradient id="paint1_linear_120_59" x1="0" y1="0" x2="63.5019" y2="3.96887" gradientUnits="userSpaceOnUse">
<stop stop-color="#3EB7F4"/>
<stop offset="0.497479" stop-color="#2E3ECE"/>
<stop offset="1" stop-color="#FF00FF" stop-opacity="0"/>
</linearGradient>
<linearGradient id="paint2_linear_120_59" x1="17.0684" y1="30" x2="42.9314" y2="30" gradientUnits="userSpaceOnUse">
<stop stop-color="white"/>
<stop offset="1" stop-color="white" stop-opacity="0"/>
</linearGradient>
</defs>
</svg>
