<svg width="180" height="60" viewBox="0 0 180 60" fill="none" xmlns="http://www.w3.org/2000/svg">
<rect x="0.131592" width="179.863" height="60" rx="12" fill="url(#paint0_linear_37_763)"/>
<rect x="0.131592" width="179.863" height="60" rx="12" fill="url(#paint1_linear_37_763)"/>
<path d="M55.6072 22.8986C54.3911 22.048 53.0906 21.1412 51.8182 20.2414C51.7901 20.2203 51.762 20.1992 51.7268 20.1781C51.5862 20.0727 51.4246 19.9602 51.2277 19.8969L51.2137 19.8899C47.8113 19.0674 44.3527 18.2238 41.0065 17.4084C37.9697 16.6703 34.9399 15.9322 31.9031 15.194C31.8257 15.1729 31.7484 15.1519 31.6641 15.1308C31.3899 15.0534 31.0736 14.9691 30.7361 15.0113C30.6377 15.0253 30.5534 15.0605 30.476 15.1097L30.3917 15.18C30.2581 15.3065 30.1878 15.4682 30.1527 15.5596L30.1316 15.6158V15.9392L30.1457 15.9884C32.0648 21.3661 34.0331 26.8212 35.9311 32.1005C37.3933 36.1637 38.9117 40.3745 40.395 44.5079C40.4863 44.7891 40.7464 44.9719 41.0698 45H41.1401C41.4424 45 41.7095 44.8524 41.8431 44.6134L47.4106 36.4941C48.7673 34.5187 50.1241 32.5363 51.4808 30.561C52.0361 29.7526 52.5915 28.9371 53.1468 28.1287C54.0607 26.7931 55.0027 25.4152 55.9376 24.0726L55.9868 24.0023V23.9179C56.0079 23.6719 56.015 23.1657 55.6072 22.8986V22.8986ZM49.0837 25.8581C47.7761 26.54 46.4405 27.243 45.0978 27.9389C45.8781 27.1024 46.6654 26.2588 47.4457 25.4223C48.4229 24.3678 49.4422 23.2782 50.4404 22.2097L50.4615 22.1886C50.5458 22.0761 50.6513 21.9707 50.7638 21.8582C50.8411 21.7809 50.9254 21.7035 51.0028 21.6122C51.523 21.9707 52.0502 22.3362 52.5563 22.6947C52.9219 22.9548 53.2945 23.2149 53.6741 23.475C52.1275 24.2624 50.581 25.0708 49.0837 25.8581ZM45.7235 25.5207C44.7182 26.6103 43.6778 27.728 42.6445 28.8317C40.641 26.3994 38.5954 23.932 36.613 21.5489C35.7132 20.4663 34.8063 19.3767 33.9065 18.2941L33.8995 18.2871C33.6957 18.0551 33.4988 17.8021 33.302 17.563C33.1755 17.4014 33.0419 17.2467 32.9083 17.085C33.7238 17.2959 34.5462 17.4928 35.3547 17.6826C36.0647 17.8513 36.8028 18.027 37.5268 18.2098C41.6041 19.201 45.6883 20.1922 49.7655 21.1833C48.4088 22.6315 47.0451 24.1007 45.7235 25.5207ZM42.1875 39.2216C42.2649 38.4835 42.3492 37.7243 42.4195 36.9791C42.4828 36.3816 42.546 35.77 42.6093 35.1865C42.7077 34.2516 42.8132 33.2815 42.8975 32.3325L42.9186 32.1638C42.9889 31.5592 43.0592 30.9336 43.1014 30.3079C43.1787 30.2657 43.2631 30.2236 43.3545 30.1884C43.4599 30.1392 43.5654 30.097 43.6708 30.0338C45.2947 29.1832 46.9185 28.3326 48.5494 27.489C50.1733 26.6454 51.8393 25.7737 53.4913 24.9091C51.9869 27.0883 50.4755 29.2886 49.0134 31.4327C47.7551 33.2674 46.4616 35.1584 45.1752 37.0213C44.669 37.7664 44.1418 38.5256 43.6427 39.2567C43.0803 40.0722 42.5039 40.9087 41.9415 41.7452C42.0118 40.9017 42.0961 40.0511 42.1875 39.2216V39.2216ZM32.3881 18.744C32.2967 18.491 32.1983 18.2309 32.114 17.9848C34.012 20.2765 35.9241 22.5823 37.7869 24.8177C38.75 25.9776 39.7131 27.1305 40.6761 28.2974C40.8659 28.5153 41.0557 28.7473 41.2385 28.9723C41.4775 29.2605 41.7165 29.5628 41.9766 29.851C41.8923 30.575 41.822 31.3061 41.7447 32.0091C41.6955 32.5012 41.6462 32.9933 41.59 33.4924V33.4994C41.5689 33.8157 41.5267 34.1321 41.4916 34.4414C41.4424 34.8702 41.3299 35.8403 41.3299 35.8403L41.3229 35.8895C41.1963 37.3095 41.0417 38.7436 40.8941 40.1354C40.8308 40.7119 40.7746 41.3024 40.7113 41.8929C40.6761 41.7874 40.634 41.682 40.5988 41.5836C40.4934 41.3024 40.3879 41.0071 40.2895 40.7189L39.5373 38.6311C37.1543 32.0021 34.7712 25.3801 32.3881 18.744Z" fill="url(#paint2_linear_37_763)"/>
<path d="M68.7996 20.05C68.7996 19.2 68.9866 18.4633 69.3606 17.84C69.746 17.2053 70.2446 16.718 70.8566 16.378C71.48 16.0267 72.1543 15.851 72.8796 15.851C73.4463 15.851 73.9563 15.9247 74.4096 16.072C74.863 16.2193 75.271 16.4233 75.6336 16.684C76.0076 16.9333 76.3306 17.2167 76.6026 17.534V15.154C76.104 14.746 75.5656 14.4343 74.9876 14.219C74.4096 14.0037 73.6843 13.896 72.8116 13.896C71.939 13.896 71.123 14.0433 70.3636 14.338C69.6156 14.6327 68.964 15.0577 68.4086 15.613C67.8533 16.1683 67.417 16.8257 67.0996 17.585C66.7936 18.333 66.6406 19.1547 66.6406 20.05C66.6406 20.9453 66.7936 21.7727 67.0996 22.532C67.417 23.28 67.8533 23.9317 68.4086 24.487C68.964 25.0423 69.6156 25.4673 70.3636 25.762C71.123 26.0567 71.939 26.204 72.8116 26.204C73.6843 26.204 74.4096 26.0963 74.9876 25.881C75.5656 25.6657 76.104 25.354 76.6026 24.946V22.566C76.3306 22.8833 76.0076 23.1723 75.6336 23.433C75.271 23.6823 74.863 23.8807 74.4096 24.028C73.9563 24.1753 73.4463 24.249 72.8796 24.249C72.1543 24.249 71.48 24.079 70.8566 23.739C70.2446 23.3877 69.746 22.8947 69.3606 22.26C68.9866 21.6253 68.7996 20.8887 68.7996 20.05ZM78.3265 22.09C78.3265 22.8833 78.5079 23.5917 78.8705 24.215C79.2445 24.827 79.7489 25.3087 80.3835 25.66C81.0182 26 81.7379 26.17 82.5425 26.17C83.3472 26.17 84.0612 26 84.6845 25.66C85.3192 25.3087 85.8235 24.827 86.1975 24.215C86.5715 23.5917 86.7585 22.8833 86.7585 22.09C86.7585 21.2853 86.5715 20.577 86.1975 19.965C85.8235 19.353 85.3192 18.877 84.6845 18.537C84.0612 18.1857 83.3472 18.01 82.5425 18.01C81.7379 18.01 81.0182 18.1857 80.3835 18.537C79.7489 18.877 79.2445 19.353 78.8705 19.965C78.5079 20.577 78.3265 21.2853 78.3265 22.09ZM80.2135 22.09C80.2135 21.6027 80.3155 21.172 80.5195 20.798C80.7235 20.424 81.0012 20.135 81.3525 19.931C81.7039 19.727 82.1005 19.625 82.5425 19.625C82.9732 19.625 83.3642 19.727 83.7155 19.931C84.0782 20.135 84.3615 20.424 84.5655 20.798C84.7695 21.172 84.8715 21.6027 84.8715 22.09C84.8715 22.5773 84.7695 23.008 84.5655 23.382C84.3615 23.7447 84.0782 24.0337 83.7155 24.249C83.3642 24.453 82.9732 24.555 82.5425 24.555C82.1005 24.555 81.7039 24.453 81.3525 24.249C81.0012 24.0337 80.7235 23.7447 80.5195 23.382C80.3155 23.008 80.2135 22.5773 80.2135 22.09ZM93.5326 21.24V26H95.4196V21.036C95.4196 20.0953 95.1873 19.3587 94.7226 18.826C94.258 18.282 93.5836 18.01 92.6996 18.01C92.1556 18.01 91.6853 18.1233 91.2886 18.35C90.9033 18.5767 90.586 18.9223 90.3366 19.387V18.18H88.5006V26H90.3366V21.24C90.3366 20.8887 90.4103 20.5827 90.5576 20.322C90.705 20.05 90.909 19.846 91.1696 19.71C91.4303 19.5627 91.7306 19.489 92.0706 19.489C92.5693 19.489 92.9376 19.6363 93.1756 19.931C93.4136 20.2257 93.5326 20.662 93.5326 21.24ZM102.796 21.24V26H104.683V21.036C104.683 20.0953 104.451 19.3587 103.986 18.826C103.522 18.282 102.847 18.01 101.963 18.01C101.419 18.01 100.949 18.1233 100.552 18.35C100.167 18.5767 99.8496 18.9223 99.6003 19.387V18.18H97.7643V26H99.6003V21.24C99.6003 20.8887 99.674 20.5827 99.8213 20.322C99.9686 20.05 100.173 19.846 100.433 19.71C100.694 19.5627 100.994 19.489 101.334 19.489C101.833 19.489 102.201 19.6363 102.439 19.931C102.677 20.2257 102.796 20.662 102.796 21.24ZM110.428 26.17C111.335 26.17 112.111 25.9943 112.757 25.643C113.403 25.2917 113.93 24.7647 114.338 24.062L112.757 23.416C112.508 23.8353 112.196 24.147 111.822 24.351C111.448 24.555 111.012 24.657 110.513 24.657C110.037 24.657 109.629 24.555 109.289 24.351C108.96 24.147 108.711 23.8523 108.541 23.467C108.371 23.0703 108.286 22.5887 108.286 22.022C108.297 21.4553 108.388 20.9793 108.558 20.594C108.728 20.2087 108.977 19.914 109.306 19.71C109.635 19.506 110.031 19.404 110.496 19.404C110.881 19.404 111.216 19.489 111.499 19.659C111.794 19.829 112.02 20.067 112.179 20.373C112.349 20.679 112.434 21.0417 112.434 21.461C112.434 21.5403 112.411 21.6423 112.366 21.767C112.332 21.8803 112.298 21.971 112.264 22.039L112.825 21.257H107.521V22.515H114.389C114.4 22.4697 114.406 22.396 114.406 22.294C114.417 22.192 114.423 22.0957 114.423 22.005C114.423 21.1663 114.264 20.4523 113.947 19.863C113.641 19.2623 113.199 18.8033 112.621 18.486C112.043 18.1687 111.34 18.01 110.513 18.01C109.686 18.01 108.966 18.18 108.354 18.52C107.742 18.8487 107.266 19.319 106.926 19.931C106.597 20.543 106.433 21.2627 106.433 22.09C106.433 22.906 106.597 23.62 106.926 24.232C107.255 24.844 107.719 25.32 108.32 25.66C108.932 26 109.635 26.17 110.428 26.17ZM117.399 22.09C117.399 21.6027 117.507 21.172 117.722 20.798C117.938 20.424 118.227 20.1293 118.589 19.914C118.963 19.6987 119.377 19.591 119.83 19.591C120.193 19.591 120.544 19.6477 120.884 19.761C121.224 19.8743 121.525 20.033 121.785 20.237C122.057 20.4297 122.256 20.6563 122.38 20.917V18.894C122.108 18.622 121.74 18.4067 121.275 18.248C120.811 18.0893 120.301 18.01 119.745 18.01C118.941 18.01 118.215 18.1857 117.569 18.537C116.935 18.877 116.43 19.353 116.056 19.965C115.694 20.577 115.512 21.2853 115.512 22.09C115.512 22.8833 115.694 23.5917 116.056 24.215C116.43 24.827 116.935 25.3087 117.569 25.66C118.215 26 118.941 26.17 119.745 26.17C120.301 26.17 120.811 26.0907 121.275 25.932C121.74 25.7733 122.108 25.558 122.38 25.286V23.263C122.256 23.5123 122.063 23.739 121.802 23.943C121.542 24.147 121.241 24.3057 120.901 24.419C120.561 24.5323 120.204 24.589 119.83 24.589C119.377 24.589 118.963 24.4813 118.589 24.266C118.227 24.0507 117.938 23.7617 117.722 23.399C117.507 23.025 117.399 22.5887 117.399 22.09ZM123.322 18.18V19.795H127.759V18.18H123.322ZM124.631 15.46V26H126.45V15.46H124.631ZM66.1306 34.953H69.2586V45H71.2816V34.953H74.4266V33.1H66.1306V34.953ZM76.1917 37.18H74.3727V45H76.1917V37.18ZM78.5207 39.135L79.4047 37.588C79.2347 37.3727 79.025 37.2253 78.7757 37.146C78.5264 37.0553 78.26 37.01 77.9767 37.01C77.58 37.01 77.1947 37.1517 76.8207 37.435C76.458 37.7183 76.1577 38.1037 75.9197 38.591C75.693 39.067 75.5797 39.6167 75.5797 40.24L76.1917 40.597C76.1917 40.223 76.2314 39.9 76.3107 39.628C76.4014 39.3447 76.543 39.1237 76.7357 38.965C76.9284 38.8063 77.1777 38.727 77.4837 38.727C77.7104 38.727 77.8974 38.761 78.0447 38.829C78.192 38.897 78.3507 38.999 78.5207 39.135ZM79.8207 41.09C79.8207 41.8833 80.002 42.5917 80.3647 43.215C80.7387 43.827 81.243 44.3087 81.8777 44.66C82.5123 45 83.232 45.17 84.0367 45.17C84.8413 45.17 85.5553 45 86.1787 44.66C86.8133 44.3087 87.3177 43.827 87.6917 43.215C88.0657 42.5917 88.2527 41.8833 88.2527 41.09C88.2527 40.2853 88.0657 39.577 87.6917 38.965C87.3177 38.353 86.8133 37.877 86.1787 37.537C85.5553 37.1857 84.8413 37.01 84.0367 37.01C83.232 37.01 82.5123 37.1857 81.8777 37.537C81.243 37.877 80.7387 38.353 80.3647 38.965C80.002 39.577 79.8207 40.2853 79.8207 41.09ZM81.7077 41.09C81.7077 40.6027 81.8097 40.172 82.0137 39.798C82.2177 39.424 82.4953 39.135 82.8467 38.931C83.198 38.727 83.5947 38.625 84.0367 38.625C84.4673 38.625 84.8583 38.727 85.2097 38.931C85.5723 39.135 85.8557 39.424 86.0597 39.798C86.2637 40.172 86.3657 40.6027 86.3657 41.09C86.3657 41.5773 86.2637 42.008 86.0597 42.382C85.8557 42.7447 85.5723 43.0337 85.2097 43.249C84.8583 43.453 84.4673 43.555 84.0367 43.555C83.5947 43.555 83.198 43.453 82.8467 43.249C82.4953 43.0337 82.2177 42.7447 82.0137 42.382C81.8097 42.008 81.7077 41.5773 81.7077 41.09ZM95.0268 40.24V45H96.9138V40.036C96.9138 39.0953 96.6814 38.3587 96.2168 37.826C95.7521 37.282 95.0778 37.01 94.1938 37.01C93.6498 37.01 93.1794 37.1233 92.7828 37.35C92.3974 37.5767 92.0801 37.9223 91.8308 38.387V37.18H89.9948V45H91.8308V40.24C91.8308 39.8887 91.9044 39.5827 92.0518 39.322C92.1991 39.05 92.4031 38.846 92.6638 38.71C92.9244 38.5627 93.2248 38.489 93.5648 38.489C94.0634 38.489 94.4318 38.6363 94.6698 38.931C94.9078 39.2257 95.0268 39.662 95.0268 40.24ZM115.269 41.073L111.852 32.505L108.469 41.073L105.647 33.1H103.318L108.18 45.629L111.852 37.214L115.524 45.629L120.386 33.1H118.057L115.269 41.073ZM121.15 42.569C121.15 42.3197 121.206 42.11 121.32 41.94C121.444 41.77 121.626 41.6397 121.864 41.549C122.102 41.447 122.413 41.396 122.799 41.396C123.241 41.396 123.66 41.4527 124.057 41.566C124.453 41.6793 124.827 41.8607 125.179 42.11V41.175C125.077 41.0503 124.901 40.9143 124.652 40.767C124.402 40.6083 124.085 40.4723 123.7 40.359C123.326 40.2457 122.878 40.189 122.357 40.189C121.382 40.189 120.628 40.4157 120.096 40.869C119.563 41.311 119.297 41.9117 119.297 42.671C119.297 43.2037 119.421 43.657 119.671 44.031C119.92 44.405 120.254 44.6883 120.674 44.881C121.093 45.0737 121.546 45.17 122.034 45.17C122.487 45.17 122.929 45.0907 123.36 44.932C123.802 44.762 124.164 44.5127 124.448 44.184C124.742 43.844 124.89 43.4247 124.89 42.926L124.618 41.906C124.618 42.2913 124.521 42.6313 124.329 42.926C124.147 43.2093 123.904 43.4247 123.598 43.572C123.303 43.7193 122.974 43.793 122.612 43.793C122.328 43.793 122.073 43.7477 121.847 43.657C121.631 43.5663 121.461 43.4303 121.337 43.249C121.212 43.0563 121.15 42.8297 121.15 42.569ZM120.572 39.22C120.685 39.1407 120.855 39.0443 121.082 38.931C121.32 38.8063 121.597 38.7043 121.915 38.625C122.243 38.5343 122.589 38.489 122.952 38.489C123.19 38.489 123.411 38.5117 123.615 38.557C123.819 38.6023 123.994 38.676 124.142 38.778C124.289 38.88 124.402 39.0103 124.482 39.169C124.572 39.3277 124.618 39.5317 124.618 39.781V45H126.42V39.424C126.42 38.9027 126.278 38.4663 125.995 38.115C125.711 37.7523 125.32 37.4747 124.822 37.282C124.334 37.0893 123.768 36.993 123.122 36.993C122.396 36.993 121.75 37.095 121.184 37.299C120.628 37.503 120.175 37.7127 119.824 37.928L120.572 39.22ZM128.56 31.74V45H130.396V31.74H128.56ZM132.744 31.74V45H134.58V31.74H132.744ZM140.327 45.17C141.234 45.17 142.01 44.9943 142.656 44.643C143.302 44.2917 143.829 43.7647 144.237 43.062L142.656 42.416C142.407 42.8353 142.095 43.147 141.721 43.351C141.347 43.555 140.911 43.657 140.412 43.657C139.936 43.657 139.528 43.555 139.188 43.351C138.86 43.147 138.61 42.8523 138.44 42.467C138.27 42.0703 138.185 41.5887 138.185 41.022C138.197 40.4553 138.287 39.9793 138.457 39.594C138.627 39.2087 138.877 38.914 139.205 38.71C139.534 38.506 139.931 38.404 140.395 38.404C140.781 38.404 141.115 38.489 141.398 38.659C141.693 38.829 141.92 39.067 142.078 39.373C142.248 39.679 142.333 40.0417 142.333 40.461C142.333 40.5403 142.311 40.6423 142.265 40.767C142.231 40.8803 142.197 40.971 142.163 41.039L142.724 40.257H137.42V41.515H144.288C144.3 41.4697 144.305 41.396 144.305 41.294C144.317 41.192 144.322 41.0957 144.322 41.005C144.322 40.1663 144.164 39.4523 143.846 38.863C143.54 38.2623 143.098 37.8033 142.52 37.486C141.942 37.1687 141.24 37.01 140.412 37.01C139.585 37.01 138.865 37.18 138.253 37.52C137.641 37.8487 137.165 38.319 136.825 38.931C136.497 39.543 136.332 40.2627 136.332 41.09C136.332 41.906 136.497 42.62 136.825 43.232C137.154 43.844 137.619 44.32 138.219 44.66C138.831 45 139.534 45.17 140.327 45.17ZM144.987 37.18V38.795H149.424V37.18H144.987ZM146.296 34.46V45H148.115V34.46H146.296Z" fill="white"/>
<defs>
<linearGradient id="paint0_linear_37_763" x1="142.737" y1="60" x2="189.342" y2="8.45119" gradientUnits="userSpaceOnUse">
<stop stop-color="#2F54DF"/>
<stop offset="1" stop-color="#B517B5"/>
</linearGradient>
<linearGradient id="paint1_linear_37_763" x1="0.131592" y1="0" x2="184.755" y2="34.5906" gradientUnits="userSpaceOnUse">
<stop stop-color="#3EB7F4"/>
<stop offset="0.497479" stop-color="#2E3ECE"/>
<stop offset="1" stop-color="#FF00FF" stop-opacity="0"/>
</linearGradient>
<linearGradient id="paint2_linear_37_763" x1="30.1316" y1="30" x2="55.9946" y2="30" gradientUnits="userSpaceOnUse">
<stop stop-color="white"/>
<stop offset="1" stop-color="white" stop-opacity="0"/>
</linearGradient>
</defs>
</svg>
